<?xml version="1.0" encoding="utf-8"?>
<!-- Generator: Adobe Illustrator 19.1.0, SVG Export Plug-In . SVG Version: 6.00 Build 0)  -->
<svg version="1.1" id="Layer_1" xmlns="http://www.w3.org/2000/svg" xmlns:xlink="http://www.w3.org/1999/xlink" x="0px" y="0px"
	 viewBox="0 0 45.5 14.4" style="enable-background:new 0 0 45.5 14.4;" xml:space="preserve">
<style type="text/css">
	.st0{fill:#231F20;}
</style>
<g>
	<path class="st0" d="M45.3,11.3c-0.1,0-0.2,0-0.3,0c-0.1,0-0.2,0-0.3,0c-0.7,0.1-1.5,0.1-2.1-0.3c-0.4-0.3-0.7-0.6-0.9-1
		c-0.1-0.1-0.1-0.3-0.1-0.4c0-0.1,0-0.2,0-0.3c0,0,0-0.1,0-0.1c0-0.1-0.1-0.2-0.1-0.3c-0.1-0.1-0.2,0-0.3,0c0,0-0.1,0.1-0.1,0.1
		c-0.4,0.3-0.8,0.5-1.4,0.7c-0.1,0-0.2,0.1-0.4,0.1c0,0,0,0,0,0c0,0,0,0,0,0c0-0.2,0-0.3,0-0.4c-0.1-0.4-0.3-0.8-0.8-1
		c-0.1,0-0.2-0.1-0.3,0c-0.5,0.1-0.8,0.4-1,0.8c0,0,0,0.1,0,0.1c0,0,0,0.1,0,0.1C37,9.6,37,9.7,36.8,9.6c-0.5-0.1-1-0.1-1.5-0.1
		c-0.1,0-0.1,0-0.1,0c0,0,0-0.1,0-0.1c0-0.1,0-0.2,0-0.3c0-0.1,0.1-0.3,0.1-0.4c0.1-0.2,0.1-0.5,0.2-0.8l0.1-1
		c0-0.4,0.1-0.7,0.2-1.1c0-0.2,0-0.3,0-0.5c0-0.1-0.1-0.3-0.3-0.3c-0.2,0-0.3,0-0.5,0.2c-0.4,0.5-0.6,1.1-0.7,1.7
		c-0.1,0.7-0.1,1.4,0.1,2c0,0.1,0,0.1,0,0.2c0,0.1,0,0.2,0.1,0.2c0,0-0.1,0-0.1,0c-0.5-0.1-0.9-0.2-1.4-0.4l0,0
		c-0.1,0-0.1-0.1-0.2-0.1c-0.1,0-0.2,0-0.2,0c0,0-0.1,0.1-0.1,0.2c0,0.2,0.1,0.3,0.2,0.3c0.1,0.1,0.3,0.2,0.5,0.2
		c0.3,0.1,0.7,0.2,1.1,0.3c0,0,0,0,0.1,0c0,0,0,0,0,0c-0.4,0.4-0.8,0.6-1.3,0.7c-0.2,0-0.4,0-0.6-0.2c-0.1-0.2-0.3-0.4-0.2-0.6
		c0-0.2-0.1-0.3-0.2-0.4c-0.2-0.1-0.4,0-0.4,0.1l-0.1,0.1c-0.2,0.2-0.5,0.3-0.7,0.4c-0.1,0-0.1,0.1-0.2,0.1c-0.1,0-0.2,0-0.2-0.1
		c0,0,0-0.1,0-0.2l0,0c0,0,0-0.1,0-0.1c0.1-0.1,0.1-0.2,0.1-0.2c0,0,0-0.1,0-0.1c0.4-0.8,0-1.4-0.3-1.9c-0.2-0.3-0.5-0.5-0.9-0.7
		c-0.1,0-0.1-0.1-0.2-0.1c-0.3-0.2-0.8-0.5-1.3-0.5c-0.1,0-0.2,0-0.2-0.1l0,0c0,0-0.1,0-0.1,0c0,0,0-0.1,0-0.1
		c0.1-0.2,0.2-0.5,0.2-0.9c0-0.4,0.1-0.9,0-1.4l0-0.1c-0.1-0.4-0.2-0.8-0.4-1.2c-0.3-0.5-0.7-0.8-1.2-0.8c-0.3,0-0.5,0-0.6,0.3
		L25,2.6c-0.2,0.5-0.4,1-0.6,1.5c-0.3,0.9-0.6,1.8-0.9,2.7c-0.1,0.2-0.1,0.4-0.1,0.6c0,0.2-0.1,0.4-0.1,0.6
		c-0.1,0.3-0.1,0.6-0.2,0.9c0,0.2,0,0.3-0.1,0.5c-0.1,0.3-0.1,0.6-0.1,1c-0.1,0.4-0.1,0.9-0.2,1.3C22.4,13,22,13.8,21.9,14
		c0,0,0,0,0,0c0,0.1-0.1,0.2,0,0.3c0.1,0.1,0.2,0.1,0.3,0.1c0,0,0.1,0,0.1,0c0.1,0,0.2-0.1,0.3-0.2l0-0.1c0,0,0-0.1,0.1-0.1
		c0.4-0.8,0.7-1.6,0.9-2.4c0-0.3,0.1-0.5,0.1-0.8c0-0.2,0-0.4,0.1-0.5l0-0.2c0.1-0.8,0.2-1.6,0.4-2.3C24.1,7,24.2,6.5,24.4,6
		c0.2-0.9,0.6-1.7,0.9-2.5l0.1-0.3c0.1-0.3,0.2-0.6,0.3-0.9c0-0.1,0.1-0.2,0.1-0.2c0.1,0,0.1,0,0.2,0c0.1,0,0.1,0.1,0.2,0.1l0,0
		c0.3,0.3,0.5,0.7,0.6,1C27,3.9,27.1,4.5,27,5.2c0,0.3-0.1,0.5-0.1,0.7c0,0.1-0.1,0.2-0.2,0.2c-0.5,0.1-1,0.3-1.5,0.7
		c-0.3,0.2-0.5,0.5-0.6,0.9c-0.1,0.2,0,0.4,0.1,0.5c0.1,0.1,0.3,0.2,0.5,0.1c0.4-0.1,0.8-0.3,1.1-0.5c0,0,0.1-0.1,0.1-0.1l0,0
		c0.2-0.3,0.4-0.5,0.6-0.9c0.1-0.2,0.1-0.2,0.3-0.1c0.6,0.1,1,0.4,1.5,0.6c0.5,0.3,0.9,0.7,1.1,1.1C30,8.4,30,8.6,30,8.8
		c0,0,0,0.1,0,0.1c-0.2,0.1-0.2,0.3-0.3,0.4l0,0c0,0.1-0.1,0.2-0.2,0.2c-0.2,0.1-0.5,0.2-0.8,0.3l-0.1,0c-0.5,0.1-0.8-0.1-0.9-0.5
		c0-0.1-0.1-0.1-0.1-0.2c-0.1,0-0.1-0.1-0.1-0.1c0,0,0-0.1-0.1-0.1c-0.1,0-0.1,0-0.2,0c-0.1,0.1-0.2,0.1-0.2,0.4
		c0,0.3,0.2,0.7,0.5,0.9c0.3,0.2,0.6,0.3,0.9,0.3c-0.1,0-0.1,0.1-0.2,0.1c-0.6,0.2-1.3,0.4-2,0.4l-0.1,0c-0.4,0-0.7,0-1.1-0.1
		c-0.4-0.1-0.8-0.2-1-0.5c0,0,0,0,0,0c0-0.1-0.1-0.1-0.2-0.1c0,0-0.1,0-0.1,0.1c-0.1,0.1-0.1,0.2,0.1,0.4c0,0,0,0,0,0c0,0,0,0,0,0
		c0.3,0.4,0.8,0.7,1.5,0.8c1,0.1,1.8,0,2.6-0.2c0.5-0.2,1.1-0.4,1.5-0.8c0,0,0.1,0,0.1-0.1c0,0,0.1,0,0.1-0.1c0,0,0,0,0,0
		c0,0,0,0,0.1,0c0.3,0.3,0.6,0.3,1,0.2l0,0c0.2-0.1,0.4-0.2,0.6-0.3c0,0,0.1,0,0.1-0.1c0,0,0.1,0,0.1,0c0,0,0.1,0.1,0.1,0.2
		c0.3,0.7,1,1,1.8,0.7c0.4-0.1,0.8-0.4,1.2-0.7c0,0,0.1-0.1,0.1-0.1c0,0,0,0,0,0c0.1,0.2,0.2,0.4,0.3,0.6c0.2,0.4,0.4,0.8,0.7,1.2
		c0,0.1,0.1,0.2,0.2,0.2c0,0,0.2,0.1,0.3,0c0.1-0.1,0.1-0.2,0.1-0.3c0-0.1-0.1-0.1-0.1-0.2c-0.1-0.1-0.2-0.2-0.2-0.4l0-0.1
		c-0.1-0.3-0.3-0.5-0.4-0.8c0-0.1-0.1-0.2-0.1-0.2c0-0.1-0.1-0.2-0.1-0.2c0.1,0,0.1,0,0.2,0c0.1,0,0.1,0,0.2,0c0.4,0,0.7,0,1.1,0.1
		c0,0,0.1,0,0.1,0c0,0,0,0.1,0,0.2c0,0.2,0.2,0.4,0.3,0.4c0.1,0,0.2,0,0.3-0.1c0.1,0,0.1-0.1,0.1-0.2l0-0.1c0-0.2,0-0.4,0-0.6
		c-0.1-0.4,0.1-0.8,0.4-0.9c0.2-0.1,0.3,0,0.3,0l0,0c0.1,0.1,0.2,0.3,0.2,0.5c0,0.1,0,0.1,0,0.2c0,0.1,0,0.2,0,0.3
		c0,0.2,0.1,0.3,0.2,0.4c0.2,0.1,0.4,0.1,0.6,0.1c0.3-0.1,0.6-0.1,0.9-0.3c0.1-0.1,0.2-0.1,0.4-0.2c0.1,0,0.2-0.1,0.3-0.2
		c0,0,0,0,0,0c0,0.2,0.1,0.4,0.2,0.6l0,0.1c0.2,0.2,0.3,0.5,0.6,0.7c0.1,0.1,0.1,0.1,0.2,0.1c0.1,0,0.1,0.1,0.2,0.1
		c0.4,0.3,0.8,0.4,1.4,0.5c0.6,0.1,1.2-0.1,1.8-0.3c0,0,0.1-0.1,0.1-0.1C45.5,11.3,45.4,11.3,45.3,11.3z M25.7,7.5
		c-0.1,0-0.2,0.1-0.3,0.2c-0.1,0-0.2,0.1-0.3,0.1c0,0,0,0,0,0c0,0,0,0,0,0c0-0.1,0-0.1,0-0.1c0.3-0.5,0.8-0.8,1.4-1
		C26.3,7,26.1,7.3,25.7,7.5z M35,7.8c0,0.2-0.1,0.4-0.2,0.6c0-0.1,0-0.1,0-0.2c0-0.5-0.1-1.1,0.1-1.6c0.1-0.3,0.2-0.5,0.3-0.7
		c0,0.3-0.1,0.6-0.1,0.9C35.1,7.1,35,7.4,35,7.8z"/>
	<path class="st0" d="M10.5,12.7c0-0.5-0.1-1.1-0.2-1.6c0-0.1-0.1-0.2-0.1-0.4c-0.1-0.3-0.2-0.7-0.2-1c0-0.2,0-0.4-0.1-0.7
		c0-0.2-0.1-0.5-0.1-0.7c0-0.3-0.1-0.6-0.1-0.9C9.6,7,9.6,6.5,9.6,6c0-0.5-0.1-1-0.1-1.4C9.4,4.2,9.4,3.7,9.3,3.1c0-0.8,0-1.6,0-2.3
		l0-0.4c0-0.1,0-0.2-0.1-0.3C9,0,8.9,0,8.9,0C8.8,0,8.7,0.1,8.7,0.2C8.6,0.5,8.4,0.8,8.2,1.1c0,0.1-0.1,0.2-0.1,0.2L8,1.6
		C7.6,2.2,7.3,2.8,7,3.4C6.9,3.6,6.8,3.8,6.8,4L6.6,4.2c0,0.1,0,0.1-0.1,0C6,4.1,5.5,3.9,5.1,3.8c-0.3-0.1-0.6-0.2-1-0.2
		c-0.4,0-0.9,0-1.4,0c-0.5,0-1,0.1-1.4,0.3C0.6,4.2,0.2,4.8,0,5.6C0,5.9,0,6.2,0.1,6.5l0,0.1c0,0.2,0.1,0.5,0.4,0.7c0,0,0.1,0,0.1,0
		c0,0,0,0,0.1-0.1c0-0.2,0-0.4-0.1-0.5C0.4,5.9,0.5,5.4,0.8,4.9C1.1,4.5,1.5,4.3,2,4.2c0.3-0.1,0.8-0.1,1.2-0.1l0.1,0
		c0.5,0,1,0,1.4,0.2c0.1,0,0.2,0.1,0.2,0.1c0.5,0.1,0.9,0.3,1.3,0.5c0,0,0,0,0,0c0,0,0,0,0,0.1C6.3,5,6.2,5.2,6.2,5.3
		c0,0.1-0.1,0.2-0.1,0.3C6,5.8,5.9,6,5.9,6.2C5.7,6.6,5.5,7.1,5.3,7.5C5.2,7.7,5.2,7.8,5.1,8C5,8.2,4.9,8.4,4.8,8.7
		C4.7,8.8,4.6,9,4.5,9.2c-0.2,0.4-0.4,0.9-0.6,1.3c-0.1,0.2-0.1,0.3-0.2,0.5l0,0.1c0,0,0,0.1,0,0.1c0,0,0.1,0,0.1,0
		c0.3-0.1,0.5-0.2,0.6-0.5c0-0.1,0.1-0.1,0.1-0.2l0-0.1c0.1-0.2,0.3-0.5,0.4-0.7C5,9.4,5.2,9,5.5,8.5c0.4-0.7,0.7-1.4,0.9-2.1
		c0.1-0.3,0.3-0.7,0.4-1.1c0,0,0-0.1,0.1-0.1c0,0,0.1,0.1,0.1,0.1c0.5,0.4,0.8,0.8,1.1,1.2c0.1,0.2,0.2,0.4,0.4,0.6
		c0.1,0.1,0.1,0.2,0.2,0.4C8.8,7.8,9,8.2,9.1,8.6c0.1,0.6,0.2,1.2,0.3,1.7c0,0.2,0,0.3,0.1,0.5c0,0.2,0,0.4,0.1,0.6
		c0.1,0.5,0.2,1,0.2,1.5l0.1,0.5c0,0.1,0,0.2,0.1,0.3c0.1,0.2,0.2,0.3,0.3,0.3c0,0,0,0,0,0c0.2,0,0.3-0.1,0.3-0.2
		c0.1-0.2,0.1-0.3,0-0.5C10.5,13,10.5,12.9,10.5,12.7z M8.4,5.9L8.4,5.9C8,5.5,7.7,5.1,7.3,4.8c0,0-0.1,0-0.1-0.1c0,0,0,0-0.1-0.1
		c0,0,0-0.1,0-0.1c0-0.1,0.1-0.2,0.1-0.3c0.1-0.2,0.2-0.3,0.2-0.5c0.2-0.3,0.3-0.7,0.5-1c0.1-0.3,0.3-0.6,0.4-0.9
		c0.1-0.1,0.2-0.3,0.3-0.4c0,1.3,0.1,2.5,0.2,3.8C8.9,5.8,9,6.4,9,6.9C8.8,6.6,8.6,6.2,8.4,5.9z"/>
	<path class="st0" d="M22,7.8c0-0.1-0.1-0.2-0.3-0.2c-0.1,0-0.2,0-0.3,0.1C21,7.7,20.6,8,20.3,8.2c-0.4,0.3-0.8,0.7-1.2,1.3
		c-0.3,0.3-0.5,0.7-0.7,1.1l-0.1,0.1c0,0,0,0,0,0c0,0,0,0,0,0c-0.2-0.1-0.3-0.2-0.5-0.3c-0.1-0.1-0.1-0.2-0.1-0.4
		c0-0.1,0.1-0.2,0.1-0.3c0-0.1,0.1-0.1,0.1-0.2c0.1-0.1,0.1-0.3,0.1-0.4l0,0c0-0.1-0.1-0.2-0.2-0.2c-0.2,0-0.3,0-0.4,0.2l-0.1,0.1
		c-0.1,0.2-0.3,0.5-0.3,0.8c0,0.1,0,0.2-0.1,0.2c-0.4,0.3-0.7,0.4-1.1,0.5c0,0,0,0,0,0c0,0,0,0,0,0c0.4-0.5,0.7-1.1,0.9-1.8
		c0.1-0.3,0.1-0.6-0.1-1c-0.1-0.2-0.3-0.4-0.5-0.4c-0.2,0-0.4,0-0.6,0.2l-0.1,0.1c-0.1,0.1-0.2,0.2-0.4,0.3c0-0.1,0-0.1,0.1-0.2
		c0.1-0.4,0.2-0.8,0.2-1.2c0-0.3,0-0.7-0.3-1C15,5.4,15,5.3,14.9,5.3c0,0,0,0-0.1-0.1c-0.4-0.3-0.8-0.4-1.3-0.3
		c-0.4,0.1-0.7,0.4-1,0.7c-0.3,0.4-0.5,0.9-0.6,1.4c-0.1,0.4-0.1,0.8-0.2,1.3c-0.2,1.1,0,1.9,0.4,2.7l0,0.1c0,0.1,0.1,0.2,0.1,0.2
		c0,0,0,0.1-0.1,0.1c0,0-0.1,0.1-0.1,0.1c0,0,0,0-0.1,0.1c-0.2,0.2-0.5,0.4-0.8,0.5c-0.1,0-0.1,0-0.2,0c0,0-0.1,0-0.1,0
		c-0.2,0-0.3,0-0.3,0.2c0,0.1,0,0.2,0,0.3s0.1,0.1,0.3,0.2c0.1,0,0.1,0,0.2,0c0.1,0,0.3,0,0.4-0.1c0.4-0.2,0.8-0.4,1.2-0.8
		c0.1-0.1,0.1-0.1,0.3,0c0.2,0.2,0.5,0.2,0.8,0.1c0.3-0.1,0.6-0.2,0.9-0.4c0.1-0.1,0.3-0.2,0.4-0.3c0.1-0.1,0.2-0.2,0.4-0.3
		c0.1,0,0.1,0,0.2,0c0.3,0,0.7,0.1,1-0.1l0.1-0.1c0.2-0.1,0.4-0.2,0.6-0.4c0,0,0,0,0,0c0,0,0,0,0,0.1c0.2,0.3,0.4,0.5,0.8,0.6
		c0,0,0,0,0,0c0,0,0,0,0,0c0,0.1-0.1,0.2-0.1,0.2c0,0.1-0.1,0.2-0.1,0.3c-0.1,0.1-0.1,0.2-0.1,0.2c0,0.1,0.1,0.2,0.2,0.2
		c0.1,0,0.3,0,0.4-0.2c0-0.1,0.1-0.1,0.1-0.2c0.2-0.4,0.4-0.5,0.7-0.6c0.6-0.1,1.1-0.3,1.6-0.7c0.1,0,0.1-0.1,0.1-0.1l0,0
		c0,0,0-0.1,0-0.1c0,0,0-0.1,0-0.1c0,0-0.1-0.1-0.2,0c0,0-0.1,0-0.1,0.1c-0.3,0.2-0.6,0.3-0.9,0.4c-0.2,0.1-0.5,0.1-0.8,0.1
		c0-0.1,0.1-0.1,0.1-0.2c0.1-0.1,0.2-0.3,0.3-0.4c0.3-0.4,0.7-0.8,1-1.1c0.1-0.1,0.3-0.2,0.4-0.3c0.1-0.1,0.2-0.1,0.3-0.2
		C21.2,8.2,21.5,8,21.8,8c0.1,0,0.1,0,0.2-0.1C22,7.9,22,7.8,22,7.8z M14.8,10.8c-0.3,0.3-0.7,0.4-1,0.6l0,0c-0.2,0.1-0.4,0.1-0.6,0
		c0,0,0,0,0,0c0,0,0,0,0,0c0.3-0.3,0.6-0.6,0.8-1c0.1-0.1,0.1-0.2,0.2-0.3c0.1-0.2,0.2-0.4,0.4-0.6c0-0.1,0.1-0.1,0.1-0.2
		c0,0,0,0.1,0,0.1c0,0.5,0.1,0.9,0.3,1.2C14.8,10.7,14.8,10.7,14.8,10.8z M14.7,7.3c-0.3,0.9-0.6,1.7-1,2.4
		c-0.3,0.5-0.6,0.9-0.9,1.2c0,0-0.1,0.1-0.1,0.1l0-0.1c-0.1-0.1-0.1-0.2-0.1-0.3c-0.2-0.5-0.3-0.9-0.3-1.3c0-0.7,0.1-1.5,0.3-2.4
		c0.1-0.5,0.4-1,0.8-1.3c0.1-0.1,0.3-0.2,0.5-0.2c0.2,0,0.4,0.1,0.6,0.2c0.3,0.3,0.4,0.4,0.4,0.8C14.9,6.7,14.8,7,14.7,7.3z
		 M15.5,9.9c-0.1,0.1-0.1,0.2-0.2,0.3c-0.1-0.1-0.1-0.2-0.1-0.3c-0.1-0.5,0-1.1,0.2-1.6c0.1-0.1,0.2-0.3,0.4-0.4
		c0.1-0.1,0.1-0.1,0.2-0.1c0,0,0,0,0,0C16,7.8,16,7.9,16.1,8c0.1,0.1,0.1,0.3,0,0.4C16.1,8.9,15.9,9.4,15.5,9.9L15.5,9.9z"/>
</g>
</svg>
