<?xml version="1.0" encoding="utf-8"?>
<!-- Generator: Adobe Illustrator 18.1.1, SVG Export Plug-In . SVG Version: 6.00 Build 0)  -->
<svg version="1.1" id="Layer_1" xmlns="http://www.w3.org/2000/svg" xmlns:xlink="http://www.w3.org/1999/xlink" x="0px" y="0px"
	 viewBox="-1.7 196.6 613.2 397.6" enable-background="new -1.7 196.6 613.2 397.6" xml:space="preserve">
<g>
	<path id="XMLID_2_" d="M610.8,197.3v396.1H-1V197.3H610.8 M611.5,196.6h-0.7H-1h-0.7v0.7v396.1v0.7H-1h611.8h0.7v-0.7V197.3V196.6
		L611.5,196.6z"/>
	<rect x="13" y="336.4" width="586" height="4.4"/>
	<rect x="13" y="380.9" width="586" height="0.7"/>
	<rect x="12.7" y="415.1" width="586.3" height="2.8"/>
	<g>
		<path d="M18.1,388.5h4.8c2,0,4,1,4,4c0,1.4-0.9,2.9-2.3,3.3v0c1.9,0.5,2.8,1.9,2.8,3.9c0,3.2-1.8,4.5-5.1,4.5h-4.3V388.5z
			 M20,395.3h2.2c0.8,0,2.7-0.2,2.7-2.6c0-1.6-0.8-2.6-2.7-2.6H20V395.3z M20,402.6h2.6c2,0,2.7-1.4,2.7-2.9c0-2.2-1.4-3-3.1-3H20
			V402.6z"/>
		<path d="M35.7,392.4c0-1.3-0.7-2.3-2-2.3c-2.6,0-2.7,3.9-2.7,4.7v1.2h0c0.3-0.6,1.3-1.7,3-1.7c2.7,0,4.1,2,4.1,4.9
			c0,3-1.5,5.3-4.4,5.3c-4.3,0-4.6-4.1-4.6-7.4c0-3.6,0.2-8.5,4.7-8.5c3.6,0,3.9,3,3.9,3.7H35.7z M33.5,403.1c1.9,0,2.5-2,2.5-3.6
			c0-1.6-0.4-3.6-2.5-3.6s-2.5,2-2.5,3.6C31.1,401.1,31.6,403.1,33.5,403.1z"/>
		<path d="M49.2,388.5c-1.8,2.9-2.4,6.5-2.4,9.9c0,3.6,0.8,6.7,2.4,9.9h-1.1c-2.1-2.8-3.2-6.4-3.2-9.9c0-3.5,1.1-7,3.2-9.9H49.2z"/>
		<path d="M50.2,396c0-2.7,1.1-3.9,3.9-3.9c3.6,0,3.6,2.2,3.6,3.4v6.6c0,0.5,0,0.9,0.6,0.9c0.2,0,0.4,0,0.4-0.1v1.3
			c-0.1,0-0.6,0.1-1.1,0.1c-0.7,0-1.6,0-1.7-1.5h0c-0.6,1.1-1.7,1.7-2.8,1.7c-2.2,0-3.2-1.3-3.2-3.4c0-1.6,0.7-2.8,2.2-3.2l2.5-0.7
			c1.3-0.4,1.3-0.8,1.3-1.8c0-1.1-0.7-1.7-1.9-1.7c-2,0-2,1.9-2,2.3v0.1H50.2z M55.9,397.8c-0.7,0.7-2.3,0.9-3.1,1.4
			c-0.6,0.4-0.9,0.8-0.9,1.9c0,1.2,0.4,2,1.7,2c1.2,0,2.4-1,2.4-2.2V397.8z"/>
		<path d="M65.2,395.9c0-1.5-0.4-2.3-1.7-2.3c-0.6,0-1.9,0.2-1.9,1.8c0,1.4,1.4,1.6,2.9,2.1c1.4,0.5,2.9,1,2.9,3.3
			c0,2.5-1.6,3.7-3.8,3.7c-4,0-4-3-4-4.2h1.8c0,1.4,0.4,2.7,2.2,2.7c0.6,0,2-0.3,2-2c0-1.6-1.4-1.9-2.9-2.4
			c-1.4-0.5-2.9-0.9-2.9-3.3c0-2.2,1.7-3.2,3.8-3.2c3.4,0,3.6,2.4,3.6,3.8H65.2z"/>
		<path d="M74.5,388.5h4c1.4,0,4.8,0,4.8,4.5c0,2.9-1.9,4.5-4.5,4.5h-2.4v6.6h-1.9V388.5z M76.4,396h2.3c1.4,0,2.6-1,2.6-3
			c0-1.7-0.8-2.8-2.7-2.8h-2.2V396z"/>
		<path d="M84,392.5h2l2.3,9.4h0l2.1-9.4h2L89,405c-0.4,1.6-0.9,3.1-3.1,3.1c-0.7,0-1,0-1.3-0.1v-1.4c0.3,0,0.6,0.1,1.1,0.1
			c0.9,0,1.2-0.5,1.4-1.1l0.4-1L84,392.5z"/>
		<path d="M93.9,392.5h1.8v1.8h0c0.5-1.1,1.2-2.1,2.5-2.1c0.4,0,0.6,0,0.8,0.1v1.8c-0.2,0-0.4-0.1-1-0.1c-0.9,0-2.4,0.8-2.4,2.8v7.4
			h-1.8V392.5z"/>
		<path d="M100.5,388.5h1.8v2.1h-1.8V388.5z M100.5,392.5h1.8v11.8h-1.8V392.5z"/>
		<path d="M112.6,404.2h-1.8v-1.4h0c-0.2,0.9-1.3,1.8-2.5,1.8c-2.8,0-3.8-2.5-3.8-6.2c0-2.5,0.4-6.2,3.7-6.2c1.1,0,2.2,0.6,2.6,1.6
			h0v-5.2h1.8V404.2z M108.5,402.9c2,0,2.4-1.9,2.4-4.6c0-2.3-0.4-4.6-2.4-4.6c-1.7,0-2.2,1.8-2.2,4.6
			C106.3,401.1,106.8,402.9,108.5,402.9z"/>
		<path d="M118.6,392.1c3.4,0,4.2,2.9,4.2,6.2c0,3.3-0.9,6.2-4.2,6.2c-3.4,0-4.2-2.9-4.2-6.2C114.4,395,115.3,392.1,118.6,392.1z
			 M121,398.3c0-2.5-0.4-4.7-2.3-4.7c-1.9,0-2.3,2.2-2.3,4.7c0,2.5,0.4,4.7,2.3,4.7C120.6,403.1,121,400.9,121,398.3z"/>
		<path d="M123.9,392.5h2l2.1,4.2l2.2-4.2h2l-3.1,5.6l3.2,6.1h-2l-2.3-4.7l-2.3,4.7h-2l3.2-6.1L123.9,392.5z"/>
		<path d="M133.7,388.5h1.8v2.1h-1.8V388.5z M133.7,392.5h1.8v11.8h-1.8V392.5z"/>
		<path d="M138.1,392.5h1.8v1.4h0c0.5-1.1,1.7-1.7,2.9-1.7c3.1,0,3.1,2.3,3.1,3.7v8.3H144v-8.1c0-0.9-0.1-2.4-1.7-2.4
			c-1,0-2.3,0.7-2.3,2.4v8.1h-1.8V392.5z"/>
		<path d="M149.8,398.6c0,1.8,0,4.5,2.3,4.5c1.8,0,2-1.8,2-2.7h1.8c0,1.2-0.7,4.2-3.9,4.2c-2.9,0-4.1-2-4.1-6c0-2.9,0.6-6.3,4.2-6.3
			c3.6,0,3.9,3.1,3.9,5.7v0.7H149.8z M154.1,397.1v-0.6c0-1.3-0.4-2.9-2-2.9c-1.9,0-2.2,2.4-2.2,3.1v0.4H154.1z"/>
		<path d="M172.6,404.2h-1.9v-7.5h-5.4v7.5h-1.9v-15.7h1.9v6.4h5.4v-6.4h1.9V404.2z"/>
		<path d="M184.7,398.8c-0.2,3-1.3,5.7-4.8,5.7c-4.5,0-5-4.2-5-8.1c0-3.9,0.7-8.1,5-8.1c3.2,0,4.5,1.8,4.6,4.9h-2
			c0-1.8-0.6-3.3-2.6-3.3c-2.7,0-3,2.9-3,6.6c0,3.6,0.4,6.6,3,6.6c2.3,0,2.7-2.2,2.7-4.1H184.7z"/>
		<path d="M186.6,388.5h1.8v15.7h-1.8V388.5z"/>
		<path d="M189.8,408.2c1.8-2.9,2.4-6.5,2.4-9.9c0-3.6-0.8-6.7-2.4-9.9h1.1c2.1,2.8,3.2,6.4,3.2,9.9c0,3.5-1.1,7-3.2,9.9H189.8z"/>
		<path d="M18.1,428.1H20v14h6.4v1.7h-8.3V428.1z"/>
		<path d="M27.7,436.7h5.4v1.7h-5.4V436.7z"/>
		<path d="M35.5,428.1h1.9v14h6.4v1.7h-8.3V428.1z"/>
		<path d="M46.7,438.1c0,1.8,0,4.5,2.3,4.5c1.8,0,2-1.8,2-2.7h1.8c0,1.2-0.7,4.2-3.9,4.2c-2.9,0-4.1-2-4.1-6c0-2.9,0.6-6.3,4.2-6.3
			c3.6,0,3.9,3.1,3.9,5.7v0.7H46.7z M51,436.6V436c0-1.3-0.4-2.9-2-2.9c-1.9,0-2.2,2.4-2.2,3.1v0.4H51z"/>
		<path d="M62.7,443.8h-1.8v-1.4h0c-0.5,1.1-1.7,1.7-2.9,1.7c-3.1,0-3.1-2.3-3.1-3.7V432h1.8v8.1c0,0.9,0.1,2.4,1.7,2.4
			c1,0,2.3-0.7,2.3-2.4V432h1.8V443.8z"/>
		<path d="M70.7,435.6c0-1.1-0.5-2.4-1.9-2.4c-1.1,0-2.3,0.6-2.3,4.9c0,1.5,0,4.6,2.2,4.6c1.6,0,1.9-1.7,1.9-2.9h1.8
			c0,1.9-0.9,4.4-3.9,4.4c-2.9,0-4.1-2-4.1-6c0-2.9,0.6-6.3,4.2-6.3c3.2,0,3.8,2.5,3.8,3.9H70.7z"/>
		<path d="M74.6,428.1h1.8v2.1h-1.8V428.1z M74.6,432h1.8v11.8h-1.8V432z"/>
		<path d="M78.9,432h1.8v1.4h0c0.5-1.1,1.7-1.7,2.9-1.7c3.1,0,3.1,2.3,3.1,3.7v8.3h-1.8v-8.1c0-0.9-0.1-2.4-1.7-2.4
			c-1,0-2.3,0.7-2.3,2.4v8.1h-1.8V432z"/>
		<path d="M90.6,438.1c0,1.8,0,4.5,2.3,4.5c1.8,0,2-1.8,2-2.7h1.8c0,1.2-0.7,4.2-3.9,4.2c-2.9,0-4.1-2-4.1-6c0-2.9,0.6-6.3,4.2-6.3
			c3.6,0,3.9,3.1,3.9,5.7v0.7H90.6z M94.9,436.6V436c0-1.3-0.4-2.9-2-2.9c-1.9,0-2.2,2.4-2.2,3.1v0.4H94.9z"/>
		<path d="M18.1,457.9H20v14h6.4v1.7h-8.3V457.9z"/>
		<path d="M27.7,466.5h5.4v1.7h-5.4V466.5z"/>
		<path d="M35.5,457.9h1.9v15.7h-1.9V457.9z"/>
		<path d="M45,465.3c0-1.5-0.4-2.3-1.7-2.3c-0.6,0-1.9,0.2-1.9,1.8c0,1.4,1.4,1.6,2.9,2.1c1.4,0.5,2.9,1,2.9,3.3
			c0,2.5-1.6,3.7-3.8,3.7c-4,0-4-3-4-4.2h1.8c0,1.4,0.4,2.7,2.2,2.7c0.6,0,2-0.3,2-2c0-1.6-1.4-1.9-2.9-2.4
			c-1.4-0.5-2.9-0.9-2.9-3.3c0-2.2,1.7-3.2,3.8-3.2c3.4,0,3.6,2.4,3.6,3.8H45z"/>
		<path d="M52.5,461.5c3.4,0,4.2,2.9,4.2,6.2c0,3.3-0.9,6.2-4.2,6.2c-3.4,0-4.2-2.9-4.2-6.2C48.3,464.4,49.1,461.5,52.5,461.5z
			 M54.8,467.7c0-2.5-0.4-4.7-2.3-4.7c-1.9,0-2.3,2.2-2.3,4.7c0,2.5,0.4,4.7,2.3,4.7C54.4,472.4,54.8,470.2,54.8,467.7z"/>
		<path d="M58.7,457.9h1.8v15.7h-1.8V457.9z"/>
		<path d="M64.6,467.9c0,1.8,0,4.5,2.3,4.5c1.8,0,2-1.8,2-2.7h1.8c0,1.2-0.7,4.2-3.9,4.2c-2.9,0-4.1-2-4.1-6c0-2.9,0.6-6.3,4.2-6.3
			c3.6,0,3.9,3.1,3.9,5.7v0.7H64.6z M68.9,466.5v-0.6c0-1.3-0.4-2.9-2-2.9c-1.9,0-2.2,2.4-2.2,3.1v0.4H68.9z"/>
		<path d="M80.6,473.6h-1.8v-1.4h0c-0.5,1.1-1.7,1.7-2.9,1.7c-3.1,0-3.1-2.3-3.1-3.7v-8.3h1.8v8.1c0,0.9,0.1,2.4,1.7,2.4
			c1,0,2.3-0.7,2.3-2.4v-8.1h1.8V473.6z"/>
		<path d="M88.6,465.4c0-1.1-0.5-2.4-1.9-2.4c-1.1,0-2.3,0.6-2.3,4.9c0,1.5,0,4.6,2.2,4.6c1.6,0,1.9-1.7,1.9-2.9h1.8
			c0,1.9-0.9,4.4-3.9,4.4c-2.9,0-4.1-2-4.1-6c0-2.9,0.6-6.3,4.2-6.3c3.2,0,3.8,2.5,3.8,3.9H88.6z"/>
		<path d="M92.4,457.9h1.8v2.1h-1.8V457.9z M92.4,461.8h1.8v11.8h-1.8V461.8z"/>
		<path d="M96.8,461.8h1.8v1.4h0c0.5-1.1,1.7-1.7,2.9-1.7c3.1,0,3.1,2.3,3.1,3.7v8.3h-1.8v-8.1c0-0.9-0.1-2.4-1.7-2.4
			c-1,0-2.3,0.7-2.3,2.4v8.1h-1.8V461.8z"/>
		<path d="M108.5,467.9c0,1.8,0,4.5,2.3,4.5c1.8,0,2-1.8,2-2.7h1.8c0,1.2-0.7,4.2-3.9,4.2c-2.9,0-4.1-2-4.1-6c0-2.9,0.6-6.3,4.2-6.3
			c3.6,0,3.9,3.1,3.9,5.7v0.7H108.5z M112.7,466.5v-0.6c0-1.3-0.4-2.9-2-2.9c-1.9,0-2.2,2.4-2.2,3.1v0.4H112.7z"/>
		<path d="M18.1,487.7H20v14h6.4v1.7h-8.3V487.7z"/>
		<path d="M27.7,496.3h5.4v1.7h-5.4V496.3z"/>
		<path d="M34.2,487.7h2l3.1,13.5h0l3.1-13.5h2l-3.9,15.7H38L34.2,487.7z"/>
		<path d="M44.9,495.2c0-2.7,1.1-3.9,3.9-3.9c3.6,0,3.6,2.2,3.6,3.4v6.6c0,0.5,0,0.9,0.6,0.9c0.2,0,0.4,0,0.4-0.1v1.3
			c-0.1,0-0.6,0.1-1.1,0.1c-0.7,0-1.6,0-1.7-1.5h0c-0.6,1.1-1.7,1.7-2.8,1.7c-2.2,0-3.2-1.3-3.2-3.4c0-1.6,0.7-2.8,2.2-3.2l2.5-0.7
			c1.3-0.4,1.3-0.8,1.3-1.8c0-1.1-0.7-1.7-1.9-1.7c-2,0-2,1.9-2,2.3v0.1H44.9z M50.6,497c-0.7,0.7-2.3,0.9-3.1,1.4
			c-0.6,0.4-0.9,0.8-0.9,1.9c0,1.2,0.4,2,1.7,2c1.2,0,2.4-1,2.4-2.2V497z"/>
		<path d="M55,487.7h1.8v15.7H55V487.7z"/>
		<path d="M59.5,487.7h1.8v2.1h-1.8V487.7z M59.5,491.6h1.8v11.8h-1.8V491.6z"/>
		<path d="M63.9,491.6h1.8v1.4h0c0.5-1.1,1.7-1.7,2.9-1.7c3.1,0,3.1,2.3,3.1,3.7v8.3h-1.8v-8.1c0-0.9-0.1-2.4-1.7-2.4
			c-1,0-2.3,0.7-2.3,2.4v8.1h-1.8V491.6z"/>
		<path d="M75.6,497.7c0,1.8,0,4.5,2.3,4.5c1.8,0,2-1.8,2-2.7h1.8c0,1.3-0.7,4.2-3.9,4.2c-2.9,0-4.1-2-4.1-6c0-2.9,0.6-6.3,4.2-6.3
			c3.6,0,3.9,3.1,3.9,5.7v0.7H75.6z M79.8,496.3v-0.6c0-1.3-0.4-2.9-2-2.9c-1.9,0-2.2,2.4-2.2,3.1v0.4H79.8z"/>
	</g>
	<g>
		<path d="M27,277.1c-0.3-2.9-2.2-4.1-4.8-4.1c-2.2,0-4.4,0.8-4.4,3.4c0,2.5,3.1,2.9,6.2,3.6c3.1,0.7,6.2,1.9,6.2,5.8
			c0,4.3-4.1,6-7.6,6c-4.4,0-8-2.2-8-7.1h2.5c0,3.4,2.7,4.9,5.7,4.9c2.3,0,4.9-0.8,4.9-3.7c0-2.8-3.1-3.3-6.2-4
			c-3.1-0.7-6.2-1.6-6.2-5.3c0-4.1,3.5-5.9,7.1-5.9c4,0,7,2,7.2,6.4H27z"/>
		<path d="M45,286.8c-0.6,3.2-2.9,5-6,5c-4.5,0-6.6-3.2-6.8-7.7c0-4.4,2.8-7.6,6.6-7.6c5,0,6.5,4.8,6.4,8.4H34.7
			c-0.1,2.5,1.3,4.8,4.4,4.8c1.9,0,3.2-1,3.6-2.9H45z M42.8,282.7c-0.1-2.3-1.8-4.1-4.1-4.1c-2.4,0-3.9,1.9-4,4.1H42.8z"/>
		<path d="M47.5,276.8h2.2v3.1h0.1c1.1-2.3,2.7-3.5,5.2-3.4v2.5c-3.7,0-5.1,2.2-5.1,5.9v6.5h-2.3V276.8z"/>
		<path d="M63,291.4h-2.5l-5.2-14.6h2.6l3.9,12.2h0.1l3.8-12.2h2.4L63,291.4z"/>
		<path d="M72.7,274.2h-2.3v-2.9h2.3V274.2z M70.4,276.8h2.3v14.6h-2.3V276.8z"/>
		<path d="M76.3,276.8h2.2v2.3h0.1c1-1.8,2.6-2.7,4.6-2.7c3.7,0,4.8,2.2,4.8,5.3v9.6h-2.3v-9.9c0-1.8-1.1-2.9-2.9-2.9
			c-2.8,0-4.2,2-4.2,4.6v8.3h-2.3V276.8z"/>
		<path d="M103.6,290.2c0,4.8-2.1,7.2-6.5,7.2c-2.6,0-5.7-1.1-5.8-4.3h2.3c0.1,1.8,2.1,2.4,3.6,2.4c3,0,4.2-2.3,4.2-5.5v-1h-0.1
			c-0.8,1.8-2.6,2.7-4.4,2.7c-4.2,0-6.3-3.4-6.3-7.4c0-3.4,1.6-7.7,6.5-7.7c1.8,0,3.4,0.8,4.2,2.4h0v-2.1h2.2V290.2z M101.3,283.8
			c0-2.6-1.1-5.2-4-5.2c-3,0-4.2,2.5-4.2,5.3c0,2.6,0.9,5.6,4,5.6C100.2,289.5,101.3,286.6,101.3,283.8z"/>
		<path d="M126.3,277.1c-0.3-2.9-2.2-4.1-4.8-4.1c-2.2,0-4.4,0.8-4.4,3.4c0,2.5,3.1,2.9,6.2,3.6c3.1,0.7,6.2,1.9,6.2,5.8
			c0,4.3-4.1,6-7.6,6c-4.4,0-8-2.2-8-7.1h2.5c0,3.4,2.7,4.9,5.7,4.9c2.3,0,4.9-0.8,4.9-3.7c0-2.8-3.1-3.3-6.2-4
			c-3.1-0.7-6.2-1.6-6.2-5.3c0-4.1,3.5-5.9,7.1-5.9c4,0,7,2,7.2,6.4H126.3z"/>
		<path d="M134.8,274.2h-2.3v-2.9h2.3V274.2z M132.5,276.8h2.3v14.6h-2.3V276.8z"/>
		<path d="M137.2,289.6l8.5-10.7h-8v-2.1h10.9v1.6l-8.6,10.9h9v2.1h-11.9V289.6z"/>
		<path d="M163.5,286.8c-0.6,3.2-2.9,5-6,5c-4.5,0-6.6-3.2-6.8-7.7c0-4.4,2.8-7.6,6.6-7.6c5,0,6.5,4.8,6.4,8.4h-10.5
			c-0.1,2.5,1.3,4.8,4.4,4.8c1.9,0,3.2-1,3.6-2.9H163.5z M161.2,282.7c-0.1-2.3-1.8-4.1-4.1-4.1c-2.4,0-3.9,1.9-4,4.1H161.2z"/>
		<path d="M173.1,278.5c-0.2-4.1,2.1-7.1,6.2-7.1c3.4,0,6,2,6,5.8c0,3.5-2.3,5.3-4.7,6.9c-2.4,1.5-5,2.8-5.4,5.3h9.9v2.1h-12.6
			c0.4-4.8,2.7-6.4,5.4-8.2c3.3-2.1,4.9-3.3,4.9-6.1c0-2.2-1.7-3.6-3.7-3.6c-2.7,0-3.8,2.6-3.8,5H173.1z"/>
		<path d="M210.4,277.3c-0.5-2.9-2.8-4.3-5.4-4.3c-4.6,0-6.6,4-6.6,8.2c0,4.6,2,8.5,6.6,8.5c3.4,0,5.4-2.5,5.6-5.8h2.6
			c-0.5,5-3.5,8.1-8.4,8.1c-6,0-9-4.6-9-10.5c0-5.9,3.2-10.6,9.2-10.6c4.1,0,7.4,2.3,8,6.6H210.4z"/>
		<path d="M228.5,291.4c-0.4,0.3-0.9,0.4-1.7,0.4c-1.2,0-2-0.7-2-2.3c-1.3,1.6-3,2.3-5,2.3c-2.6,0-4.7-1.2-4.7-4.1
			c0-3.3,2.4-4,4.8-4.5c2.6-0.5,4.7-0.3,4.7-2.1c0-2.1-1.7-2.4-3.1-2.4c-2,0-3.4,0.6-3.5,2.8h-2.3c0.1-3.6,2.8-4.9,6-4.9
			c2.5,0,5.3,0.6,5.3,4v7.5c0,1.1,0,1.6,0.7,1.6c0.2,0,0.4,0,0.7-0.1V291.4z M224.7,283.9c-0.9,0.7-2.6,0.7-4.2,1
			c-1.5,0.3-2.8,0.8-2.8,2.6c0,1.6,1.3,2.1,2.7,2.1c3.1,0,4.3-2,4.3-3.3V283.9z"/>
		<path d="M230.7,276.8h2.3v2h0.1c0.8-1.6,2.6-2.3,4.5-2.3c4.3,0,6.5,3.6,6.5,7.7s-2.1,7.6-6.4,7.6c-1.4,0-3.5-0.6-4.5-2.3H233v7.5
			h-2.3V276.8z M237.2,278.6c-3.1,0-4.3,2.8-4.3,5.5c0,2.9,1.3,5.5,4.4,5.5c3.2,0,4.2-2.8,4.2-5.7
			C241.6,281.2,240.2,278.6,237.2,278.6z"/>
		<path d="M248.2,286.8c0.1,2.1,1.9,2.8,3.8,2.8c1.4,0,3.4-0.3,3.4-2.2c0-1.9-2.3-2.2-4.6-2.7c-2.3-0.5-4.6-1.3-4.6-4.1
			c0-2.9,2.8-4.2,5.3-4.2c3.1,0,5.6,1,5.8,4.6h-2.3c-0.2-1.9-1.7-2.5-3.3-2.5c-1.4,0-3,0.4-3,1.9c0,1.7,2.5,2,4.6,2.5
			c2.3,0.5,4.6,1.3,4.6,4.2c0,3.5-3.1,4.6-6,4.6c-3.2,0-5.8-1.3-6-4.9H248.2z"/>
		<path d="M27,308c-0.3-2.9-2.2-4.1-4.8-4.1c-2.2,0-4.4,0.8-4.4,3.4c0,2.5,3.1,2.9,6.2,3.6c3.1,0.7,6.2,1.9,6.2,5.8
			c0,4.3-4.1,6-7.6,6c-4.4,0-8-2.2-8-7.1h2.5c0,3.4,2.7,4.9,5.7,4.9c2.3,0,4.9-0.8,4.9-3.7c0-2.8-3.1-3.3-6.2-4
			c-3.1-0.7-6.2-1.6-6.2-5.3c0-4.1,3.5-5.9,7.1-5.9c4,0,7,2,7.2,6.4H27z"/>
		<path d="M45,317.6c-0.6,3.2-2.9,5-6,5c-4.5,0-6.6-3.2-6.8-7.7c0-4.4,2.8-7.6,6.6-7.6c5,0,6.5,4.8,6.4,8.4H34.7
			c-0.1,2.5,1.3,4.8,4.4,4.8c1.9,0,3.2-1,3.6-2.9H45z M42.8,313.6c-0.1-2.3-1.8-4.1-4.1-4.1c-2.4,0-3.9,1.9-4,4.1H42.8z"/>
		<path d="M47.5,307.6h2.2v3.1h0.1c1.1-2.3,2.7-3.5,5.2-3.4v2.5c-3.7,0-5.1,2.2-5.1,5.9v6.5h-2.3V307.6z"/>
		<path d="M63,322.3h-2.5l-5.2-14.6h2.6l3.9,12.2h0.1l3.8-12.2h2.4L63,322.3z"/>
		<path d="M72.7,305h-2.3v-2.9h2.3V305z M70.4,307.6h2.3v14.6h-2.3V307.6z"/>
		<path d="M76.3,307.6h2.2v2.3h0.1c1-1.8,2.6-2.7,4.6-2.7c3.7,0,4.8,2.2,4.8,5.3v9.6h-2.3v-9.9c0-1.8-1.1-2.9-2.9-2.9
			c-2.8,0-4.2,2-4.2,4.6v8.3h-2.3V307.6z"/>
		<path d="M103.6,321c0,4.8-2.1,7.2-6.5,7.2c-2.6,0-5.7-1.1-5.8-4.3h2.3c0.1,1.8,2.1,2.4,3.6,2.4c3,0,4.2-2.3,4.2-5.5v-1h-0.1
			c-0.8,1.8-2.6,2.7-4.4,2.7c-4.2,0-6.3-3.4-6.3-7.4c0-3.4,1.6-7.7,6.5-7.7c1.8,0,3.4,0.8,4.2,2.4h0v-2.1h2.2V321z M101.3,314.7
			c0-2.6-1.1-5.2-4-5.2c-3,0-4.2,2.5-4.2,5.3c0,2.6,0.9,5.6,4,5.6C100.2,320.3,101.3,317.4,101.3,314.7z"/>
		<path d="M108.5,317.7c0.1,2.1,1.9,2.8,3.8,2.8c1.4,0,3.4-0.3,3.4-2.2c0-1.9-2.3-2.2-4.6-2.7c-2.3-0.5-4.6-1.3-4.6-4.1
			c0-2.9,2.8-4.2,5.3-4.2c3.1,0,5.6,1,5.8,4.6h-2.3c-0.2-1.9-1.7-2.5-3.3-2.5c-1.4,0-3,0.4-3,1.9c0,1.7,2.5,2,4.6,2.5
			c2.3,0.5,4.6,1.3,4.6,4.2c0,3.5-3.1,4.6-6,4.6c-3.2,0-5.8-1.3-6-4.9H108.5z"/>
		<path d="M128.7,302.1h8.5c3.9,0,6,2.2,6,6c0,3.7-2.1,6-6,6h-5.9v8.3h-2.6V302.1z M131.3,311.7h5.1c2.9,0,4.2-1.3,4.2-3.7
			s-1.3-3.7-4.2-3.7h-5.1V311.7z"/>
		<path d="M158,317.6c-0.6,3.2-2.9,5-6,5c-4.5,0-6.6-3.2-6.8-7.7c0-4.4,2.8-7.6,6.6-7.6c5,0,6.5,4.8,6.4,8.4h-10.5
			c-0.1,2.5,1.3,4.8,4.4,4.8c1.9,0,3.2-1,3.6-2.9H158z M155.7,313.6c-0.1-2.3-1.8-4.1-4.1-4.1c-2.4,0-3.9,1.9-4,4.1H155.7z"/>
		<path d="M160.5,307.6h2.2v3.1h0.1c1.1-2.3,2.7-3.5,5.2-3.4v2.5c-3.7,0-5.1,2.2-5.1,5.9v6.5h-2.3V307.6z"/>
		<path d="M191.3,308.2c-0.5-2.9-2.8-4.3-5.4-4.3c-4.6,0-6.6,4-6.6,8.2c0,4.6,2,8.5,6.6,8.5c3.4,0,5.4-2.5,5.6-5.8h2.6
			c-0.5,5-3.5,8.1-8.4,8.1c-6,0-9-4.6-9-10.5c0-5.9,3.2-10.6,9.2-10.6c4.1,0,7.4,2.3,8,6.6H191.3z"/>
		<path d="M202.9,307.3c4.5,0,6.8,3.4,6.8,7.7c0,4.3-2.4,7.6-6.8,7.6s-6.8-3.4-6.8-7.6C196.1,310.7,198.5,307.3,202.9,307.3z
			 M202.9,320.5c2.4,0,4.4-2,4.4-5.5c0-3.6-2-5.5-4.4-5.5c-2.4,0-4.4,2-4.4,5.5C198.5,318.5,200.5,320.5,202.9,320.5z"/>
		<path d="M212.5,307.6h2.2v2.3h0.1c1-1.8,2.6-2.7,4.6-2.7c3.7,0,4.8,2.2,4.8,5.3v9.6h-2.3v-9.9c0-1.8-1.1-2.9-2.9-2.9
			c-2.8,0-4.2,2-4.2,4.6v8.3h-2.3V307.6z"/>
		<path d="M230.8,307.6h2.8v2.1h-2.8v9.1c0,1.1,0.3,1.3,1.7,1.3h1.1v2.1h-1.8c-2.4,0-3.4-0.5-3.4-3.2v-9.3h-2.4v-2.1h2.4v-4.4h2.3
			V307.6z"/>
		<path d="M248.7,322.2c-0.4,0.3-0.9,0.4-1.7,0.4c-1.2,0-2-0.7-2-2.3c-1.3,1.6-3,2.3-5,2.3c-2.6,0-4.7-1.2-4.7-4.1
			c0-3.3,2.4-4,4.8-4.5c2.6-0.5,4.7-0.3,4.7-2.1c0-2.1-1.7-2.4-3.1-2.4c-2,0-3.4,0.6-3.5,2.8H236c0.1-3.6,2.8-4.9,6-4.9
			c2.5,0,5.3,0.6,5.3,4v7.5c0,1.1,0,1.6,0.7,1.6c0.2,0,0.4,0,0.7-0.1V322.2z M244.9,314.7c-0.9,0.7-2.6,0.7-4.2,1
			c-1.5,0.3-2.8,0.8-2.8,2.6c0,1.6,1.3,2.1,2.7,2.1c3.1,0,4.3-2,4.3-3.3V314.7z"/>
		<path d="M253.3,305H251v-2.9h2.3V305z M251,307.6h2.3v14.6H251V307.6z"/>
		<path d="M256.9,307.6h2.2v2.3h0.1c1-1.8,2.6-2.7,4.6-2.7c3.7,0,4.8,2.2,4.8,5.3v9.6h-2.3v-9.9c0-1.8-1.1-2.9-2.9-2.9
			c-2.8,0-4.2,2-4.2,4.6v8.3h-2.3V307.6z"/>
		<path d="M284,317.6c-0.6,3.2-2.9,5-6,5c-4.5,0-6.6-3.2-6.8-7.7c0-4.4,2.8-7.6,6.6-7.6c5,0,6.5,4.8,6.4,8.4h-10.5
			c-0.1,2.5,1.3,4.8,4.4,4.8c1.9,0,3.2-1,3.6-2.9H284z M281.8,313.6c-0.1-2.3-1.8-4.1-4.1-4.1c-2.4,0-3.9,1.9-4,4.1H281.8z"/>
		<path d="M286.6,307.6h2.2v3.1h0.1c1.1-2.3,2.7-3.5,5.2-3.4v2.5c-3.7,0-5.1,2.2-5.1,5.9v6.5h-2.3V307.6z"/>
		<path d="M311.2,322.3h-2.3v-14.4h-5V306c2.6,0,5-0.7,5.6-3.8h1.8V322.3z"/>
		<path d="M324.2,302.2c6,0,6.4,5.8,6.4,10.2c0,4.4-0.4,10.2-6.4,10.2c-6,0-6.4-5.8-6.4-10.2C317.8,308,318.2,302.2,324.2,302.2z
			 M324.2,320.5c3.9,0,4-5.1,4-8.1c0-3,0-8.1-4-8.1c-4,0-4,5.1-4,8.1C320.3,315.4,320.3,320.5,324.2,320.5z"/>
		<path d="M339.4,302.2c6,0,6.4,5.8,6.4,10.2c0,4.4-0.4,10.2-6.4,10.2c-6,0-6.4-5.8-6.4-10.2C333,308,333.3,302.2,339.4,302.2z
			 M339.4,320.5c3.9,0,4-5.1,4-8.1c0-3,0-8.1-4-8.1c-4,0-4,5.1-4,8.1C335.4,315.4,335.4,320.5,339.4,320.5z"/>
	</g>
	<g>
		<path d="M267.8,350.7h4.7l4.9,18.7h-3.9l-0.9-4h-5l-0.9,4h-3.9L267.8,350.7z M268.3,362.4h3.7l-1.8-8.4h-0.1L268.3,362.4z"/>
		<path d="M278.6,355.3h3.5v1.4h0.1c0.9-1.3,2-1.8,3.6-1.8c1.6,0,2.9,0.8,3.2,2.3h0.1c0.5-1.5,1.9-2.3,3.6-2.3
			c2.4,0,3.5,1.5,3.5,4.2v10.2h-3.6v-9.8c0-1.2-0.4-1.8-1.4-1.8c-1.2,0-1.9,0.8-1.9,2.4v9.3h-3.6v-9.8c0-1.2-0.4-1.8-1.4-1.8
			c-1.2,0-1.9,0.8-1.9,2.4v9.3h-3.6V355.3z"/>
		<path d="M303.5,355c4.3-0.1,5.5,2.5,5.5,7.4c0,4.8-1.4,7.4-5.5,7.4c-4.3,0.1-5.5-2.5-5.5-7.4C298,357.6,299.4,355,303.5,355z
			 M303.5,367.3c1.5,0,1.9-1.4,1.9-4.9c0-3.5-0.5-4.9-1.9-4.9c-1.8,0-1.9,2.1-1.9,4.9C301.6,365.3,301.8,367.3,303.5,367.3z"/>
		<path d="M318.3,367.8L318.3,367.8c-0.8,1.4-2.1,2-3.6,2c-2.3,0-3.6-1.2-3.6-4v-10.4h3.6v9.7c0,1.4,0.5,2,1.5,2
			c1.2,0,1.9-0.8,1.9-2.3v-9.3h3.6v14.1h-3.5V367.8z"/>
		<path d="M324.1,355.3h3.5v1.6h0.1c0.8-1.4,2.1-2,3.6-2c2.2,0,3.6,1.2,3.6,4v10.4h-3.6v-9.7c0-1.4-0.5-2-1.5-2
			c-1.2,0-1.9,0.8-1.9,2.3v9.3h-3.6V355.3z"/>
		<path d="M338,351.3h3.6v4h2.1v2.5h-2.1v7.6c0,1.1,0.2,1.5,1.3,1.5c0.3,0,0.6,0,0.8-0.1v2.5c-0.8,0.1-1.5,0.2-2.4,0.2
			c-2.8,0-3.3-0.9-3.3-3.7v-8.1h-1.8v-2.5h1.8V351.3z"/>
		<path d="M351.3,350.7h6.6c3.8,0,5.1,2.8,5.1,5.6c0,3.9-2.4,5.6-5.9,5.6h-2v7.5h-3.8V350.7z M355.1,359.2h1.7
			c1.5,0,2.5-0.9,2.5-2.8c0-1.8-0.7-2.9-2.6-2.9h-1.6V359.2z"/>
		<path d="M367.3,362.9v1.1c0,1.6,0.4,3.3,1.8,3.3c1.2,0,1.7-0.9,1.9-2.6h3.2c-0.1,3.3-1.7,5.1-5.1,5.1c-5.2,0-5.4-4-5.4-7.5
			c0-3.8,0.7-7.3,5.6-7.3c4.2,0,5.2,2.8,5.2,7.1v0.8H367.3z M371,360.8c-0.1-2.1-0.3-3.3-1.8-3.3c-1.4,0-1.9,1.5-1.9,2.8v0.5H371z"
			/>
		<path d="M376.3,355.3h3.5v1.9h0.1c0.7-1.4,1.8-2.3,3.2-2.3c0.2,0,0.4,0,0.7,0.1v3.5c-0.4,0-0.8-0.1-1.1-0.1
			c-1.3,0-2.7,0.7-2.7,2.5v8.5h-3.6V355.3z"/>
		<path d="M394.4,363.6v0.5c0,1.8,0.5,2.9,2.5,2.9c1.2,0,2.3-0.7,2.3-2.3c0-1.7-0.9-2.3-3.3-3.2c-3.3-1.2-4.9-2.5-4.9-5.7
			c0-3.6,2.2-5.5,5.8-5.5c3.3,0,5.8,1.4,5.8,5v0.5h-3.6c0-1.8-0.6-2.8-2-2.8c-1.7,0-2.1,1.1-2.1,2.2c0,1.2,0.3,1.9,1.9,2.5l2.9,1.3
			c2.8,1.2,3.6,2.7,3.6,4.9c0,4-2.4,5.7-6.5,5.7c-4.3,0-5.9-2-5.9-5.4v-0.8H394.4z"/>
		<path d="M408,362.9v1.1c0,1.6,0.4,3.3,1.8,3.3c1.2,0,1.7-0.9,1.9-2.6h3.2c-0.1,3.3-1.7,5.1-5.1,5.1c-5.2,0-5.4-4-5.4-7.5
			c0-3.8,0.7-7.3,5.6-7.3c4.2,0,5.2,2.8,5.2,7.1v0.8H408z M411.7,360.8c-0.1-2.1-0.3-3.3-1.8-3.3c-1.4,0-1.9,1.5-1.9,2.8v0.5H411.7z
			"/>
		<path d="M417,355.3h3.5v1.9h0.1c0.7-1.4,1.8-2.3,3.2-2.3c0.2,0,0.4,0,0.7,0.1v3.5c-0.4,0-0.8-0.1-1.1-0.1c-1.3,0-2.7,0.7-2.7,2.5
			v8.5H417V355.3z"/>
		<path d="M432.8,355.3h3.6l-3.5,14.1h-4.2l-3.6-14.1h3.8l2,10.1h0.1L432.8,355.3z"/>
		<path d="M437.9,350.5h3.6v3.1h-3.6V350.5z M437.9,355.3h3.6v14.1h-3.6V355.3z"/>
		<path d="M444.1,355.3h3.5v1.6h0.1c0.8-1.4,2.1-2,3.6-2c2.2,0,3.6,1.2,3.6,4v10.4h-3.6v-9.7c0-1.4-0.5-2-1.5-2
			c-1.2,0-1.9,0.8-1.9,2.3v9.3h-3.6V355.3z"/>
		<path d="M467.7,355.3v13.4c0,3.7-1.6,5.5-5.9,5.5c-3.1,0-4.8-1.4-4.8-3.8h3.5c0,0.5,0.2,0.8,0.5,1.1c0.3,0.2,0.8,0.4,1.2,0.4
			c1.5,0,2-1.1,2-2.5v-1.9h-0.1c-0.7,1-1.9,1.7-3,1.7c-2.9,0-4.3-2-4.3-7.1c0-3.3,0.5-7.2,4.4-7.2c1,0,2.2,0.5,2.9,1.9h0.1v-1.6
			H467.7z M462.3,366.5c1.5,0,2-1.6,2-4c0-3.4-0.4-4.7-1.9-4.7c-1.6,0-1.9,1.3-1.9,5.1C460.5,364.8,460.8,366.5,462.3,366.5z"/>
		<path d="M536.5,350.9c3.2,0,3.9,1.6,3.9,5s-0.7,5-3.9,5s-3.9-1.6-3.9-5S533.2,350.9,536.5,350.9z M536.5,358.9c1,0,1.2-1,1.2-3.1
			c0-1.9-0.1-2.9-1.2-2.9s-1.2,1-1.2,2.9C535.3,357.9,535.4,358.9,536.5,358.9z M546.1,350.5h2.3l-10.6,19.8h-2.3L546.1,350.5z
			 M547.6,359.8c3.2,0,3.9,1.6,3.9,5s-0.7,5-3.9,5s-3.9-1.6-3.9-5S544.3,359.8,547.6,359.8z M547.6,367.8c1,0,1.2-1,1.2-3.1
			c0-1.9-0.1-2.9-1.2-2.9s-1.2,1-1.2,2.9C546.4,366.8,546.5,367.8,547.6,367.8z"/>
		<path d="M560,350.7h6.2c5.2,0,6.2,3.6,6.2,9.1c0,6.6-1.4,9.6-6.4,9.6H560V350.7z M563.7,366.7h1.7c2.6,0,3.1-1.6,3.1-6.7
			c0-4.2-0.3-6.4-3.2-6.4h-1.6V366.7z"/>
		<path d="M577.6,350.7l2.6,13.8h0.1l2.8-13.8h3.9l-4.3,18.7h-4.8l-4.3-18.7H577.6z"/>
	</g>
	<g>
		<path d="M411.6,391.7c2-0.1,3.8-0.4,3.9-2.6h1.3v15.6h-1.9V393h-3.3V391.7z"/>
		<path d="M422.3,402.4h2v2.3h-2V402.4z"/>
		<path d="M430,396h1c1.7,0,2.4-1.2,2.4-2.8c0-1.4-0.5-2.6-2-2.6c-2.1,0-2.2,1.9-2.2,3h-1.9c0-2.7,1.3-4.5,4.1-4.5
			c3.3,0,4,2.3,4,4.1c0,1.6-0.8,3-2.4,3.4v0c1.8,0.4,2.9,1.5,2.9,3.6c0,2.8-1.4,4.8-4.4,4.8c-4.2,0-4.4-3.7-4.4-4.3v-0.2h1.9
			c0,1.4,0.7,3.1,2.5,3.1c1.1,0,2.5-0.6,2.5-3.2c0-1.8-0.9-3-2.8-3h-1V396z"/>
		<path d="M443.3,392.9h1.8v1.4h0c0.5-1.1,1.7-1.7,2.9-1.7c1.4,0,2.2,0.5,2.6,1.9c0.5-1,1.6-1.9,2.8-1.9c3.1,0,3.1,2.4,3.1,3.8v8.4
			h-1.9v-8.2c0-0.9-0.1-2.4-1.6-2.4c-0.9,0-2.2,0.5-2.2,2.4v8.2h-1.9v-8.2c0-0.9-0.1-2.4-1.6-2.4c-0.9,0-2.2,0.5-2.2,2.4v8.2h-1.9
			V392.9z"/>
		<path d="M466.8,404c0,3.5-1.6,4.8-4,4.8c-0.7,0-3.6,0-3.9-3h1.9c0.1,1.1,0.9,1.5,1.9,1.5c2.4,0,2.3-1.8,2.3-2.6v-1.5h0
			c-0.4,1-1.5,1.6-2.7,1.6c-3.4,0-3.7-4.3-3.7-5.9c0-3.2,0.9-6.2,3.9-6.2c1.3,0,2.3,0.9,2.6,1.8h0v-1.5h1.8V404z M460.5,398.8
			c0,1.9,0.3,4.3,2.1,4.3c2,0,2.4-1.9,2.4-4.3c0-2.3-0.4-4.6-2.4-4.6C461,394.2,460.5,396,460.5,398.8z"/>
		<path d="M407,429h7v1.7h-5.5l-0.6,4.5l0,0c0.6-0.8,1.7-1.2,2.7-1.2c2.3,0,3.9,1.9,3.9,5.1c0,2.9-1.3,5.4-4.5,5.4
			c-3.7,0-4.3-3.1-4.3-4.3h1.9c0,0.8,0.3,2.9,2.4,2.9c2.2,0,2.6-2.5,2.6-4.1c0-1.7-0.6-3.5-2.6-3.5c-1.3,0-2.2,1.1-2.2,1.5l-1.7-0.1
			L407,429z"/>
		<path d="M416.3,436.7c0-3.4,0.2-8,4.5-8c4.2,0,4.5,4.2,4.5,8c0,3.3-0.2,7.9-4.5,7.9C416.5,444.6,416.3,440.4,416.3,436.7z
			 M420.7,443.2c2.4,0,2.5-3.2,2.5-6.4c0-3.4-0.1-6.6-2.5-6.6c-2.4,0-2.5,3.1-2.5,6.6C418.2,440,418.3,443.2,420.7,443.2z"/>
		<path d="M426.8,436.7c0-3.4,0.2-8,4.5-8c4.2,0,4.5,4.2,4.5,8c0,3.3-0.2,7.9-4.5,7.9C427.1,444.6,426.8,440.4,426.8,436.7z
			 M431.3,443.2c2.4,0,2.5-3.2,2.5-6.4c0-3.4-0.1-6.6-2.5-6.6c-2.4,0-2.5,3.1-2.5,6.6C428.8,440,428.9,443.2,431.3,443.2z"/>
		<path d="M443.3,432.5h1.8v1.4h0c0.5-1.1,1.7-1.7,2.9-1.7c1.4,0,2.2,0.5,2.6,1.9c0.5-1,1.6-1.9,2.8-1.9c3.1,0,3.1,2.4,3.1,3.8v8.4
			h-1.9v-8.2c0-0.9-0.1-2.4-1.6-2.4c-0.9,0-2.2,0.5-2.2,2.4v8.2h-1.9v-8.2c0-0.9-0.1-2.4-1.6-2.4c-0.9,0-2.2,0.5-2.2,2.4v8.2h-1.9
			V432.5z"/>
		<path d="M466.8,443.6c0,3.5-1.6,4.8-4,4.8c-0.7,0-3.6,0-3.9-3h1.9c0.1,1.1,0.9,1.5,1.9,1.5c2.4,0,2.3-1.8,2.3-2.6v-1.5h0
			c-0.4,1-1.5,1.6-2.7,1.6c-3.4,0-3.7-4.3-3.7-5.9c0-3.2,0.9-6.2,3.9-6.2c1.3,0,2.3,0.9,2.6,1.8h0v-1.5h1.8V443.6z M460.5,438.4
			c0,1.9,0.3,4.3,2.1,4.3c2,0,2.4-1.9,2.4-4.3c0-2.3-0.4-4.6-2.4-4.6C461,433.8,460.5,435.6,460.5,438.4z"/>
		<path d="M414.5,474.1h-8.7c0-2.9,1.6-4.9,3.4-6.4l1.3-1.1c1.3-1.1,2.1-2,2.1-3.8c0-1.3-0.6-2.8-2.3-2.8c-2.4,0-2.5,2.5-2.5,3.4
			h-1.9c0-3,1.2-5,4.4-5c3.6,0,4.2,2.8,4.2,4.2c0,2.4-1,3.6-2.7,5.1l-2.2,1.9c-0.9,0.7-1.5,1.6-1.7,2.7h6.7V474.1z"/>
		<path d="M417.6,458.8h7v1.7H419l-0.6,4.5l0,0c0.6-0.8,1.7-1.2,2.7-1.2c2.3,0,3.9,1.9,3.9,5.1c0,2.9-1.3,5.4-4.5,5.4
			c-3.7,0-4.3-3.1-4.3-4.3h1.9c0,0.8,0.3,2.9,2.4,2.9c2.2,0,2.6-2.5,2.6-4.1c0-1.7-0.6-3.5-2.6-3.5c-1.3,0-2.2,1.1-2.2,1.5l-1.7-0.1
			L417.6,458.8z"/>
		<path d="M426.8,466.5c0-3.4,0.2-8,4.5-8c4.2,0,4.5,4.2,4.5,8c0,3.3-0.2,7.9-4.5,7.9C427.1,474.4,426.8,470.2,426.8,466.5z
			 M431.3,473c2.4,0,2.5-3.2,2.5-6.4c0-3.4-0.1-6.6-2.5-6.6c-2.4,0-2.5,3.1-2.5,6.6C428.8,469.8,428.9,473,431.3,473z"/>
		<path d="M443.3,462.3h1.8v1.4h0c0.5-1.1,1.7-1.7,2.9-1.7c1.4,0,2.2,0.5,2.6,1.9c0.5-1,1.6-1.9,2.8-1.9c3.1,0,3.1,2.4,3.1,3.8v8.4
			h-1.9V466c0-0.9-0.1-2.4-1.6-2.4c-0.9,0-2.2,0.5-2.2,2.4v8.2h-1.9V466c0-0.9-0.1-2.4-1.6-2.4c-0.9,0-2.2,0.5-2.2,2.4v8.2h-1.9
			V462.3z"/>
		<path d="M466.8,473.4c0,3.5-1.6,4.8-4,4.8c-0.7,0-3.6,0-3.9-3h1.9c0.1,1.1,0.9,1.5,1.9,1.5c2.4,0,2.3-1.8,2.3-2.6v-1.5h0
			c-0.4,1-1.5,1.6-2.7,1.6c-3.4,0-3.7-4.3-3.7-5.9c0-3.2,0.9-6.2,3.9-6.2c1.3,0,2.3,0.9,2.6,1.8h0v-1.5h1.8V473.4z M460.5,468.2
			c0,1.9,0.3,4.3,2.1,4.3c2,0,2.4-1.9,2.4-4.3c0-2.3-0.4-4.6-2.4-4.6C461,463.6,460.5,465.4,460.5,468.2z"/>
		<path d="M414.5,503.9h-8.7c0-2.9,1.6-4.9,3.4-6.4l1.3-1.1c1.3-1.1,2.1-2,2.1-3.8c0-1.3-0.6-2.8-2.3-2.8c-2.4,0-2.5,2.5-2.5,3.4
			h-1.9c0-3,1.2-5,4.4-5c3.6,0,4.2,2.8,4.2,4.2c0,2.4-1,3.6-2.7,5.1l-2.2,1.9c-0.9,0.7-1.5,1.6-1.7,2.7h6.7V503.9z"/>
		<path d="M417.6,488.6h7v1.7H419l-0.6,4.5l0,0c0.6-0.8,1.7-1.2,2.7-1.2c2.3,0,3.9,1.9,3.9,5.1c0,2.9-1.3,5.4-4.5,5.4
			c-3.7,0-4.3-3.1-4.3-4.3h1.9c0,0.8,0.3,2.9,2.4,2.9c2.2,0,2.6-2.5,2.6-4.1c0-1.7-0.6-3.5-2.6-3.5c-1.3,0-2.2,1.1-2.2,1.5l-1.7-0.1
			L417.6,488.6z"/>
		<path d="M426.8,496.3c0-3.4,0.2-8,4.5-8c4.2,0,4.5,4.2,4.5,8c0,3.3-0.2,7.9-4.5,7.9C427.1,504.2,426.8,500.1,426.8,496.3z
			 M431.3,502.8c2.4,0,2.5-3.2,2.5-6.4c0-3.4-0.1-6.6-2.5-6.6c-2.4,0-2.5,3.1-2.5,6.6C428.8,499.6,428.9,502.8,431.3,502.8z"/>
		<path d="M443.3,492.1h1.8v1.4h0c0.5-1.1,1.7-1.7,2.9-1.7c1.4,0,2.2,0.5,2.6,1.9c0.5-1,1.6-1.9,2.8-1.9c3.1,0,3.1,2.4,3.1,3.8v8.4
			h-1.9v-8.2c0-0.9-0.1-2.4-1.6-2.4c-0.9,0-2.2,0.5-2.2,2.4v8.2h-1.9v-8.2c0-0.9-0.1-2.4-1.6-2.4c-0.9,0-2.2,0.5-2.2,2.4v8.2h-1.9
			V492.1z"/>
		<path d="M466.8,503.2c0,3.5-1.6,4.8-4,4.8c-0.7,0-3.6,0-3.9-3h1.9c0.1,1.1,0.9,1.5,1.9,1.5c2.4,0,2.3-1.8,2.3-2.6v-1.5h0
			c-0.4,1-1.5,1.6-2.7,1.6c-3.4,0-3.7-4.3-3.7-5.9c0-3.2,0.9-6.2,3.9-6.2c1.3,0,2.3,0.9,2.6,1.8h0v-1.5h1.8V503.2z M460.5,498
			c0,1.9,0.3,4.3,2.1,4.3c2,0,2.4-1.9,2.4-4.3c0-2.3-0.4-4.6-2.4-4.6C461,493.4,460.5,495.2,460.5,498z"/>
	</g>
	<rect x="12.9" y="517.6" width="586.1" height="2.8"/>
	<g>
		<path d="M18.2,539.5h4.6c1.6,0,5.6,0,5.6,4.9c0,3.2-2.1,4.9-5.2,4.9h-2.7v7.2h-2.2V539.5z M20.5,547.5h2.6c1.6,0,3-1,3-3.3
			c0-1.9-0.9-3.1-3.1-3.1h-2.5V547.5z"/>
		<path d="M31.6,550.3c0,1.9,0,4.9,2.6,4.9c2,0,2.3-2,2.3-2.9h2.1c0,1.4-0.9,4.5-4.5,4.5c-3.3,0-4.7-2.2-4.7-6.5
			c0-3.2,0.7-6.9,4.8-6.9c4.1,0,4.5,3.4,4.5,6.1v0.8H31.6z M36.4,548.7V548c0-1.4-0.5-3.1-2.3-3.1c-2.2,0-2.5,2.6-2.5,3.3v0.5H36.4z
			"/>
		<path d="M40.9,543.7h2.1v1.9h0.1c0.6-1.2,1.4-2.2,2.9-2.2c0.4,0,0.7,0,0.9,0.1v1.9c-0.2,0-0.5-0.1-1.1-0.1c-1.1,0-2.8,0.9-2.8,3v8
			h-2.1V543.7z"/>
		<path d="M54.8,547.6c0-1.2-0.5-2.6-2.1-2.6c-1.3,0-2.6,0.6-2.6,5.3c0,1.7,0,5,2.6,5c1.8,0,2.2-1.8,2.2-3.2h2.1
			c0,2-1.1,4.7-4.4,4.7c-3.3,0-4.7-2.2-4.7-6.5c0-3.2,0.7-6.9,4.8-6.9c3.7,0,4.3,2.7,4.3,4.2H54.8z"/>
		<path d="M60.8,550.3c0,1.9,0,4.9,2.6,4.9c2,0,2.3-2,2.3-2.9h2.1c0,1.4-0.9,4.5-4.5,4.5c-3.3,0-4.7-2.2-4.7-6.5
			c0-3.2,0.7-6.9,4.8-6.9c4.1,0,4.5,3.4,4.5,6.1v0.8H60.8z M65.7,548.7V548c0-1.4-0.5-3.1-2.3-3.1c-2.2,0-2.5,2.6-2.5,3.3v0.5H65.7z
			"/>
		<path d="M70.2,543.7h2v1.5h0.1c0.6-1.2,2-1.8,3.3-1.8c3.5,0,3.5,2.5,3.5,4v9H77v-8.8c0-1-0.1-2.6-2-2.6c-1.1,0-2.7,0.7-2.7,2.6
			v8.8h-2.1V543.7z"/>
		<path d="M82.5,540h2.1v3.7h2.3v1.6h-2.3v8.2c0,1,0.3,1.4,1.4,1.4c0.5,0,0.7,0,0.9-0.1v1.6c-0.3,0-0.8,0.1-1.7,0.1
			c-2.2,0-2.7-0.9-2.7-2.5v-8.8h-2v-1.6h2V540z"/>
		<path d="M94.7,539.5h4.8c5.6,0,6.3,3.8,6.3,8.5c0,4.3-1.1,8.5-6.1,8.5h-5V539.5z M96.9,554.7h2.3c3.8,0,4.2-3.7,4.2-6.7
			c0-3.3-0.2-6.8-4.2-6.8h-2.3V554.7z"/>
		<path d="M108,547.5c0-2.9,1.3-4.2,4.5-4.2c4.1,0,4.1,2.3,4.1,3.7v7.1c0,0.5,0,1,0.7,1c0.3,0,0.4,0,0.5-0.1v1.4
			c-0.2,0-0.7,0.1-1.2,0.1c-0.8,0-1.8,0-1.9-1.6h-0.1c-0.7,1.1-2,1.8-3.2,1.8c-2.5,0-3.7-1.4-3.7-3.7c0-1.8,0.8-3,2.5-3.5l2.8-0.8
			c1.5-0.5,1.5-0.9,1.5-1.9c0-1.2-0.8-1.9-2.2-1.9c-2.3,0-2.3,2-2.3,2.5v0.1H108z M114.5,549.5c-0.8,0.8-2.6,0.9-3.6,1.5
			c-0.7,0.4-1,0.9-1,2c0,1.3,0.5,2.2,1.9,2.2c1.4,0,2.7-1.1,2.7-2.4V549.5z"/>
		<path d="M119.6,539.5h2.1v2.3h-2.1V539.5z M119.6,543.7h2.1v12.7h-2.1V543.7z"/>
		<path d="M124.8,539.5h2.1v16.9h-2.1V539.5z"/>
		<path d="M128.6,543.7h2.3l2.7,10.2h0.1l2.4-10.2h2.3l-3.9,13.6c-0.5,1.8-1.1,3.3-3.6,3.3c-0.8,0-1.2,0-1.5-0.1v-1.6
			c0.3,0,0.7,0.1,1.2,0.1c1,0,1.4-0.5,1.7-1.2l0.4-1.1L128.6,543.7z"/>
		<path d="M143.6,539.5h2.3l3.5,14.5h0l3.5-14.5h2.3l-4.5,16.9H148L143.6,539.5z"/>
		<path d="M155.9,547.5c0-2.9,1.3-4.2,4.5-4.2c4.1,0,4.1,2.3,4.1,3.7v7.1c0,0.5,0,1,0.7,1c0.3,0,0.4,0,0.5-0.1v1.4
			c-0.2,0-0.7,0.1-1.2,0.1c-0.8,0-1.8,0-1.9-1.6h-0.1c-0.7,1.1-2,1.8-3.2,1.8c-2.5,0-3.7-1.4-3.7-3.7c0-1.8,0.8-3,2.5-3.5l2.8-0.8
			c1.5-0.5,1.5-0.9,1.5-1.9c0-1.2-0.8-1.9-2.2-1.9c-2.3,0-2.3,2-2.3,2.5v0.1H155.9z M162.4,549.5c-0.8,0.8-2.6,0.9-3.6,1.5
			c-0.7,0.4-1,0.9-1,2c0,1.3,0.5,2.2,1.9,2.2c1.4,0,2.7-1.1,2.7-2.4V549.5z"/>
		<path d="M167.5,539.5h2.1v16.9h-2.1V539.5z"/>
		<path d="M181.3,556.4h-2v-1.5h-0.1c-0.6,1.2-2,1.8-3.3,1.8c-3.5,0-3.5-2.5-3.5-4v-9h2.1v8.8c0,1,0.1,2.6,2,2.6
			c1.1,0,2.7-0.7,2.7-2.6v-8.8h2.1V556.4z"/>
		<path d="M185.9,550.3c0,1.9,0,4.9,2.6,4.9c2,0,2.3-2,2.3-2.9h2.1c0,1.4-0.9,4.5-4.5,4.5c-3.3,0-4.7-2.2-4.7-6.5
			c0-3.2,0.7-6.9,4.8-6.9c4.1,0,4.5,3.4,4.5,6.1v0.8H185.9z M190.7,548.7V548c0-1.4-0.5-3.1-2.3-3.1c-2.2,0-2.5,2.6-2.5,3.3v0.5
			H190.7z"/>
		<path d="M201,547.4c0-1.6-0.5-2.5-2-2.5c-0.7,0-2.2,0.2-2.2,1.9c0,1.5,1.7,1.8,3.3,2.3c1.6,0.5,3.3,1.1,3.3,3.6c0,2.7-1.8,4-4.3,4
			c-4.6,0-4.6-3.2-4.6-4.5h2.1c0,1.5,0.5,2.9,2.5,2.9c0.7,0,2.2-0.3,2.2-2.1c0-1.7-1.7-2.1-3.3-2.6c-1.6-0.5-3.3-1-3.3-3.6
			c0-2.4,2-3.5,4.3-3.5c3.9,0,4.1,2.6,4.1,4.1H201z"/>
		<path d="M211.2,547.5c0-2.9,1.3-4.2,4.5-4.2c4.1,0,4.1,2.3,4.1,3.7v7.1c0,0.5,0,1,0.7,1c0.3,0,0.4,0,0.5-0.1v1.4
			c-0.2,0-0.7,0.1-1.2,0.1c-0.8,0-1.8,0-1.9-1.6h-0.1c-0.7,1.1-2,1.8-3.2,1.8c-2.5,0-3.7-1.4-3.7-3.7c0-1.8,0.8-3,2.5-3.5l2.8-0.8
			c1.5-0.5,1.5-0.9,1.5-1.9c0-1.2-0.8-1.9-2.2-1.9c-2.3,0-2.3,2-2.3,2.5v0.1H211.2z M217.7,549.5c-0.8,0.8-2.6,0.9-3.6,1.5
			c-0.7,0.4-1,0.9-1,2c0,1.3,0.5,2.2,1.9,2.2c1.4,0,2.7-1.1,2.7-2.4V549.5z"/>
		<path d="M222.7,543.7h2.1v1.9h0.1c0.6-1.2,1.4-2.2,2.9-2.2c0.4,0,0.7,0,0.9,0.1v1.9c-0.2,0-0.5-0.1-1.1-0.1c-1.1,0-2.8,0.9-2.8,3
			v8h-2.1V543.7z"/>
		<path d="M231.8,550.3c0,1.9,0,4.9,2.6,4.9c2,0,2.3-2,2.3-2.9h2.1c0,1.4-0.9,4.5-4.5,4.5c-3.3,0-4.7-2.2-4.7-6.5
			c0-3.2,0.7-6.9,4.8-6.9c4.1,0,4.5,3.4,4.5,6.1v0.8H231.8z M236.7,548.7V548c0-1.4-0.5-3.1-2.3-3.1c-2.2,0-2.5,2.6-2.5,3.3v0.5
			H236.7z"/>
		<path d="M247.3,539.5h2.1v5.7h0.1c0.5-1.1,1.8-1.8,3.1-1.8c3.6,0,4.1,4,4.1,6.7c0,3.6-1.3,6.7-4.4,6.7c-1.5,0-2.6-0.9-2.9-1.9
			h-0.1v1.6h-2V539.5z M252,555c2,0,2.5-2.1,2.5-5c0-3-0.5-5-2.5-5c-2.3,0-2.7,2.5-2.7,5C249.3,552.7,249.7,555,252,555z"/>
		<path d="M258.6,547.5c0-2.9,1.3-4.2,4.5-4.2c4.1,0,4.1,2.3,4.1,3.7v7.1c0,0.5,0,1,0.7,1c0.3,0,0.4,0,0.5-0.1v1.4
			c-0.2,0-0.7,0.1-1.2,0.1c-0.8,0-1.8,0-1.9-1.6h-0.1c-0.7,1.1-2,1.8-3.2,1.8c-2.5,0-3.7-1.4-3.7-3.7c0-1.8,0.8-3,2.5-3.5l2.8-0.8
			c1.5-0.5,1.5-0.9,1.5-1.9c0-1.2-0.8-1.9-2.2-1.9c-2.3,0-2.3,2-2.3,2.5v0.1H258.6z M265.1,549.5c-0.8,0.8-2.6,0.9-3.6,1.5
			c-0.7,0.4-1,0.9-1,2c0,1.3,0.5,2.2,1.9,2.2c1.4,0,2.7-1.1,2.7-2.4V549.5z"/>
		<path d="M275.8,547.4c0-1.6-0.5-2.5-2-2.5c-0.7,0-2.2,0.2-2.2,1.9c0,1.5,1.7,1.8,3.3,2.3c1.6,0.5,3.3,1.1,3.3,3.6
			c0,2.7-1.8,4-4.3,4c-4.6,0-4.6-3.2-4.6-4.5h2.1c0,1.5,0.5,2.9,2.5,2.9c0.7,0,2.2-0.3,2.2-2.1c0-1.7-1.7-2.1-3.3-2.6
			c-1.6-0.5-3.3-1-3.3-3.6c0-2.4,2-3.5,4.3-3.5c3.9,0,4.1,2.6,4.1,4.1H275.8z"/>
		<path d="M282,550.3c0,1.9,0,4.9,2.6,4.9c2,0,2.3-2,2.3-2.9h2.1c0,1.4-0.9,4.5-4.5,4.5c-3.3,0-4.7-2.2-4.7-6.5
			c0-3.2,0.7-6.9,4.8-6.9c4.1,0,4.5,3.4,4.5,6.1v0.8H282z M286.9,548.7V548c0-1.4-0.5-3.1-2.3-3.1c-2.2,0-2.5,2.6-2.5,3.3v0.5H286.9
			z"/>
		<path d="M300.3,556.4h-2v-1.6h-0.1c-0.3,0.9-1.5,1.9-2.9,1.9c-3.2,0-4.4-2.7-4.4-6.7c0-2.7,0.5-6.7,4.2-6.7c1.2,0,2.5,0.7,3,1.8
			h0.1v-5.7h2.1V556.4z M295.6,555c2.3,0,2.7-2.1,2.7-5c0-2.5-0.5-5-2.7-5c-2,0-2.5,1.9-2.5,5S293.6,555,295.6,555z"/>
		<path d="M313.3,543.4c3.9,0,4.8,3.1,4.8,6.7c0,3.6-1,6.7-4.8,6.7c-3.9,0-4.8-3.1-4.8-6.7C308.4,546.5,309.4,543.4,313.3,543.4z
			 M315.9,550c0-2.8-0.4-5.1-2.7-5.1c-2.1,0-2.6,2.4-2.6,5.1c0,2.8,0.4,5.1,2.6,5.1C315.5,555.2,315.9,552.8,315.9,550z"/>
		<path d="M320.2,543.7h2v1.5h0c0.6-1.2,2-1.8,3.3-1.8c3.5,0,3.5,2.5,3.5,4v9H327v-8.8c0-1-0.1-2.6-2-2.6c-1.1,0-2.7,0.7-2.7,2.6
			v8.8h-2.1V543.7z"/>
		<path d="M337.6,547.5c0-2.9,1.3-4.2,4.5-4.2c4.1,0,4.1,2.3,4.1,3.7v7.1c0,0.5,0,1,0.7,1c0.3,0,0.4,0,0.5-0.1v1.4
			c-0.2,0-0.7,0.1-1.2,0.1c-0.8,0-1.8,0-1.9-1.6h-0.1c-0.7,1.1-2,1.8-3.2,1.8c-2.5,0-3.7-1.4-3.7-3.7c0-1.8,0.8-3,2.5-3.5l2.8-0.8
			c1.5-0.5,1.5-0.9,1.5-1.9c0-1.2-0.8-1.9-2.2-1.9c-2.3,0-2.3,2-2.3,2.5v0.1H337.6z M344.1,549.5c-0.8,0.8-2.6,0.9-3.6,1.5
			c-0.7,0.4-1,0.9-1,2c0,1.3,0.5,2.2,1.9,2.2c1.4,0,2.7-1.1,2.7-2.4V549.5z"/>
		<path d="M364.7,556.4h-9.9c0-3.1,1.9-5.3,3.8-6.9l1.5-1.2c1.4-1.2,2.4-2.2,2.4-4c0-1.4-0.7-3-2.6-3c-2.7,0-2.8,2.7-2.8,3.6h-2.2
			c0-3.2,1.4-5.3,5-5.3c4.1,0,4.8,3,4.8,4.5c0,2.6-1.1,3.9-3.1,5.5l-2.5,2.1c-1,0.8-1.7,1.8-1.9,2.9h7.6V556.4z"/>
		<path d="M367.6,553.9h2.3v2.1c0,1.8-0.2,3.4-2.3,4v-1.1c0.9-0.4,1.1-0.9,1.1-1.8v-0.6h-1.1V553.9z"/>
		<path d="M372.7,548.2c0-3.7,0.3-8.6,5.1-8.6c4.8,0,5.1,4.5,5.1,8.6c0,3.6-0.3,8.5-5.1,8.5C373,556.7,372.7,552.2,372.7,548.2z
			 M377.8,555.2c2.7,0,2.9-3.4,2.9-6.9c0-3.7-0.2-7.1-2.9-7.1c-2.7,0-2.9,3.4-2.9,7.1C374.9,551.8,375.1,555.2,377.8,555.2z"/>
		<path d="M384.8,548.2c0-3.7,0.3-8.6,5.1-8.6c4.8,0,5.1,4.5,5.1,8.6c0,3.6-0.3,8.5-5.1,8.5C385,556.7,384.8,552.2,384.8,548.2z
			 M389.8,555.2c2.7,0,2.9-3.4,2.9-6.9c0-3.7-0.2-7.1-2.9-7.1c-2.7,0-2.9,3.4-2.9,7.1C387,551.8,387.1,555.2,389.8,555.2z"/>
		<path d="M396.8,548.2c0-3.7,0.3-8.6,5.1-8.6c4.8,0,5.1,4.5,5.1,8.6c0,3.6-0.3,8.5-5.1,8.5C397.1,556.7,396.8,552.2,396.8,548.2z
			 M401.9,555.2c2.7,0,2.9-3.4,2.9-6.9c0-3.7-0.2-7.1-2.9-7.1c-2.7,0-2.9,3.4-2.9,7.1C399,551.8,399.2,555.2,401.9,555.2z"/>
		<path d="M421.7,547.6c0-1.2-0.5-2.6-2.1-2.6c-1.3,0-2.6,0.6-2.6,5.3c0,1.7,0,5,2.6,5c1.8,0,2.2-1.8,2.2-3.2h2.1
			c0,2-1.1,4.7-4.4,4.7c-3.3,0-4.7-2.2-4.7-6.5c0-3.2,0.7-6.9,4.8-6.9c3.7,0,4.3,2.7,4.3,4.2H421.7z"/>
		<path d="M425.7,547.5c0-2.9,1.3-4.2,4.5-4.2c4.1,0,4.1,2.3,4.1,3.7v7.1c0,0.5,0,1,0.7,1c0.3,0,0.4,0,0.5-0.1v1.4
			c-0.2,0-0.7,0.1-1.2,0.1c-0.8,0-1.8,0-1.9-1.6h-0.1c-0.7,1.1-2,1.8-3.2,1.8c-2.5,0-3.7-1.4-3.7-3.7c0-1.8,0.8-3,2.5-3.5l2.8-0.8
			c1.5-0.5,1.5-0.9,1.5-1.9c0-1.2-0.8-1.9-2.2-1.9c-2.3,0-2.3,2-2.3,2.5v0.1H425.7z M432.2,549.5c-0.8,0.8-2.6,0.9-3.6,1.5
			c-0.7,0.4-1,0.9-1,2c0,1.3,0.5,2.2,1.9,2.2c1.4,0,2.7-1.1,2.7-2.4V549.5z"/>
		<path d="M437.3,539.5h2.1v16.9h-2.1V539.5z"/>
		<path d="M446.5,543.4c3.9,0,4.8,3.1,4.8,6.7c0,3.6-1,6.7-4.8,6.7c-3.9,0-4.8-3.1-4.8-6.7C441.7,546.5,442.6,543.4,446.5,543.4z
			 M449.1,550c0-2.8-0.4-5.1-2.7-5.1c-2.1,0-2.6,2.4-2.6,5.1c0,2.8,0.4,5.1,2.6,5.1C448.7,555.2,449.1,552.8,449.1,550z"/>
		<path d="M453.5,543.7h2.1v1.9h0c0.6-1.2,1.4-2.2,2.9-2.2c0.4,0,0.7,0,0.9,0.1v1.9c-0.2,0-0.5-0.1-1.1-0.1c-1.1,0-2.8,0.9-2.8,3v8
			h-2.1V543.7z"/>
		<path d="M461,539.5h2.1v2.3H461V539.5z M461,543.7h2.1v12.7H461V543.7z"/>
		<path d="M467.8,550.3c0,1.9,0,4.9,2.6,4.9c2,0,2.3-2,2.3-2.9h2.1c0,1.4-0.9,4.5-4.5,4.5c-3.3,0-4.7-2.2-4.7-6.5
			c0-3.2,0.7-6.9,4.8-6.9c4.1,0,4.5,3.4,4.5,6.1v0.8H467.8z M472.7,548.7V548c0-1.4-0.5-3.1-2.3-3.1c-2.2,0-2.5,2.6-2.5,3.3v0.5
			H472.7z"/>
		<path d="M492.1,556.4h-2v-1.6H490c-0.3,0.9-1.5,1.9-2.9,1.9c-3.2,0-4.4-2.7-4.4-6.7c0-2.7,0.5-6.7,4.2-6.7c1.2,0,2.5,0.7,3,1.8
			h0.1v-5.7h2.1V556.4z M487.4,555c2.3,0,2.7-2.1,2.7-5c0-2.5-0.5-5-2.7-5c-2,0-2.5,1.9-2.5,5S485.4,555,487.4,555z"/>
		<path d="M495,539.5h2.1v2.3H495V539.5z M495,543.7h2.1v12.7H495V543.7z"/>
		<path d="M501.7,550.3c0,1.9,0,4.9,2.6,4.9c2,0,2.3-2,2.3-2.9h2.1c0,1.4-0.9,4.5-4.5,4.5c-3.3,0-4.7-2.2-4.7-6.5
			c0-3.2,0.7-6.9,4.8-6.9c4.1,0,4.5,3.4,4.5,6.1v0.8H501.7z M506.6,548.7V548c0-1.4-0.5-3.1-2.3-3.1c-2.2,0-2.5,2.6-2.5,3.3v0.5
			H506.6z"/>
		<path d="M511.7,540h2.1v3.7h2.3v1.6h-2.3v8.2c0,1,0.3,1.4,1.4,1.4c0.5,0,0.7,0,0.9-0.1v1.6c-0.3,0-0.8,0.1-1.7,0.1
			c-2.2,0-2.7-0.9-2.7-2.5v-8.8h-2v-1.6h2V540z"/>
		<path d="M518.1,553.9h2.3v2.5h-2.3V553.9z"/>
		<path d="M21.8,560.4h2.1v4.9h4.3v1.7h-4.3v13.7h-2.1V567h-4.3v-1.7h4.3V560.4z"/>
		<path d="M36.6,560.4h4.8c5.6,0,6.3,3.8,6.3,8.5c0,4.3-1.1,8.5-6.1,8.5h-5V560.4z M38.8,575.7h2.3c3.8,0,4.2-3.7,4.2-6.7
			c0-3.3-0.2-6.8-4.2-6.8h-2.3V575.7z"/>
		<path d="M49.9,568.5c0-2.9,1.3-4.2,4.5-4.2c4.1,0,4.1,2.3,4.1,3.7v7.1c0,0.5,0,1,0.7,1c0.3,0,0.4,0,0.5-0.1v1.4
			c-0.2,0-0.7,0.1-1.2,0.1c-0.8,0-1.8,0-1.9-1.6h-0.1c-0.7,1.1-2,1.8-3.2,1.8c-2.5,0-3.7-1.4-3.7-3.7c0-1.8,0.8-3,2.5-3.5l2.8-0.8
			c1.5-0.5,1.5-0.9,1.5-1.9c0-1.2-0.8-1.9-2.2-1.9c-2.3,0-2.3,2-2.3,2.5v0.1H49.9z M56.4,570.4c-0.8,0.8-2.6,0.9-3.6,1.5
			c-0.7,0.4-1,0.9-1,2c0,1.3,0.5,2.2,1.9,2.2c1.4,0,2.7-1.1,2.7-2.4V570.4z"/>
		<path d="M61.5,560.4h2.1v2.3h-2.1V560.4z M61.5,564.7h2.1v12.7h-2.1V564.7z"/>
		<path d="M66.7,560.4h2.1v16.9h-2.1V560.4z"/>
		<path d="M70.5,564.7h2.3l2.7,10.2h0.1l2.4-10.2h2.3l-3.9,13.6c-0.5,1.8-1.1,3.3-3.6,3.3c-0.8,0-1.2,0-1.5-0.1v-1.6
			c0.3,0,0.7,0.1,1.2,0.1c1,0,1.4-0.5,1.7-1.2l0.4-1.1L70.5,564.7z"/>
		<path d="M85.5,560.4h2.3l3.5,14.5h0.1l3.5-14.5h2.3l-4.5,16.9h-2.8L85.5,560.4z"/>
		<path d="M97.8,568.5c0-2.9,1.3-4.2,4.5-4.2c4.1,0,4.1,2.3,4.1,3.7v7.1c0,0.5,0,1,0.7,1c0.3,0,0.4,0,0.5-0.1v1.4
			c-0.2,0-0.7,0.1-1.2,0.1c-0.8,0-1.8,0-1.9-1.6h-0.1c-0.7,1.1-2,1.8-3.2,1.8c-2.5,0-3.7-1.4-3.7-3.7c0-1.8,0.8-3,2.5-3.5l2.8-0.8
			c1.5-0.5,1.5-0.9,1.5-1.9c0-1.2-0.8-1.9-2.2-1.9c-2.3,0-2.3,2-2.3,2.5v0.1H97.8z M104.3,570.4c-0.8,0.8-2.6,0.9-3.6,1.5
			c-0.7,0.4-1,0.9-1,2c0,1.3,0.5,2.2,1.9,2.2c1.4,0,2.7-1.1,2.7-2.4V570.4z"/>
		<path d="M109.4,560.4h2.1v16.9h-2.1V560.4z"/>
		<path d="M123.2,577.4h-2v-1.5h0c-0.6,1.2-2,1.8-3.3,1.8c-3.5,0-3.5-2.5-3.5-4v-9h2.1v8.8c0,1,0.1,2.6,2,2.6c1.1,0,2.7-0.7,2.7-2.6
			v-8.8h2.1V577.4z"/>
		<path d="M127.8,571.3c0,1.9,0,4.9,2.6,4.9c2,0,2.3-2,2.3-2.9h2.1c0,1.4-0.9,4.5-4.5,4.5c-3.3,0-4.7-2.2-4.7-6.5
			c0-3.2,0.7-6.9,4.8-6.9c4.1,0,4.5,3.4,4.5,6.1v0.8H127.8z M132.6,569.7V569c0-1.4-0.5-3.1-2.3-3.1c-2.2,0-2.5,2.6-2.5,3.3v0.5
			H132.6z"/>
		<path d="M143.3,560.4h2.9l5.9,14.1h0.1v-14.1h2.2v16.9h-3l-5.8-13.7h-0.1v13.7h-2.2V560.4z"/>
		<path d="M161.3,564.3c3.9,0,4.8,3.1,4.8,6.7c0,3.6-1,6.7-4.8,6.7c-3.9,0-4.8-3.1-4.8-6.7C156.5,567.4,157.5,564.3,161.3,564.3z
			 M164,571c0-2.8-0.4-5.1-2.7-5.1c-2.1,0-2.6,2.4-2.6,5.1c0,2.8,0.4,5.1,2.6,5.1C163.5,576.1,164,573.8,164,571z"/>
		<path d="M168.9,561h2.1v3.7h2.3v1.6H171v8.2c0,1,0.3,1.4,1.4,1.4c0.5,0,0.7,0,0.9-0.1v1.6c-0.3,0-0.8,0.1-1.7,0.1
			c-2.2,0-2.7-0.9-2.7-2.5v-8.8h-2v-1.6h2V561z"/>
		<path d="M180.9,560.4h9.3v1.9h-7.1v5.3h6.7v1.9h-6.7v6.1h7.4v1.9h-9.6V560.4z"/>
		<path d="M198.2,568.4c0-1.6-0.5-2.5-2-2.5c-0.7,0-2.2,0.2-2.2,1.9c0,1.5,1.7,1.8,3.3,2.3c1.6,0.5,3.3,1.1,3.3,3.6
			c0,2.7-1.8,4-4.3,4c-4.6,0-4.6-3.2-4.6-4.5h2.1c0,1.5,0.5,2.9,2.5,2.9c0.7,0,2.2-0.3,2.2-2.1c0-1.7-1.7-2.1-3.3-2.6
			c-1.6-0.5-3.3-1-3.3-3.6c0-2.4,2-3.5,4.3-3.5c3.9,0,4.1,2.6,4.1,4.1H198.2z"/>
		<path d="M203.3,561h2.1v3.7h2.3v1.6h-2.3v8.2c0,1,0.3,1.4,1.4,1.4c0.5,0,0.7,0,0.9-0.1v1.6c-0.3,0-0.8,0.1-1.7,0.1
			c-2.2,0-2.7-0.9-2.7-2.5v-8.8h-2v-1.6h2V561z"/>
		<path d="M208.9,568.5c0-2.9,1.3-4.2,4.5-4.2c4.1,0,4.1,2.3,4.1,3.7v7.1c0,0.5,0,1,0.7,1c0.3,0,0.4,0,0.5-0.1v1.4
			c-0.2,0-0.7,0.1-1.2,0.1c-0.8,0-1.8,0-1.9-1.6h-0.1c-0.7,1.1-2,1.8-3.2,1.8c-2.5,0-3.7-1.4-3.7-3.7c0-1.8,0.8-3,2.5-3.5l2.8-0.8
			c1.5-0.5,1.5-0.9,1.5-1.9c0-1.2-0.8-1.9-2.2-1.9c-2.3,0-2.3,2-2.3,2.5v0.1H208.9z M215.4,570.4c-0.8,0.8-2.6,0.9-3.6,1.5
			c-0.7,0.4-1,0.9-1,2c0,1.3,0.5,2.2,1.9,2.2c1.4,0,2.7-1.1,2.7-2.4V570.4z"/>
		<path d="M220.3,560.4h2.1v5.7h0.1c0.5-1.1,1.8-1.8,3.1-1.8c3.6,0,4.1,4,4.1,6.7c0,3.6-1.3,6.7-4.4,6.7c-1.5,0-2.6-0.9-2.9-1.9
			h-0.1v1.6h-2V560.4z M225,576c2,0,2.5-2.1,2.5-5c0-3-0.5-5-2.5-5c-2.3,0-2.7,2.5-2.7,5C222.3,573.6,222.8,576,225,576z"/>
		<path d="M232.1,560.4h2.1v16.9h-2.1V560.4z"/>
		<path d="M237.2,560.4h2.1v2.3h-2.1V560.4z M237.2,564.7h2.1v12.7h-2.1V564.7z"/>
		<path d="M248,568.4c0-1.6-0.5-2.5-2-2.5c-0.7,0-2.2,0.2-2.2,1.9c0,1.5,1.7,1.8,3.3,2.3c1.6,0.5,3.3,1.1,3.3,3.6c0,2.7-1.8,4-4.3,4
			c-4.6,0-4.6-3.2-4.6-4.5h2.1c0,1.5,0.5,2.9,2.5,2.9c0.7,0,2.2-0.3,2.2-2.1c0-1.7-1.7-2.1-3.3-2.6c-1.6-0.5-3.3-1-3.3-3.6
			c0-2.4,2-3.5,4.3-3.5c3.9,0,4.1,2.6,4.1,4.1H248z"/>
		<path d="M252.4,560.4h2.1v5.7h0.1c0.6-1,2-1.8,3.2-1.8c3.5,0,3.5,2.5,3.5,4v9h-2.1v-8.8c0-1-0.1-2.6-2-2.6c-1.1,0-2.7,0.7-2.7,2.6
			v8.8h-2.1V560.4z"/>
		<path d="M265.8,571.3c0,1.9,0,4.9,2.6,4.9c2,0,2.3-2,2.3-2.9h2.1c0,1.4-0.9,4.5-4.5,4.5c-3.3,0-4.7-2.2-4.7-6.5
			c0-3.2,0.7-6.9,4.8-6.9c4.1,0,4.5,3.4,4.5,6.1v0.8H265.8z M270.7,569.7V569c0-1.4-0.5-3.1-2.3-3.1c-2.2,0-2.5,2.6-2.5,3.3v0.5
			H270.7z"/>
		<path d="M284.1,577.4h-2v-1.6H282c-0.3,0.9-1.5,1.9-2.9,1.9c-3.2,0-4.4-2.7-4.4-6.7c0-2.7,0.5-6.7,4.2-6.7c1.2,0,2.5,0.7,3,1.8
			h0.1v-5.7h2.1V577.4z M279.4,576c2.3,0,2.7-2.1,2.7-5c0-2.5-0.5-5-2.7-5c-2,0-2.5,1.9-2.5,5S277.4,576,279.4,576z"/>
	</g>
	<g>
		<path d="M555.4,392.3c0-1.3-0.8-2.3-2.2-2.3c-2.8,0-2.9,3.9-2.9,4.7v1.2h0c0.3-0.6,1.3-1.7,3.2-1.7c2.9,0,4.3,2,4.3,4.9
			c0,3-1.6,5.3-4.7,5.3c-4.6,0-4.9-4.2-4.9-7.4c0-3.6,0.2-8.5,5-8.5c3.9,0,4.2,3,4.2,3.8H555.4z M553.2,403.1c2.1,0,2.6-2,2.6-3.6
			s-0.4-3.6-2.6-3.6s-2.6,2-2.6,3.6S551.1,403.1,553.2,403.1z"/>
		<path d="M560.9,388.9h7.4v1.7h-5.8l-0.7,4.5l0,0c0.7-0.8,1.8-1.2,2.9-1.2c2.5,0,4.2,1.9,4.2,5.1c0,2.9-1.4,5.4-4.8,5.4
			c-3.9,0-4.5-3.1-4.5-4.3h2.1c0,0.8,0.3,2.9,2.5,2.9c2.3,0,2.7-2.5,2.7-4.1c0-1.7-0.7-3.5-2.8-3.5c-1.4,0-2.3,1.1-2.3,1.5l-1.8-0.1
			L560.9,388.9z"/>
		<path d="M571,392.8c0-2.2,0.3-4.2,3.1-4.2s3.1,2,3.1,4.2c0,2.2-0.3,4.2-3.1,4.2S571,395,571,392.8z M575.4,392.8
			c0-1.8-0.1-3-1.4-3c-1.3,0-1.4,1.2-1.4,3c0,1.8,0.1,3,1.4,3C575.3,395.9,575.4,394.6,575.4,392.8z M581.5,388.6h1.6l-7.2,15.9
			h-1.6L581.5,388.6z M580.4,400.3c0-2.2,0.3-4.2,3.1-4.2c2.8,0,3.1,2,3.1,4.2c0,2.2-0.3,4.2-3.1,4.2
			C580.7,404.5,580.4,402.5,580.4,400.3z M584.9,400.3c0-1.8-0.1-3-1.4-3c-1.3,0-1.4,1.2-1.4,3c0,1.8,0.1,3,1.4,3
			C584.8,403.3,584.9,402.1,584.9,400.3z"/>
		<path d="M581.4,428h1.9v4.5h3.8v1.6h-3.8v12.7h-1.9v-12.7h-3.8v-1.6h3.8V428z"/>
		<path d="M581.4,457.8h1.9v4.5h3.8v1.6h-3.8v12.7h-1.9V464h-3.8v-1.6h3.8V457.8z"/>
		<path d="M581.4,487.6h1.9v4.5h3.8v1.6h-3.8v12.7h-1.9v-12.7h-3.8v-1.6h3.8V487.6z"/>
	</g>
	<rect x="13" y="452.2" width="586" height="0.7"/>
	<rect x="13" y="482.3" width="586" height="0.7"/>
	<g>
		<path d="M26.7,237.3c0,1.1,0.2,2,0.5,2.8c0.9,2.6,3.8,3.1,6.2,3.1c2.1,0,5.4-0.7,5.4-3.9c0-2.2-1.8-2.8-9.1-4.9
			c-6.7-1.9-14.4-3.7-14.4-12.3c0-9.8,8.4-14,17.1-14c9.2,0,17.3,3.5,17.7,13.8H37.8c0.2-1.6-0.5-2.7-1.5-3.4
			c-1.1-0.8-2.6-1.1-3.9-1.1c-1.8,0-4.7,0.5-4.7,2.8c0.2,3,6.3,3.7,12.3,5.3c6,1.7,11.9,4.4,11.9,12.2c0,11-10.1,14.6-19.6,14.6
			c-4.8,0-18.5-1.7-18.6-15.2H26.7z"/>
		<path d="M87.8,251.6H76.4v-3.9h-0.1c-2.2,3.1-5.3,4.7-10,4.7c-5.5,0-10.6-3.4-10.6-10.4v-21.1h11.7v16.1c0,3.6,0.4,6,3.9,6
			c2,0,4.7-1,4.7-5.9v-16.3h11.7V251.6z"/>
		<path d="M94.2,220.8h11.3v3.4h0.1c1.5-2,3.3-4.2,9-4.2c8.7,0,12.9,8.6,12.9,16.3c0,7.2-2.8,16-13.1,16c-3.5,0-6.6-1.5-8.4-4.2
			h-0.1v13.3H94.2V220.8z M110.7,243.8c4.2,0,5.2-4,5.2-7.6c0-3.7-0.9-7.7-5.2-7.7c-4.2,0-5.2,4-5.2,7.7
			C105.5,239.8,106.4,243.8,110.7,243.8z"/>
		<path d="M132.6,220.8h11.3v3.4h0.1c1.5-2,3.3-4.2,9-4.2c8.7,0,12.9,8.6,12.9,16.3c0,7.2-2.8,16-13.1,16c-3.5,0-6.6-1.5-8.4-4.2
			h-0.1v13.3h-11.7V220.8z M149.1,243.8c4.2,0,5.2-4,5.2-7.6c0-3.7-0.9-7.7-5.2-7.7c-4.2,0-5.2,4-5.2,7.7
			C143.9,239.8,144.9,243.8,149.1,243.8z"/>
		<path d="M171.3,209.2H183v42.3h-11.7V209.2z"/>
		<path d="M199.6,238.8c0.3,3.5,2.3,6,6,6c1.9,0,4-0.7,4.9-2.2h11c-2.4,6.6-8.8,9.7-15.8,9.7c-9.8,0-17.3-5.8-17.3-16.1
			c0-9,6.5-16.3,16.3-16.3c12.2,0,17.5,6.8,17.5,18.8H199.6z M210.9,232.7c0-2.8-2.1-5.2-5.2-5.2c-3.5,0-5.5,1.8-6,5.2H210.9z"/>
		<path d="M227,220.8h11.3v4.1h0.1c2.4-3.6,5.8-4.9,10.1-4.9c3.3,0,6.9,1.7,8.3,4.8c0.5-0.4,2.8-4.8,10.5-4.8
			c7.9,0,10.6,5.5,10.6,10.4v21.1h-11.7v-16.7c0-2.9-0.3-5.5-3.9-5.5c-3,0-4,2.3-4,5.5v16.7h-11.7v-16.7c0-2.9-0.3-5.5-3.9-5.5
			c-3,0-4,2.3-4,5.5v16.7H227V220.8z"/>
		<path d="M294.1,238.8c0.3,3.5,2.3,6,6,6c1.9,0,4-0.7,4.9-2.2h11c-2.4,6.6-8.8,9.7-15.8,9.7c-9.8,0-17.3-5.8-17.3-16.1
			c0-9,6.5-16.3,16.3-16.3c12.2,0,17.5,6.8,17.5,18.8H294.1z M305.4,232.7c0-2.8-2.1-5.2-5.2-5.2c-3.5,0-5.5,1.8-6,5.2H305.4z"/>
		<path d="M321.6,220.8h11.3v3.9h0.1c2.2-3.1,5.3-4.7,10-4.7c5.5,0,10.6,3.4,10.6,10.4v21.1h-11.7v-16.1c0-3.6-0.4-6-3.9-6
			c-2,0-4.7,1-4.7,5.9v16.3h-11.7V220.8z"/>
		<path d="M374.1,220.8h6.3v7.2h-6.3v10.7c0,2.8,0.7,4.1,3.6,4.1c0.9,0,1.8-0.1,2.7-0.2v8.9c-2.4,0-5,0.4-7.5,0.4
			c-5,0-10.5-0.8-10.5-9.2V228h-5.2v-7.2h5.2v-9.4h11.7V220.8z"/>
		<path d="M404.2,209.2h32.7v10.9h-19.7v5.3h16.9v10.1h-16.9v16.1h-13V209.2z"/>
		<path d="M471.4,244.7c0,2.3,0.1,4.9,1.4,6.9h-12c-0.3-0.8-0.5-2.1-0.4-2.9h-0.1c-2.5,2.8-6.1,3.7-9.9,3.7
			c-5.9,0-10.9-2.8-10.9-9.3c0-9.7,11.4-9.4,17.4-10.5c1.6-0.3,3.2-0.8,3.2-2.7c0-2.1-2-2.8-3.9-2.8c-3.6,0-4.3,1.8-4.4,3.1h-10.9
			c0.2-4.3,2.3-6.9,5.3-8.3c3-1.4,6.9-1.8,10.5-1.8c14.7,0,14.6,6.1,14.6,12V244.7z M460.1,237.7c-1.4,0.7-3,1.1-4.6,1.5
			c-2.6,0.6-4,1.2-4,3.3c0,1.4,1.5,2.8,3.7,2.8c2.7,0,4.7-1.6,4.9-4.8V237.7z"/>
		<path d="M497.5,232.5c-0.1-1.2-0.5-2.3-1.3-2.9c-0.7-0.7-1.7-1-3-1c-4.5,0-5.2,3.9-5.2,7.7c0,3.7,0.7,7.6,5.2,7.6
			c2.5,0,4.3-2.1,4.6-4.5H509c-0.5,4.2-2.5,7.4-5.3,9.7c-2.8,2.2-6.5,3.4-10.7,3.4c-9.3,0-16.7-6.4-16.7-16.1
			c0-9.7,7.4-16.2,16.7-16.2c8.1,0,14.9,4,15.7,12.5H497.5z"/>
		<path d="M527.9,220.8h6.3v7.2h-6.3v10.7c0,2.8,0.7,4.1,3.6,4.1c0.9,0,1.8-0.1,2.7-0.2v8.9c-2.4,0-5,0.4-7.5,0.4
			c-5,0-10.5-0.8-10.5-9.2V228H511v-7.2h5.2v-9.4h11.7V220.8z"/>
		<path d="M555.8,229.7c-0.1-1-0.6-1.8-1.4-2.3c-0.7-0.6-1.7-0.9-2.6-0.9c-1.7,0-3.6,0.4-3.6,2.4c0,0.9,0.7,1.3,1.4,1.6
			c2,0.8,6.4,1.1,10.3,2.4c3.9,1.2,7.4,3.6,7.4,8.6c0,8.5-8.2,10.9-15.7,10.9c-7.2,0-15.2-2.9-15.4-10.9h11.2c0.1,1.1,0.5,2,1.4,2.7
			c0.6,0.5,1.7,0.9,3.1,0.9c1.5,0,4-0.6,4-2.4s-1-2.3-6.5-3.3c-9-1.5-12.6-4.4-12.6-9.7c0-7.8,8.4-9.8,14.5-9.8
			c6.6,0,14.6,1.8,14.9,9.7H555.8z"/>
	</g>
</g>
</svg>
