<?xml version="1.0" encoding="utf-8"?>
<!-- Generator: Adobe Illustrator 19.1.0, SVG Export Plug-In . SVG Version: 6.00 Build 0)  -->
<svg version="1.1" id="Layer_1" xmlns="http://www.w3.org/2000/svg" xmlns:xlink="http://www.w3.org/1999/xlink" x="0px" y="0px"
	 viewBox="-306.7 447.5 612 326.7" style="enable-background:new -306.7 447.5 612 326.7;" xml:space="preserve">
<g>
	<path id="XMLID_2_" d="M304.6,448.2v325.3H-306V448.2H304.6 M305.3,447.5h-0.7H-306h-0.7v0.7v325.3v0.7h0.7h610.6h0.7v-0.7V448.2
		V447.5L305.3,447.5z"/>
	<rect x="-292" y="587" width="584.9" height="4.4"/>
	<rect x="-292" y="631.4" width="584.9" height="0.7"/>
	<g>
		<path d="M-286.9,638.5h1.9v14h6.4v1.7h-8.3C-286.9,654.2-286.9,638.5-286.9,638.5z"/>
		<path d="M-277.4,647.1h5.4v1.7h-5.4V647.1z"/>
		<path d="M-269.6,638.5h1.9v14h6.4v1.7h-8.3C-269.6,654.2-269.6,638.5-269.6,638.5z"/>
		<path d="M-258.4,648.5c0,1.8,0,4.5,2.3,4.5c1.8,0,2-1.8,2-2.7h1.8c0,1.2-0.7,4.2-3.9,4.2c-2.9,0-4.1-2-4.1-6
			c0-2.9,0.6-6.3,4.2-6.3c3.6,0,3.9,3.1,3.9,5.7v0.7L-258.4,648.5L-258.4,648.5z M-254.1,647v-0.6c0-1.3-0.4-2.9-2-2.9
			c-1.9,0-2.2,2.4-2.2,3.1v0.4H-254.1z"/>
		<path d="M-242.4,654.2h-1.8v-1.4l0,0c-0.5,1.1-1.7,1.7-2.9,1.7c-3.1,0-3.1-2.3-3.1-3.7v-8.4h1.8v8.1c0,0.9,0.1,2.4,1.7,2.4
			c1,0,2.3-0.7,2.3-2.4v-8.1h1.8v11.8L-242.4,654.2L-242.4,654.2z"/>
		<path d="M-234.4,646c0-1.1-0.5-2.4-1.9-2.4c-1.1,0-2.3,0.6-2.3,4.9c0,1.5,0,4.6,2.2,4.6c1.6,0,1.9-1.7,1.9-2.9h1.8
			c0,1.9-0.9,4.4-3.9,4.4c-2.9,0-4.1-2-4.1-6c0-2.9,0.6-6.3,4.2-6.3c3.2,0,3.8,2.5,3.8,3.9h-1.7V646z"/>
		<path d="M-230.5,638.5h1.8v2.1h-1.8V638.5z M-230.5,642.4h1.8v11.8h-1.8V642.4z"/>
		<path d="M-226.3,642.4h1.8v1.4l0,0c0.5-1.1,1.7-1.7,2.9-1.7c3.1,0,3.1,2.3,3.1,3.7v8.3h-1.8V646c0-0.9-0.1-2.4-1.7-2.4
			c-1,0-2.3,0.7-2.3,2.4v8.1h-1.8v-11.7H-226.3z"/>
		<path d="M-214.6,648.5c0,1.8,0,4.5,2.3,4.5c1.8,0,2-1.8,2-2.7h1.8c0,1.2-0.7,4.2-3.9,4.2c-2.9,0-4.1-2-4.1-6
			c0-2.9,0.6-6.3,4.2-6.3c3.6,0,3.9,3.1,3.9,5.7v0.7L-214.6,648.5L-214.6,648.5z M-210.3,647v-0.6c0-1.3-0.4-2.9-2-2.9
			c-1.9,0-2.2,2.4-2.2,3.1v0.4H-210.3z"/>
		<path d="M-286.9,668.3h1.9v14h6.4v1.7h-8.3C-286.9,683.9-286.9,668.3-286.9,668.3z"/>
		<path d="M-277.4,676.9h5.4v1.7h-5.4V676.9z"/>
		<path d="M-269.6,668.3h1.9V684h-1.9V668.3z"/>
		<path d="M-260.1,675.7c0-1.5-0.4-2.3-1.7-2.3c-0.6,0-1.9,0.2-1.9,1.8c0,1.4,1.4,1.6,2.9,2.1c1.4,0.5,2.9,1,2.9,3.3
			c0,2.5-1.6,3.7-3.8,3.7c-4,0-4-3-4-4.2h1.8c0,1.4,0.4,2.7,2.2,2.7c0.6,0,2-0.3,2-2c0-1.6-1.4-1.9-2.9-2.4
			c-1.4-0.5-2.9-0.9-2.9-3.3c0-2.2,1.7-3.2,3.8-3.2c3.4,0,3.6,2.4,3.6,3.8L-260.1,675.7L-260.1,675.7z"/>
		<path d="M-252.6,671.9c3.4,0,4.2,2.9,4.2,6.2s-0.9,6.2-4.2,6.2c-3.4,0-4.2-2.9-4.2-6.2S-256,671.9-252.6,671.9z M-250.3,678.1
			c0-2.5-0.4-4.7-2.3-4.7c-1.9,0-2.3,2.2-2.3,4.7s0.4,4.7,2.3,4.7C-250.7,682.7-250.3,680.6-250.3,678.1z"/>
		<path d="M-246.4,668.3h1.8V684h-1.8V668.3z"/>
		<path d="M-240.5,678.3c0,1.8,0,4.5,2.3,4.5c1.8,0,2-1.8,2-2.7h1.8c0,1.2-0.7,4.2-3.9,4.2c-2.9,0-4.1-2-4.1-6
			c0-2.9,0.6-6.3,4.2-6.3c3.6,0,3.9,3.1,3.9,5.7v0.7L-240.5,678.3L-240.5,678.3z M-236.2,676.9v-0.6c0-1.3-0.4-2.9-2-2.9
			c-1.9,0-2.2,2.4-2.2,3.1v0.4H-236.2z"/>
		<path d="M-224.6,683.9h-1.8v-1.4l0,0c-0.5,1.1-1.7,1.7-2.9,1.7c-3.1,0-3.1-2.3-3.1-3.7v-8.2h1.8v8.1c0,0.9,0.1,2.4,1.7,2.4
			c1,0,2.3-0.7,2.3-2.4v-8.1h1.8V684h0.2V683.9z"/>
		<path d="M-216.6,675.8c0-1.1-0.5-2.4-1.9-2.4c-1.1,0-2.3,0.6-2.3,4.9c0,1.5,0,4.6,2.2,4.6c1.6,0,1.9-1.7,1.9-2.9h1.8
			c0,1.9-0.9,4.4-3.9,4.4c-2.9,0-4.1-2-4.1-6c0-2.9,0.6-6.3,4.2-6.3c3.2,0,3.8,2.5,3.8,3.9h-1.7V675.8z"/>
		<path d="M-212.8,668.3h1.8v2.1h-1.8V668.3z M-212.8,672.2h1.8V684h-1.8V672.2z"/>
		<path d="M-208.4,672.2h1.8v1.4l0,0c0.5-1.1,1.7-1.7,2.9-1.7c3.1,0,3.1,2.3,3.1,3.7v8.3h-1.8v-8.1c0-0.9-0.1-2.4-1.7-2.4
			c-1,0-2.3,0.7-2.3,2.4v8.1h-1.8v-11.7H-208.4z"/>
		<path d="M-196.7,678.3c0,1.8,0,4.5,2.3,4.5c1.8,0,2-1.8,2-2.7h1.8c0,1.2-0.7,4.2-3.9,4.2c-2.9,0-4.1-2-4.1-6
			c0-2.9,0.6-6.3,4.2-6.3c3.6,0,3.9,3.1,3.9,5.7v0.7L-196.7,678.3L-196.7,678.3z M-192.5,676.9v-0.6c0-1.3-0.4-2.9-2-2.9
			c-1.9,0-2.2,2.4-2.2,3.1v0.4H-192.5z"/>
		<path d="M-286.9,698h1.9v14h6.4v1.7h-8.3C-286.9,713.7-286.9,698-286.9,698z"/>
		<path d="M-277.4,706.6h5.4v1.7h-5.4V706.6z"/>
		<path d="M-270.9,698h2l3.1,13.5l0,0l3.1-13.5h2l-3.9,15.7h-2.5L-270.9,698z"/>
		<path d="M-260.2,705.5c0-2.7,1.1-3.9,3.9-3.9c3.6,0,3.6,2.2,3.6,3.4v6.6c0,0.5,0,0.9,0.6,0.9c0.2,0,0.4,0,0.4-0.1v1.3
			c-0.1,0-0.6,0.1-1.1,0.1c-0.7,0-1.6,0-1.7-1.5l0,0c-0.6,1.1-1.7,1.7-2.8,1.7c-2.2,0-3.2-1.3-3.2-3.4c0-1.6,0.7-2.8,2.2-3.2
			l2.5-0.7c1.3-0.4,1.3-0.8,1.3-1.8c0-1.1-0.7-1.7-1.9-1.7c-2,0-2,1.9-2,2.3v0.1L-260.2,705.5L-260.2,705.5z M-254.5,707.3
			c-0.7,0.7-2.3,0.9-3.1,1.4c-0.6,0.4-0.9,0.8-0.9,1.9c0,1.2,0.4,2,1.7,2c1.2,0,2.4-1,2.4-2.2L-254.5,707.3L-254.5,707.3z"/>
		<path d="M-250.1,698h1.8v15.7h-1.8V698z"/>
		<path d="M-245.6,698h1.8v2.1h-1.8V698z M-245.6,701.9h1.8v11.8h-1.8V701.9z"/>
		<path d="M-241.2,701.9h1.8v1.4l0,0c0.5-1.1,1.7-1.7,2.9-1.7c3.1,0,3.1,2.3,3.1,3.7v8.3h-1.8v-8.1c0-0.9-0.1-2.4-1.7-2.4
			c-1,0-2.3,0.7-2.3,2.4v8.1h-1.8v-11.7H-241.2z"/>
		<path d="M-229.6,708c0,1.8,0,4.5,2.3,4.5c1.8,0,2-1.8,2-2.7h1.8c0,1.3-0.7,4.2-3.9,4.2c-2.9,0-4.1-2-4.1-6c0-2.9,0.6-6.3,4.2-6.3
			c3.6,0,3.9,3.1,3.9,5.7v0.7L-229.6,708L-229.6,708z M-225.4,706.6V706c0-1.3-0.4-2.9-2-2.9c-1.9,0-2.2,2.4-2.2,3.1v0.4H-225.4z"/>
	</g>
	<path d="M-278.1,527.8c-0.3-2.9-2.2-4.1-4.8-4.1c-2.2,0-4.4,0.8-4.4,3.4c0,2.5,3.1,2.9,6.2,3.6c3.1,0.7,6.2,1.9,6.2,5.8
		c0,4.3-4.1,6-7.6,6c-4.4,0-8-2.2-8-7.1h2.5c0,3.4,2.7,4.9,5.7,4.9c2.3,0,4.9-0.8,4.9-3.7c0-2.8-3.1-3.3-6.2-4
		c-3.1-0.7-6.2-1.6-6.2-5.3c0-4.1,3.5-5.9,7.1-5.9c4,0,7,2,7.2,6.4L-278.1,527.8L-278.1,527.8z"/>
	<path d="M-260.1,537.5c-0.6,3.2-2.9,5-6,5c-4.5,0-6.6-3.2-6.8-7.7c0-4.4,2.8-7.6,6.6-7.6c5,0,6.5,4.8,6.4,8.4h-10.5
		c-0.1,2.5,1.3,4.8,4.4,4.8c1.9,0,3.2-1,3.6-2.9H-260.1L-260.1,537.5z M-262.3,533.4c-0.1-2.3-1.8-4.1-4.1-4.1c-2.4,0-3.9,1.9-4,4.1
		H-262.3z"/>
	<path d="M-257.6,527.5h2.2v3.1h0.1c1.1-2.3,2.7-3.5,5.2-3.4v2.5c-3.7,0-5.1,2.2-5.1,5.9v6.5h-2.3L-257.6,527.5L-257.6,527.5z"/>
	<path d="M-242.1,542.1h-2.5l-5.2-14.6h2.6l3.9,12.2h0.1l3.8-12.2h2.4L-242.1,542.1z"/>
	<path d="M-232.4,524.9h-2.3V522h2.3V524.9z M-234.7,527.5h2.3v14.6h-2.3V527.5z"/>
	<path d="M-228.9,527.5h2.2v2.3h0.1c1-1.8,2.6-2.7,4.6-2.7c3.7,0,4.8,2.2,4.8,5.3v9.6h-2.3v-9.9c0-1.8-1.1-2.9-2.9-2.9
		c-2.8,0-4.2,2-4.2,4.6v8.3h-2.3C-228.9,542.1-228.9,527.5-228.9,527.5z"/>
	<path d="M-201.6,540.9c0,4.8-2.1,7.2-6.5,7.2c-2.6,0-5.7-1.1-5.8-4.3h2.3c0.1,1.8,2.1,2.4,3.6,2.4c3,0,4.2-2.3,4.2-5.5v-1h-0.1
		c-0.8,1.8-2.6,2.7-4.4,2.7c-4.2,0-6.3-3.4-6.3-7.4c0-3.4,1.6-7.7,6.5-7.7c1.8,0,3.4,0.8,4.2,2.4l0,0v-2.1h2.2L-201.6,540.9
		L-201.6,540.9z M-203.9,534.5c0-2.6-1.1-5.2-4-5.2c-3,0-4.2,2.5-4.2,5.3c0,2.6,0.9,5.6,4,5.6C-205,540.2-203.9,537.3-203.9,534.5z"
		/>
	<path d="M-179,527.8c-0.3-2.9-2.2-4.1-4.8-4.1c-2.2,0-4.4,0.8-4.4,3.4c0,2.5,3.1,2.9,6.2,3.6c3.1,0.7,6.2,1.9,6.2,5.8
		c0,4.3-4.1,6-7.6,6c-4.4,0-8-2.2-8-7.1h2.5c0,3.4,2.7,4.9,5.7,4.9c2.3,0,4.9-0.8,4.9-3.7c0-2.8-3.1-3.3-6.2-4
		c-3.1-0.7-6.2-1.6-6.2-5.3c0-4.1,3.5-5.9,7.1-5.9c4,0,7,2,7.2,6.4L-179,527.8L-179,527.8z"/>
	<path d="M-170.5,524.9h-2.3V522h2.3V524.9z M-172.8,527.5h2.3v14.6h-2.3V527.5z"/>
	<path d="M-168.1,540.3l8.5-10.7h-8v-2.1h10.9v1.6l-8.6,10.9h9v2.1h-11.9L-168.1,540.3L-168.1,540.3z"/>
	<path d="M-141.8,537.5c-0.6,3.2-2.9,5-6,5c-4.5,0-6.6-3.2-6.8-7.7c0-4.4,2.8-7.6,6.6-7.6c5,0,6.5,4.8,6.4,8.4h-10.5
		c-0.1,2.5,1.3,4.8,4.4,4.8c1.9,0,3.2-1,3.6-2.9H-141.8L-141.8,537.5z M-144.1,533.4c-0.1-2.3-1.8-4.1-4.1-4.1c-2.4,0-3.9,1.9-4,4.1
		H-144.1z"/>
	<path d="M-132.2,529.2c-0.2-4.1,2.1-7.1,6.2-7.1c3.4,0,6,2,6,5.8c0,3.5-2.3,5.3-4.7,6.9c-2.4,1.5-5,2.8-5.4,5.3h9.9v2.1h-12.6
		c0.4-4.8,2.7-6.4,5.4-8.2c3.3-2.1,4.9-3.3,4.9-6.1c0-2.2-1.7-3.6-3.7-3.6c-2.7,0-3.8,2.6-3.8,5L-132.2,529.2L-132.2,529.2z"/>
	<path d="M-95,528c-0.5-2.9-2.8-4.3-5.4-4.3c-4.6,0-6.6,4-6.6,8.2c0,4.6,2,8.5,6.6,8.5c3.4,0,5.4-2.5,5.6-5.8h2.6
		c-0.5,5-3.5,8.1-8.4,8.1c-6,0-9-4.6-9-10.5c0-5.9,3.2-10.6,9.2-10.6c4.1,0,7.4,2.3,8,6.6H-95V528z"/>
	<path d="M-77,542.1c-0.4,0.3-0.9,0.4-1.7,0.4c-1.2,0-2-0.7-2-2.3c-1.3,1.6-3,2.3-5,2.3c-2.6,0-4.7-1.2-4.7-4.1c0-3.3,2.4-4,4.8-4.5
		c2.6-0.5,4.7-0.3,4.7-2.1c0-2.1-1.7-2.4-3.1-2.4c-2,0-3.4,0.6-3.5,2.8h-2.3c0.1-3.6,2.8-4.9,6-4.9c2.5,0,5.3,0.6,5.3,4v7.5
		c0,1.1,0,1.6,0.7,1.6c0.2,0,0.4,0,0.7-0.1L-77,542.1L-77,542.1z M-80.7,534.6c-0.9,0.7-2.6,0.7-4.2,1c-1.5,0.3-2.8,0.8-2.8,2.6
		c0,1.6,1.3,2.1,2.7,2.1c3.1,0,4.3-2,4.3-3.3V534.6z"/>
	<path d="M-74.8,527.5h2.3v2h0.1c0.8-1.6,2.6-2.3,4.5-2.3c4.3,0,6.5,3.6,6.5,7.7s-2.1,7.6-6.4,7.6c-1.4,0-3.5-0.6-4.5-2.3h-0.2v7.5
		h-2.3L-74.8,527.5L-74.8,527.5z M-68.3,529.3c-3.1,0-4.3,2.8-4.3,5.5c0,2.9,1.3,5.5,4.4,5.5c3.2,0,4.2-2.8,4.2-5.7
		C-63.9,531.9-65.3,529.3-68.3,529.3z"/>
	<path d="M-57.3,537.5c0.1,2.1,1.9,2.8,3.8,2.8c1.4,0,3.4-0.3,3.4-2.2s-2.3-2.2-4.6-2.7s-4.6-1.3-4.6-4.1c0-2.9,2.8-4.2,5.3-4.2
		c3.1,0,5.6,1,5.8,4.6h-2.3c-0.2-1.9-1.7-2.5-3.3-2.5c-1.4,0-3,0.4-3,1.9c0,1.7,2.5,2,4.6,2.5c2.3,0.5,4.6,1.3,4.6,4.2
		c0,3.5-3.1,4.6-6,4.6c-3.2,0-5.8-1.3-6-4.9H-57.3L-57.3,537.5z"/>
	<path d="M-278.1,558.7c-0.3-2.9-2.2-4.1-4.8-4.1c-2.2,0-4.4,0.8-4.4,3.4c0,2.5,3.1,2.9,6.2,3.6s6.2,1.9,6.2,5.8c0,4.3-4.1,6-7.6,6
		c-4.4,0-8-2.2-8-7.1h2.5c0,3.4,2.7,4.9,5.7,4.9c2.3,0,4.9-0.8,4.9-3.7c0-2.8-3.1-3.3-6.2-4c-3.1-0.7-6.2-1.6-6.2-5.3
		c0-4.1,3.5-5.9,7.1-5.9c4,0,7,2,7.2,6.4L-278.1,558.7L-278.1,558.7z"/>
	<path d="M-260.1,568.3c-0.6,3.2-2.9,5-6,5c-4.5,0-6.6-3.2-6.8-7.7c0-4.4,2.8-7.6,6.6-7.6c5,0,6.5,4.8,6.4,8.4h-10.5
		c-0.1,2.5,1.3,4.8,4.4,4.8c1.9,0,3.2-1,3.6-2.9L-260.1,568.3L-260.1,568.3z M-262.3,564.3c-0.1-2.3-1.8-4.1-4.1-4.1
		c-2.4,0-3.9,1.9-4,4.1H-262.3z"/>
	<path d="M-257.6,558.3h2.2v3.1h0.1c1.1-2.3,2.7-3.5,5.2-3.4v2.5c-3.7,0-5.1,2.2-5.1,5.9v6.5h-2.3L-257.6,558.3L-257.6,558.3z"/>
	<path d="M-242.1,572.9h-2.5l-5.2-14.6h2.6l3.9,12.2h0.1l3.8-12.2h2.4L-242.1,572.9z"/>
	<path d="M-232.4,555.7h-2.3v-2.9h2.3V555.7z M-234.7,558.3h2.3v14.6h-2.3V558.3z"/>
	<path d="M-228.9,558.3h2.2v2.3h0.1c1-1.8,2.6-2.7,4.6-2.7c3.7,0,4.8,2.2,4.8,5.3v9.6h-2.3v-9.9c0-1.8-1.1-2.9-2.9-2.9
		c-2.8,0-4.2,2-4.2,4.6v8.3h-2.3C-228.9,572.8-228.9,558.3-228.9,558.3z"/>
	<path d="M-201.6,571.6c0,4.8-2.1,7.2-6.5,7.2c-2.6,0-5.7-1.1-5.8-4.3h2.3c0.1,1.8,2.1,2.4,3.6,2.4c3,0,4.2-2.3,4.2-5.5v-1h-0.1
		c-0.8,1.8-2.6,2.7-4.4,2.7c-4.2,0-6.3-3.4-6.3-7.4c0-3.4,1.6-7.7,6.5-7.7c1.8,0,3.4,0.8,4.2,2.4l0,0v-2.1h2.2L-201.6,571.6
		L-201.6,571.6z M-203.9,565.4c0-2.6-1.1-5.2-4-5.2c-3,0-4.2,2.5-4.2,5.3c0,2.6,0.9,5.6,4,5.6C-205,570.9-203.9,568.1-203.9,565.4z"
		/>
	<path d="M-196.7,568.4c0.1,2.1,1.9,2.8,3.8,2.8c1.4,0,3.4-0.3,3.4-2.2s-2.3-2.2-4.6-2.7s-4.6-1.3-4.6-4.1c0-2.9,2.8-4.2,5.3-4.2
		c3.1,0,5.6,1,5.8,4.6h-2.3c-0.2-1.9-1.7-2.5-3.3-2.5c-1.4,0-3,0.4-3,1.9c0,1.7,2.5,2,4.6,2.5c2.3,0.5,4.6,1.3,4.6,4.2
		c0,3.5-3.1,4.6-6,4.6c-3.2,0-5.8-1.3-6-4.9L-196.7,568.4L-196.7,568.4z"/>
	<path d="M-176.6,552.8h8.5c3.9,0,6,2.2,6,6c0,3.7-2.1,6-6,6h-5.9v8.3h-2.6V552.8z M-174,562.4h5.1c2.9,0,4.2-1.3,4.2-3.7
		c0-2.4-1.3-3.7-4.2-3.7h-5.1V562.4z"/>
	<path d="M-147.3,568.3c-0.6,3.2-2.9,5-6,5c-4.5,0-6.6-3.2-6.8-7.7c0-4.4,2.8-7.6,6.6-7.6c5,0,6.5,4.8,6.4,8.4h-10.5
		c-0.1,2.5,1.3,4.8,4.4,4.8c1.9,0,3.2-1,3.6-2.9L-147.3,568.3L-147.3,568.3z M-149.6,564.3c-0.1-2.3-1.8-4.1-4.1-4.1
		c-2.4,0-3.9,1.9-4,4.1H-149.6z"/>
	<path d="M-144.8,558.3h2.2v3.1h0.1c1.1-2.3,2.7-3.5,5.2-3.4v2.5c-3.7,0-5.1,2.2-5.1,5.9v6.5h-2.3L-144.8,558.3L-144.8,558.3z"/>
	<path d="M-114.1,558.9c-0.5-2.9-2.8-4.3-5.4-4.3c-4.6,0-6.6,4-6.6,8.2c0,4.6,2,8.5,6.6,8.5c3.4,0,5.4-2.5,5.6-5.8h2.6
		c-0.5,5-3.5,8.1-8.4,8.1c-6,0-9-4.6-9-10.5s3.2-10.6,9.2-10.6c4.1,0,7.4,2.3,8,6.6h-2.6L-114.1,558.9L-114.1,558.9z"/>
	<path d="M-102.5,558c4.5,0,6.8,3.4,6.8,7.7s-2.4,7.6-6.8,7.6s-6.8-3.4-6.8-7.6C-109.3,561.4-106.9,558-102.5,558z M-102.5,571.1
		c2.4,0,4.4-2,4.4-5.5c0-3.6-2-5.5-4.4-5.5s-4.4,2-4.4,5.5C-106.9,569.2-104.9,571.1-102.5,571.1z"/>
	<path d="M-92.9,558.3h2.2v2.3h0.1c1-1.8,2.6-2.7,4.6-2.7c3.7,0,4.8,2.2,4.8,5.3v9.6h-2.3v-9.9c0-1.8-1.1-2.9-2.9-2.9
		c-2.8,0-4.2,2-4.2,4.6v8.3h-2.3L-92.9,558.3L-92.9,558.3z"/>
	<path d="M-74.7,558.3h2.8v2.1h-2.8v9.1c0,1.1,0.3,1.3,1.7,1.3h1.1v2.1h-1.8c-2.4,0-3.4-0.5-3.4-3.2v-9.3h-2.4v-2.1h2.4v-4.4h2.3
		L-74.7,558.3L-74.7,558.3z"/>
	<path d="M-56.8,572.8c-0.4,0.3-0.9,0.4-1.7,0.4c-1.2,0-2-0.7-2-2.3c-1.3,1.6-3,2.3-5,2.3c-2.6,0-4.7-1.2-4.7-4.1
		c0-3.3,2.4-4,4.8-4.5c2.6-0.5,4.7-0.3,4.7-2.1c0-2.1-1.7-2.4-3.1-2.4c-2,0-3.4,0.6-3.5,2.8h-2.2c0.1-3.6,2.8-4.9,6-4.9
		c2.5,0,5.3,0.6,5.3,4v7.5c0,1.1,0,1.6,0.7,1.6c0.2,0,0.4,0,0.7-0.1V572.8z M-60.6,565.4c-0.9,0.7-2.6,0.7-4.2,1
		c-1.5,0.3-2.8,0.8-2.8,2.6c0,1.6,1.3,2.1,2.7,2.1c3.1,0,4.3-2,4.3-3.3V565.4z"/>
	<path d="M-52.2,555.7h-2.3v-2.9h2.3V555.7z M-54.5,558.3h2.3v14.6h-2.3V558.3z"/>
	<path d="M-48.6,558.3h2.2v2.3h0.1c1-1.8,2.6-2.7,4.6-2.7c3.7,0,4.8,2.2,4.8,5.3v9.6h-2.3v-9.9c0-1.8-1.1-2.9-2.9-2.9
		c-2.8,0-4.2,2-4.2,4.6v8.3h-2.3L-48.6,558.3L-48.6,558.3z"/>
	<path d="M-21.6,568.3c-0.6,3.2-2.9,5-6,5c-4.5,0-6.6-3.2-6.8-7.7c0-4.4,2.8-7.6,6.6-7.6c5,0,6.5,4.8,6.4,8.4h-10.5
		c-0.1,2.5,1.3,4.8,4.4,4.8c1.9,0,3.2-1,3.6-2.9L-21.6,568.3L-21.6,568.3z M-23.8,564.3c-0.1-2.3-1.8-4.1-4.1-4.1
		c-2.4,0-3.9,1.9-4,4.1H-23.8z"/>
	<path d="M-19,558.3h2.2v3.1h0.1c1.1-2.3,2.7-3.5,5.2-3.4v2.5c-3.7,0-5.1,2.2-5.1,5.9v6.5h-2.3L-19,558.3L-19,558.3z"/>
	<path d="M5.6,572.9H3.3v-14.4h-5v-1.9c2.6,0,5-0.7,5.6-3.8h1.8L5.6,572.9L5.6,572.9z"/>
	<path d="M16.9,572.9h-2.3v-14.4h-5v-1.9c2.6,0,5-0.7,5.6-3.8H17L16.9,572.9L16.9,572.9z"/>
	<path d="M27.7,552.9c6,0,6.4,5.8,6.4,10.2s-0.4,10.2-6.4,10.2s-6.4-5.8-6.4-10.2C21.3,558.7,21.6,552.9,27.7,552.9z M27.7,571.1
		c3.9,0,4-5.1,4-8.1s0-8.1-4-8.1s-4,5.1-4,8.1C23.7,566.1,23.7,571.1,27.7,571.1z"/>
	<g>
		<path d="M-37.7,601.3h4.7l4.9,18.7H-32l-0.9-4h-5l-0.9,4h-3.9L-37.7,601.3z M-37.2,613h3.7l-1.8-8.4h-0.1L-37.2,613z"/>
		<path d="M-26.9,605.9h3.5v1.4h0.1c0.9-1.3,2-1.8,3.6-1.8s2.9,0.8,3.2,2.3h0.1c0.5-1.5,1.9-2.3,3.6-2.3c2.4,0,3.5,1.5,3.5,4.2v10.2
			H-13v-9.8c0-1.2-0.4-1.8-1.4-1.8c-1.2,0-1.9,0.8-1.9,2.4v9.3h-3.6v-9.8c0-1.2-0.4-1.8-1.4-1.8c-1.2,0-1.9,0.8-1.9,2.4v9.3h-3.6
			v-14.2L-26.9,605.9L-26.9,605.9z"/>
		<path d="M-2.1,605.6c4.3-0.1,5.5,2.5,5.5,7.4c0,4.8-1.4,7.4-5.5,7.4c-4.3,0.1-5.5-2.5-5.5-7.4C-7.6,608.2-6.2,605.6-2.1,605.6z
			 M-2.1,617.9c1.5,0,1.9-1.4,1.9-4.9s-0.5-4.9-1.9-4.9c-1.8,0-1.9,2.1-1.9,4.9C-4,615.9-3.8,617.9-2.1,617.9z"/>
		<path d="M12.7,618.4L12.7,618.4c-0.8,1.4-2.1,2-3.6,2c-2.3,0-3.6-1.2-3.6-4V606h3.6v9.7c0,1.4,0.5,2,1.5,2c1.2,0,1.9-0.8,1.9-2.3
			v-9.3h3.6v14.1h-3.5L12.7,618.4L12.7,618.4z"/>
		<path d="M18.5,605.9H22v1.6h0.1c0.8-1.4,2.1-2,3.6-2c2.2,0,3.6,1.2,3.6,4v10.4h-3.6v-9.7c0-1.4-0.5-2-1.5-2
			c-1.2,0-1.9,0.8-1.9,2.3v9.3h-3.6v-13.9L18.5,605.9L18.5,605.9z"/>
		<path d="M32.3,601.9h3.6v4H38v2.5h-2.1v7.6c0,1.1,0.2,1.5,1.3,1.5c0.3,0,0.6,0,0.8-0.1v2.5c-0.8,0.1-1.5,0.2-2.4,0.2
			c-2.8,0-3.3-0.9-3.3-3.7v-8.1h-1.8v-2.5h1.8V601.9z"/>
		<path d="M45.6,601.3h6.6c3.8,0,5.1,2.8,5.1,5.6c0,3.9-2.4,5.6-5.9,5.6h-2v7.5h-3.8L45.6,601.3L45.6,601.3z M49.4,609.8h1.7
			c1.5,0,2.5-0.9,2.5-2.8c0-1.8-0.7-2.9-2.6-2.9h-1.6V609.8z"/>
		<path d="M61.6,613.5v1.1c0,1.6,0.4,3.3,1.8,3.3c1.2,0,1.7-0.9,1.9-2.6h3.2c-0.1,3.3-1.7,5.1-5.1,5.1c-5.2,0-5.4-4-5.4-7.5
			c0-3.8,0.7-7.3,5.6-7.3c4.2,0,5.2,2.8,5.2,7.1v0.8L61.6,613.5L61.6,613.5z M65.3,611.4c-0.1-2.1-0.3-3.3-1.8-3.3
			c-1.4,0-1.9,1.5-1.9,2.8v0.5H65.3z"/>
		<path d="M70.6,605.9h3.5v1.9h0.1c0.7-1.4,1.8-2.3,3.2-2.3c0.2,0,0.4,0,0.7,0.1v3.5c-0.4,0-0.8-0.1-1.1-0.1c-1.3,0-2.7,0.7-2.7,2.5
			v8.5h-3.6L70.6,605.9L70.6,605.9z"/>
		<path d="M88.6,614.2v0.5c0,1.8,0.5,2.9,2.5,2.9c1.2,0,2.3-0.7,2.3-2.3c0-1.7-0.9-2.3-3.3-3.2c-3.3-1.2-4.9-2.5-4.9-5.7
			c0-3.6,2.2-5.5,5.8-5.5c3.3,0,5.8,1.4,5.8,5v0.5h-3.6c0-1.8-0.6-2.8-2-2.8c-1.7,0-2.1,1.1-2.1,2.2c0,1.2,0.3,1.9,1.9,2.5l2.9,1.3
			c2.8,1.2,3.6,2.7,3.6,4.9c0,4-2.4,5.7-6.5,5.7c-4.3,0-5.9-2-5.9-5.4V614h3.5L88.6,614.2L88.6,614.2z"/>
		<path d="M102.2,613.5v1.1c0,1.6,0.4,3.3,1.8,3.3c1.2,0,1.7-0.9,1.9-2.6h3.2c-0.1,3.3-1.7,5.1-5.1,5.1c-5.2,0-5.4-4-5.4-7.5
			c0-3.8,0.7-7.3,5.6-7.3c4.2,0,5.2,2.8,5.2,7.1v0.8L102.2,613.5L102.2,613.5z M105.9,611.4c-0.1-2.1-0.3-3.3-1.8-3.3
			c-1.4,0-1.9,1.5-1.9,2.8v0.5H105.9z"/>
		<path d="M111.2,605.9h3.5v1.9h0.1c0.7-1.4,1.8-2.3,3.2-2.3c0.2,0,0.4,0,0.7,0.1v3.5c-0.4,0-0.8-0.1-1.1-0.1
			c-1.3,0-2.7,0.7-2.7,2.5v8.5h-3.7V605.9z"/>
		<path d="M126.9,605.9h3.6L127,620h-4.2l-3.6-14.1h3.8l2,10.1h0.1L126.9,605.9z"/>
		<path d="M132,601.1h3.6v3.1H132V601.1z M132,605.9h3.6V620H132V605.9z"/>
		<path d="M138.2,605.9h3.5v1.6h0.1c0.8-1.4,2.1-2,3.6-2c2.2,0,3.6,1.2,3.6,4v10.4h-3.6v-9.7c0-1.4-0.5-2-1.5-2
			c-1.2,0-1.9,0.8-1.9,2.3v9.3h-3.6v-13.9L138.2,605.9L138.2,605.9z"/>
		<path d="M161.8,605.9v13.4c0,3.7-1.6,5.5-5.9,5.5c-3.1,0-4.8-1.4-4.8-3.8h3.5c0,0.5,0.2,0.8,0.5,1.1c0.3,0.2,0.8,0.4,1.2,0.4
			c1.5,0,2-1.1,2-2.5v-1.9h-0.1c-0.7,1-1.9,1.7-3,1.7c-2.9,0-4.3-2-4.3-7.1c0-3.3,0.5-7.2,4.4-7.2c1,0,2.2,0.5,2.9,1.9h0.1v-1.6
			L161.8,605.9L161.8,605.9z M156.4,617.1c1.5,0,2-1.6,2-4c0-3.4-0.4-4.7-1.9-4.7c-1.6,0-1.9,1.3-1.9,5.1
			C154.6,615.4,154.9,617.1,156.4,617.1z"/>
		<path d="M230.4,601.5c3.2,0,3.9,1.6,3.9,5s-0.7,5-3.9,5s-3.9-1.6-3.9-5C226.6,603.1,227.2,601.5,230.4,601.5z M230.4,609.5
			c1,0,1.2-1,1.2-3.1c0-1.9-0.1-2.9-1.2-2.9s-1.2,1-1.2,2.9C229.2,608.5,229.3,609.5,230.4,609.5z M240,601.1h2.3l-10.6,19.8h-2.3
			L240,601.1z M241.5,610.4c3.2,0,3.9,1.6,3.9,5s-0.7,5-3.9,5s-3.9-1.6-3.9-5C237.6,612,238.2,610.4,241.5,610.4z M241.5,618.4
			c1,0,1.2-1,1.2-3.1c0-1.9-0.1-2.9-1.2-2.9s-1.2,1-1.2,2.9C240.3,617.4,240.4,618.4,241.5,618.4z"/>
		<path d="M253.9,601.3h6.2c5.2,0,6.2,3.6,6.2,9.1c0,6.6-1.4,9.6-6.4,9.6h-6V601.3z M257.6,617.3h1.7c2.6,0,3.1-1.6,3.1-6.7
			c0-4.2-0.3-6.4-3.2-6.4h-1.6V617.3z"/>
		<path d="M271.5,601.3l2.6,13.8h0.1l2.8-13.8h3.9l-4.3,18.7h-4.8l-4.3-18.7H271.5z"/>
	</g>
	<g>
		<path d="M101.2,639.4h7v1.7h-5.5l-0.6,4.5l0,0c0.6-0.8,1.7-1.2,2.7-1.2c2.3,0,3.9,1.9,3.9,5.1c0,2.9-1.3,5.4-4.5,5.4
			c-3.7,0-4.3-3.1-4.3-4.3h1.9c0,0.8,0.3,2.9,2.4,2.9c2.2,0,2.6-2.5,2.6-4.1c0-1.7-0.6-3.5-2.6-3.5c-1.3,0-2.2,1.1-2.2,1.5l-1.7-0.1
			L101.2,639.4z"/>
		<path d="M110.5,647.1c0-3.4,0.2-8,4.5-8c4.2,0,4.5,4.2,4.5,8c0,3.3-0.2,7.9-4.5,7.9S110.5,650.8,110.5,647.1z M114.9,653.6
			c2.4,0,2.5-3.2,2.5-6.4c0-3.4-0.1-6.6-2.5-6.6s-2.5,3.1-2.5,6.6C112.4,650.4,112.5,653.6,114.9,653.6z"/>
		<path d="M121,647.1c0-3.4,0.2-8,4.5-8c4.2,0,4.5,4.2,4.5,8c0,3.3-0.2,7.9-4.5,7.9C121.3,655,121,650.8,121,647.1z M125.5,653.6
			c2.4,0,2.5-3.2,2.5-6.4c0-3.4-0.1-6.6-2.5-6.6s-2.5,3.1-2.5,6.6C123,650.4,123.1,653.6,125.5,653.6z"/>
		<path d="M137.4,642.9h1.8v1.4l0,0c0.5-1.1,1.7-1.7,2.9-1.7c1.4,0,2.2,0.5,2.6,1.9c0.5-1,1.6-1.9,2.8-1.9c3.1,0,3.1,2.4,3.1,3.8
			v8.4h-1.9v-8.2c0-0.9-0.1-2.4-1.6-2.4c-0.9,0-2.2,0.5-2.2,2.4v8.2H143v-8.2c0-0.9-0.1-2.4-1.6-2.4c-0.9,0-2.2,0.5-2.2,2.4v8.2
			h-1.9L137.4,642.9L137.4,642.9z"/>
		<path d="M160.9,654c0,3.5-1.6,4.8-4,4.8c-0.7,0-3.6,0-3.9-3h1.9c0.1,1.1,0.9,1.5,1.9,1.5c2.4,0,2.3-1.8,2.3-2.6v-1.5l0,0
			c-0.4,1-1.5,1.6-2.7,1.6c-3.4,0-3.7-4.3-3.7-5.9c0-3.2,0.9-6.2,3.9-6.2c1.3,0,2.3,0.9,2.6,1.8l0,0V643h1.8L160.9,654L160.9,654z
			 M154.6,648.8c0,1.9,0.3,4.3,2.1,4.3c2,0,2.4-1.9,2.4-4.3c0-2.3-0.4-4.6-2.4-4.6C155.1,644.2,154.6,646,154.6,648.8z"/>
		<path d="M108.7,684.4H100c0-2.9,1.6-4.9,3.4-6.4l1.3-1.1c1.3-1.1,2.1-2,2.1-3.8c0-1.3-0.6-2.8-2.3-2.8c-2.4,0-2.5,2.5-2.5,3.4
			h-1.9c0-3,1.2-5,4.4-5c3.6,0,4.2,2.8,4.2,4.2c0,2.4-1,3.6-2.7,5.1l-2.2,1.9c-0.9,0.7-1.5,1.6-1.7,2.7h6.7L108.7,684.4L108.7,684.4
			z"/>
		<path d="M111.8,669.2h7v1.7h-5.6l-0.6,4.5l0,0c0.6-0.8,1.7-1.2,2.7-1.2c2.3,0,3.9,1.9,3.9,5.1c0,2.9-1.3,5.4-4.5,5.4
			c-3.7,0-4.3-3.1-4.3-4.3h1.9c0,0.8,0.3,2.9,2.4,2.9c2.2,0,2.6-2.5,2.6-4.1c0-1.7-0.6-3.5-2.6-3.5c-1.3,0-2.2,1.1-2.2,1.5l-1.7-0.1
			L111.8,669.2z"/>
		<path d="M121,676.9c0-3.4,0.2-8,4.5-8c4.2,0,4.5,4.2,4.5,8c0,3.3-0.2,7.9-4.5,7.9C121.3,684.7,121,680.6,121,676.9z M125.5,683.3
			c2.4,0,2.5-3.2,2.5-6.4c0-3.4-0.1-6.6-2.5-6.6s-2.5,3.1-2.5,6.6C123,680.2,123.1,683.3,125.5,683.3z"/>
		<path d="M137.4,672.7h1.8v1.4l0,0c0.5-1.1,1.7-1.7,2.9-1.7c1.4,0,2.2,0.5,2.6,1.9c0.5-1,1.6-1.9,2.8-1.9c3.1,0,3.1,2.4,3.1,3.8
			v8.4h-1.9v-8.2c0-0.9-0.1-2.4-1.6-2.4c-0.9,0-2.2,0.5-2.2,2.4v8.2H143v-8.2c0-0.9-0.1-2.4-1.6-2.4c-0.9,0-2.2,0.5-2.2,2.4v8.2
			h-1.9L137.4,672.7L137.4,672.7z"/>
		<path d="M160.9,683.7c0,3.5-1.6,4.8-4,4.8c-0.7,0-3.6,0-3.9-3h1.9c0.1,1.1,0.9,1.5,1.9,1.5c2.4,0,2.3-1.8,2.3-2.6v-1.5l0,0
			c-0.4,1-1.5,1.6-2.7,1.6c-3.4,0-3.7-4.3-3.7-5.9c0-3.2,0.9-6.2,3.9-6.2c1.3,0,2.3,0.9,2.6,1.8l0,0v-1.5h1.8L160.9,683.7
			L160.9,683.7z M154.6,678.6c0,1.9,0.3,4.3,2.1,4.3c2,0,2.4-1.9,2.4-4.3c0-2.3-0.4-4.6-2.4-4.6C155.1,674,154.6,675.8,154.6,678.6z
			"/>
		<path d="M108.7,714.2H100c0-2.9,1.6-4.9,3.4-6.4l1.3-1.1c1.3-1.1,2.1-2,2.1-3.8c0-1.3-0.6-2.8-2.3-2.8c-2.4,0-2.5,2.5-2.5,3.4
			h-1.9c0-3,1.2-5,4.4-5c3.6,0,4.2,2.8,4.2,4.2c0,2.4-1,3.6-2.7,5.1l-2.2,1.9c-0.9,0.7-1.5,1.6-1.7,2.7h6.7L108.7,714.2L108.7,714.2
			z"/>
		<path d="M111.8,698.9h7v1.7h-5.6l-0.6,4.5l0,0c0.6-0.8,1.7-1.2,2.7-1.2c2.3,0,3.9,1.9,3.9,5.1c0,2.9-1.3,5.4-4.5,5.4
			c-3.7,0-4.3-3.1-4.3-4.3h1.9c0,0.8,0.3,2.9,2.4,2.9c2.2,0,2.6-2.5,2.6-4.1c0-1.7-0.6-3.5-2.6-3.5c-1.3,0-2.2,1.1-2.2,1.5l-1.7-0.1
			L111.8,698.9z"/>
		<path d="M121,706.6c0-3.4,0.2-8,4.5-8c4.2,0,4.5,4.2,4.5,8c0,3.3-0.2,7.9-4.5,7.9C121.3,714.5,121,710.4,121,706.6z M125.5,713.1
			c2.4,0,2.5-3.2,2.5-6.4c0-3.4-0.1-6.6-2.5-6.6s-2.5,3.1-2.5,6.6C123,709.9,123.1,713.1,125.5,713.1z"/>
		<path d="M137.4,702.4h1.8v1.4l0,0c0.5-1.1,1.7-1.7,2.9-1.7c1.4,0,2.2,0.5,2.6,1.9c0.5-1,1.6-1.9,2.8-1.9c3.1,0,3.1,2.4,3.1,3.8
			v8.4h-1.9v-8.2c0-0.9-0.1-2.4-1.6-2.4c-0.9,0-2.2,0.5-2.2,2.4v8.2H143v-8.2c0-0.9-0.1-2.4-1.6-2.4c-0.9,0-2.2,0.5-2.2,2.4v8.2
			h-1.9L137.4,702.4L137.4,702.4z"/>
		<path d="M160.9,713.5c0,3.5-1.6,4.8-4,4.8c-0.7,0-3.6,0-3.9-3h1.9c0.1,1.1,0.9,1.5,1.9,1.5c2.4,0,2.3-1.8,2.3-2.6v-1.5l0,0
			c-0.4,1-1.5,1.6-2.7,1.6c-3.4,0-3.7-4.3-3.7-5.9c0-3.2,0.9-6.2,3.9-6.2c1.3,0,2.3,0.9,2.6,1.8l0,0v-1.5h1.8L160.9,713.5
			L160.9,713.5z M154.6,708.3c0,1.9,0.3,4.3,2.1,4.3c2,0,2.4-1.9,2.4-4.3c0-2.3-0.4-4.6-2.4-4.6
			C155.1,703.7,154.6,705.5,154.6,708.3z"/>
	</g>
	<rect x="-292.1" y="727.9" width="585" height="2.8"/>
	<g>
		<path d="M-283.2,740.6h2.1v4.9h4.3v1.7h-4.3v13.7h-2.1v-13.7h-4.3v-1.7h4.3V740.6z"/>
		<path d="M-268.5,740.6h4.8c5.6,0,6.3,3.8,6.3,8.5c0,4.3-1.1,8.5-6.1,8.5h-5V740.6z M-266.3,755.8h2.3c3.8,0,4.2-3.7,4.2-6.7
			c0-3.3-0.2-6.8-4.2-6.8h-2.3V755.8z"/>
		<path d="M-255.2,748.7c0-2.9,1.3-4.2,4.5-4.2c4.1,0,4.1,2.3,4.1,3.7v7.1c0,0.5,0,1,0.7,1c0.3,0,0.4,0,0.5-0.1v1.4
			c-0.2,0-0.7,0.1-1.2,0.1c-0.8,0-1.8,0-1.9-1.6h-0.1c-0.7,1.1-2,1.8-3.2,1.8c-2.5,0-3.7-1.4-3.7-3.7c0-1.8,0.8-3,2.5-3.5l2.8-0.8
			c1.5-0.5,1.5-0.9,1.5-1.9c0-1.2-0.8-1.9-2.2-1.9c-2.3,0-2.3,2-2.3,2.5v0.1L-255.2,748.7L-255.2,748.7z M-248.7,750.6
			c-0.8,0.8-2.6,0.9-3.6,1.5c-0.7,0.4-1,0.9-1,2c0,1.3,0.5,2.2,1.9,2.2c1.4,0,2.7-1.1,2.7-2.4C-248.7,753.9-248.7,750.6-248.7,750.6
			z"/>
		<path d="M-243.6,740.6h2.1v2.3h-2.1V740.6z M-243.6,744.9h2.1v12.7h-2.1V744.9z"/>
		<path d="M-238.4,740.6h2.1v16.9h-2.1V740.6z"/>
		<path d="M-234.6,744.9h2.3l2.7,10.2h0.1l2.4-10.2h2.3l-3.9,13.6c-0.5,1.8-1.1,3.3-3.6,3.3c-0.8,0-1.2,0-1.5-0.1v-1.6
			c0.3,0,0.7,0.1,1.2,0.1c1,0,1.4-0.5,1.7-1.2l0.4-1.1L-234.6,744.9z"/>
		<path d="M-219.7,740.6h2.3l3.5,14.5h0.1l3.5-14.5h2.3l-4.5,16.9h-2.8L-219.7,740.6z"/>
		<path d="M-207.4,748.7c0-2.9,1.3-4.2,4.5-4.2c4.1,0,4.1,2.3,4.1,3.7v7.1c0,0.5,0,1,0.7,1c0.3,0,0.4,0,0.5-0.1v1.4
			c-0.2,0-0.7,0.1-1.2,0.1c-0.8,0-1.8,0-1.9-1.6h-0.1c-0.7,1.1-2,1.8-3.2,1.8c-2.5,0-3.7-1.4-3.7-3.7c0-1.8,0.8-3,2.5-3.5l2.8-0.8
			c1.5-0.5,1.5-0.9,1.5-1.9c0-1.2-0.8-1.9-2.2-1.9c-2.3,0-2.3,2-2.3,2.5v0.1L-207.4,748.7L-207.4,748.7z M-200.9,750.6
			c-0.8,0.8-2.6,0.9-3.6,1.5c-0.7,0.4-1,0.9-1,2c0,1.3,0.5,2.2,1.9,2.2c1.4,0,2.7-1.1,2.7-2.4V750.6z"/>
		<path d="M-195.8,740.6h2.1v16.9h-2.1V740.6z"/>
		<path d="M-182,757.5h-2V756l0,0c-0.6,1.2-2,1.8-3.3,1.8c-3.5,0-3.5-2.5-3.5-4v-9h2.1v8.8c0,1,0.1,2.6,2,2.6c1.1,0,2.7-0.7,2.7-2.6
			v-8.8h2.1L-182,757.5L-182,757.5z"/>
		<path d="M-177.5,751.5c0,1.9,0,4.9,2.6,4.9c2,0,2.3-2,2.3-2.9h2.1c0,1.4-0.9,4.5-4.5,4.5c-3.3,0-4.7-2.2-4.7-6.5
			c0-3.2,0.7-6.9,4.8-6.9s4.5,3.4,4.5,6.1v0.8L-177.5,751.5L-177.5,751.5z M-172.7,749.9v-0.7c0-1.4-0.5-3.1-2.3-3.1
			c-2.2,0-2.5,2.6-2.5,3.3v0.5H-172.7z"/>
		<path d="M-162,740.6h2.9l5.9,14.1h0.1v-14.1h2.2v16.9h-3l-5.8-13.7h-0.1v13.7h-2.2V740.6L-162,740.6z"/>
		<path d="M-144,744.5c3.9,0,4.8,3.1,4.8,6.7s-1,6.7-4.8,6.7c-3.9,0-4.8-3.1-4.8-6.7S-147.8,744.5-144,744.5z M-141.3,751.2
			c0-2.8-0.4-5.1-2.7-5.1c-2.1,0-2.6,2.4-2.6,5.1c0,2.8,0.4,5.1,2.6,5.1C-141.8,756.2-141.3,754-141.3,751.2z"/>
		<path d="M-136.4,741.2h2.1v3.7h2.3v1.6h-2.3v8.2c0,1,0.3,1.4,1.4,1.4c0.5,0,0.7,0,0.9-0.1v1.6c-0.3,0-0.8,0.1-1.7,0.1
			c-2.2,0-2.7-0.9-2.7-2.5v-8.8h-2v-1.6h2V741.2z"/>
		<path d="M-124.5,740.6h9.3v1.9h-7.1v5.3h6.7v1.9h-6.7v6.1h7.4v1.9h-9.6L-124.5,740.6L-124.5,740.6z"/>
		<path d="M-107.2,748.6c0-1.6-0.5-2.5-2-2.5c-0.7,0-2.2,0.2-2.2,1.9c0,1.5,1.7,1.8,3.3,2.3s3.3,1.1,3.3,3.6c0,2.7-1.8,4-4.3,4
			c-4.6,0-4.6-3.2-4.6-4.5h2.1c0,1.5,0.5,2.9,2.5,2.9c0.7,0,2.2-0.3,2.2-2.1c0-1.7-1.7-2.1-3.3-2.6s-3.3-1-3.3-3.6
			c0-2.4,2-3.5,4.3-3.5c3.9,0,4.1,2.6,4.1,4.1L-107.2,748.6L-107.2,748.6z"/>
		<path d="M-102.1,741.2h2.1v3.7h2.3v1.6h-2.3v8.2c0,1,0.3,1.4,1.4,1.4c0.5,0,0.7,0,0.9-0.1v1.6c-0.3,0-0.8,0.1-1.7,0.1
			c-2.2,0-2.7-0.9-2.7-2.5v-8.8h-2v-1.6h2V741.2z"/>
		<path d="M-96.5,748.7c0-2.9,1.3-4.2,4.5-4.2c4.1,0,4.1,2.3,4.1,3.7v7.1c0,0.5,0,1,0.7,1c0.3,0,0.4,0,0.5-0.1v1.4
			c-0.2,0-0.7,0.1-1.2,0.1c-0.8,0-1.8,0-1.9-1.6h-0.1c-0.7,1.1-2,1.8-3.2,1.8c-2.5,0-3.7-1.4-3.7-3.7c0-1.8,0.8-3,2.5-3.5l2.8-0.8
			c1.5-0.5,1.5-0.9,1.5-1.9c0-1.2-0.8-1.9-2.2-1.9c-2.3,0-2.3,2-2.3,2.5v0.1L-96.5,748.7L-96.5,748.7z M-90,750.6
			c-0.8,0.8-2.6,0.9-3.6,1.5c-0.7,0.4-1,0.9-1,2c0,1.3,0.5,2.2,1.9,2.2s2.7-1.1,2.7-2.4L-90,750.6L-90,750.6z"/>
		<path d="M-85.1,740.6h2.1v5.7h0.1c0.5-1.1,1.8-1.8,3.1-1.8c3.6,0,4.1,4,4.1,6.7c0,3.6-1.3,6.7-4.4,6.7c-1.5,0-2.6-0.9-2.9-1.9
			h-0.1v1.6h-2L-85.1,740.6L-85.1,740.6z M-80.4,756.1c2,0,2.5-2.1,2.5-5c0-3-0.5-5-2.5-5c-2.3,0-2.7,2.5-2.7,5
			C-83.1,753.8-82.6,756.1-80.4,756.1z"/>
		<path d="M-73.4,740.6h2.1v16.9h-2.1V740.6z"/>
		<path d="M-68.3,740.6h2.1v2.3h-2.1V740.6z M-68.3,744.9h2.1v12.7h-2.1V744.9z"/>
		<path d="M-57.5,748.6c0-1.6-0.5-2.5-2-2.5c-0.7,0-2.2,0.2-2.2,1.9c0,1.5,1.7,1.8,3.3,2.3s3.3,1.1,3.3,3.6c0,2.7-1.8,4-4.3,4
			c-4.6,0-4.6-3.2-4.6-4.5h2.1c0,1.5,0.5,2.9,2.5,2.9c0.7,0,2.2-0.3,2.2-2.1c0-1.7-1.7-2.1-3.3-2.6s-3.3-1-3.3-3.6
			c0-2.4,2-3.5,4.3-3.5c3.9,0,4.1,2.6,4.1,4.1L-57.5,748.6L-57.5,748.6z"/>
		<path d="M-53.1,740.6h2.1v5.7h0.1c0.6-1,2-1.8,3.2-1.8c3.5,0,3.5,2.5,3.5,4v9h-2.1v-8.8c0-1-0.1-2.6-2-2.6c-1.1,0-2.7,0.7-2.7,2.6
			v8.8h-2.1L-53.1,740.6L-53.1,740.6z"/>
		<path d="M-39.7,751.5c0,1.9,0,4.9,2.6,4.9c2,0,2.3-2,2.3-2.9h2.1c0,1.4-0.9,4.5-4.5,4.5c-3.3,0-4.7-2.2-4.7-6.5
			c0-3.2,0.7-6.9,4.8-6.9c4.1,0,4.5,3.4,4.5,6.1v0.8L-39.7,751.5L-39.7,751.5z M-34.8,749.9v-0.7c0-1.4-0.5-3.1-2.3-3.1
			c-2.2,0-2.5,2.6-2.5,3.3v0.5H-34.8z"/>
		<path d="M-21.5,757.5h-2v-1.6h-0.1c-0.3,0.9-1.5,1.9-2.9,1.9c-3.2,0-4.4-2.7-4.4-6.7c0-2.7,0.5-6.7,4.2-6.7c1.2,0,2.5,0.7,3,1.8
			h0.1v-5.7h2.1L-21.5,757.5L-21.5,757.5z M-26.2,756.1c2.3,0,2.7-2.1,2.7-5c0-2.5-0.5-5-2.7-5c-2,0-2.5,1.9-2.5,5
			C-28.6,754.3-28.1,756.1-26.2,756.1z"/>
	</g>
	<g>
		<path d="M275.3,638.4h1.9v4.5h3.8v1.6h-3.8v12.7h-1.9v-12.7h-3.8v-1.6h3.8V638.4z"/>
		<path d="M275.3,668.2h1.9v4.5h3.8v1.6h-3.8V687h-1.9v-12.6h-3.8v-1.6h3.8V668.2z"/>
		<path d="M275.3,697.9h1.9v4.5h3.8v1.6h-3.8v12.7h-1.9V704h-3.8v-1.6h3.8V697.9z"/>
	</g>
	<rect x="-292" y="662.6" width="584.9" height="0.7"/>
	<rect x="-292" y="692.6" width="584.9" height="0.7"/>
	<g>
		<path d="M-278.4,488.1c0,1.1,0.2,2,0.5,2.8c0.9,2.6,3.8,3.1,6.2,3.1c2.1,0,5.4-0.7,5.4-3.9c0-2.2-1.8-2.8-9.1-4.9
			c-6.7-1.9-14.4-3.7-14.4-12.3c0-9.8,8.4-14,17.1-14c9.2,0,17.3,3.5,17.7,13.8h-12.3c0.2-1.6-0.5-2.7-1.5-3.4
			c-1.1-0.8-2.6-1.1-3.9-1.1c-1.8,0-4.7,0.5-4.7,2.8c0.2,3,6.3,3.7,12.3,5.3c6,1.7,11.9,4.4,11.9,12.2c0,11-10.1,14.6-19.6,14.6
			c-4.8,0-18.5-1.7-18.6-15.2h13C-278.4,487.9-278.4,488.1-278.4,488.1z"/>
		<path d="M-217.4,502.4h-11.4v-3.9h-0.1c-2.2,3.1-5.3,4.7-10,4.7c-5.5,0-10.6-3.4-10.6-10.4v-21.1h11.7v16.1c0,3.6,0.4,6,3.9,6
			c2,0,4.7-1,4.7-5.9v-16.3h11.7L-217.4,502.4L-217.4,502.4z"/>
		<path d="M-211,471.6h11.3v3.4h0.1c1.5-2,3.3-4.2,9-4.2c8.7,0,12.9,8.6,12.9,16.3c0,7.2-2.8,16-13.1,16c-3.5,0-6.6-1.5-8.4-4.2
			h-0.1v13.3H-211V471.6z M-194.5,494.6c4.2,0,5.2-4,5.2-7.6c0-3.7-0.9-7.7-5.2-7.7c-4.2,0-5.2,4-5.2,7.7
			C-199.7,490.6-198.8,494.6-194.5,494.6z"/>
		<path d="M-172.7,471.6h11.3v3.4h0.1c1.5-2,3.3-4.2,9-4.2c8.7,0,12.9,8.6,12.9,16.3c0,7.2-2.8,16-13.1,16c-3.5,0-6.6-1.5-8.4-4.2
			h-0.1v13.3h-11.7V471.6z M-156.2,494.6c4.2,0,5.2-4,5.2-7.6c0-3.7-0.9-7.7-5.2-7.7c-4.2,0-5.2,4-5.2,7.7
			C-161.4,490.6-160.4,494.6-156.2,494.6z"/>
		<path d="M-134,460.1h11.7v42.2H-134V460.1z"/>
		<path d="M-105.8,489.6c0.3,3.5,2.3,6,6,6c1.9,0,4-0.7,4.9-2.2h11c-2.4,6.6-8.8,9.7-15.8,9.7c-9.8,0-17.3-5.8-17.3-16.1
			c0-9,6.5-16.3,16.3-16.3c12.2,0,17.5,6.8,17.5,18.8L-105.8,489.6L-105.8,489.6z M-94.5,483.5c0-2.8-2.1-5.2-5.2-5.2
			c-3.5,0-5.5,1.8-6,5.2H-94.5z"/>
		<path d="M-78.4,471.6h11.3v4.1h0.1c2.4-3.6,5.8-4.9,10.1-4.9c3.3,0,6.9,1.7,8.3,4.8c0.5-0.4,2.8-4.8,10.5-4.8
			c7.9,0,10.6,5.5,10.6,10.4v21.1h-11.7v-16.7c0-2.9-0.3-5.5-3.9-5.5c-3,0-4,2.3-4,5.5v16.7h-11.7v-16.7c0-2.9-0.3-5.5-3.9-5.5
			c-3,0-4,2.3-4,5.5v16.7h-11.7L-78.4,471.6L-78.4,471.6z"/>
		<path d="M-11.5,489.6c0.3,3.5,2.3,6,6,6c1.9,0,4-0.7,4.9-2.2h11c-2.4,6.6-8.8,9.7-15.8,9.7c-9.8,0-17.3-5.8-17.3-16.1
			c0-9,6.5-16.3,16.3-16.3c12.2,0,17.5,6.8,17.5,18.8L-11.5,489.6L-11.5,489.6z M-0.2,483.5c0-2.8-2.1-5.2-5.2-5.2
			c-3.5,0-5.5,1.8-6,5.2H-0.2z"/>
		<path d="M16,471.6h11.3v3.9h0.1c2.2-3.1,5.3-4.7,10-4.7c5.5,0,10.6,3.4,10.6,10.4v21.1H36.3v-16.1c0-3.6-0.4-6-3.9-6
			c-2,0-4.7,1-4.7,5.9v16.3H16V471.6L16,471.6z"/>
		<path d="M68.4,471.6h6.3v7.2h-6.3v10.7c0,2.8,0.7,4.1,3.6,4.1c0.9,0,1.8-0.1,2.7-0.2v8.9c-2.4,0-5,0.4-7.5,0.4
			c-5,0-10.5-0.8-10.5-9.2v-14.7h-5.2v-7.2h5.2v-9.3h11.7L68.4,471.6L68.4,471.6z"/>
		<path d="M98.4,460.1H131V471h-19.7v5.3h16.9v10h-16.9v16.1h-13v-42.3H98.4z"/>
		<path d="M165.5,495.5c0,2.3,0.1,4.9,1.4,6.9h-12c-0.3-0.8-0.5-2.1-0.4-2.9h-0.1c-2.5,2.8-6.1,3.7-9.9,3.7
			c-5.9,0-10.9-2.8-10.9-9.3c0-9.7,11.4-9.4,17.4-10.5c1.6-0.3,3.2-0.8,3.2-2.7c0-2.1-2-2.8-3.9-2.8c-3.6,0-4.3,1.8-4.4,3.1H135
			c0.2-4.3,2.3-6.9,5.3-8.3s6.9-1.8,10.5-1.8c14.7,0,14.6,6.1,14.6,12L165.5,495.5L165.5,495.5z M154.2,488.5
			c-1.4,0.7-3,1.1-4.6,1.5c-2.6,0.6-4,1.2-4,3.3c0,1.4,1.5,2.8,3.7,2.8c2.7,0,4.7-1.6,4.9-4.8V488.5z"/>
		<path d="M191.5,483.3c-0.1-1.2-0.5-2.3-1.3-2.9c-0.7-0.7-1.7-1-3-1c-4.5,0-5.2,3.9-5.2,7.7c0,3.7,0.7,7.6,5.2,7.6
			c2.5,0,4.3-2.1,4.6-4.5H203c-0.5,4.2-2.5,7.4-5.3,9.7c-2.8,2.2-6.5,3.4-10.7,3.4c-9.3,0-16.7-6.4-16.7-16.1S177.7,471,187,471
			c8.1,0,14.9,4,15.7,12.5h-11.2V483.3z"/>
		<path d="M221.9,471.6h6.3v7.2h-6.3v10.7c0,2.8,0.7,4.1,3.6,4.1c0.9,0,1.8-0.1,2.7-0.2v8.9c-2.4,0-5,0.4-7.5,0.4
			c-5,0-10.5-0.8-10.5-9.2v-14.7H205v-7.2h5.2v-9.3h11.7V471.6z"/>
		<path d="M249.7,480.5c-0.1-1-0.6-1.8-1.4-2.3c-0.7-0.6-1.7-0.9-2.6-0.9c-1.7,0-3.6,0.4-3.6,2.4c0,0.9,0.7,1.3,1.4,1.6
			c2,0.8,6.4,1.1,10.3,2.4c3.9,1.2,7.4,3.6,7.4,8.6c0,8.5-8.2,10.9-15.7,10.9c-7.2,0-15.2-2.9-15.4-10.9h11.2c0.1,1.1,0.5,2,1.4,2.7
			c0.6,0.5,1.7,0.9,3.1,0.9c1.5,0,4-0.6,4-2.4s-1-2.3-6.5-3.3c-9-1.5-12.6-4.4-12.6-9.7c0-7.8,8.4-9.8,14.5-9.8
			c6.6,0,14.6,1.8,14.9,9.7L249.7,480.5L249.7,480.5z"/>
	</g>
</g>
</svg>
