<?xml version="1.0" encoding="utf-8"?>
<!-- Generator: Adobe Illustrator 18.0.0, SVG Export Plug-In . SVG Version: 6.00 Build 0)  -->
<!DOCTYPE svg PUBLIC "-//W3C//DTD SVG 1.1//EN" "http://www.w3.org/Graphics/SVG/1.1/DTD/svg11.dtd">
<svg version="1.1" id="Layer_1" xmlns="http://www.w3.org/2000/svg" xmlns:xlink="http://www.w3.org/1999/xlink" x="0px" y="0px"
	 viewBox="-1.7 394.2 612 326.7" enable-background="new -1.7 394.2 612 326.7" xml:space="preserve">
<path id="XMLID_2_" d="M609.6,394.9v325.3H-1V394.9H609.6 M610.3,394.2h-0.7H-1h-0.7v0.7v325.3v0.7H-1h610.6h0.7v-0.7V394.9V394.2
	L610.3,394.2z"/>
<rect x="13" y="533.7" width="584.9" height="4.4"/>
<rect x="13" y="578.1" width="584.9" height="0.7"/>
<g>
	<path d="M18.1,585.2H20v14h6.4v1.7h-8.3C18.1,600.9,18.1,585.2,18.1,585.2z"/>
	<path d="M27.6,593.8H33v1.7h-5.4C27.6,595.5,27.6,593.8,27.6,593.8z"/>
	<path d="M35.4,585.2h1.9v14h6.4v1.7h-8.3C35.4,600.9,35.4,585.2,35.4,585.2z"/>
	<path d="M46.6,595.2c0,1.8,0,4.5,2.3,4.5c1.8,0,2-1.8,2-2.7h1.8c0,1.2-0.7,4.2-3.9,4.2c-2.9,0-4.1-2-4.1-6c0-2.9,0.6-6.3,4.2-6.3
		c3.6,0,3.9,3.1,3.9,5.7v0.7L46.6,595.2L46.6,595.2z M50.9,593.7v-0.6c0-1.3-0.4-2.9-2-2.9c-1.9,0-2.2,2.4-2.2,3.1v0.4H50.9z"/>
	<path d="M62.6,600.9h-1.8v-1.4l0,0c-0.5,1.1-1.7,1.7-2.9,1.7c-3.1,0-3.1-2.3-3.1-3.7v-8.4h1.8v8.1c0,0.9,0.1,2.4,1.7,2.4
		c1,0,2.3-0.7,2.3-2.4v-8.1h1.8v11.8H62.6z"/>
	<path d="M70.6,592.7c0-1.1-0.5-2.4-1.9-2.4c-1.1,0-2.3,0.6-2.3,4.9c0,1.5,0,4.6,2.2,4.6c1.6,0,1.9-1.7,1.9-2.9h1.8
		c0,1.9-0.9,4.4-3.9,4.4c-2.9,0-4.1-2-4.1-6c0-2.9,0.6-6.3,4.2-6.3c3.2,0,3.8,2.5,3.8,3.9h-1.7V592.7z"/>
	<path d="M74.5,585.2h1.8v2.1h-1.8V585.2z M74.5,589.1h1.8v11.8h-1.8V589.1z"/>
	<path d="M78.7,589.1h1.8v1.4l0,0c0.5-1.1,1.7-1.7,2.9-1.7c3.1,0,3.1,2.3,3.1,3.7v8.3h-1.8v-8.1c0-0.9-0.1-2.4-1.7-2.4
		c-1,0-2.3,0.7-2.3,2.4v8.1h-1.8v-11.7H78.7z"/>
	<path d="M90.4,595.2c0,1.8,0,4.5,2.3,4.5c1.8,0,2-1.8,2-2.7h1.8c0,1.2-0.7,4.2-3.9,4.2c-2.9,0-4.1-2-4.1-6c0-2.9,0.6-6.3,4.2-6.3
		s3.9,3.1,3.9,5.7v0.7L90.4,595.2L90.4,595.2z M94.7,593.7v-0.6c0-1.3-0.4-2.9-2-2.9c-1.9,0-2.2,2.4-2.2,3.1v0.4H94.7z"/>
	<path d="M18.1,615H20v14h6.4v1.7h-8.3C18.1,630.6,18.1,615,18.1,615z"/>
	<path d="M27.6,623.6H33v1.7h-5.4C27.6,625.3,27.6,623.6,27.6,623.6z"/>
	<path d="M35.4,615h1.9v15.7h-1.9V615z"/>
	<path d="M44.9,622.4c0-1.5-0.4-2.3-1.7-2.3c-0.6,0-1.9,0.2-1.9,1.8c0,1.4,1.4,1.6,2.9,2.1c1.4,0.5,2.9,1,2.9,3.3
		c0,2.5-1.6,3.7-3.8,3.7c-4,0-4-3-4-4.2h1.8c0,1.4,0.4,2.7,2.2,2.7c0.6,0,2-0.3,2-2c0-1.6-1.4-1.9-2.9-2.4c-1.4-0.5-2.9-0.9-2.9-3.3
		c0-2.2,1.7-3.2,3.8-3.2c3.4,0,3.6,2.4,3.6,3.8H44.9z"/>
	<path d="M52.4,618.6c3.4,0,4.2,2.9,4.2,6.2c0,3.3-0.9,6.2-4.2,6.2c-3.4,0-4.2-2.9-4.2-6.2C48.2,621.5,49,618.6,52.4,618.6z
		 M54.7,624.8c0-2.5-0.4-4.7-2.3-4.7s-2.3,2.2-2.3,4.7c0,2.5,0.4,4.7,2.3,4.7C54.3,629.4,54.7,627.3,54.7,624.8z"/>
	<path d="M58.6,615h1.8v15.7h-1.8V615z"/>
	<path d="M64.5,625c0,1.8,0,4.5,2.3,4.5c1.8,0,2-1.8,2-2.7h1.8c0,1.2-0.7,4.2-3.9,4.2c-2.9,0-4.1-2-4.1-6c0-2.9,0.6-6.3,4.2-6.3
		c3.6,0,3.9,3.1,3.9,5.7v0.7L64.5,625L64.5,625z M68.8,623.6V623c0-1.3-0.4-2.9-2-2.9c-1.9,0-2.2,2.4-2.2,3.1v0.4H68.8z"/>
	<path d="M80.4,630.6h-1.8v-1.4l0,0c-0.5,1.1-1.7,1.7-2.9,1.7c-3.1,0-3.1-2.3-3.1-3.7V619h1.8v8.1c0,0.9,0.1,2.4,1.7,2.4
		c1,0,2.3-0.7,2.3-2.4V619h1.8v11.7H80.4z"/>
	<path d="M88.4,622.5c0-1.1-0.5-2.4-1.9-2.4c-1.1,0-2.3,0.6-2.3,4.9c0,1.5,0,4.6,2.2,4.6c1.6,0,1.9-1.7,1.9-2.9h1.8
		c0,1.9-0.9,4.4-3.9,4.4c-2.9,0-4.1-2-4.1-6c0-2.9,0.6-6.3,4.2-6.3c3.2,0,3.8,2.5,3.8,3.9h-1.7V622.5z"/>
	<path d="M92.2,615H94v2.1h-1.8V615z M92.2,618.9H94v11.8h-1.8V618.9z"/>
	<path d="M96.6,618.9h1.8v1.4l0,0c0.5-1.1,1.7-1.7,2.9-1.7c3.1,0,3.1,2.3,3.1,3.7v8.3h-1.8v-8.1c0-0.9-0.1-2.4-1.7-2.4
		c-1,0-2.3,0.7-2.3,2.4v8.1h-1.8v-11.7H96.6z"/>
	<path d="M108.3,625c0,1.8,0,4.5,2.3,4.5c1.8,0,2-1.8,2-2.7h1.8c0,1.2-0.7,4.2-3.9,4.2c-2.9,0-4.1-2-4.1-6c0-2.9,0.6-6.3,4.2-6.3
		c3.6,0,3.9,3.1,3.9,5.7v0.7L108.3,625L108.3,625z M112.5,623.6V623c0-1.3-0.4-2.9-2-2.9c-1.9,0-2.2,2.4-2.2,3.1v0.4H112.5z"/>
	<path d="M18.1,644.7H20v14h6.4v1.7h-8.3C18.1,660.4,18.1,644.7,18.1,644.7z"/>
	<path d="M27.6,653.3H33v1.7h-5.4C27.6,655,27.6,653.3,27.6,653.3z"/>
	<path d="M34.1,644.7h2l3.1,13.5l0,0l3.1-13.5h2l-3.9,15.7h-2.5L34.1,644.7z"/>
	<path d="M44.8,652.2c0-2.7,1.1-3.9,3.9-3.9c3.6,0,3.6,2.2,3.6,3.4v6.6c0,0.5,0,0.9,0.6,0.9c0.2,0,0.4,0,0.4-0.1v1.3
		c-0.1,0-0.6,0.1-1.1,0.1c-0.7,0-1.6,0-1.7-1.5l0,0c-0.6,1.1-1.7,1.7-2.8,1.7c-2.2,0-3.2-1.3-3.2-3.4c0-1.6,0.7-2.8,2.2-3.2l2.5-0.7
		c1.3-0.4,1.3-0.8,1.3-1.8c0-1.1-0.7-1.7-1.9-1.7c-2,0-2,1.9-2,2.3v0.1L44.8,652.2L44.8,652.2z M50.5,654c-0.7,0.7-2.3,0.9-3.1,1.4
		c-0.6,0.4-0.9,0.8-0.9,1.9c0,1.2,0.4,2,1.7,2c1.2,0,2.4-1,2.4-2.2L50.5,654L50.5,654z"/>
	<path d="M54.9,644.7h1.8v15.7h-1.8V644.7z"/>
	<path d="M59.4,644.7h1.8v2.1h-1.8V644.7z M59.4,648.6h1.8v11.8h-1.8V648.6z"/>
	<path d="M63.8,648.6h1.8v1.4l0,0c0.5-1.1,1.7-1.7,2.9-1.7c3.1,0,3.1,2.3,3.1,3.7v8.3h-1.8v-8.1c0-0.9-0.1-2.4-1.7-2.4
		c-1,0-2.3,0.7-2.3,2.4v8.1H64v-11.7H63.8z"/>
	<path d="M75.4,654.7c0,1.8,0,4.5,2.3,4.5c1.8,0,2-1.8,2-2.7h1.8c0,1.3-0.7,4.2-3.9,4.2c-2.9,0-4.1-2-4.1-6c0-2.9,0.6-6.3,4.2-6.3
		c3.6,0,3.9,3.1,3.9,5.7v0.7L75.4,654.7L75.4,654.7z M79.6,653.3v-0.6c0-1.3-0.4-2.9-2-2.9c-1.9,0-2.2,2.4-2.2,3.1v0.4H79.6z"/>
</g>
<g>
	<path d="M26.9,474.5c-0.3-2.9-2.2-4.1-4.8-4.1c-2.2,0-4.4,0.8-4.4,3.4c0,2.5,3.1,2.9,6.2,3.6s6.2,1.9,6.2,5.8c0,4.3-4.1,6-7.6,6
		c-4.4,0-8-2.2-8-7.1h2.5c0,3.4,2.7,4.9,5.7,4.9c2.3,0,4.9-0.8,4.9-3.7c0-2.8-3.1-3.3-6.2-4c-3.1-0.7-6.2-1.6-6.2-5.3
		c0-4.1,3.5-5.9,7.1-5.9c4,0,7,2,7.2,6.4L26.9,474.5L26.9,474.5z"/>
	<path d="M44.9,484.2c-0.6,3.2-2.9,5-6,5c-4.5,0-6.6-3.2-6.8-7.7c0-4.4,2.8-7.6,6.6-7.6c5,0,6.5,4.8,6.4,8.4H34.6
		c-0.1,2.5,1.3,4.8,4.4,4.8c1.9,0,3.2-1,3.6-2.9L44.9,484.2L44.9,484.2z M42.7,480.1c-0.1-2.3-1.8-4.1-4.1-4.1c-2.4,0-3.9,1.9-4,4.1
		H42.7z"/>
	<path d="M47.4,474.2h2.2v3.1h0.1c1.1-2.3,2.7-3.5,5.2-3.4v2.5c-3.7,0-5.1,2.2-5.1,5.9v6.5h-2.3L47.4,474.2L47.4,474.2z"/>
	<path d="M62.9,488.8h-2.5l-5.2-14.6h2.6l3.9,12.2h0.1l3.8-12.2H68L62.9,488.8z"/>
	<path d="M72.6,471.6h-2.3v-2.9h2.3V471.6z M70.3,474.2h2.3v14.6h-2.3V474.2z"/>
	<path d="M76.1,474.2h2.2v2.3h0.1c1-1.8,2.6-2.7,4.6-2.7c3.7,0,4.8,2.2,4.8,5.3v9.6h-2.3v-9.9c0-1.8-1.1-2.9-2.9-2.9
		c-2.8,0-4.2,2-4.2,4.6v8.3h-2.3C76.1,488.8,76.1,474.2,76.1,474.2z"/>
	<path d="M103.4,487.6c0,4.8-2.1,7.2-6.5,7.2c-2.6,0-5.7-1.1-5.8-4.3h2.3c0.1,1.8,2.1,2.4,3.6,2.4c3,0,4.2-2.3,4.2-5.5v-1h-0.1
		c-0.8,1.8-2.6,2.7-4.4,2.7c-4.2,0-6.3-3.4-6.3-7.4c0-3.4,1.6-7.7,6.5-7.7c1.8,0,3.4,0.8,4.2,2.4l0,0v-2.1h2.2L103.4,487.6
		L103.4,487.6z M101.1,481.2c0-2.6-1.1-5.2-4-5.2c-3,0-4.2,2.5-4.2,5.3c0,2.6,0.9,5.6,4,5.6C100,486.9,101.1,484,101.1,481.2z"/>
	<path d="M126,474.5c-0.3-2.9-2.2-4.1-4.8-4.1c-2.2,0-4.4,0.8-4.4,3.4c0,2.5,3.1,2.9,6.2,3.6c3.1,0.7,6.2,1.9,6.2,5.8
		c0,4.3-4.1,6-7.6,6c-4.4,0-8-2.2-8-7.1h2.5c0,3.4,2.7,4.9,5.7,4.9c2.3,0,4.9-0.8,4.9-3.7c0-2.8-3.1-3.3-6.2-4s-6.2-1.6-6.2-5.3
		c0-4.1,3.5-5.9,7.1-5.9c4,0,7,2,7.2,6.4L126,474.5L126,474.5z"/>
	<path d="M134.5,471.6h-2.3v-2.9h2.3V471.6z M132.2,474.2h2.3v14.6h-2.3V474.2z"/>
	<path d="M136.9,487l8.5-10.7h-8v-2.1h10.9v1.6l-8.6,10.9h9v2.1h-11.9L136.9,487L136.9,487z"/>
	<path d="M163.2,484.2c-0.6,3.2-2.9,5-6,5c-4.5,0-6.6-3.2-6.8-7.7c0-4.4,2.8-7.6,6.6-7.6c5,0,6.5,4.8,6.4,8.4h-10.5
		c-0.1,2.5,1.3,4.8,4.4,4.8c1.9,0,3.2-1,3.6-2.9L163.2,484.2L163.2,484.2z M160.9,480.1c-0.1-2.3-1.8-4.1-4.1-4.1
		c-2.4,0-3.9,1.9-4,4.1H160.9z"/>
	<path d="M172.8,475.9c-0.2-4.1,2.1-7.1,6.2-7.1c3.4,0,6,2,6,5.8c0,3.5-2.3,5.3-4.7,6.9c-2.4,1.5-5,2.8-5.4,5.3h9.9v2.1h-12.6
		c0.4-4.8,2.7-6.4,5.4-8.2c3.3-2.1,4.9-3.3,4.9-6.1c0-2.2-1.7-3.6-3.7-3.6c-2.7,0-3.8,2.6-3.8,5L172.8,475.9L172.8,475.9z"/>
	<path d="M210,474.7c-0.5-2.9-2.8-4.3-5.4-4.3c-4.6,0-6.6,4-6.6,8.2c0,4.6,2,8.5,6.6,8.5c3.4,0,5.4-2.5,5.6-5.8h2.6
		c-0.5,5-3.5,8.1-8.4,8.1c-6,0-9-4.6-9-10.5c0-5.9,3.2-10.6,9.2-10.6c4.1,0,7.4,2.3,8,6.6H210V474.7z"/>
	<path d="M228,488.8c-0.4,0.3-0.9,0.4-1.7,0.4c-1.2,0-2-0.7-2-2.3c-1.3,1.6-3,2.3-5,2.3c-2.6,0-4.7-1.2-4.7-4.1c0-3.3,2.4-4,4.8-4.5
		c2.6-0.5,4.7-0.3,4.7-2.1c0-2.1-1.7-2.4-3.1-2.4c-2,0-3.4,0.6-3.5,2.8h-2.3c0.1-3.6,2.8-4.9,6-4.9c2.5,0,5.3,0.6,5.3,4v7.5
		c0,1.1,0,1.6,0.7,1.6c0.2,0,0.4,0,0.7-0.1L228,488.8L228,488.8z M224.3,481.3c-0.9,0.7-2.6,0.7-4.2,1c-1.5,0.3-2.8,0.8-2.8,2.6
		c0,1.6,1.3,2.1,2.7,2.1c3.1,0,4.3-2,4.3-3.3V481.3z"/>
	<path d="M230.2,474.2h2.3v2h0.1c0.8-1.6,2.6-2.3,4.5-2.3c4.3,0,6.5,3.6,6.5,7.7s-2.1,7.6-6.4,7.6c-1.4,0-3.5-0.6-4.5-2.3h-0.2v7.5
		h-2.3V474.2z M236.7,476c-3.1,0-4.3,2.8-4.3,5.5c0,2.9,1.3,5.5,4.4,5.5c3.2,0,4.2-2.8,4.2-5.7C241.1,478.6,239.7,476,236.7,476z"/>
	<path d="M247.7,484.2c0.1,2.1,1.9,2.8,3.8,2.8c1.4,0,3.4-0.3,3.4-2.2c0-1.9-2.3-2.2-4.6-2.7s-4.6-1.3-4.6-4.1
		c0-2.9,2.8-4.2,5.3-4.2c3.1,0,5.6,1,5.8,4.6h-2.3c-0.2-1.9-1.7-2.5-3.3-2.5c-1.4,0-3,0.4-3,1.9c0,1.7,2.5,2,4.6,2.5
		c2.3,0.5,4.6,1.3,4.6,4.2c0,3.5-3.1,4.6-6,4.6c-3.2,0-5.8-1.3-6-4.9L247.7,484.2L247.7,484.2z"/>
	<path d="M26.9,505.4c-0.3-2.9-2.2-4.1-4.8-4.1c-2.2,0-4.4,0.8-4.4,3.4c0,2.5,3.1,2.9,6.2,3.6c3.1,0.7,6.2,1.9,6.2,5.8
		c0,4.3-4.1,6-7.6,6c-4.4,0-8-2.2-8-7.1h2.5c0,3.4,2.7,4.9,5.7,4.9c2.3,0,4.9-0.8,4.9-3.7c0-2.8-3.1-3.3-6.2-4
		c-3.1-0.7-6.2-1.6-6.2-5.3c0-4.1,3.5-5.9,7.1-5.9c4,0,7,2,7.2,6.4L26.9,505.4L26.9,505.4z"/>
	<path d="M44.9,515c-0.6,3.2-2.9,5-6,5c-4.5,0-6.6-3.2-6.8-7.7c0-4.4,2.8-7.6,6.6-7.6c5,0,6.5,4.8,6.4,8.4H34.6
		c-0.1,2.5,1.3,4.8,4.4,4.8c1.9,0,3.2-1,3.6-2.9H44.9L44.9,515z M42.7,511c-0.1-2.3-1.8-4.1-4.1-4.1c-2.4,0-3.9,1.9-4,4.1H42.7z"/>
	<path d="M47.4,505h2.2v3.1h0.1c1.1-2.3,2.7-3.5,5.2-3.4v2.5c-3.7,0-5.1,2.2-5.1,5.9v6.5h-2.3L47.4,505L47.4,505z"/>
	<path d="M62.9,519.6h-2.5l-5.2-14.6h2.6l3.9,12.2h0.1l3.8-12.2H68L62.9,519.6z"/>
	<path d="M72.6,502.4h-2.3v-2.9h2.3V502.4z M70.3,505h2.3v14.6h-2.3V505z"/>
	<path d="M76.1,505h2.2v2.3h0.1c1-1.8,2.6-2.7,4.6-2.7c3.7,0,4.8,2.2,4.8,5.3v9.6h-2.3v-9.9c0-1.8-1.1-2.9-2.9-2.9
		c-2.8,0-4.2,2-4.2,4.6v8.3h-2.3C76.1,519.5,76.1,505,76.1,505z"/>
	<path d="M103.4,518.3c0,4.8-2.1,7.2-6.5,7.2c-2.6,0-5.7-1.1-5.8-4.3h2.3c0.1,1.8,2.1,2.4,3.6,2.4c3,0,4.2-2.3,4.2-5.5v-1h-0.1
		c-0.8,1.8-2.6,2.7-4.4,2.7c-4.2,0-6.3-3.4-6.3-7.4c0-3.4,1.6-7.7,6.5-7.7c1.8,0,3.4,0.8,4.2,2.4l0,0v-2.1h2.2L103.4,518.3
		L103.4,518.3z M101.1,512.1c0-2.6-1.1-5.2-4-5.2c-3,0-4.2,2.5-4.2,5.3c0,2.6,0.9,5.6,4,5.6C100,517.6,101.1,514.8,101.1,512.1z"/>
	<path d="M108.3,515.1c0.1,2.1,1.9,2.8,3.8,2.8c1.4,0,3.4-0.3,3.4-2.2c0-1.9-2.3-2.2-4.6-2.7c-2.3-0.5-4.6-1.3-4.6-4.1
		c0-2.9,2.8-4.2,5.3-4.2c3.1,0,5.6,1,5.8,4.6h-2.3c-0.2-1.9-1.7-2.5-3.3-2.5c-1.4,0-3,0.4-3,1.9c0,1.7,2.5,2,4.6,2.5
		c2.3,0.5,4.6,1.3,4.6,4.2c0,3.5-3.1,4.6-6,4.6c-3.2,0-5.8-1.3-6-4.9L108.3,515.1L108.3,515.1z"/>
	<path d="M128.4,499.5h8.5c3.9,0,6,2.2,6,6c0,3.7-2.1,6-6,6H131v8.3h-2.6V499.5z M131,509.1h5.1c2.9,0,4.2-1.3,4.2-3.7
		c0-2.4-1.3-3.7-4.2-3.7H131V509.1z"/>
	<path d="M157.7,515c-0.6,3.2-2.9,5-6,5c-4.5,0-6.6-3.2-6.8-7.7c0-4.4,2.8-7.6,6.6-7.6c5,0,6.5,4.8,6.4,8.4h-10.5
		c-0.1,2.5,1.3,4.8,4.4,4.8c1.9,0,3.2-1,3.6-2.9H157.7L157.7,515z M155.4,511c-0.1-2.3-1.8-4.1-4.1-4.1c-2.4,0-3.9,1.9-4,4.1H155.4z
		"/>
	<path d="M160.2,505h2.2v3.1h0.1c1.1-2.3,2.7-3.5,5.2-3.4v2.5c-3.7,0-5.1,2.2-5.1,5.9v6.5h-2.3L160.2,505L160.2,505z"/>
	<path d="M190.9,505.6c-0.5-2.9-2.8-4.3-5.4-4.3c-4.6,0-6.6,4-6.6,8.2c0,4.6,2,8.5,6.6,8.5c3.4,0,5.4-2.5,5.6-5.8h2.6
		c-0.5,5-3.5,8.1-8.4,8.1c-6,0-9-4.6-9-10.5s3.2-10.6,9.2-10.6c4.1,0,7.4,2.3,8,6.6h-2.6V505.6z"/>
	<path d="M202.5,504.7c4.5,0,6.8,3.4,6.8,7.7c0,4.3-2.4,7.6-6.8,7.6s-6.8-3.4-6.8-7.6C195.7,508.1,198.1,504.7,202.5,504.7z
		 M202.5,517.8c2.4,0,4.4-2,4.4-5.5c0-3.6-2-5.5-4.4-5.5s-4.4,2-4.4,5.5C198.1,515.9,200.1,517.8,202.5,517.8z"/>
	<path d="M212.1,505h2.2v2.3h0.1c1-1.8,2.6-2.7,4.6-2.7c3.7,0,4.8,2.2,4.8,5.3v9.6h-2.3v-9.9c0-1.8-1.1-2.9-2.9-2.9
		c-2.8,0-4.2,2-4.2,4.6v8.3h-2.3L212.1,505L212.1,505z"/>
	<path d="M230.3,505h2.8v2.1h-2.8v9.1c0,1.1,0.3,1.3,1.7,1.3h1.1v2.1h-1.8c-2.4,0-3.4-0.5-3.4-3.2v-9.3h-2.4V505h2.4v-4.4h2.3
		L230.3,505L230.3,505z"/>
	<path d="M248.2,519.5c-0.4,0.3-0.9,0.4-1.7,0.4c-1.2,0-2-0.7-2-2.3c-1.3,1.6-3,2.3-5,2.3c-2.6,0-4.7-1.2-4.7-4.1
		c0-3.3,2.4-4,4.8-4.5c2.6-0.5,4.7-0.3,4.7-2.1c0-2.1-1.7-2.4-3.1-2.4c-2,0-3.4,0.6-3.5,2.8h-2.2c0.1-3.6,2.8-4.9,6-4.9
		c2.5,0,5.3,0.6,5.3,4v7.5c0,1.1,0,1.6,0.7,1.6c0.2,0,0.4,0,0.7-0.1V519.5z M244.4,512.1c-0.9,0.7-2.6,0.7-4.2,1
		c-1.5,0.3-2.8,0.8-2.8,2.6c0,1.6,1.3,2.1,2.7,2.1c3.1,0,4.3-2,4.3-3.3V512.1z"/>
	<path d="M252.8,502.4h-2.3v-2.9h2.3V502.4z M250.5,505h2.3v14.6h-2.3V505z"/>
	<path d="M256.4,505h2.2v2.3h0.1c1-1.8,2.6-2.7,4.6-2.7c3.7,0,4.8,2.2,4.8,5.3v9.6h-2.3v-9.9c0-1.8-1.1-2.9-2.9-2.9
		c-2.8,0-4.2,2-4.2,4.6v8.3h-2.3L256.4,505L256.4,505z"/>
	<path d="M283.4,515c-0.6,3.2-2.9,5-6,5c-4.5,0-6.6-3.2-6.8-7.7c0-4.4,2.8-7.6,6.6-7.6c5,0,6.5,4.8,6.4,8.4h-10.5
		c-0.1,2.5,1.3,4.8,4.4,4.8c1.9,0,3.2-1,3.6-2.9H283.4L283.4,515z M281.2,511c-0.1-2.3-1.8-4.1-4.1-4.1c-2.4,0-3.9,1.9-4,4.1H281.2z
		"/>
	<path d="M286,505h2.2v3.1h0.1c1.1-2.3,2.7-3.5,5.2-3.4v2.5c-3.7,0-5.1,2.2-5.1,5.9v6.5h-2.3L286,505L286,505z"/>
	<path d="M310.6,519.6h-2.3v-14.4h-5v-1.9c2.6,0,5-0.7,5.6-3.8h1.8L310.6,519.6L310.6,519.6z"/>
	<path d="M323.6,499.6c6,0,6.4,5.8,6.4,10.2c0,4.4-0.4,10.2-6.4,10.2c-6,0-6.4-5.8-6.4-10.2C317.2,505.4,317.6,499.6,323.6,499.6z
		 M323.6,517.8c3.9,0,4-5.1,4-8.1c0-3,0-8.1-4-8.1c-4,0-4,5.1-4,8.1C319.7,512.8,319.7,517.8,323.6,517.8z"/>
	<path d="M338.7,499.6c6,0,6.4,5.8,6.4,10.2c0,4.4-0.4,10.2-6.4,10.2s-6.4-5.8-6.4-10.2C332.3,505.4,332.6,499.6,338.7,499.6z
		 M338.7,517.8c3.9,0,4-5.1,4-8.1c0-3,0-8.1-4-8.1c-4,0-4,5.1-4,8.1C334.7,512.8,334.7,517.8,338.7,517.8z"/>
</g>
<g>
	<path d="M267.3,548h4.7l4.9,18.7H273l-0.9-4h-5l-0.9,4h-3.9L267.3,548z M267.8,559.7h3.7l-1.8-8.4h-0.1L267.8,559.7z"/>
	<path d="M278.1,552.6h3.5v1.4h0.1c0.9-1.3,2-1.8,3.6-1.8s2.9,0.8,3.2,2.3h0.1c0.5-1.5,1.9-2.3,3.6-2.3c2.4,0,3.5,1.5,3.5,4.2v10.2
		H292v-9.8c0-1.2-0.4-1.8-1.4-1.8c-1.2,0-1.9,0.8-1.9,2.4v9.3h-3.6v-9.8c0-1.2-0.4-1.8-1.4-1.8c-1.2,0-1.9,0.8-1.9,2.4v9.3h-3.6
		v-14.2H278.1z"/>
	<path d="M302.9,552.3c4.3-0.1,5.5,2.5,5.5,7.4c0,4.8-1.4,7.4-5.5,7.4c-4.3,0.1-5.5-2.5-5.5-7.4
		C297.4,554.9,298.8,552.3,302.9,552.3z M302.9,564.6c1.5,0,1.9-1.4,1.9-4.9s-0.5-4.9-1.9-4.9c-1.8,0-1.9,2.1-1.9,4.9
		C301,562.6,301.2,564.6,302.9,564.6z"/>
	<path d="M317.7,565.1L317.7,565.1c-0.8,1.4-2.1,2-3.6,2c-2.3,0-3.6-1.2-3.6-4v-10.4h3.6v9.7c0,1.4,0.5,2,1.5,2
		c1.2,0,1.9-0.8,1.9-2.3v-9.3h3.6v14.1h-3.5L317.7,565.1L317.7,565.1z"/>
	<path d="M323.5,552.6h3.5v1.6h0.1c0.8-1.4,2.1-2,3.6-2c2.2,0,3.6,1.2,3.6,4v10.4h-3.6v-9.7c0-1.4-0.5-2-1.5-2
		c-1.2,0-1.9,0.8-1.9,2.3v9.3h-3.6v-13.9H323.5z"/>
	<path d="M337.3,548.6h3.6v4h2.1v2.5h-2.1v7.6c0,1.1,0.2,1.5,1.3,1.5c0.3,0,0.6,0,0.8-0.1v2.5c-0.8,0.1-1.5,0.2-2.4,0.2
		c-2.8,0-3.3-0.9-3.3-3.7V555h-1.8v-2.5h1.8V548.6z"/>
	<path d="M350.6,548h6.6c3.8,0,5.1,2.8,5.1,5.6c0,3.9-2.4,5.6-5.9,5.6h-2v7.5h-3.8L350.6,548L350.6,548z M354.4,556.5h1.7
		c1.5,0,2.5-0.9,2.5-2.8c0-1.8-0.7-2.9-2.6-2.9h-1.6V556.5z"/>
	<path d="M366.6,560.2v1.1c0,1.6,0.4,3.3,1.8,3.3c1.2,0,1.7-0.9,1.9-2.6h3.2c-0.1,3.3-1.7,5.1-5.1,5.1c-5.2,0-5.4-4-5.4-7.5
		c0-3.8,0.7-7.3,5.6-7.3c4.2,0,5.2,2.8,5.2,7.1v0.8H366.6z M370.3,558.1c-0.1-2.1-0.3-3.3-1.8-3.3c-1.4,0-1.9,1.5-1.9,2.8v0.5H370.3
		z"/>
	<path d="M375.6,552.6h3.5v1.9h0.1c0.7-1.4,1.8-2.3,3.2-2.3c0.2,0,0.4,0,0.7,0.1v3.5c-0.4,0-0.8-0.1-1.1-0.1c-1.3,0-2.7,0.7-2.7,2.5
		v8.5h-3.6L375.6,552.6L375.6,552.6z"/>
	<path d="M393.6,560.9v0.5c0,1.8,0.5,2.9,2.5,2.9c1.2,0,2.3-0.7,2.3-2.3c0-1.7-0.9-2.3-3.3-3.2c-3.3-1.2-4.9-2.5-4.9-5.7
		c0-3.6,2.2-5.5,5.8-5.5c3.3,0,5.8,1.4,5.8,5v0.5h-3.6c0-1.8-0.6-2.8-2-2.8c-1.7,0-2.1,1.1-2.1,2.2c0,1.2,0.3,1.9,1.9,2.5l2.9,1.3
		c2.8,1.2,3.6,2.7,3.6,4.9c0,4-2.4,5.7-6.5,5.7c-4.3,0-5.9-2-5.9-5.4v-0.8h3.5V560.9z"/>
	<path d="M407.2,560.2v1.1c0,1.6,0.4,3.3,1.8,3.3c1.2,0,1.7-0.9,1.9-2.6h3.2c-0.1,3.3-1.7,5.1-5.1,5.1c-5.2,0-5.4-4-5.4-7.5
		c0-3.8,0.7-7.3,5.6-7.3c4.2,0,5.2,2.8,5.2,7.1v0.8H407.2z M410.9,558.1c-0.1-2.1-0.3-3.3-1.8-3.3c-1.4,0-1.9,1.5-1.9,2.8v0.5H410.9
		z"/>
	<path d="M416.2,552.6h3.5v1.9h0.1c0.7-1.4,1.8-2.3,3.2-2.3c0.2,0,0.4,0,0.7,0.1v3.5c-0.4,0-0.8-0.1-1.1-0.1c-1.3,0-2.7,0.7-2.7,2.5
		v8.5h-3.7V552.6z"/>
	<path d="M431.9,552.6h3.6l-3.5,14.1h-4.2l-3.6-14.1h3.8l2,10.1h0.1L431.9,552.6z"/>
	<path d="M437,547.8h3.6v3.1H437V547.8z M437,552.6h3.6v14.1H437V552.6z"/>
	<path d="M443.2,552.6h3.5v1.6h0.1c0.8-1.4,2.1-2,3.6-2c2.2,0,3.6,1.2,3.6,4v10.4h-3.6v-9.7c0-1.4-0.5-2-1.5-2
		c-1.2,0-1.9,0.8-1.9,2.3v9.3h-3.6v-13.9H443.2z"/>
	<path d="M466.8,552.6V566c0,3.7-1.6,5.5-5.9,5.5c-3.1,0-4.8-1.4-4.8-3.8h3.5c0,0.5,0.2,0.8,0.5,1.1c0.3,0.2,0.8,0.4,1.2,0.4
		c1.5,0,2-1.1,2-2.5v-1.9h-0.1c-0.7,1-1.9,1.7-3,1.7c-2.9,0-4.3-2-4.3-7.1c0-3.3,0.5-7.2,4.4-7.2c1,0,2.2,0.5,2.9,1.9h0.1v-1.6
		L466.8,552.6L466.8,552.6z M461.4,563.8c1.5,0,2-1.6,2-4c0-3.4-0.4-4.7-1.9-4.7c-1.6,0-1.9,1.3-1.9,5.1
		C459.6,562.1,459.9,563.8,461.4,563.8z"/>
	<path d="M535.4,548.2c3.2,0,3.9,1.6,3.9,5c0,3.4-0.7,5-3.9,5s-3.9-1.6-3.9-5C531.6,549.8,532.2,548.2,535.4,548.2z M535.4,556.2
		c1,0,1.2-1,1.2-3.1c0-1.9-0.1-2.9-1.2-2.9s-1.2,1-1.2,2.9C534.2,555.2,534.3,556.2,535.4,556.2z M545,547.8h2.3l-10.6,19.8h-2.3
		L545,547.8z M546.5,557.1c3.2,0,3.9,1.6,3.9,5c0,3.4-0.7,5-3.9,5s-3.9-1.6-3.9-5C542.6,558.7,543.2,557.1,546.5,557.1z
		 M546.5,565.1c1,0,1.2-1,1.2-3.1c0-1.9-0.1-2.9-1.2-2.9s-1.2,1-1.2,2.9C545.3,564.1,545.4,565.1,546.5,565.1z"/>
	<path d="M558.9,548h6.2c5.2,0,6.2,3.6,6.2,9.1c0,6.6-1.4,9.6-6.4,9.6h-6V548z M562.6,564h1.7c2.6,0,3.1-1.6,3.1-6.7
		c0-4.2-0.3-6.4-3.2-6.4h-1.6V564z"/>
	<path d="M576.5,548l2.6,13.8h0.1L582,548h3.9l-4.3,18.7h-4.8l-4.3-18.7H576.5z"/>
</g>
<g>
	<path d="M406.2,586.1h7v1.7h-5.5l-0.6,4.5l0,0c0.6-0.8,1.7-1.2,2.7-1.2c2.3,0,3.9,1.9,3.9,5.1c0,2.9-1.3,5.4-4.5,5.4
		c-3.7,0-4.3-3.1-4.3-4.3h1.9c0,0.8,0.3,2.9,2.4,2.9c2.2,0,2.6-2.5,2.6-4.1c0-1.7-0.6-3.5-2.6-3.5c-1.3,0-2.2,1.1-2.2,1.5l-1.7-0.1
		L406.2,586.1z"/>
	<path d="M415.5,593.8c0-3.4,0.2-8,4.5-8c4.2,0,4.5,4.2,4.5,8c0,3.3-0.2,7.9-4.5,7.9S415.5,597.5,415.5,593.8z M419.9,600.3
		c2.4,0,2.5-3.2,2.5-6.4c0-3.4-0.1-6.6-2.5-6.6c-2.4,0-2.5,3.1-2.5,6.6C417.4,597.1,417.5,600.3,419.9,600.3z"/>
	<path d="M426,593.8c0-3.4,0.2-8,4.5-8c4.2,0,4.5,4.2,4.5,8c0,3.3-0.2,7.9-4.5,7.9C426.3,601.7,426,597.5,426,593.8z M430.5,600.3
		c2.4,0,2.5-3.2,2.5-6.4c0-3.4-0.1-6.6-2.5-6.6s-2.5,3.1-2.5,6.6C428,597.1,428.1,600.3,430.5,600.3z"/>
	<path d="M442.4,589.6h1.8v1.4l0,0c0.5-1.1,1.7-1.7,2.9-1.7c1.4,0,2.2,0.5,2.6,1.9c0.5-1,1.6-1.9,2.8-1.9c3.1,0,3.1,2.4,3.1,3.8v8.4
		h-1.9v-8.2c0-0.9-0.1-2.4-1.6-2.4c-0.9,0-2.2,0.5-2.2,2.4v8.2H448v-8.2c0-0.9-0.1-2.4-1.6-2.4c-0.9,0-2.2,0.5-2.2,2.4v8.2h-1.9
		L442.4,589.6L442.4,589.6z"/>
	<path d="M465.9,600.7c0,3.5-1.6,4.8-4,4.8c-0.7,0-3.6,0-3.9-3h1.9c0.1,1.1,0.9,1.5,1.9,1.5c2.4,0,2.3-1.8,2.3-2.6v-1.5l0,0
		c-0.4,1-1.5,1.6-2.7,1.6c-3.4,0-3.7-4.3-3.7-5.9c0-3.2,0.9-6.2,3.9-6.2c1.3,0,2.3,0.9,2.6,1.8l0,0v-1.5h1.8L465.9,600.7
		L465.9,600.7z M459.6,595.5c0,1.9,0.3,4.3,2.1,4.3c2,0,2.4-1.9,2.4-4.3c0-2.3-0.4-4.6-2.4-4.6C460.1,590.9,459.6,592.7,459.6,595.5
		z"/>
	<path d="M413.7,631.1H405c0-2.9,1.6-4.9,3.4-6.4l1.3-1.1c1.3-1.1,2.1-2,2.1-3.8c0-1.3-0.6-2.8-2.3-2.8c-2.4,0-2.5,2.5-2.5,3.4h-1.9
		c0-3,1.2-5,4.4-5c3.6,0,4.2,2.8,4.2,4.2c0,2.4-1,3.6-2.7,5.1l-2.2,1.9c-0.9,0.7-1.5,1.6-1.7,2.7h6.7L413.7,631.1L413.7,631.1z"/>
	<path d="M416.8,615.9h7v1.7h-5.6l-0.6,4.5l0,0c0.6-0.8,1.7-1.2,2.7-1.2c2.3,0,3.9,1.9,3.9,5.1c0,2.9-1.3,5.4-4.5,5.4
		c-3.7,0-4.3-3.1-4.3-4.3h1.9c0,0.8,0.3,2.9,2.4,2.9c2.2,0,2.6-2.5,2.6-4.1c0-1.7-0.6-3.5-2.6-3.5c-1.3,0-2.2,1.1-2.2,1.5l-1.7-0.1
		L416.8,615.9z"/>
	<path d="M426,623.6c0-3.4,0.2-8,4.5-8c4.2,0,4.5,4.2,4.5,8c0,3.3-0.2,7.9-4.5,7.9C426.3,631.4,426,627.3,426,623.6z M430.5,630
		c2.4,0,2.5-3.2,2.5-6.4c0-3.4-0.1-6.6-2.5-6.6s-2.5,3.1-2.5,6.6C428,626.9,428.1,630,430.5,630z"/>
	<path d="M442.4,619.4h1.8v1.4l0,0c0.5-1.1,1.7-1.7,2.9-1.7c1.4,0,2.2,0.5,2.6,1.9c0.5-1,1.6-1.9,2.8-1.9c3.1,0,3.1,2.4,3.1,3.8v8.4
		h-1.9v-8.2c0-0.9-0.1-2.4-1.6-2.4c-0.9,0-2.2,0.5-2.2,2.4v8.2H448v-8.2c0-0.9-0.1-2.4-1.6-2.4c-0.9,0-2.2,0.5-2.2,2.4v8.2h-1.9
		L442.4,619.4L442.4,619.4z"/>
	<path d="M465.9,630.4c0,3.5-1.6,4.8-4,4.8c-0.7,0-3.6,0-3.9-3h1.9c0.1,1.1,0.9,1.5,1.9,1.5c2.4,0,2.3-1.8,2.3-2.6v-1.5l0,0
		c-0.4,1-1.5,1.6-2.7,1.6c-3.4,0-3.7-4.3-3.7-5.9c0-3.2,0.9-6.2,3.9-6.2c1.3,0,2.3,0.9,2.6,1.8l0,0v-1.5h1.8L465.9,630.4
		L465.9,630.4z M459.6,625.3c0,1.9,0.3,4.3,2.1,4.3c2,0,2.4-1.9,2.4-4.3c0-2.3-0.4-4.6-2.4-4.6C460.1,620.7,459.6,622.5,459.6,625.3
		z"/>
	<path d="M413.7,660.9H405c0-2.9,1.6-4.9,3.4-6.4l1.3-1.1c1.3-1.1,2.1-2,2.1-3.8c0-1.3-0.6-2.8-2.3-2.8c-2.4,0-2.5,2.5-2.5,3.4h-1.9
		c0-3,1.2-5,4.4-5c3.6,0,4.2,2.8,4.2,4.2c0,2.4-1,3.6-2.7,5.1l-2.2,1.9c-0.9,0.7-1.5,1.6-1.7,2.7h6.7L413.7,660.9L413.7,660.9z"/>
	<path d="M416.8,645.6h7v1.7h-5.6l-0.6,4.5l0,0c0.6-0.8,1.7-1.2,2.7-1.2c2.3,0,3.9,1.9,3.9,5.1c0,2.9-1.3,5.4-4.5,5.4
		c-3.7,0-4.3-3.1-4.3-4.3h1.9c0,0.8,0.3,2.9,2.4,2.9c2.2,0,2.6-2.5,2.6-4.1c0-1.7-0.6-3.5-2.6-3.5c-1.3,0-2.2,1.1-2.2,1.5l-1.7-0.1
		L416.8,645.6z"/>
	<path d="M426,653.3c0-3.4,0.2-8,4.5-8c4.2,0,4.5,4.2,4.5,8c0,3.3-0.2,7.9-4.5,7.9C426.3,661.2,426,657.1,426,653.3z M430.5,659.8
		c2.4,0,2.5-3.2,2.5-6.4c0-3.4-0.1-6.6-2.5-6.6s-2.5,3.1-2.5,6.6C428,656.6,428.1,659.8,430.5,659.8z"/>
	<path d="M442.4,649.1h1.8v1.4l0,0c0.5-1.1,1.7-1.7,2.9-1.7c1.4,0,2.2,0.5,2.6,1.9c0.5-1,1.6-1.9,2.8-1.9c3.1,0,3.1,2.4,3.1,3.8v8.4
		h-1.9v-8.2c0-0.9-0.1-2.4-1.6-2.4c-0.9,0-2.2,0.5-2.2,2.4v8.2H448v-8.2c0-0.9-0.1-2.4-1.6-2.4c-0.9,0-2.2,0.5-2.2,2.4v8.2h-1.9
		L442.4,649.1L442.4,649.1z"/>
	<path d="M465.9,660.2c0,3.5-1.6,4.8-4,4.8c-0.7,0-3.6,0-3.9-3h1.9c0.1,1.1,0.9,1.5,1.9,1.5c2.4,0,2.3-1.8,2.3-2.6v-1.5l0,0
		c-0.4,1-1.5,1.6-2.7,1.6c-3.4,0-3.7-4.3-3.7-5.9c0-3.2,0.9-6.2,3.9-6.2c1.3,0,2.3,0.9,2.6,1.8l0,0v-1.5h1.8L465.9,660.2
		L465.9,660.2z M459.6,655c0,1.9,0.3,4.3,2.1,4.3c2,0,2.4-1.9,2.4-4.3c0-2.3-0.4-4.6-2.4-4.6C460.1,650.4,459.6,652.2,459.6,655z"/>
</g>
<rect x="12.9" y="674.6" width="585" height="2.8"/>
<g>
	<path d="M21.8,687.3h2.1v4.9h4.3v1.7h-4.3v13.7h-2.1v-13.7h-4.3v-1.7h4.3V687.3z"/>
	<path d="M36.5,687.3h4.8c5.6,0,6.3,3.8,6.3,8.5c0,4.3-1.1,8.5-6.1,8.5h-5V687.3z M38.7,702.5H41c3.8,0,4.2-3.7,4.2-6.7
		c0-3.3-0.2-6.8-4.2-6.8h-2.3V702.5z"/>
	<path d="M49.8,695.4c0-2.9,1.3-4.2,4.5-4.2c4.1,0,4.1,2.3,4.1,3.7v7.1c0,0.5,0,1,0.7,1c0.3,0,0.4,0,0.5-0.1v1.4
		c-0.2,0-0.7,0.1-1.2,0.1c-0.8,0-1.8,0-1.9-1.6h-0.1c-0.7,1.1-2,1.8-3.2,1.8c-2.5,0-3.7-1.4-3.7-3.7c0-1.8,0.8-3,2.5-3.5l2.8-0.8
		c1.5-0.5,1.5-0.9,1.5-1.9c0-1.2-0.8-1.9-2.2-1.9c-2.3,0-2.3,2-2.3,2.5v0.1L49.8,695.4L49.8,695.4z M56.3,697.3
		c-0.8,0.8-2.6,0.9-3.6,1.5c-0.7,0.4-1,0.9-1,2c0,1.3,0.5,2.2,1.9,2.2s2.7-1.1,2.7-2.4C56.3,700.6,56.3,697.3,56.3,697.3z"/>
	<path d="M61.4,687.3h2.1v2.3h-2.1V687.3z M61.4,691.6h2.1v12.7h-2.1V691.6z"/>
	<path d="M66.6,687.3h2.1v16.9h-2.1V687.3z"/>
	<path d="M70.4,691.6h2.3l2.7,10.2h0.1l2.4-10.2h2.3l-3.9,13.6c-0.5,1.8-1.1,3.3-3.6,3.3c-0.8,0-1.2,0-1.5-0.1v-1.6
		c0.3,0,0.7,0.1,1.2,0.1c1,0,1.4-0.5,1.7-1.2l0.4-1.1L70.4,691.6z"/>
	<path d="M85.3,687.3h2.3l3.5,14.5h0.1l3.5-14.5H97l-4.5,16.9h-2.8L85.3,687.3z"/>
	<path d="M97.6,695.4c0-2.9,1.3-4.2,4.5-4.2c4.1,0,4.1,2.3,4.1,3.7v7.1c0,0.5,0,1,0.7,1c0.3,0,0.4,0,0.5-0.1v1.4
		c-0.2,0-0.7,0.1-1.2,0.1c-0.8,0-1.8,0-1.9-1.6h-0.1c-0.7,1.1-2,1.8-3.2,1.8c-2.5,0-3.7-1.4-3.7-3.7c0-1.8,0.8-3,2.5-3.5l2.8-0.8
		c1.5-0.5,1.5-0.9,1.5-1.9c0-1.2-0.8-1.9-2.2-1.9c-2.3,0-2.3,2-2.3,2.5v0.1L97.6,695.4L97.6,695.4z M104.1,697.3
		c-0.8,0.8-2.6,0.9-3.6,1.5c-0.7,0.4-1,0.9-1,2c0,1.3,0.5,2.2,1.9,2.2c1.4,0,2.7-1.1,2.7-2.4V697.3z"/>
	<path d="M109.2,687.3h2.1v16.9h-2.1V687.3z"/>
	<path d="M123,704.2h-2v-1.5l0,0c-0.6,1.2-2,1.8-3.3,1.8c-3.5,0-3.5-2.5-3.5-4v-9h2.1v8.8c0,1,0.1,2.6,2,2.6c1.1,0,2.7-0.7,2.7-2.6
		v-8.8h2.1L123,704.2L123,704.2z"/>
	<path d="M127.5,698.2c0,1.9,0,4.9,2.6,4.9c2,0,2.3-2,2.3-2.9h2.1c0,1.4-0.9,4.5-4.5,4.5c-3.3,0-4.7-2.2-4.7-6.5
		c0-3.2,0.7-6.9,4.8-6.9s4.5,3.4,4.5,6.1v0.8L127.5,698.2L127.5,698.2z M132.3,696.6v-0.7c0-1.4-0.5-3.1-2.3-3.1
		c-2.2,0-2.5,2.6-2.5,3.3v0.5H132.3z"/>
	<path d="M143,687.3h2.9l5.9,14.1h0.1v-14.1h2.2v16.9h-3l-5.8-13.7h-0.1v13.7H143L143,687.3L143,687.3z"/>
	<path d="M161,691.2c3.9,0,4.8,3.1,4.8,6.7s-1,6.7-4.8,6.7c-3.9,0-4.8-3.1-4.8-6.7C156.2,694.3,157.2,691.2,161,691.2z M163.7,697.9
		c0-2.8-0.4-5.1-2.7-5.1c-2.1,0-2.6,2.4-2.6,5.1c0,2.8,0.4,5.1,2.6,5.1C163.2,702.9,163.7,700.7,163.7,697.9z"/>
	<path d="M168.6,687.9h2.1v3.7h2.3v1.6h-2.3v8.2c0,1,0.3,1.4,1.4,1.4c0.5,0,0.7,0,0.9-0.1v1.6c-0.3,0-0.8,0.1-1.7,0.1
		c-2.2,0-2.7-0.9-2.7-2.5v-8.8h-2v-1.6h2V687.9z"/>
	<path d="M180.5,687.3h9.3v1.9h-7.1v5.3h6.7v1.9h-6.7v6.1h7.4v1.9h-9.6L180.5,687.3L180.5,687.3z"/>
	<path d="M197.8,695.3c0-1.6-0.5-2.5-2-2.5c-0.7,0-2.2,0.2-2.2,1.9c0,1.5,1.7,1.8,3.3,2.3s3.3,1.1,3.3,3.6c0,2.7-1.8,4-4.3,4
		c-4.6,0-4.6-3.2-4.6-4.5h2.1c0,1.5,0.5,2.9,2.5,2.9c0.7,0,2.2-0.3,2.2-2.1c0-1.7-1.7-2.1-3.3-2.6c-1.6-0.5-3.3-1-3.3-3.6
		c0-2.4,2-3.5,4.3-3.5c3.9,0,4.1,2.6,4.1,4.1L197.8,695.3L197.8,695.3z"/>
	<path d="M202.9,687.9h2.1v3.7h2.3v1.6H205v8.2c0,1,0.3,1.4,1.4,1.4c0.5,0,0.7,0,0.9-0.1v1.6c-0.3,0-0.8,0.1-1.7,0.1
		c-2.2,0-2.7-0.9-2.7-2.5v-8.8h-2v-1.6h2V687.9z"/>
	<path d="M208.5,695.4c0-2.9,1.3-4.2,4.5-4.2c4.1,0,4.1,2.3,4.1,3.7v7.1c0,0.5,0,1,0.7,1c0.3,0,0.4,0,0.5-0.1v1.4
		c-0.2,0-0.7,0.1-1.2,0.1c-0.8,0-1.8,0-1.9-1.6h-0.1c-0.7,1.1-2,1.8-3.2,1.8c-2.5,0-3.7-1.4-3.7-3.7c0-1.8,0.8-3,2.5-3.5l2.8-0.8
		c1.5-0.5,1.5-0.9,1.5-1.9c0-1.2-0.8-1.9-2.2-1.9c-2.3,0-2.3,2-2.3,2.5v0.1L208.5,695.4L208.5,695.4z M215,697.3
		c-0.8,0.8-2.6,0.9-3.6,1.5c-0.7,0.4-1,0.9-1,2c0,1.3,0.5,2.2,1.9,2.2c1.4,0,2.7-1.1,2.7-2.4L215,697.3L215,697.3z"/>
	<path d="M219.9,687.3h2.1v5.7h0.1c0.5-1.1,1.8-1.8,3.1-1.8c3.6,0,4.1,4,4.1,6.7c0,3.6-1.3,6.7-4.4,6.7c-1.5,0-2.6-0.9-2.9-1.9h-0.1
		v1.6h-2L219.9,687.3L219.9,687.3z M224.6,702.8c2,0,2.5-2.1,2.5-5c0-3-0.5-5-2.5-5c-2.3,0-2.7,2.5-2.7,5
		C221.9,700.5,222.4,702.8,224.6,702.8z"/>
	<path d="M231.6,687.3h2.1v16.9h-2.1V687.3z"/>
	<path d="M236.7,687.3h2.1v2.3h-2.1V687.3z M236.7,691.6h2.1v12.7h-2.1V691.6z"/>
	<path d="M247.5,695.3c0-1.6-0.5-2.5-2-2.5c-0.7,0-2.2,0.2-2.2,1.9c0,1.5,1.7,1.8,3.3,2.3c1.6,0.5,3.3,1.1,3.3,3.6
		c0,2.7-1.8,4-4.3,4c-4.6,0-4.6-3.2-4.6-4.5h2.1c0,1.5,0.5,2.9,2.5,2.9c0.7,0,2.2-0.3,2.2-2.1c0-1.7-1.7-2.1-3.3-2.6
		c-1.6-0.5-3.3-1-3.3-3.6c0-2.4,2-3.5,4.3-3.5c3.9,0,4.1,2.6,4.1,4.1L247.5,695.3L247.5,695.3z"/>
	<path d="M251.9,687.3h2.1v5.7h0.1c0.6-1,2-1.8,3.2-1.8c3.5,0,3.5,2.5,3.5,4v9h-2.1v-8.8c0-1-0.1-2.6-2-2.6c-1.1,0-2.7,0.7-2.7,2.6
		v8.8h-2.1L251.9,687.3L251.9,687.3z"/>
	<path d="M265.3,698.2c0,1.9,0,4.9,2.6,4.9c2,0,2.3-2,2.3-2.9h2.1c0,1.4-0.9,4.5-4.5,4.5c-3.3,0-4.7-2.2-4.7-6.5
		c0-3.2,0.7-6.9,4.8-6.9c4.1,0,4.5,3.4,4.5,6.1v0.8L265.3,698.2L265.3,698.2z M270.2,696.6v-0.7c0-1.4-0.5-3.1-2.3-3.1
		c-2.2,0-2.5,2.6-2.5,3.3v0.5H270.2z"/>
	<path d="M283.5,704.2h-2v-1.6h-0.1c-0.3,0.9-1.5,1.9-2.9,1.9c-3.2,0-4.4-2.7-4.4-6.7c0-2.7,0.5-6.7,4.2-6.7c1.2,0,2.5,0.7,3,1.8
		h0.1v-5.7h2.1L283.5,704.2L283.5,704.2z M278.8,702.8c2.3,0,2.7-2.1,2.7-5c0-2.5-0.5-5-2.7-5c-2,0-2.5,1.9-2.5,5
		C276.4,701,276.9,702.8,278.8,702.8z"/>
</g>
<g>
	<path d="M580.3,585.1h1.9v4.5h3.8v1.6h-3.8v12.7h-1.9v-12.7h-3.8v-1.6h3.8V585.1z"/>
	<path d="M580.3,614.9h1.9v4.5h3.8v1.6h-3.8v12.7h-1.9v-12.6h-3.8v-1.6h3.8V614.9z"/>
	<path d="M580.3,644.6h1.9v4.5h3.8v1.6h-3.8v12.7h-1.9v-12.7h-3.8v-1.6h3.8V644.6z"/>
</g>
<rect x="13" y="609.3" width="584.9" height="0.7"/>
<rect x="13" y="639.3" width="584.9" height="0.7"/>
<g>
	<path d="M26.6,434.8c0,1.1,0.2,2,0.5,2.8c0.9,2.6,3.8,3.1,6.2,3.1c2.1,0,5.4-0.7,5.4-3.9c0-2.2-1.8-2.8-9.1-4.9
		c-6.7-1.9-14.4-3.7-14.4-12.3c0-9.8,8.4-14,17.1-14c9.2,0,17.3,3.5,17.7,13.8H37.7c0.2-1.6-0.5-2.7-1.5-3.4
		c-1.1-0.8-2.6-1.1-3.9-1.1c-1.8,0-4.7,0.5-4.7,2.8c0.2,3,6.3,3.7,12.3,5.3c6,1.7,11.9,4.4,11.9,12.2c0,11-10.1,14.6-19.6,14.6
		c-4.8,0-18.5-1.7-18.6-15.2h13V434.8z"/>
	<path d="M87.6,449.1H76.2v-3.9h-0.1c-2.2,3.1-5.3,4.7-10,4.7c-5.5,0-10.6-3.4-10.6-10.4v-21.1h11.7v16.1c0,3.6,0.4,6,3.9,6
		c2,0,4.7-1,4.7-5.9v-16.3h11.7L87.6,449.1L87.6,449.1z"/>
	<path d="M94,418.3h11.3v3.4h0.1c1.5-2,3.3-4.2,9-4.2c8.7,0,12.9,8.6,12.9,16.3c0,7.2-2.8,16-13.1,16c-3.5,0-6.6-1.5-8.4-4.2h-0.1
		v13.3H94V418.3z M110.5,441.3c4.2,0,5.2-4,5.2-7.6c0-3.7-0.9-7.7-5.2-7.7c-4.2,0-5.2,4-5.2,7.7
		C105.3,437.3,106.2,441.3,110.5,441.3z"/>
	<path d="M132.3,418.3h11.3v3.4h0.1c1.5-2,3.3-4.2,9-4.2c8.7,0,12.9,8.6,12.9,16.3c0,7.2-2.8,16-13.1,16c-3.5,0-6.6-1.5-8.4-4.2H144
		v13.3h-11.7V418.3z M148.8,441.3c4.2,0,5.2-4,5.2-7.6c0-3.7-0.9-7.7-5.2-7.7c-4.2,0-5.2,4-5.2,7.7
		C143.6,437.3,144.6,441.3,148.8,441.3z"/>
	<path d="M171,406.8h11.7V449H171V406.8z"/>
	<path d="M199.2,436.3c0.3,3.5,2.3,6,6,6c1.9,0,4-0.7,4.9-2.2h11c-2.4,6.6-8.8,9.7-15.8,9.7c-9.8,0-17.3-5.8-17.3-16.1
		c0-9,6.5-16.3,16.3-16.3c12.2,0,17.5,6.8,17.5,18.8L199.2,436.3L199.2,436.3z M210.5,430.2c0-2.8-2.1-5.2-5.2-5.2
		c-3.5,0-5.5,1.8-6,5.2H210.5z"/>
	<path d="M226.6,418.3h11.3v4.1h0.1c2.4-3.6,5.8-4.9,10.1-4.9c3.3,0,6.9,1.7,8.3,4.8c0.5-0.4,2.8-4.8,10.5-4.8
		c7.9,0,10.6,5.5,10.6,10.4V449h-11.7v-16.7c0-2.9-0.3-5.5-3.9-5.5c-3,0-4,2.3-4,5.5V449h-11.7v-16.7c0-2.9-0.3-5.5-3.9-5.5
		c-3,0-4,2.3-4,5.5V449h-11.7V418.3z"/>
	<path d="M293.5,436.3c0.3,3.5,2.3,6,6,6c1.9,0,4-0.7,4.9-2.2h11c-2.4,6.6-8.8,9.7-15.8,9.7c-9.8,0-17.3-5.8-17.3-16.1
		c0-9,6.5-16.3,16.3-16.3c12.2,0,17.5,6.8,17.5,18.8L293.5,436.3L293.5,436.3z M304.8,430.2c0-2.8-2.1-5.2-5.2-5.2
		c-3.5,0-5.5,1.8-6,5.2H304.8z"/>
	<path d="M321,418.3h11.3v3.9h0.1c2.2-3.1,5.3-4.7,10-4.7c5.5,0,10.6,3.4,10.6,10.4V449h-11.7v-16.1c0-3.6-0.4-6-3.9-6
		c-2,0-4.7,1-4.7,5.9v16.3H321L321,418.3L321,418.3z"/>
	<path d="M373.4,418.3h6.3v7.2h-6.3v10.7c0,2.8,0.7,4.1,3.6,4.1c0.9,0,1.8-0.1,2.7-0.2v8.9c-2.4,0-5,0.4-7.5,0.4
		c-5,0-10.5-0.8-10.5-9.2v-14.7h-5.2v-7.2h5.2V409h11.7L373.4,418.3L373.4,418.3z"/>
	<path d="M403.4,406.8H436v10.9h-19.7v5.3h16.9V433h-16.9v16.1h-13V406.8z"/>
	<path d="M470.5,442.2c0,2.3,0.1,4.9,1.4,6.9h-12c-0.3-0.8-0.5-2.1-0.4-2.9h-0.1c-2.5,2.8-6.1,3.7-9.9,3.7c-5.9,0-10.9-2.8-10.9-9.3
		c0-9.7,11.4-9.4,17.4-10.5c1.6-0.3,3.2-0.8,3.2-2.7c0-2.1-2-2.8-3.9-2.8c-3.6,0-4.3,1.8-4.4,3.1H440c0.2-4.3,2.3-6.9,5.3-8.3
		c3-1.4,6.9-1.8,10.5-1.8c14.7,0,14.6,6.1,14.6,12L470.5,442.2L470.5,442.2z M459.2,435.2c-1.4,0.7-3,1.1-4.6,1.5
		c-2.6,0.6-4,1.2-4,3.3c0,1.4,1.5,2.8,3.7,2.8c2.7,0,4.7-1.6,4.9-4.8V435.2z"/>
	<path d="M496.5,430c-0.1-1.2-0.5-2.3-1.3-2.9c-0.7-0.7-1.7-1-3-1c-4.5,0-5.2,3.9-5.2,7.7c0,3.7,0.7,7.6,5.2,7.6
		c2.5,0,4.3-2.1,4.6-4.5H508c-0.5,4.2-2.5,7.4-5.3,9.7c-2.8,2.2-6.5,3.4-10.7,3.4c-9.3,0-16.7-6.4-16.7-16.1s7.4-16.2,16.7-16.2
		c8.1,0,14.9,4,15.7,12.5h-11.2V430z"/>
	<path d="M526.9,418.3h6.3v7.2h-6.3v10.7c0,2.8,0.7,4.1,3.6,4.1c0.9,0,1.8-0.1,2.7-0.2v8.9c-2.4,0-5,0.4-7.5,0.4
		c-5,0-10.5-0.8-10.5-9.2v-14.7H510v-7.2h5.2V409h11.7V418.3z"/>
	<path d="M554.7,427.2c-0.1-1-0.6-1.8-1.4-2.3c-0.7-0.6-1.7-0.9-2.6-0.9c-1.7,0-3.6,0.4-3.6,2.4c0,0.9,0.7,1.3,1.4,1.6
		c2,0.8,6.4,1.1,10.3,2.4c3.9,1.2,7.4,3.6,7.4,8.6c0,8.5-8.2,10.9-15.7,10.9c-7.2,0-15.2-2.9-15.4-10.9h11.2c0.1,1.1,0.5,2,1.4,2.7
		c0.6,0.5,1.7,0.9,3.1,0.9c1.5,0,4-0.6,4-2.4c0-1.8-1-2.3-6.5-3.3c-9-1.5-12.6-4.4-12.6-9.7c0-7.8,8.4-9.8,14.5-9.8
		c6.6,0,14.6,1.8,14.9,9.7L554.7,427.2L554.7,427.2z"/>
</g>
</svg>
