<?xml version="1.0" encoding="utf-8"?>
<!-- Generator: Adobe Illustrator 19.1.0, SVG Export Plug-In . SVG Version: 6.00 Build 0)  -->
<svg version="1.1" id="Layer_1" xmlns="http://www.w3.org/2000/svg" xmlns:xlink="http://www.w3.org/1999/xlink" x="0px" y="0px"
	 viewBox="0 0 409.6 409.6" style="enable-background:new 0 0 409.6 409.6;" xml:space="preserve">
<style type="text/css">
	.st0{fill-rule:evenodd;clip-rule:evenodd;}
	.st1{fill:#BABABA;}
</style>
<path class="st0" d="M253.4,173.4h-35.6v-26c0-8,8.2-9.8,12.1-9.8h23v-35.1l-26.4-0.1c-36,0-44.2,26.2-44.2,42.9v28.1h-26.1v36.2
	h26.1v97.6h35.5v-97.6h30.1L253.4,173.4z M253.4,173.4"/>
<path class="st1" d="M204.8,0C91.7,0,0,91.7,0,204.8c0,113.1,91.7,204.8,204.8,204.8s204.8-91.7,204.8-204.8
	C409.6,91.7,317.9,0,204.8,0L204.8,0z M204.8,377.6C109.4,377.6,32,300.2,32,204.8C32,109.4,109.4,32,204.8,32
	c95.4,0,172.8,77.4,172.8,172.8C377.6,300.2,300.2,377.6,204.8,377.6L204.8,377.6z M204.8,377.6"/>
</svg>
