<?xml version="1.0" encoding="utf-8"?>
<!-- Generator: Adobe Illustrator 18.1.1, SVG Export Plug-In . SVG Version: 6.00 Build 0)  -->
<svg version="1.1" id="Layer_1" xmlns="http://www.w3.org/2000/svg" xmlns:xlink="http://www.w3.org/1999/xlink" x="0px" y="0px"
	 viewBox="49.6 280.5 610.2 280.4" enable-background="new 49.6 280.5 610.2 280.4" xml:space="preserve">
<g>
	<g>
		<path d="M629.5,470.1h2v4.9h4.1v1.7h-4.1v13.6h-2v-13.6h-4.1v-1.7h4.1V470.1z"/>
	</g>
	<path id="XMLID_1_" d="M659.3,281v279.4H50.1V281H659.3 M659.8,280.5h-0.5H50.1h-0.5v0.5v279.4v0.5h0.5h609.2h0.5v-0.5V281V280.5
		L659.8,280.5z"/>
	<rect x="64" y="420.1" width="583.5" height="3"/>
	<rect x="64" y="463.8" width="583.5" height="0.5"/>
	<rect x="63.7" y="498.2" width="583.8" height="1.9"/>
	<g>
		<path d="M69,471.3H71v13.9h6.3v1.7H69V471.3z"/>
		<path d="M78.7,479.9H84v1.7h-5.3V479.9z"/>
		<path d="M93.8,475.7c-0.1-1.6-0.7-3.1-2.6-3.1c-2.7,0-3,2.9-3,6.5s0.3,6.5,3,6.5c2.7,0,2.9-3.2,2.9-5.3H91v-1.6h4.8v8.1h-1.4v-2.1
			h0c-0.4,1.3-1.7,2.4-3.4,2.4c-4.1,0-4.8-3.9-4.8-8.1c0-3.9,0.7-8.1,5-8.1c4.5,0,4.6,3.8,4.6,4.6H93.8z"/>
		<path d="M98.2,471.3h1.8v15.6h-1.8V471.3z"/>
		<path d="M110.3,486.9h-1.7v-1.4h0c-0.5,1.1-1.7,1.7-2.8,1.7c-3.1,0-3.1-2.3-3.1-3.7v-8.3h1.8v8.1c0,0.9,0.1,2.4,1.7,2.4
			c1,0,2.3-0.7,2.3-2.4v-8.1h1.8V486.9z"/>
		<path d="M113.2,471.8h1.8v3.4h2v1.4h-2v7.5c0,0.9,0.2,1.3,1.2,1.3c0.4,0,0.6,0,0.8-0.1v1.5c-0.2,0-0.7,0.1-1.5,0.1
			c-1.9,0-2.4-0.8-2.4-2.3v-8.1h-1.7v-1.4h1.7V471.8z"/>
		<path d="M118,478.8c0-2.7,1.1-3.8,3.9-3.8c3.6,0,3.6,2.1,3.6,3.4v6.5c0,0.5,0,0.9,0.6,0.9c0.2,0,0.3,0,0.4-0.1v1.3
			c-0.1,0-0.6,0.1-1.1,0.1c-0.7,0-1.6,0-1.7-1.5h0c-0.6,1-1.7,1.7-2.8,1.7c-2.2,0-3.2-1.3-3.2-3.4c0-1.6,0.7-2.8,2.2-3.2l2.5-0.7
			c1.3-0.4,1.3-0.8,1.3-1.8c0-1.1-0.7-1.7-1.9-1.7c-2,0-2,1.9-2,2.3v0.1H118z M123.7,480.6c-0.7,0.7-2.3,0.9-3.1,1.4
			c-0.6,0.4-0.9,0.8-0.9,1.9c0,1.2,0.4,2,1.7,2c1.2,0,2.4-1,2.4-2.2V480.6z"/>
		<path d="M128.2,475.2h1.7v1.4h0c0.5-1.1,1.7-1.7,2.8-1.7c1.4,0,2.2,0.5,2.5,1.9c0.5-1,1.6-1.9,2.8-1.9c3.1,0,3.1,2.3,3.1,3.7v8.3
			h-1.8v-8.1c0-0.9-0.1-2.4-1.6-2.4c-0.9,0-2.2,0.5-2.2,2.4v8.1h-1.8v-8.1c0-0.9-0.1-2.4-1.6-2.4c-0.9,0-2.2,0.5-2.2,2.4v8.1h-1.8
			V475.2z"/>
		<path d="M143.9,471.3h1.8v2.1h-1.8V471.3z M143.9,475.2h1.8v11.7h-1.8V475.2z"/>
		<path d="M148.3,475.2h1.7v1.4h0c0.5-1.1,1.7-1.7,2.8-1.7c3.1,0,3.1,2.3,3.1,3.7v8.3h-1.8v-8.1c0-0.9-0.1-2.4-1.7-2.4
			c-1,0-2.3,0.7-2.3,2.4v8.1h-1.8V475.2z"/>
		<path d="M159.9,481.3c0,1.8,0,4.5,2.3,4.5c1.7,0,2-1.8,2-2.7h1.8c0,1.2-0.7,4.2-3.9,4.2c-2.9,0-4.1-2-4.1-6c0-2.9,0.6-6.3,4.2-6.3
			c3.6,0,3.9,3.1,3.9,5.6v0.7H159.9z M164.1,479.9v-0.6c0-1.3-0.4-2.9-2-2.9c-1.9,0-2.1,2.4-2.1,3.1v0.4H164.1z"/>
	</g>
	<g>
		<path d="M77.9,360.4c-0.3-2.9-2.1-4.1-4.8-4.1c-2.2,0-4.3,0.8-4.3,3.4c0,2.5,3.1,2.8,6.2,3.6c3.1,0.7,6.2,1.9,6.2,5.8
			c0,4.3-4,6-7.6,6c-4.3,0-8-2.2-8-7.1h2.4c0,3.4,2.7,4.8,5.6,4.8c2.3,0,4.9-0.8,4.9-3.7c0-2.8-3.1-3.2-6.2-3.9
			c-3.1-0.7-6.2-1.6-6.2-5.3c0-4.1,3.5-5.9,7-5.9c4,0,7,1.9,7.1,6.4H77.9z"/>
		<path d="M95.9,370c-0.6,3.2-2.8,5-6,5c-4.5,0-6.6-3.2-6.7-7.7c0-4.4,2.8-7.6,6.6-7.6c5,0,6.5,4.8,6.3,8.3H85.6
			c-0.1,2.5,1.3,4.8,4.4,4.8c1.9,0,3.2-1,3.6-2.8H95.9z M93.7,366c-0.1-2.3-1.8-4.1-4-4.1c-2.4,0-3.9,1.9-4,4.1H93.7z"/>
		<path d="M98.4,360.1h2.2v3.1h0.1c1.1-2.3,2.7-3.5,5.2-3.4v2.5c-3.7,0-5.1,2.2-5.1,5.9v6.5h-2.3V360.1z"/>
		<path d="M113.8,374.6h-2.5l-5.2-14.6h2.6l3.9,12.1h0.1l3.8-12.1h2.4L113.8,374.6z"/>
		<path d="M123.5,357.5h-2.3v-2.9h2.3V357.5z M121.2,360.1h2.3v14.6h-2.3V360.1z"/>
		<path d="M127.1,360.1h2.2v2.3h0.1c1-1.8,2.5-2.6,4.6-2.6c3.7,0,4.8,2.2,4.8,5.3v9.6h-2.3v-9.9c0-1.8-1.1-2.9-2.8-2.9
			c-2.8,0-4.1,1.9-4.1,4.6v8.2h-2.3V360.1z"/>
		<path d="M154.3,373.4c0,4.7-2.1,7.2-6.5,7.2c-2.6,0-5.7-1.1-5.8-4.3h2.3c0.1,1.7,2.1,2.4,3.6,2.4c3,0,4.2-2.3,4.2-5.5v-1H152
			c-0.8,1.8-2.6,2.6-4.4,2.6c-4.2,0-6.3-3.4-6.3-7.4c0-3.4,1.6-7.7,6.5-7.7c1.8,0,3.3,0.8,4.2,2.4h0v-2.1h2.2V373.4z M152,367.1
			c0-2.6-1.1-5.2-4-5.2c-3,0-4.1,2.5-4.1,5.3c0,2.6,0.9,5.5,4,5.5C150.8,372.7,152,369.8,152,367.1z"/>
		<path d="M176.8,360.4c-0.3-2.9-2.1-4.1-4.8-4.1c-2.2,0-4.3,0.8-4.3,3.4c0,2.5,3.1,2.8,6.2,3.6c3.1,0.7,6.2,1.9,6.2,5.8
			c0,4.3-4,6-7.6,6c-4.3,0-8-2.2-8-7.1h2.4c0,3.4,2.7,4.8,5.6,4.8c2.3,0,4.9-0.8,4.9-3.7c0-2.8-3.1-3.2-6.2-3.9
			c-3.1-0.7-6.2-1.6-6.2-5.3c0-4.1,3.5-5.9,7-5.9c4,0,7,1.9,7.1,6.4H176.8z"/>
		<path d="M185.3,357.5H183v-2.9h2.3V357.5z M183,360.1h2.3v14.6H183V360.1z"/>
		<path d="M187.7,372.8l8.5-10.6h-7.9v-2.1h10.9v1.6l-8.6,10.8h8.9v2.1h-11.8V372.8z"/>
		<path d="M213.8,370c-0.6,3.2-2.8,5-6,5c-4.5,0-6.6-3.2-6.7-7.7c0-4.4,2.8-7.6,6.6-7.6c5,0,6.5,4.8,6.3,8.3h-10.5
			c-0.1,2.5,1.3,4.8,4.4,4.8c1.9,0,3.2-1,3.6-2.8H213.8z M211.6,366c-0.1-2.3-1.8-4.1-4-4.1c-2.4,0-3.9,1.9-4,4.1H211.6z"/>
		<path d="M235,357.1h-7.8l-1,5.7l0.1,0.1c0.8-1,2.3-1.4,3.6-1.4c3.4,0,6.2,2.3,6.2,6.8c0,3.4-2.3,6.6-6.7,6.6c-3.3,0-6-2.1-6.1-5.7
			h2.3c0.1,2.1,1.7,3.6,4,3.6c2.2,0,4.1-1.5,4.1-4.7c0-2.6-1.8-4.5-4.3-4.5c-1.5,0-2.7,0.8-3.6,1.9l-2-0.1l1.8-10.4h9.5V357.1z"/>
		<path d="M251.1,373.4c0,4.7-2.1,7.2-6.5,7.2c-2.6,0-5.7-1.1-5.8-4.3h2.3c0.1,1.7,2.1,2.4,3.6,2.4c3,0,4.2-2.3,4.2-5.5v-1h-0.1
			c-0.8,1.8-2.6,2.6-4.4,2.6c-4.2,0-6.3-3.4-6.3-7.4c0-3.4,1.6-7.7,6.5-7.7c1.8,0,3.3,0.8,4.2,2.4h0v-2.1h2.2V373.4z M248.9,367.1
			c0-2.6-1.1-5.2-4-5.2c-3,0-4.1,2.5-4.1,5.3c0,2.6,0.9,5.5,4,5.5C247.7,372.7,248.9,369.8,248.9,367.1z"/>
		<path d="M77.9,391.1c-0.3-2.9-2.1-4.1-4.8-4.1c-2.2,0-4.3,0.8-4.3,3.4c0,2.5,3.1,2.8,6.2,3.6c3.1,0.7,6.2,1.9,6.2,5.8
			c0,4.3-4,6-7.6,6c-4.3,0-8-2.2-8-7.1h2.4c0,3.4,2.7,4.8,5.6,4.8c2.3,0,4.9-0.8,4.9-3.7c0-2.8-3.1-3.2-6.2-3.9
			c-3.1-0.7-6.2-1.6-6.2-5.3c0-4.1,3.5-5.9,7-5.9c4,0,7,1.9,7.1,6.4H77.9z"/>
		<path d="M95.9,400.7c-0.6,3.2-2.8,5-6,5c-4.5,0-6.6-3.2-6.7-7.7c0-4.4,2.8-7.6,6.6-7.6c5,0,6.5,4.8,6.3,8.3H85.6
			c-0.1,2.5,1.3,4.8,4.4,4.8c1.9,0,3.2-1,3.6-2.8H95.9z M93.7,396.7c-0.1-2.3-1.8-4.1-4-4.1c-2.4,0-3.9,1.9-4,4.1H93.7z"/>
		<path d="M98.4,390.8h2.2v3.1h0.1c1.1-2.3,2.7-3.5,5.2-3.4v2.5c-3.7,0-5.1,2.2-5.1,5.9v6.5h-2.3V390.8z"/>
		<path d="M113.8,405.3h-2.5l-5.2-14.6h2.6l3.9,12.1h0.1l3.8-12.1h2.4L113.8,405.3z"/>
		<path d="M123.5,388.2h-2.3v-2.9h2.3V388.2z M121.2,390.8h2.3v14.6h-2.3V390.8z"/>
		<path d="M127.1,390.8h2.2v2.3h0.1c1-1.8,2.5-2.6,4.6-2.6c3.7,0,4.8,2.2,4.8,5.3v9.6h-2.3v-9.9c0-1.8-1.1-2.9-2.8-2.9
			c-2.8,0-4.1,1.9-4.1,4.6v8.2h-2.3V390.8z"/>
		<path d="M154.3,404.1c0,4.7-2.1,7.2-6.5,7.2c-2.6,0-5.7-1.1-5.8-4.3h2.3c0.1,1.7,2.1,2.4,3.6,2.4c3,0,4.2-2.3,4.2-5.5v-1H152
			c-0.8,1.8-2.6,2.6-4.4,2.6c-4.2,0-6.3-3.4-6.3-7.4c0-3.4,1.6-7.7,6.5-7.7c1.8,0,3.3,0.8,4.2,2.4h0v-2.1h2.2V404.1z M152,397.8
			c0-2.6-1.1-5.2-4-5.2c-3,0-4.1,2.5-4.1,5.3c0,2.6,0.9,5.5,4,5.5C150.8,403.4,152,400.5,152,397.8z"/>
		<path d="M159.1,400.8c0.1,2.1,1.9,2.8,3.8,2.8c1.4,0,3.4-0.3,3.4-2.2c0-1.9-2.3-2.2-4.6-2.7c-2.3-0.5-4.6-1.3-4.6-4.1
			c0-2.9,2.8-4.1,5.2-4.1c3.1,0,5.6,1,5.7,4.6h-2.3c-0.2-1.9-1.7-2.4-3.3-2.4c-1.4,0-3,0.4-3,1.9c0,1.7,2.4,2,4.6,2.5
			c2.3,0.5,4.6,1.3,4.6,4.1c0,3.5-3.1,4.6-6,4.6c-3.1,0-5.8-1.3-5.9-4.9H159.1z"/>
		<path d="M179.2,385.2h8.5c3.9,0,5.9,2.2,5.9,5.9s-2.1,6-5.9,5.9h-5.9v8.2h-2.6V385.2z M181.8,394.9h5c2.9,0,4.2-1.3,4.2-3.7
			s-1.3-3.7-4.2-3.7h-5V394.9z"/>
		<path d="M208.3,400.7c-0.6,3.2-2.8,5-6,5c-4.5,0-6.6-3.2-6.7-7.7c0-4.4,2.8-7.6,6.6-7.6c5,0,6.5,4.8,6.3,8.3h-10.5
			c-0.1,2.5,1.3,4.8,4.4,4.8c1.9,0,3.2-1,3.6-2.8H208.3z M206.1,396.7c-0.1-2.3-1.8-4.1-4-4.1c-2.4,0-3.9,1.9-4,4.1H206.1z"/>
		<path d="M210.9,390.8h2.2v3.1h0.1c1.1-2.3,2.7-3.5,5.2-3.4v2.5c-3.7,0-5.1,2.2-5.1,5.9v6.5h-2.3V390.8z"/>
		<path d="M241.5,391.3c-0.5-2.8-2.7-4.3-5.4-4.3c-4.6,0-6.6,3.9-6.6,8.1c0,4.6,2,8.4,6.6,8.4c3.4,0,5.3-2.5,5.6-5.8h2.6
			c-0.5,5-3.5,8.1-8.4,8.1c-6,0-8.9-4.6-8.9-10.5c0-5.8,3.2-10.6,9.2-10.6c4,0,7.4,2.3,8,6.5H241.5z"/>
		<path d="M253.1,390.4c4.4,0,6.8,3.4,6.8,7.6c0,4.3-2.4,7.6-6.8,7.6c-4.4,0-6.8-3.4-6.8-7.6C246.3,393.8,248.7,390.4,253.1,390.4z
			 M253.1,403.6c2.4,0,4.4-2,4.4-5.5c0-3.5-2-5.5-4.4-5.5c-2.4,0-4.4,2-4.4,5.5C248.8,401.6,250.7,403.6,253.1,403.6z"/>
		<path d="M262.7,390.8h2.2v2.3h0.1c1-1.8,2.5-2.6,4.6-2.6c3.7,0,4.8,2.2,4.8,5.3v9.6H272v-9.9c0-1.8-1.1-2.9-2.8-2.9
			c-2.8,0-4.1,1.9-4.1,4.6v8.2h-2.3V390.8z"/>
		<path d="M280.9,390.8h2.8v2.1h-2.8v9c0,1.1,0.3,1.3,1.7,1.3h1.1v2.1H282c-2.4,0-3.3-0.5-3.3-3.2v-9.3h-2.4v-2.1h2.4v-4.4h2.3
			V390.8z"/>
		<path d="M298.7,405.3c-0.4,0.3-0.9,0.4-1.7,0.4c-1.2,0-2-0.7-2-2.3c-1.3,1.5-3,2.3-4.9,2.3c-2.5,0-4.6-1.2-4.6-4.1
			c0-3.3,2.4-4,4.7-4.5c2.5-0.5,4.7-0.3,4.7-2.1c0-2.1-1.7-2.4-3.1-2.4c-2,0-3.4,0.6-3.5,2.8h-2.3c0.1-3.6,2.8-4.9,5.9-4.9
			c2.5,0,5.3,0.6,5.3,4v7.5c0,1.1,0,1.6,0.7,1.6c0.2,0,0.4,0,0.7-0.1V405.3z M294.9,397.8c-0.9,0.7-2.6,0.7-4.2,1
			c-1.5,0.3-2.8,0.8-2.8,2.6c0,1.6,1.3,2.1,2.7,2.1c3,0,4.3-2,4.3-3.3V397.8z"/>
		<path d="M303.3,388.2H301v-2.9h2.3V388.2z M301,390.8h2.3v14.6H301V390.8z"/>
		<path d="M306.8,390.8h2.2v2.3h0.1c1-1.8,2.5-2.6,4.6-2.6c3.7,0,4.8,2.2,4.8,5.3v9.6h-2.3v-9.9c0-1.8-1.1-2.9-2.8-2.9
			c-2.8,0-4.1,1.9-4.1,4.6v8.2h-2.3V390.8z"/>
		<path d="M333.9,400.7c-0.6,3.2-2.8,5-6,5c-4.5,0-6.6-3.2-6.7-7.7c0-4.4,2.8-7.6,6.6-7.6c5,0,6.5,4.8,6.3,8.3h-10.5
			c-0.1,2.5,1.3,4.8,4.4,4.8c1.9,0,3.2-1,3.6-2.8H333.9z M331.7,396.7c-0.1-2.3-1.8-4.1-4-4.1c-2.4,0-3.9,1.9-4,4.1H331.7z"/>
		<path d="M336.4,390.8h2.2v3.1h0.1c1.1-2.3,2.7-3.5,5.2-3.4v2.5c-3.7,0-5.1,2.2-5.1,5.9v6.5h-2.3V390.8z"/>
		<path d="M361,405.3h-2.3V391h-5v-1.9c2.6,0,5-0.7,5.5-3.7h1.8V405.3z"/>
		<path d="M373.9,385.4c6,0,6.4,5.7,6.4,10.2c0,4.4-0.4,10.1-6.4,10.1s-6.4-5.7-6.4-10.1C367.5,391.1,367.9,385.4,373.9,385.4z
			 M373.9,403.6c3.9,0,4-5.1,4-8.1c0-3,0-8-4-8s-4,5.1-4,8C370,398.5,370,403.6,373.9,403.6z"/>
		<path d="M389,385.4c6,0,6.4,5.7,6.4,10.2c0,4.4-0.4,10.1-6.4,10.1s-6.4-5.7-6.4-10.1C382.6,391.1,383,385.4,389,385.4z M389,403.6
			c3.9,0,4-5.1,4-8.1c0-3,0-8-4-8s-4,5.1-4,8C385,398.5,385.1,403.6,389,403.6z"/>
	</g>
	<g>
		<path d="M318.3,433.7h4.6l4.9,18.6h-3.9l-0.9-3.9h-5l-0.9,3.9h-3.9L318.3,433.7z M318.8,445.3h3.6l-1.8-8.4h-0.1L318.8,445.3z"/>
		<path d="M329.1,438.3h3.4v1.4h0.1c0.9-1.3,2-1.8,3.5-1.8c1.6,0,2.8,0.8,3.2,2.2h0.1c0.5-1.5,1.9-2.2,3.5-2.2
			c2.4,0,3.5,1.5,3.5,4.2v10.2h-3.6v-9.8c0-1.2-0.4-1.8-1.4-1.8c-1.1,0-1.9,0.8-1.9,2.4v9.2h-3.6v-9.8c0-1.2-0.4-1.8-1.4-1.8
			c-1.1,0-1.9,0.8-1.9,2.4v9.2h-3.6V438.3z"/>
		<path d="M353.9,437.9c4.3-0.1,5.5,2.5,5.5,7.4c0,4.8-1.4,7.4-5.5,7.4c-4.3,0.1-5.5-2.5-5.5-7.4
			C348.3,440.5,349.7,437.9,353.9,437.9z M353.9,450.2c1.5,0,1.9-1.4,1.9-4.9s-0.5-4.9-1.9-4.9c-1.8,0-1.9,2.1-1.9,4.9
			S352.1,450.2,353.9,450.2z"/>
		<path d="M368.5,450.7L368.5,450.7c-0.8,1.4-2.1,2-3.6,2c-2.2,0-3.6-1.2-3.6-4v-10.4h3.6v9.7c0,1.4,0.5,2,1.5,2
			c1.2,0,1.9-0.8,1.9-2.3v-9.3h3.6v14h-3.4V450.7z"/>
		<path d="M374.3,438.3h3.4v1.6h0.1c0.8-1.4,2.1-2,3.6-2c2.2,0,3.6,1.2,3.6,4v10.4h-3.6v-9.7c0-1.4-0.5-2-1.5-2
			c-1.2,0-1.9,0.8-1.9,2.3v9.3h-3.6V438.3z"/>
		<path d="M388.2,434.3h3.6v4h2.1v2.5h-2.1v7.6c0,1.1,0.2,1.5,1.3,1.5c0.3,0,0.6,0,0.8-0.1v2.5c-0.8,0.1-1.5,0.2-2.3,0.2
			c-2.8,0-3.3-0.9-3.3-3.7v-8h-1.8v-2.5h1.8V434.3z"/>
		<path d="M401.4,433.7h6.6c3.8,0,5.1,2.8,5.1,5.6c0,3.9-2.4,5.6-5.9,5.6h-2v7.4h-3.8V433.7z M405.2,442.1h1.7
			c1.5,0,2.5-0.9,2.5-2.8c0-1.8-0.7-2.9-2.6-2.9h-1.6V442.1z"/>
		<path d="M417.3,445.8v1.1c0,1.6,0.4,3.3,1.8,3.3c1.2,0,1.7-0.9,1.9-2.6h3.2c-0.1,3.3-1.7,5.1-5.1,5.1c-5.2,0-5.4-4-5.4-7.5
			c0-3.8,0.7-7.2,5.6-7.2c4.2,0,5.1,2.8,5.1,7.1v0.8H417.3z M421,443.7c-0.1-2.1-0.3-3.3-1.8-3.3c-1.4,0-1.9,1.5-1.9,2.8v0.5H421z"
			/>
		<path d="M426.3,438.3h3.4v1.9h0.1c0.7-1.4,1.7-2.2,3.2-2.2c0.2,0,0.4,0,0.7,0.1v3.4c-0.4,0-0.8-0.1-1.1-0.1
			c-1.3,0-2.7,0.7-2.7,2.5v8.4h-3.6V438.3z"/>
		<path d="M444.4,446.5v0.5c0,1.7,0.5,2.9,2.5,2.9c1.1,0,2.2-0.7,2.2-2.3c0-1.7-0.9-2.3-3.3-3.2c-3.3-1.1-4.9-2.5-4.9-5.6
			c0-3.6,2.2-5.5,5.8-5.5c3.3,0,5.8,1.4,5.8,5v0.5h-3.6c0-1.7-0.6-2.8-2-2.8c-1.7,0-2.1,1.1-2.1,2.2c0,1.1,0.3,1.9,1.9,2.5l2.9,1.3
			c2.8,1.2,3.5,2.7,3.5,4.9c0,3.9-2.4,5.7-6.5,5.7c-4.2,0-5.9-2-5.9-5.4v-0.8H444.4z"/>
		<path d="M457.8,445.8v1.1c0,1.6,0.4,3.3,1.8,3.3c1.2,0,1.7-0.9,1.9-2.6h3.2c-0.1,3.3-1.7,5.1-5.1,5.1c-5.2,0-5.4-4-5.4-7.5
			c0-3.8,0.7-7.2,5.6-7.2c4.2,0,5.1,2.8,5.1,7.1v0.8H457.8z M461.5,443.7c-0.1-2.1-0.3-3.3-1.8-3.3c-1.4,0-1.9,1.5-1.9,2.8v0.5
			H461.5z"/>
		<path d="M466.8,438.3h3.4v1.9h0.1c0.7-1.4,1.7-2.2,3.2-2.2c0.2,0,0.4,0,0.7,0.1v3.4c-0.4,0-0.8-0.1-1.1-0.1
			c-1.3,0-2.7,0.7-2.7,2.5v8.4h-3.6V438.3z"/>
		<path d="M482.6,438.3h3.6l-3.5,14h-4.2l-3.6-14h3.8l2,10h0.1L482.6,438.3z"/>
		<path d="M487.7,433.5h3.6v3.1h-3.6V433.5z M487.7,438.3h3.6v14h-3.6V438.3z"/>
		<path d="M493.8,438.3h3.4v1.6h0.1c0.8-1.4,2.1-2,3.6-2c2.2,0,3.6,1.2,3.6,4v10.4h-3.6v-9.7c0-1.4-0.5-2-1.5-2
			c-1.2,0-1.9,0.8-1.9,2.3v9.3h-3.6V438.3z"/>
		<path d="M517.3,438.3v13.3c0,3.7-1.6,5.5-5.8,5.5c-3,0-4.8-1.4-4.8-3.8h3.4c0,0.5,0.2,0.8,0.5,1.1s0.8,0.4,1.2,0.4
			c1.5,0,2-1.1,2-2.5v-1.9h-0.1c-0.7,1-1.9,1.7-3,1.7c-2.9,0-4.3-2-4.3-7.1c0-3.3,0.5-7.1,4.4-7.1c1,0,2.2,0.5,2.9,1.9h0.1v-1.6
			H517.3z M511.9,449.4c1.5,0,2-1.6,2-4c0-3.4-0.4-4.7-1.9-4.7c-1.6,0-1.9,1.3-1.9,5.1C510.1,447.7,510.4,449.4,511.9,449.4z"/>
		<path d="M585.8,433.9c3.2,0,3.9,1.6,3.9,5c0,3.4-0.7,5-3.9,5c-3.2,0-3.9-1.6-3.9-5C581.9,435.5,582.6,433.9,585.8,433.9z
			 M585.8,441.8c1,0,1.1-1,1.1-3.1c0-1.9-0.1-2.9-1.1-2.9c-1,0-1.1,1-1.1,2.9C584.6,440.8,584.8,441.8,585.8,441.8z M595.4,433.4
			h2.3l-10.6,19.7h-2.3L595.4,433.4z M596.8,442.7c3.2,0,3.9,1.6,3.9,5c0,3.4-0.7,5-3.9,5s-3.9-1.6-3.9-5
			C592.9,444.3,593.6,442.7,596.8,442.7z M596.8,450.7c1,0,1.1-1,1.1-3.1c0-1.9-0.1-2.9-1.1-2.9c-1,0-1.1,1-1.1,2.9
			C595.7,449.6,595.8,450.7,596.8,450.7z"/>
		<path d="M609.2,433.7h6.2c5.2,0,6.2,3.6,6.2,9c0,6.6-1.4,9.6-6.4,9.6h-5.9V433.7z M612.9,449.5h1.7c2.6,0,3.1-1.6,3.1-6.7
			c0-4.2-0.3-6.4-3.2-6.4h-1.6V449.5z"/>
		<path d="M626.8,433.7l2.6,13.8h0.1l2.8-13.8h3.9l-4.3,18.6H627l-4.3-18.6H626.8z"/>
	</g>
	<g>
		<path d="M497.2,472.2h6.9v1.7h-5.5l-0.6,4.5l0,0c0.6-0.8,1.7-1.2,2.7-1.2c2.3,0,3.9,1.8,3.9,5.1c0,2.9-1.3,5.3-4.5,5.3
			c-3.7,0-4.3-3.1-4.3-4.3h1.9c0,0.8,0.3,2.9,2.4,2.9c2.2,0,2.5-2.5,2.5-4c0-1.7-0.6-3.5-2.6-3.5c-1.3,0-2.2,1.1-2.2,1.5l-1.7-0.1
			L497.2,472.2z"/>
		<path d="M519.8,486.7c0,3.5-1.6,4.8-4,4.8c-0.7,0-3.6,0-3.9-2.9h1.8c0.1,1.1,0.9,1.5,1.9,1.5c2.4,0,2.3-1.8,2.3-2.6v-1.5h0
			c-0.4,1-1.5,1.6-2.7,1.6c-3.4,0-3.6-4.3-3.6-5.9c0-3.2,0.9-6.2,3.8-6.2c1.3,0,2.3,0.9,2.5,1.8h0v-1.5h1.8V486.7z M513.6,481.6
			c0,1.9,0.3,4.3,2.1,4.3c2,0,2.4-1.9,2.4-4.3c0-2.3-0.4-4.6-2.4-4.6C514,477,513.6,478.8,513.6,481.6z"/>
	</g>
	<g>
		<path d="M72.8,523.2h2.1v4.9h4.3v1.7h-4.3v13.6h-2.1v-13.6h-4.3V528h4.3V523.2z"/>
		<path d="M87.5,523.2h4.8c5.6,0,6.3,3.8,6.3,8.4c0,4.3-1.1,8.4-6,8.4h-5V523.2z M89.7,538.3H92c3.8,0,4.2-3.7,4.2-6.7
			c0-3.3-0.2-6.8-4.2-6.8h-2.3V538.3z"/>
		<path d="M100.8,531.2c0-2.9,1.3-4.2,4.5-4.2c4.1,0,4.1,2.3,4.1,3.6v7.1c0,0.5,0,1,0.7,1c0.3,0,0.4,0,0.5-0.1v1.4
			c-0.1,0-0.7,0.1-1.2,0.1c-0.8,0-1.8,0-1.9-1.6h-0.1c-0.7,1.1-2,1.8-3.2,1.8c-2.5,0-3.7-1.4-3.7-3.7c0-1.8,0.8-3,2.5-3.5l2.8-0.8
			c1.5-0.4,1.5-0.9,1.5-1.9c0-1.2-0.8-1.9-2.2-1.9c-2.3,0-2.3,2-2.3,2.5v0.1H100.8z M107.3,533.1c-0.8,0.8-2.6,0.9-3.6,1.5
			c-0.7,0.4-1,0.9-1,2c0,1.3,0.5,2.2,1.9,2.2c1.4,0,2.7-1.1,2.7-2.4V533.1z"/>
		<path d="M112.3,523.2h2.1v2.3h-2.1V523.2z M112.3,527.4h2.1V540h-2.1V527.4z"/>
		<path d="M117.4,523.2h2.1V540h-2.1V523.2z"/>
		<path d="M121.3,527.4h2.3l2.7,10.2h0.1l2.4-10.2h2.3l-3.9,13.5c-0.5,1.7-1.1,3.3-3.6,3.3c-0.8,0-1.2,0-1.5-0.1v-1.6
			c0.3,0,0.7,0.1,1.2,0.1c1,0,1.4-0.5,1.7-1.2l0.4-1.1L121.3,527.4z"/>
		<path d="M136.2,523.2h2.3l3.5,14.5h0.1l3.5-14.5h2.3l-4.5,16.9h-2.8L136.2,523.2z"/>
		<path d="M148.4,531.2c0-2.9,1.3-4.2,4.5-4.2c4.1,0,4.1,2.3,4.1,3.6v7.1c0,0.5,0,1,0.7,1c0.3,0,0.4,0,0.5-0.1v1.4
			c-0.1,0-0.7,0.1-1.2,0.1c-0.8,0-1.8,0-1.9-1.6h0c-0.7,1.1-2,1.8-3.2,1.8c-2.5,0-3.7-1.4-3.7-3.7c0-1.8,0.8-3,2.5-3.5l2.8-0.8
			c1.5-0.4,1.5-0.9,1.5-1.9c0-1.2-0.8-1.9-2.2-1.9c-2.3,0-2.3,2-2.3,2.5v0.1H148.4z M154.9,533.1c-0.8,0.8-2.6,0.9-3.6,1.5
			c-0.7,0.4-1,0.9-1,2c0,1.3,0.5,2.2,1.9,2.2c1.4,0,2.7-1.1,2.7-2.4V533.1z"/>
		<path d="M160,523.2h2.1V540H160V523.2z"/>
		<path d="M173.8,540h-2v-1.5h-0.1c-0.5,1.2-2,1.8-3.3,1.8c-3.5,0-3.5-2.5-3.5-4v-9h2.1v8.7c0,1,0.1,2.6,2,2.6
			c1.1,0,2.7-0.7,2.7-2.6v-8.7h2.1V540z"/>
		<path d="M178.3,533.9c0,1.9,0,4.9,2.6,4.9c2,0,2.3-2,2.3-2.9h2.1c0,1.3-0.9,4.5-4.5,4.5c-3.3,0-4.7-2.1-4.7-6.5
			c0-3.2,0.7-6.8,4.8-6.8c4.1,0,4.5,3.4,4.5,6.1v0.8H178.3z M183.1,532.4v-0.7c0-1.4-0.5-3.1-2.3-3.1c-2.2,0-2.5,2.6-2.5,3.3v0.5
			H183.1z"/>
		<path d="M193.7,523.2h2.9l5.9,14.1h0.1v-14.1h2.2V540h-3l-5.7-13.7h0V540h-2.2V523.2z"/>
		<path d="M211.7,527.1c3.9,0,4.8,3.1,4.8,6.7c0,3.6-1,6.7-4.8,6.7c-3.9,0-4.8-3.1-4.8-6.7C206.9,530.1,207.9,527.1,211.7,527.1z
			 M214.4,533.7c0-2.7-0.4-5.1-2.7-5.1c-2.1,0-2.6,2.4-2.6,5.1s0.4,5.1,2.6,5.1C213.9,538.8,214.4,536.5,214.4,533.7z"/>
		<path d="M219.3,523.7h2.1v3.7h2.3v1.6h-2.3v8.1c0,1,0.3,1.4,1.4,1.4c0.5,0,0.7,0,0.9-0.1v1.6c-0.3,0-0.8,0.1-1.7,0.1
			c-2.2,0-2.7-0.9-2.7-2.5v-8.7h-2v-1.6h2V523.7z"/>
		<path d="M231.2,523.2h9.2v1.8h-7v5.3h6.6v1.8h-6.6v6h7.3v1.8h-9.5V523.2z"/>
		<path d="M248.5,531.1c0-1.6-0.5-2.5-2-2.5c-0.7,0-2.2,0.2-2.2,1.9c0,1.5,1.7,1.8,3.3,2.3c1.6,0.5,3.3,1.1,3.3,3.6
			c0,2.7-1.8,4-4.3,4c-4.6,0-4.6-3.2-4.6-4.5h2.1c0,1.5,0.5,2.9,2.5,2.9c0.7,0,2.2-0.3,2.2-2.1c0-1.7-1.7-2.1-3.3-2.6
			c-1.6-0.5-3.3-1-3.3-3.6c0-2.4,2-3.5,4.3-3.5c3.9,0,4.1,2.6,4.1,4H248.5z"/>
		<path d="M253.5,523.7h2.1v3.7h2.3v1.6h-2.3v8.1c0,1,0.3,1.4,1.4,1.4c0.5,0,0.7,0,0.9-0.1v1.6c-0.3,0-0.8,0.1-1.7,0.1
			c-2.2,0-2.7-0.9-2.7-2.5v-8.7h-2v-1.6h2V523.7z"/>
		<path d="M259,531.2c0-2.9,1.3-4.2,4.5-4.2c4.1,0,4.1,2.3,4.1,3.6v7.1c0,0.5,0,1,0.7,1c0.3,0,0.4,0,0.5-0.1v1.4
			c-0.1,0-0.7,0.1-1.2,0.1c-0.8,0-1.8,0-1.9-1.6h-0.1c-0.7,1.1-2,1.8-3.2,1.8c-2.5,0-3.7-1.4-3.7-3.7c0-1.8,0.8-3,2.5-3.5l2.8-0.8
			c1.5-0.4,1.5-0.9,1.5-1.9c0-1.2-0.8-1.9-2.2-1.9c-2.3,0-2.3,2-2.3,2.5v0.1H259z M265.5,533.1c-0.8,0.8-2.6,0.9-3.6,1.5
			c-0.7,0.4-1,0.9-1,2c0,1.3,0.5,2.2,1.9,2.2c1.4,0,2.7-1.1,2.7-2.4V533.1z"/>
		<path d="M270.5,523.2h2.1v5.6h0.1c0.5-1.1,1.8-1.8,3.1-1.8c3.6,0,4.1,4,4.1,6.7c0,3.6-1.3,6.7-4.4,6.7c-1.5,0-2.6-0.9-2.9-1.9h0
			v1.6h-2V523.2z M275.1,538.7c2,0,2.5-2.1,2.5-5c0-3-0.5-5-2.5-5c-2.3,0-2.7,2.5-2.7,5C272.4,536.3,272.9,538.7,275.1,538.7z"/>
		<path d="M282.2,523.2h2.1V540h-2.1V523.2z"/>
		<path d="M287.3,523.2h2.1v2.3h-2.1V523.2z M287.3,527.4h2.1V540h-2.1V527.4z"/>
		<path d="M298,531.1c0-1.6-0.5-2.5-2-2.5c-0.7,0-2.2,0.2-2.2,1.9c0,1.5,1.7,1.8,3.3,2.3c1.6,0.5,3.3,1.1,3.3,3.6c0,2.7-1.8,4-4.3,4
			c-4.6,0-4.6-3.2-4.6-4.5h2.1c0,1.5,0.5,2.9,2.5,2.9c0.7,0,2.2-0.3,2.2-2.1c0-1.7-1.7-2.1-3.3-2.6c-1.6-0.5-3.3-1-3.3-3.6
			c0-2.4,2-3.5,4.3-3.5c3.9,0,4.1,2.6,4.1,4H298z"/>
		<path d="M302.4,523.2h2.1v5.6h0.1c0.6-1,2-1.8,3.2-1.8c3.5,0,3.5,2.5,3.5,4v9h-2.1v-8.7c0-1-0.1-2.6-2-2.6c-1.1,0-2.7,0.7-2.7,2.6
			v8.7h-2.1V523.2z"/>
		<path d="M315.8,533.9c0,1.9,0,4.9,2.6,4.9c2,0,2.3-2,2.3-2.9h2.1c0,1.3-0.9,4.5-4.5,4.5c-3.3,0-4.7-2.1-4.7-6.5
			c0-3.2,0.6-6.8,4.8-6.8c4.1,0,4.5,3.4,4.5,6.1v0.8H315.8z M320.6,532.4v-0.7c0-1.4-0.5-3.1-2.3-3.1c-2.2,0-2.5,2.6-2.5,3.3v0.5
			H320.6z"/>
		<path d="M333.9,540h-2v-1.6h0c-0.3,0.9-1.5,1.9-2.9,1.9c-3.2,0-4.4-2.7-4.4-6.7c0-2.6,0.5-6.7,4.2-6.7c1.2,0,2.5,0.7,3,1.8h0v-5.6
			h2.1V540z M329.3,538.7c2.3,0,2.7-2.1,2.7-5c0-2.5-0.4-5-2.7-5c-2,0-2.5,1.9-2.5,5S327.3,538.7,329.3,538.7z"/>
	</g>
	<g>
		<path fill="#231F20" d="M77.7,320.8c0,1.1,0.2,2,0.5,2.8c0.9,2.5,3.8,3.1,6.2,3.1c2.1,0,5.4-0.7,5.4-3.8c0-2.2-1.8-2.8-9.1-4.8
			c-6.7-1.9-14.3-3.7-14.3-12.2c0-9.7,8.3-13.9,17-13.9c9.2,0,17.2,3.5,17.6,13.8H88.7c0.2-1.6-0.5-2.7-1.5-3.4
			c-1.1-0.8-2.5-1.1-3.8-1.1c-1.8,0-4.7,0.5-4.7,2.8c0.2,3,6.3,3.7,12.2,5.3c6,1.7,11.9,4.4,11.9,12.2c0,11-10.1,14.5-19.5,14.5
			c-4.8,0-18.4-1.7-18.5-15.2H77.7z"/>
		<path fill="#231F20" d="M138.5,334.9h-11.3V331h-0.1c-2.2,3.1-5.3,4.7-10,4.7c-5.5,0-10.5-3.4-10.5-10.4v-21h11.7v16.1
			c0,3.5,0.4,6,3.8,6c2,0,4.7-1,4.7-5.9v-16.2h11.7V334.9z"/>
		<path fill="#231F20" d="M144.8,304.3h11.3v3.4h0.1c1.5-1.9,3.2-4.1,9-4.1c8.7,0,12.9,8.6,12.9,16.2c0,7.2-2.8,15.9-13.1,15.9
			c-3.5,0-6.6-1.5-8.4-4.1h-0.1v13.3h-11.7V304.3z M161.2,327.2c4.2,0,5.1-4,5.1-7.6c0-3.7-0.9-7.6-5.1-7.6c-4.2,0-5.1,4-5.1,7.6
			C156.1,323.2,157.1,327.2,161.2,327.2z"/>
		<path fill="#231F20" d="M183.1,304.3h11.3v3.4h0.1c1.5-1.9,3.2-4.1,9-4.1c8.7,0,12.9,8.6,12.9,16.2c0,7.2-2.8,15.9-13.1,15.9
			c-3.5,0-6.6-1.5-8.4-4.1h-0.1v13.3h-11.7V304.3z M199.5,327.2c4.2,0,5.1-4,5.1-7.6c0-3.7-0.9-7.6-5.1-7.6c-4.2,0-5.1,4-5.1,7.6
			C194.4,323.2,195.3,327.2,199.5,327.2z"/>
		<path fill="#231F20" d="M221.6,292.8h11.7v42.2h-11.7V292.8z"/>
		<path fill="#231F20" d="M249.8,322.2c0.3,3.5,2.3,6,6,6c1.9,0,4-0.7,4.9-2.2h10.9c-2.4,6.6-8.8,9.7-15.8,9.7
			c-9.8,0-17.2-5.8-17.2-16c0-8.9,6.5-16.2,16.2-16.2c12.2,0,17.4,6.8,17.4,18.7H249.8z M261.1,316.2c0-2.8-2.1-5.1-5.1-5.1
			c-3.5,0-5.5,1.8-6,5.1H261.1z"/>
		<path fill="#231F20" d="M277.1,304.3h11.3v4.1h0.1c2.4-3.5,5.8-4.8,10-4.8c3.3,0,6.9,1.7,8.3,4.8c0.5-0.4,2.8-4.8,10.5-4.8
			c7.9,0,10.5,5.4,10.5,10.4v21h-11.7v-16.6c0-2.9-0.3-5.5-3.8-5.5c-3,0-4,2.3-4,5.5v16.6h-11.7v-16.6c0-2.9-0.3-5.5-3.8-5.5
			c-3,0-4,2.3-4,5.5v16.6h-11.7V304.3z"/>
		<path fill="#231F20" d="M343.9,322.2c0.3,3.5,2.3,6,6,6c1.9,0,4-0.7,4.9-2.2h10.9c-2.4,6.6-8.8,9.7-15.8,9.7
			c-9.8,0-17.2-5.8-17.2-16c0-8.9,6.5-16.2,16.2-16.2c12.2,0,17.4,6.8,17.4,18.7H343.9z M355.2,316.2c0-2.8-2.1-5.1-5.1-5.1
			c-3.5,0-5.5,1.8-6,5.1H355.2z"/>
		<path fill="#231F20" d="M371.3,304.3h11.3v3.9h0.1c2.2-3.1,5.3-4.7,10-4.7c5.5,0,10.5,3.4,10.5,10.4v21h-11.7v-16.1
			c0-3.5-0.4-6-3.8-6c-2,0-4.7,1-4.7,5.9v16.2h-11.7V304.3z"/>
		<path fill="#231F20" d="M423.6,304.3h6.3v7.2h-6.3v10.7c0,2.8,0.7,4.1,3.6,4.1c0.9,0,1.8-0.1,2.7-0.2v8.9c-2.4,0-5,0.4-7.5,0.4
			c-5,0-10.5-0.8-10.5-9.2v-14.6h-5.2v-7.2h5.2V295h11.7V304.3z"/>
		<path fill="#231F20" d="M453.5,292.8h32.6v10.8h-19.6v5.3h16.8v10h-16.8v16.1h-13V292.8z"/>
		<path fill="#231F20" d="M520.4,328.1c0,2.3,0.1,4.9,1.4,6.9h-11.9c-0.3-0.8-0.5-2.1-0.4-2.9h-0.1c-2.5,2.8-6.1,3.7-9.9,3.7
			c-5.9,0-10.8-2.8-10.8-9.3c0-9.7,11.3-9.3,17.3-10.5c1.6-0.3,3.2-0.8,3.2-2.7c0-2.1-1.9-2.8-3.8-2.8c-3.6,0-4.3,1.8-4.4,3.1h-10.9
			c0.2-4.3,2.3-6.9,5.3-8.3c3-1.4,6.9-1.8,10.5-1.8c14.6,0,14.5,6.1,14.5,12V328.1z M509.2,321.2c-1.4,0.7-3,1.1-4.6,1.5
			c-2.6,0.6-4,1.2-4,3.3c0,1.4,1.5,2.8,3.7,2.8c2.7,0,4.7-1.6,4.9-4.8V321.2z"/>
		<path fill="#231F20" d="M546.4,315.9c-0.1-1.2-0.5-2.2-1.3-2.9c-0.7-0.6-1.7-1-3-1c-4.5,0-5.1,3.9-5.1,7.6s0.7,7.6,5.1,7.6
			c2.5,0,4.3-2.1,4.5-4.5h11.2c-0.5,4.1-2.5,7.4-5.3,9.6c-2.8,2.2-6.5,3.4-10.6,3.4c-9.2,0-16.6-6.4-16.6-16.1s7.4-16.1,16.6-16.1
			c8,0,14.9,4,15.6,12.4H546.4z"/>
		<path fill="#231F20" d="M576.8,304.3h6.3v7.2h-6.3v10.7c0,2.8,0.7,4.1,3.6,4.1c0.9,0,1.8-0.1,2.7-0.2v8.9c-2.4,0-5,0.4-7.5,0.4
			c-5,0-10.5-0.8-10.5-9.2v-14.6h-5.2v-7.2h5.2V295h11.7V304.3z"/>
		<path fill="#231F20" d="M604.5,313.2c-0.1-1-0.6-1.8-1.4-2.3c-0.7-0.6-1.7-0.9-2.6-0.9c-1.7,0-3.5,0.4-3.5,2.4
			c0,0.9,0.7,1.3,1.4,1.6c1.9,0.8,6.4,1.1,10.3,2.4c3.9,1.2,7.3,3.5,7.3,8.6c0,8.5-8.2,10.8-15.6,10.8c-7.2,0-15.1-2.9-15.3-10.8
			h11.2c0.1,1.1,0.5,1.9,1.4,2.7c0.6,0.5,1.7,0.9,3.1,0.9c1.5,0,4-0.6,4-2.4s-1-2.3-6.4-3.2c-8.9-1.5-12.5-4.4-12.5-9.6
			c0-7.7,8.3-9.7,14.5-9.7c6.6,0,14.6,1.8,14.9,9.7H604.5z"/>
	</g>
</g>
</svg>
