<?xml version="1.0" encoding="utf-8"?>
<!-- Generator: Adobe Illustrator 19.1.0, SVG Export Plug-In . SVG Version: 6.00 Build 0)  -->
<svg version="1.1" id="Layer_1" xmlns="http://www.w3.org/2000/svg" xmlns:xlink="http://www.w3.org/1999/xlink" x="0px" y="0px"
	 viewBox="0 0 409.6 409.6" style="enable-background:new 0 0 409.6 409.6;" xml:space="preserve">
<style type="text/css">
	.st0{fill:#BABABA;}
</style>
<path d="M267.6,102.4H142c-21.8,0-39.6,17.7-39.6,39.6v125.6c0,21.8,17.7,39.6,39.6,39.6h125.6c21.8,0,39.6-17.7,39.6-39.6v-83.9
	V142C307.2,120.1,289.5,102.4,267.6,102.4z M279,126h4.5v34.7l-34.6,0.1l-0.1-34.7L279,126z M175.6,183.8c6.5-9.1,17.2-15,29.2-15
	c12,0,22.7,5.9,29.3,15c4.3,5.9,6.8,13.2,6.8,21c0,19.9-16.2,36-36.1,36c-19.9,0-36-16.1-36-36C168.8,196.9,171.3,189.7,175.6,183.8
	z M287.2,267.6c0,10.8-8.8,19.6-19.6,19.6H142c-10.8,0-19.6-8.7-19.6-19.6v-83.9h30.6c-2.6,6.5-4.1,13.6-4.1,21
	c0,30.9,25.1,56,56,56c30.9,0,56-25.1,56-56c0-7.4-1.5-14.5-4.1-21h30.6V267.6z"/>
<path class="st0" d="M204.8,0C91.7,0,0,91.7,0,204.8c0,113.1,91.7,204.8,204.8,204.8s204.8-91.7,204.8-204.8
	C409.6,91.7,317.9,0,204.8,0L204.8,0z M204.8,377.6C109.4,377.6,32,300.2,32,204.8C32,109.4,109.4,32,204.8,32
	c95.4,0,172.8,77.4,172.8,172.8C377.6,300.2,300.2,377.6,204.8,377.6L204.8,377.6z M204.8,377.6"/>
</svg>
