<?xml version="1.0" encoding="utf-8"?>
<!-- Generator: Adobe Illustrator 18.1.1, SVG Export Plug-In . SVG Version: 6.00 Build 0)  -->
<svg version="1.1" id="Layer_1" xmlns="http://www.w3.org/2000/svg" xmlns:xlink="http://www.w3.org/1999/xlink" x="0px" y="0px"
	 viewBox="23.1 360.5 612.8 284.1" enable-background="new 23.1 360.5 612.8 284.1" xml:space="preserve">
<g>
	<path id="XMLID_1_" d="M635.4,361v283.1H23.6V361H635.4 M635.9,360.5h-0.5H23.6h-0.5v0.5v283.1v0.5h0.5h611.8h0.5v-0.5V361V360.5
		L635.9,360.5z"/>
	<rect x="37.5" y="500.8" width="586" height="3"/>
	<rect x="37.5" y="544.7" width="586" height="0.5"/>
	<rect x="37.2" y="583.2" width="586.3" height="1.9"/>
	<g>
		<path d="M42.6,552.2h1.9v14h6.4v1.7h-8.3V552.2z"/>
		<path d="M52.3,560.8h5.4v1.7h-5.4V560.8z"/>
		<path d="M69.7,562.5c-0.2,3-1.3,5.7-4.8,5.7c-4.5,0-5-4.2-5-8.1c0-4,0.7-8.1,5-8.1c3.2,0,4.5,1.8,4.6,4.9h-2
			c0-1.8-0.6-3.3-2.6-3.3c-2.7,0-3,2.9-3,6.6c0,3.6,0.4,6.6,3,6.6c2.3,0,2.7-2.2,2.7-4.1H69.7z"/>
		<path d="M71.1,559.7c0-2.7,1.1-3.9,3.9-3.9c3.6,0,3.6,2.2,3.6,3.4v6.6c0,0.5,0,0.9,0.6,0.9c0.2,0,0.4,0,0.4-0.1v1.3
			c-0.1,0-0.6,0.1-1.1,0.1c-0.7,0-1.6,0-1.7-1.5h0c-0.6,1.1-1.7,1.7-2.8,1.7c-2.2,0-3.2-1.3-3.2-3.4c0-1.6,0.7-2.8,2.2-3.2l2.5-0.7
			c1.3-0.4,1.3-0.8,1.3-1.8c0-1.1-0.7-1.7-1.9-1.7c-2,0-2,1.9-2,2.3v0.1H71.1z M76.8,561.5c-0.7,0.7-2.3,0.9-3.1,1.4
			c-0.6,0.4-0.9,0.8-0.9,1.9c0,1.2,0.4,2,1.7,2c1.2,0,2.4-1,2.4-2.2V561.5z"/>
		<path d="M81.1,556.2H83v1.8h0c0.5-1.1,1.2-2.1,2.5-2.1c0.4,0,0.6,0,0.8,0.1v1.8c-0.2,0-0.4-0.1-1-0.1c-0.9,0-2.4,0.8-2.4,2.8v7.4
			h-1.8V556.2z"/>
		<path d="M87.6,556.2h1.8v1.4h0c0.5-1.1,1.7-1.7,2.9-1.7c3.1,0,3.1,2.3,3.1,3.7v8.3h-1.8v-8.1c0-0.9-0.1-2.4-1.7-2.4
			c-1,0-2.3,0.7-2.3,2.4v8.1h-1.8V556.2z"/>
		<path d="M97.9,552.2h1.8v2.1h-1.8V552.2z M97.9,556.2h1.8v11.8h-1.8V556.2z"/>
		<path d="M102.8,552.7h1.8v3.4h2v1.4h-2v7.5c0,0.9,0.2,1.3,1.2,1.3c0.4,0,0.6,0,0.8-0.1v1.5c-0.2,0-0.7,0.1-1.5,0.1
			c-1.9,0-2.4-0.8-2.4-2.3v-8.1h-1.7v-1.4h1.7V552.7z"/>
		<path d="M108.1,552.2h1.8v2.1h-1.8V552.2z M108.1,556.2h1.8v11.8h-1.8V556.2z"/>
		<path d="M112.4,556.2h1.8v1.4h0c0.5-1.1,1.7-1.7,2.9-1.7c3.1,0,3.1,2.3,3.1,3.7v8.3h-1.8v-8.1c0-0.9-0.1-2.4-1.7-2.4
			c-1,0-2.3,0.7-2.3,2.4v8.1h-1.8V556.2z"/>
		<path d="M124.1,562.3c0,1.8,0,4.5,2.3,4.5c1.8,0,2-1.8,2-2.7h1.8c0,1.2-0.7,4.2-3.9,4.2c-2.9,0-4.1-2-4.1-6c0-2.9,0.6-6.3,4.2-6.3
			c3.6,0,3.9,3.1,3.9,5.7v0.7H124.1z M128.4,560.8v-0.6c0-1.3-0.4-2.9-2-2.9c-1.9,0-2.2,2.4-2.2,3.1v0.4H128.4z"/>
		<path d="M141.6,552.2c-1.8,2.9-2.4,6.5-2.4,9.9c0,3.6,0.8,6.7,2.4,9.9h-1.1c-2.1-2.8-3.2-6.4-3.2-9.9c0-3.5,1.1-7,3.2-9.9H141.6z"
			/>
		<path d="M142.6,559.7c0-2.7,1.1-3.9,3.9-3.9c3.6,0,3.6,2.2,3.6,3.4v6.6c0,0.5,0,0.9,0.6,0.9c0.2,0,0.4,0,0.4-0.1v1.3
			c-0.1,0-0.6,0.1-1.1,0.1c-0.7,0-1.6,0-1.7-1.5h0c-0.6,1.1-1.7,1.7-2.8,1.7c-2.2,0-3.2-1.3-3.2-3.4c0-1.6,0.7-2.8,2.2-3.2l2.5-0.7
			c1.3-0.4,1.3-0.8,1.3-1.8c0-1.1-0.7-1.7-1.9-1.7c-2,0-2,1.9-2,2.3v0.1H142.6z M148.3,561.5c-0.7,0.7-2.3,0.9-3.1,1.4
			c-0.6,0.4-0.9,0.8-0.9,1.9c0,1.2,0.4,2,1.7,2c1.2,0,2.4-1,2.4-2.2V561.5z"/>
		<path d="M157.7,559.6c0-1.5-0.4-2.3-1.7-2.3c-0.6,0-1.9,0.2-1.9,1.8c0,1.4,1.4,1.6,2.9,2.1c1.4,0.5,2.9,1,2.9,3.3
			c0,2.5-1.6,3.7-3.8,3.7c-4,0-4-3-4-4.2h1.8c0,1.4,0.4,2.7,2.2,2.7c0.6,0,2-0.3,2-2c0-1.6-1.4-1.9-2.9-2.4
			c-1.4-0.5-2.9-0.9-2.9-3.3c0-2.2,1.7-3.2,3.8-3.2c3.4,0,3.6,2.4,3.6,3.8H157.7z"/>
		<path d="M166.9,552.2h1.9v14h6.4v1.7h-8.3V552.2z"/>
		<path d="M176.5,560.8h5.4v1.7h-5.4V560.8z"/>
		<path d="M193.9,562.5c-0.2,3-1.3,5.7-4.8,5.7c-4.5,0-5-4.2-5-8.1c0-4,0.7-8.1,5-8.1c3.2,0,4.5,1.8,4.6,4.9h-2
			c0-1.8-0.6-3.3-2.6-3.3c-2.7,0-3,2.9-3,6.6c0,3.6,0.4,6.6,3,6.6c2.3,0,2.7-2.2,2.7-4.1H193.9z"/>
		<path d="M195.4,559.7c0-2.7,1.1-3.9,3.9-3.9c3.6,0,3.6,2.2,3.6,3.4v6.6c0,0.5,0,0.9,0.6,0.9c0.2,0,0.4,0,0.4-0.1v1.3
			c-0.1,0-0.6,0.1-1.1,0.1c-0.7,0-1.6,0-1.7-1.5h0c-0.6,1.1-1.7,1.7-2.8,1.7c-2.2,0-3.2-1.3-3.2-3.4c0-1.6,0.7-2.8,2.2-3.2l2.5-0.7
			c1.3-0.4,1.3-0.8,1.3-1.8c0-1.1-0.7-1.7-1.9-1.7c-2,0-2,1.9-2,2.3v0.1H195.4z M201.1,561.5c-0.7,0.7-2.3,0.9-3.1,1.4
			c-0.6,0.4-0.9,0.8-0.9,1.9c0,1.2,0.4,2,1.7,2c1.2,0,2.4-1,2.4-2.2V561.5z"/>
		<path d="M205.4,556.2h1.8v1.8h0c0.5-1.1,1.2-2.1,2.5-2.1c0.4,0,0.6,0,0.8,0.1v1.8c-0.2,0-0.4-0.1-1-0.1c-0.9,0-2.4,0.8-2.4,2.8
			v7.4h-1.8V556.2z"/>
		<path d="M211.9,556.2h1.8v1.4h0c0.5-1.1,1.7-1.7,2.9-1.7c3.1,0,3.1,2.3,3.1,3.7v8.3h-1.8v-8.1c0-0.9-0.1-2.4-1.7-2.4
			c-1,0-2.3,0.7-2.3,2.4v8.1h-1.8V556.2z"/>
		<path d="M222.2,552.2h1.8v2.1h-1.8V552.2z M222.2,556.2h1.8v11.8h-1.8V556.2z"/>
		<path d="M227.1,552.7h1.8v3.4h2v1.4h-2v7.5c0,0.9,0.2,1.3,1.2,1.3c0.4,0,0.6,0,0.8-0.1v1.5c-0.2,0-0.7,0.1-1.5,0.1
			c-1.9,0-2.4-0.8-2.4-2.3v-8.1h-1.7v-1.4h1.7V552.7z"/>
		<path d="M232.3,552.2h1.8v2.1h-1.8V552.2z M232.3,556.2h1.8v11.8h-1.8V556.2z"/>
		<path d="M236.7,556.2h1.8v1.4h0c0.5-1.1,1.7-1.7,2.9-1.7c3.1,0,3.1,2.3,3.1,3.7v8.3h-1.8v-8.1c0-0.9-0.1-2.4-1.7-2.4
			c-1,0-2.3,0.7-2.3,2.4v8.1h-1.8V556.2z"/>
		<path d="M248.4,562.3c0,1.8,0,4.5,2.3,4.5c1.8,0,2-1.8,2-2.7h1.8c0,1.2-0.7,4.2-3.9,4.2c-2.9,0-4.1-2-4.1-6c0-2.9,0.6-6.3,4.2-6.3
			c3.6,0,3.9,3.1,3.9,5.7v0.7H248.4z M252.7,560.8v-0.6c0-1.3-0.4-2.9-2-2.9c-1.9,0-2.2,2.4-2.2,3.1v0.4H252.7z"/>
		<path d="M265.9,567.9H264v-14H260v-1.7h9.8v1.7h-3.9V567.9z"/>
		<path d="M269.3,559.7c0-2.7,1.1-3.9,3.9-3.9c3.6,0,3.6,2.2,3.6,3.4v6.6c0,0.5,0,0.9,0.6,0.9c0.2,0,0.4,0,0.4-0.1v1.3
			c-0.1,0-0.6,0.1-1.1,0.1c-0.7,0-1.6,0-1.7-1.5h0c-0.6,1.1-1.7,1.7-2.8,1.7c-2.2,0-3.2-1.3-3.2-3.4c0-1.6,0.7-2.8,2.2-3.2l2.5-0.7
			c1.3-0.4,1.3-0.8,1.3-1.8c0-1.1-0.7-1.7-1.9-1.7c-2,0-2,1.9-2,2.3v0.1H269.3z M275,561.5c-0.7,0.7-2.3,0.9-3.1,1.4
			c-0.6,0.4-0.9,0.8-0.9,1.9c0,1.2,0.4,2,1.7,2c1.2,0,2.4-1,2.4-2.2V561.5z"/>
		<path d="M279.3,556.2h1.8v1.8h0c0.5-1.1,1.2-2.1,2.5-2.1c0.4,0,0.6,0,0.8,0.1v1.8c-0.2,0-0.4-0.1-1-0.1c-0.9,0-2.4,0.8-2.4,2.8
			v7.4h-1.8V556.2z"/>
		<path d="M286.4,552.7h1.8v3.4h2v1.4h-2v7.5c0,0.9,0.2,1.3,1.2,1.3c0.4,0,0.6,0,0.8-0.1v1.5c-0.2,0-0.7,0.1-1.5,0.1
			c-1.9,0-2.4-0.8-2.4-2.3v-8.1h-1.7v-1.4h1.7V552.7z"/>
		<path d="M291.5,556.2h1.8v1.8h0c0.5-1.1,1.2-2.1,2.5-2.1c0.4,0,0.6,0,0.8,0.1v1.8c-0.2,0-0.4-0.1-1-0.1c-0.9,0-2.4,0.8-2.4,2.8
			v7.4h-1.8V556.2z"/>
		<path d="M297.7,559.7c0-2.7,1.1-3.9,3.9-3.9c3.6,0,3.6,2.2,3.6,3.4v6.6c0,0.5,0,0.9,0.6,0.9c0.2,0,0.4,0,0.4-0.1v1.3
			c-0.1,0-0.6,0.1-1.1,0.1c-0.7,0-1.6,0-1.7-1.5h0c-0.6,1.1-1.7,1.7-2.8,1.7c-2.2,0-3.2-1.3-3.2-3.4c0-1.6,0.7-2.8,2.2-3.2l2.5-0.7
			c1.3-0.4,1.3-0.8,1.3-1.8c0-1.1-0.7-1.7-1.9-1.7c-2,0-2,1.9-2,2.3v0.1H297.7z M303.4,561.5c-0.7,0.7-2.3,0.9-3.1,1.4
			c-0.6,0.4-0.9,0.8-0.9,1.9c0,1.2,0.4,2,1.7,2c1.2,0,2.4-1,2.4-2.2V561.5z"/>
		<path d="M308.5,552.7h1.8v3.4h2v1.4h-2v7.5c0,0.9,0.2,1.3,1.2,1.3c0.4,0,0.6,0,0.8-0.1v1.5c-0.2,0-0.7,0.1-1.5,0.1
			c-1.9,0-2.4-0.8-2.4-2.3v-8.1h-1.7v-1.4h1.7V552.7z"/>
		<path d="M315.2,562.3c0,1.8,0,4.5,2.3,4.5c1.8,0,2-1.8,2-2.7h1.8c0,1.2-0.7,4.2-3.9,4.2c-2.9,0-4.1-2-4.1-6c0-2.9,0.6-6.3,4.2-6.3
			c3.6,0,3.9,3.1,3.9,5.7v0.7H315.2z M319.4,560.8v-0.6c0-1.3-0.4-2.9-2-2.9c-1.9,0-2.2,2.4-2.2,3.1v0.4H319.4z"/>
		<path d="M322.3,572c1.8-2.9,2.4-6.5,2.4-9.9c0-3.6-0.8-6.7-2.4-9.9h1.1c2.1,2.8,3.2,6.4,3.2,9.9c0,3.5-1.1,7-3.2,9.9H322.3z"/>
	</g>
	<g>
		<path d="M51.5,440.8c-0.3-2.9-2.2-4.1-4.8-4.1c-2.2,0-4.4,0.8-4.4,3.4c0,2.5,3.1,2.9,6.2,3.6c3.1,0.7,6.2,1.9,6.2,5.8
			c0,4.3-4.1,6-7.6,6c-4.4,0-8-2.2-8-7.1h2.5c0,3.4,2.7,4.9,5.7,4.9c2.3,0,4.9-0.8,4.9-3.7c0-2.8-3.1-3.3-6.2-4
			c-3.1-0.7-6.2-1.6-6.2-5.3c0-4.1,3.5-5.9,7.1-5.9c4,0,7,2,7.2,6.4H51.5z"/>
		<path d="M69.6,450.5c-0.6,3.2-2.9,5-6,5c-4.5,0-6.6-3.2-6.8-7.7c0-4.4,2.8-7.6,6.6-7.6c5,0,6.5,4.8,6.4,8.4H59.2
			c-0.1,2.5,1.3,4.8,4.4,4.8c1.9,0,3.2-1,3.6-2.9H69.6z M67.3,446.4c-0.1-2.3-1.8-4.1-4.1-4.1c-2.4,0-3.9,1.9-4,4.1H67.3z"/>
		<path d="M72.1,440.5h2.2v3.1h0.1c1.1-2.3,2.7-3.5,5.2-3.4v2.5c-3.7,0-5.1,2.2-5.1,5.9v6.5h-2.3V440.5z"/>
		<path d="M87.6,455.1h-2.5l-5.2-14.6h2.6l3.9,12.2h0.1l3.8-12.2h2.4L87.6,455.1z"/>
		<path d="M97.3,437.9H95v-2.9h2.3V437.9z M95,440.5h2.3v14.6H95V440.5z"/>
		<path d="M100.9,440.5h2.2v2.3h0.1c1-1.8,2.6-2.7,4.6-2.7c3.7,0,4.8,2.2,4.8,5.3v9.6h-2.3v-9.9c0-1.8-1.1-2.9-2.9-2.9
			c-2.8,0-4.2,2-4.2,4.6v8.3h-2.3V440.5z"/>
		<path d="M128.2,453.9c0,4.8-2.1,7.2-6.5,7.2c-2.6,0-5.7-1.1-5.8-4.3h2.3c0.1,1.8,2.1,2.4,3.6,2.4c3,0,4.2-2.3,4.2-5.5v-1H126
			c-0.8,1.8-2.6,2.7-4.4,2.7c-4.2,0-6.3-3.4-6.3-7.4c0-3.4,1.6-7.7,6.5-7.7c1.8,0,3.4,0.8,4.2,2.4h0v-2.1h2.2V453.9z M125.9,447.5
			c0-2.6-1.1-5.2-4-5.2c-3,0-4.2,2.5-4.2,5.3c0,2.6,0.9,5.6,4,5.6C124.8,453.2,125.9,450.2,125.9,447.5z"/>
		<path d="M150.9,440.8c-0.3-2.9-2.2-4.1-4.8-4.1c-2.2,0-4.4,0.8-4.4,3.4c0,2.5,3.1,2.9,6.2,3.6c3.1,0.7,6.2,1.9,6.2,5.8
			c0,4.3-4.1,6-7.6,6c-4.4,0-8-2.2-8-7.1h2.5c0,3.4,2.7,4.9,5.7,4.9c2.3,0,4.9-0.8,4.9-3.7c0-2.8-3.1-3.3-6.2-4
			c-3.1-0.7-6.2-1.6-6.2-5.3c0-4.1,3.5-5.9,7.1-5.9c4,0,7,2,7.2,6.4H150.9z"/>
		<path d="M159.3,437.9H157v-2.9h2.3V437.9z M157,440.5h2.3v14.6H157V440.5z"/>
		<path d="M161.8,453.3l8.5-10.7h-8v-2.1h10.9v1.6l-8.6,10.9h9v2.1h-11.9V453.3z"/>
		<path d="M188,450.5c-0.6,3.2-2.9,5-6,5c-4.5,0-6.6-3.2-6.8-7.7c0-4.4,2.8-7.6,6.6-7.6c5,0,6.5,4.8,6.4,8.4h-10.5
			c-0.1,2.5,1.3,4.8,4.4,4.8c1.9,0,3.2-1,3.6-2.9H188z M185.8,446.4c-0.1-2.3-1.8-4.1-4.1-4.1c-2.4,0-3.9,1.9-4,4.1H185.8z"/>
		<path d="M206.2,455.1h-2.3v-14.4h-5v-1.9c2.6,0,5-0.7,5.6-3.8h1.8V455.1z"/>
		<path d="M235,441c-0.5-2.9-2.8-4.3-5.4-4.3c-4.6,0-6.6,4-6.6,8.2c0,4.6,2,8.5,6.6,8.5c3.4,0,5.4-2.5,5.6-5.8h2.6
			c-0.5,5-3.5,8.1-8.4,8.1c-6,0-9-4.6-9-10.5c0-5.9,3.2-10.6,9.2-10.6c4.1,0,7.4,2.3,8,6.6H235z"/>
		<path d="M253.1,455.1c-0.4,0.3-0.9,0.4-1.7,0.4c-1.2,0-2-0.7-2-2.3c-1.3,1.6-3,2.3-5,2.3c-2.6,0-4.7-1.2-4.7-4.1
			c0-3.3,2.4-4,4.8-4.5c2.6-0.5,4.7-0.3,4.7-2.1c0-2.1-1.7-2.4-3.1-2.4c-2,0-3.4,0.6-3.5,2.8h-2.3c0.1-3.6,2.8-4.9,6-4.9
			c2.5,0,5.3,0.6,5.3,4v7.5c0,1.1,0,1.6,0.7,1.6c0.2,0,0.4,0,0.7-0.1V455.1z M249.3,447.6c-0.9,0.7-2.6,0.7-4.2,1
			c-1.5,0.3-2.8,0.8-2.8,2.6c0,1.6,1.3,2.1,2.7,2.1c3.1,0,4.3-2,4.3-3.3V447.6z"/>
		<path d="M255.3,440.5h2.3v2h0.1c0.8-1.6,2.6-2.3,4.5-2.3c4.3,0,6.5,3.6,6.5,7.7s-2.1,7.6-6.4,7.6c-1.4,0-3.5-0.6-4.5-2.3h-0.1v7.5
			h-2.3V440.5z M261.8,442.3c-3.1,0-4.3,2.8-4.3,5.5c0,2.9,1.3,5.5,4.4,5.5c3.2,0,4.2-2.8,4.2-5.7
			C266.2,444.9,264.8,442.3,261.8,442.3z"/>
		<path d="M272.8,450.5c0.1,2.1,1.9,2.8,3.8,2.8c1.4,0,3.4-0.3,3.4-2.2c0-1.9-2.3-2.2-4.6-2.7c-2.3-0.5-4.6-1.3-4.6-4.1
			c0-2.9,2.8-4.2,5.3-4.2c3.1,0,5.6,1,5.8,4.6h-2.3c-0.2-1.9-1.7-2.5-3.3-2.5c-1.4,0-3,0.4-3,1.9c0,1.7,2.5,2,4.6,2.5
			c2.3,0.5,4.6,1.3,4.6,4.2c0,3.5-3.1,4.6-6,4.6c-3.2,0-5.8-1.3-6-4.9H272.8z"/>
		<path d="M296.6,455.1h-2.2v-2.3h-0.1c-1,1.8-2.6,2.7-4.6,2.7c-3.7,0-4.8-2.2-4.8-5.3v-9.6h2.3v9.9c0,1.8,1.1,2.9,2.9,2.9
			c2.8,0,4.2-2,4.2-4.6v-8.3h2.3V455.1z"/>
		<path d="M300.2,434.9h2.3v20.2h-2.3V434.9z"/>
		<path d="M318.2,450.5c-0.6,3.2-2.9,5-6,5c-4.5,0-6.6-3.2-6.8-7.7c0-4.4,2.8-7.6,6.6-7.6c5,0,6.5,4.8,6.4,8.4h-10.5
			c-0.1,2.5,1.3,4.8,4.4,4.8c1.9,0,3.2-1,3.6-2.9H318.2z M315.9,446.4c-0.1-2.3-1.8-4.1-4.1-4.1c-2.4,0-3.9,1.9-4,4.1H315.9z"/>
		<path d="M51.5,471.7c-0.3-2.9-2.2-4.1-4.8-4.1c-2.2,0-4.4,0.8-4.4,3.4c0,2.5,3.1,2.9,6.2,3.6c3.1,0.7,6.2,1.9,6.2,5.8
			c0,4.3-4.1,6-7.6,6c-4.4,0-8-2.2-8-7.1h2.5c0,3.4,2.7,4.9,5.7,4.9c2.3,0,4.9-0.8,4.9-3.7c0-2.8-3.1-3.3-6.2-4
			c-3.1-0.7-6.2-1.6-6.2-5.3c0-4.1,3.5-5.9,7.1-5.9c4,0,7,2,7.2,6.4H51.5z"/>
		<path d="M69.6,481.3c-0.6,3.2-2.9,5-6,5c-4.5,0-6.6-3.2-6.8-7.7c0-4.4,2.8-7.6,6.6-7.6c5,0,6.5,4.8,6.4,8.4H59.2
			c-0.1,2.5,1.3,4.8,4.4,4.8c1.9,0,3.2-1,3.6-2.9H69.6z M67.3,477.3c-0.1-2.3-1.8-4.1-4.1-4.1c-2.4,0-3.9,1.9-4,4.1H67.3z"/>
		<path d="M72.1,471.3h2.2v3.1h0.1c1.1-2.3,2.7-3.5,5.2-3.4v2.5c-3.7,0-5.1,2.2-5.1,5.9v6.5h-2.3V471.3z"/>
		<path d="M87.6,486h-2.5l-5.2-14.6h2.6l3.9,12.2h0.1l3.8-12.2h2.4L87.6,486z"/>
		<path d="M97.3,468.7H95v-2.9h2.3V468.7z M95,471.3h2.3V486H95V471.3z"/>
		<path d="M100.9,471.3h2.2v2.3h0.1c1-1.8,2.6-2.7,4.6-2.7c3.7,0,4.8,2.2,4.8,5.3v9.6h-2.3v-9.9c0-1.8-1.1-2.9-2.9-2.9
			c-2.8,0-4.2,2-4.2,4.6v8.3h-2.3V471.3z"/>
		<path d="M128.2,484.7c0,4.8-2.1,7.2-6.5,7.2c-2.6,0-5.7-1.1-5.8-4.3h2.3c0.1,1.8,2.1,2.4,3.6,2.4c3,0,4.2-2.3,4.2-5.5v-1H126
			c-0.8,1.8-2.6,2.7-4.4,2.7c-4.2,0-6.3-3.4-6.3-7.4c0-3.4,1.6-7.7,6.5-7.7c1.8,0,3.4,0.8,4.2,2.4h0v-2.1h2.2V484.7z M125.9,478.4
			c0-2.6-1.1-5.2-4-5.2c-3,0-4.2,2.5-4.2,5.3c0,2.6,0.9,5.6,4,5.6C124.8,484,125.9,481.1,125.9,478.4z"/>
		<path d="M133.1,481.4c0.1,2.1,1.9,2.8,3.8,2.8c1.4,0,3.4-0.3,3.4-2.2c0-1.9-2.3-2.2-4.6-2.7c-2.3-0.5-4.6-1.3-4.6-4.1
			c0-2.9,2.8-4.2,5.3-4.2c3.1,0,5.6,1,5.8,4.6h-2.3c-0.2-1.9-1.7-2.5-3.3-2.5c-1.4,0-3,0.4-3,1.9c0,1.7,2.5,2,4.6,2.5
			c2.3,0.5,4.6,1.3,4.6,4.2c0,3.5-3.1,4.6-6,4.6c-3.2,0-5.8-1.3-6-4.9H133.1z"/>
		<path d="M153.2,465.8h8.5c3.9,0,6,2.2,6,6c0,3.7-2.1,6-6,6h-5.9v8.3h-2.6V465.8z M155.8,475.4h5.1c2.9,0,4.2-1.3,4.2-3.7
			s-1.3-3.7-4.2-3.7h-5.1V475.4z"/>
		<path d="M182.5,481.3c-0.6,3.2-2.9,5-6,5c-4.5,0-6.6-3.2-6.8-7.7c0-4.4,2.8-7.6,6.6-7.6c5,0,6.5,4.8,6.4,8.4h-10.5
			c-0.1,2.5,1.3,4.8,4.4,4.8c1.9,0,3.2-1,3.6-2.9H182.5z M180.3,477.3c-0.1-2.3-1.8-4.1-4.1-4.1c-2.4,0-3.9,1.9-4,4.1H180.3z"/>
		<path d="M185.1,471.3h2.2v3.1h0.1c1.1-2.3,2.7-3.5,5.2-3.4v2.5c-3.7,0-5.1,2.2-5.1,5.9v6.5h-2.3V471.3z"/>
		<path d="M215.8,471.9c-0.5-2.9-2.8-4.3-5.4-4.3c-4.6,0-6.6,4-6.6,8.2c0,4.6,2,8.5,6.6,8.5c3.4,0,5.4-2.5,5.6-5.8h2.6
			c-0.5,5-3.5,8.1-8.4,8.1c-6,0-9-4.6-9-10.5c0-5.9,3.2-10.6,9.2-10.6c4.1,0,7.4,2.3,8,6.6H215.8z"/>
		<path d="M227.5,471c4.5,0,6.8,3.4,6.8,7.7c0,4.3-2.4,7.6-6.8,7.6s-6.8-3.4-6.8-7.6C220.7,474.4,223,471,227.5,471z M227.5,484.2
			c2.4,0,4.4-2,4.4-5.5c0-3.6-2-5.5-4.4-5.5c-2.4,0-4.4,2-4.4,5.5C223.1,482.2,225.1,484.2,227.5,484.2z"/>
		<path d="M237.1,471.3h2.2v2.3h0.1c1-1.8,2.6-2.7,4.6-2.7c3.7,0,4.8,2.2,4.8,5.3v9.6h-2.3v-9.9c0-1.8-1.1-2.9-2.9-2.9
			c-2.8,0-4.2,2-4.2,4.6v8.3h-2.3V471.3z"/>
		<path d="M255.4,471.3h2.8v2.1h-2.8v9.1c0,1.1,0.3,1.3,1.7,1.3h1.1v2.1h-1.8c-2.4,0-3.4-0.5-3.4-3.2v-9.3h-2.4v-2.1h2.4V467h2.3
			V471.3z"/>
		<path d="M273.3,485.9c-0.4,0.3-0.9,0.4-1.7,0.4c-1.2,0-2-0.7-2-2.3c-1.3,1.6-3,2.3-5,2.3c-2.6,0-4.7-1.2-4.7-4.1
			c0-3.3,2.4-4,4.8-4.5c2.6-0.5,4.7-0.3,4.7-2.1c0-2.1-1.7-2.4-3.1-2.4c-2,0-3.4,0.6-3.5,2.8h-2.3c0.1-3.6,2.8-4.9,6-4.9
			c2.5,0,5.3,0.6,5.3,4v7.5c0,1.1,0,1.6,0.7,1.6c0.2,0,0.4,0,0.7-0.1V485.9z M269.5,478.4c-0.9,0.7-2.6,0.7-4.2,1
			c-1.5,0.3-2.8,0.8-2.8,2.6c0,1.6,1.3,2.1,2.7,2.1c3.1,0,4.3-2,4.3-3.3V478.4z"/>
		<path d="M277.9,468.7h-2.3v-2.9h2.3V468.7z M275.5,471.3h2.3V486h-2.3V471.3z"/>
		<path d="M281.5,471.3h2.2v2.3h0.1c1-1.8,2.6-2.7,4.6-2.7c3.7,0,4.8,2.2,4.8,5.3v9.6h-2.3v-9.9c0-1.8-1.1-2.9-2.9-2.9
			c-2.8,0-4.2,2-4.2,4.6v8.3h-2.3V471.3z"/>
		<path d="M308.6,481.3c-0.6,3.2-2.9,5-6,5c-4.5,0-6.6-3.2-6.8-7.7c0-4.4,2.8-7.6,6.6-7.6c5,0,6.5,4.8,6.4,8.4h-10.5
			c-0.1,2.5,1.3,4.8,4.4,4.8c1.9,0,3.2-1,3.6-2.9H308.6z M306.4,477.3c-0.1-2.3-1.8-4.1-4.1-4.1c-2.4,0-3.9,1.9-4,4.1H306.4z"/>
		<path d="M311.1,471.3h2.2v3.1h0.1c1.1-2.3,2.7-3.5,5.2-3.4v2.5c-3.7,0-5.1,2.2-5.1,5.9v6.5h-2.3V471.3z"/>
		<path d="M335.8,486h-2.3v-14.4h-5v-1.9c2.6,0,5-0.7,5.6-3.8h1.8V486z"/>
		<path d="M348.7,465.9c4.2,0,5.9,2.6,5.9,5.1c0,1.8-1.1,3.4-2.7,4.2c2.3,0.8,3.4,2.5,3.4,5c0,3.9-2.8,6.1-6.4,6.1
			c-3.7,0-6.6-2-6.6-6.1c0-2.4,1.2-4.2,3.4-5c-1.6-0.7-2.7-2.3-2.7-4.2C343,467.7,345.7,465.9,348.7,465.9z M348.9,484.2
			c2.3,0,3.9-1.7,3.9-3.9c0-2.2-1.8-3.8-4-3.8c-2.3,0-4.1,1.5-4.1,3.8C344.8,482.7,346.5,484.2,348.9,484.2z M348.9,474.3
			c1.8,0,3.2-1.2,3.2-3.2c0-2-1.4-3.1-3.2-3.1c-1.9,0-3.4,1.1-3.4,3.1C345.5,473.3,347,474.3,348.9,474.3z"/>
		<path d="M364,465.9c6,0,6.4,5.8,6.4,10.2c0,4.4-0.4,10.2-6.4,10.2c-6,0-6.4-5.8-6.4-10.2C357.5,471.7,357.9,465.9,364,465.9z
			 M364,484.2c3.9,0,4-5.1,4-8.1c0-3,0-8.1-4-8.1c-4,0-4,5.1-4,8.1C360,479.1,360,484.2,364,484.2z"/>
	</g>
	<g>
		<path d="M292.9,514.4h4.7l4.9,18.7h-3.9l-0.9-4h-5l-0.9,4H288L292.9,514.4z M293.4,526.1h3.7l-1.8-8.4h-0.1L293.4,526.1z"/>
		<path d="M303.8,519h3.5v1.4h0.1c0.9-1.3,2-1.8,3.6-1.8c1.6,0,2.9,0.8,3.2,2.3h0.1c0.5-1.5,1.9-2.3,3.6-2.3c2.4,0,3.5,1.5,3.5,4.2
			v10.2h-3.6v-9.8c0-1.2-0.4-1.8-1.4-1.8c-1.2,0-1.9,0.8-1.9,2.4v9.3h-3.6v-9.8c0-1.2-0.4-1.8-1.4-1.8c-1.2,0-1.9,0.8-1.9,2.4v9.3
			h-3.6V519z"/>
		<path d="M328.7,518.7c4.3-0.1,5.5,2.5,5.5,7.4c0,4.8-1.4,7.4-5.5,7.4c-4.3,0.1-5.5-2.5-5.5-7.4
			C323.1,521.3,324.5,518.7,328.7,518.7z M328.7,531c1.5,0,1.9-1.4,1.9-4.9c0-3.5-0.5-4.9-1.9-4.9c-1.8,0-1.9,2.1-1.9,4.9
			C326.7,529,326.9,531,328.7,531z"/>
		<path d="M343.4,531.5L343.4,531.5c-0.8,1.4-2.1,2-3.6,2c-2.3,0-3.6-1.2-3.6-4V519h3.6v9.7c0,1.4,0.5,2,1.5,2
			c1.2,0,1.9-0.8,1.9-2.3V519h3.6v14.1h-3.5V531.5z"/>
		<path d="M349.2,519h3.5v1.6h0.1c0.8-1.4,2.1-2,3.6-2c2.2,0,3.6,1.2,3.6,4v10.4h-3.6v-9.7c0-1.4-0.5-2-1.5-2
			c-1.2,0-1.9,0.8-1.9,2.3v9.3h-3.6V519z"/>
		<path d="M363.1,515h3.6v4h2.1v2.5h-2.1v7.6c0,1.1,0.2,1.5,1.3,1.5c0.3,0,0.6,0,0.8-0.1v2.5c-0.8,0.1-1.5,0.2-2.4,0.2
			c-2.8,0-3.3-0.9-3.3-3.7v-8.1h-1.8V519h1.8V515z"/>
		<path d="M376.5,514.4h6.6c3.8,0,5.1,2.8,5.1,5.6c0,3.9-2.4,5.6-5.9,5.6h-2v7.5h-3.8V514.4z M380.2,522.9h1.7
			c1.5,0,2.5-0.9,2.5-2.8c0-1.8-0.7-2.9-2.6-2.9h-1.6V522.9z"/>
		<path d="M392.4,526.6v1.1c0,1.6,0.4,3.3,1.8,3.3c1.2,0,1.7-0.9,1.9-2.6h3.2c-0.1,3.3-1.7,5.1-5.1,5.1c-5.2,0-5.4-4-5.4-7.5
			c0-3.8,0.7-7.3,5.6-7.3c4.2,0,5.2,2.8,5.2,7.1v0.8H392.4z M396.1,524.5c-0.1-2.1-0.3-3.3-1.8-3.3c-1.4,0-1.9,1.5-1.9,2.8v0.5
			H396.1z"/>
		<path d="M401.4,519h3.5v1.9h0.1c0.7-1.4,1.8-2.3,3.2-2.3c0.2,0,0.4,0,0.7,0.1v3.5c-0.4,0-0.8-0.1-1.1-0.1c-1.3,0-2.7,0.7-2.7,2.5
			v8.5h-3.6V519z"/>
		<path d="M419.6,527.3v0.5c0,1.8,0.5,2.9,2.5,2.9c1.2,0,2.3-0.7,2.3-2.3c0-1.7-0.9-2.3-3.3-3.2c-3.3-1.2-4.9-2.5-4.9-5.7
			c0-3.6,2.2-5.5,5.8-5.5c3.3,0,5.8,1.4,5.8,5v0.5H424c0-1.8-0.6-2.8-2-2.8c-1.7,0-2.1,1.1-2.1,2.2c0,1.2,0.3,1.9,1.9,2.5l2.9,1.3
			c2.8,1.2,3.6,2.7,3.6,4.9c0,4-2.4,5.7-6.5,5.7c-4.3,0-5.9-2-5.9-5.4v-0.8H419.6z"/>
		<path d="M433.1,526.6v1.1c0,1.6,0.4,3.3,1.8,3.3c1.2,0,1.7-0.9,1.9-2.6h3.2c-0.1,3.3-1.7,5.1-5.1,5.1c-5.2,0-5.4-4-5.4-7.5
			c0-3.8,0.7-7.3,5.6-7.3c4.2,0,5.2,2.8,5.2,7.1v0.8H433.1z M436.8,524.5c-0.1-2.1-0.3-3.3-1.8-3.3c-1.4,0-1.9,1.5-1.9,2.8v0.5
			H436.8z"/>
		<path d="M442.1,519h3.5v1.9h0.1c0.7-1.4,1.8-2.3,3.2-2.3c0.2,0,0.4,0,0.7,0.1v3.5c-0.4,0-0.8-0.1-1.1-0.1c-1.3,0-2.7,0.7-2.7,2.5
			v8.5h-3.6V519z"/>
		<path d="M458,519h3.6l-3.5,14.1h-4.2l-3.6-14.1h3.8l2,10.1h0.1L458,519z"/>
		<path d="M463.1,514.2h3.6v3.1h-3.6V514.2z M463.1,519h3.6v14.1h-3.6V519z"/>
		<path d="M469.2,519h3.5v1.6h0.1c0.8-1.4,2.1-2,3.6-2c2.2,0,3.6,1.2,3.6,4v10.4h-3.6v-9.7c0-1.4-0.5-2-1.5-2
			c-1.2,0-1.9,0.8-1.9,2.3v9.3h-3.6V519z"/>
		<path d="M492.8,519v13.4c0,3.7-1.6,5.5-5.9,5.5c-3.1,0-4.8-1.4-4.8-3.8h3.5c0,0.5,0.2,0.8,0.5,1.1c0.3,0.2,0.8,0.4,1.2,0.4
			c1.5,0,2-1.1,2-2.5v-1.9h-0.1c-0.7,1-1.9,1.7-3,1.7c-2.9,0-4.3-2-4.3-7.1c0-3.3,0.5-7.2,4.4-7.2c1,0,2.2,0.5,2.9,1.9h0.1V519
			H492.8z M487.4,530.2c1.5,0,2-1.6,2-4c0-3.4-0.4-4.7-1.9-4.7c-1.6,0-1.9,1.3-1.9,5.1C485.6,528.5,485.9,530.2,487.4,530.2z"/>
		<path d="M561.6,514.6c3.2,0,3.9,1.6,3.9,5s-0.7,5-3.9,5s-3.9-1.6-3.9-5S558.4,514.6,561.6,514.6z M561.6,522.6c1,0,1.2-1,1.2-3.1
			c0-1.9-0.1-2.9-1.2-2.9s-1.2,1-1.2,2.9C560.5,521.6,560.6,522.6,561.6,522.6z M571.3,514.2h2.3L563,533.9h-2.3L571.3,514.2z
			 M572.7,523.5c3.2,0,3.9,1.6,3.9,5s-0.7,5-3.9,5s-3.9-1.6-3.9-5S569.5,523.5,572.7,523.5z M572.7,531.5c1,0,1.2-1,1.2-3.1
			c0-1.9-0.1-2.9-1.2-2.9s-1.2,1-1.2,2.9C571.6,530.5,571.7,531.5,572.7,531.5z"/>
		<path d="M585.1,514.4h6.2c5.2,0,6.2,3.6,6.2,9.1c0,6.6-1.4,9.6-6.4,9.6h-5.9V514.4z M588.9,530.4h1.7c2.6,0,3.1-1.6,3.1-6.7
			c0-4.2-0.3-6.4-3.2-6.4h-1.6V530.4z"/>
		<path d="M602.8,514.4l2.6,13.8h0.1l2.8-13.8h3.9l-4.3,18.7H603l-4.3-18.7H602.8z"/>
	</g>
	<g>
		<path d="M435.5,553.1h7v1.7H437l-0.6,4.5l0,0c0.6-0.8,1.7-1.2,2.7-1.2c2.3,0,3.9,1.9,3.9,5.1c0,2.9-1.3,5.4-4.5,5.4
			c-3.7,0-4.3-3.1-4.3-4.3h1.9c0,0.8,0.3,2.9,2.4,2.9c2.2,0,2.6-2.5,2.6-4.1c0-1.7-0.6-3.5-2.6-3.5c-1.3,0-2.2,1.1-2.2,1.5l-1.7-0.1
			L435.5,553.1z"/>
		<path d="M444.8,560.9c0-3.4,0.2-8,4.5-8c4.2,0,4.5,4.2,4.5,8c0,3.3-0.2,7.9-4.5,7.9C445,568.8,444.8,564.6,444.8,560.9z
			 M449.3,567.3c2.4,0,2.5-3.2,2.5-6.4c0-3.4-0.1-6.6-2.5-6.6c-2.4,0-2.5,3.1-2.5,6.6C446.7,564.2,446.9,567.3,449.3,567.3z"/>
		<path d="M455.4,560.9c0-3.4,0.2-8,4.5-8c4.2,0,4.5,4.2,4.5,8c0,3.3-0.2,7.9-4.5,7.9C455.6,568.8,455.4,564.6,455.4,560.9z
			 M459.8,567.3c2.4,0,2.5-3.2,2.5-6.4c0-3.4-0.1-6.6-2.5-6.6c-2.4,0-2.5,3.1-2.5,6.6C457.3,564.2,457.5,567.3,459.8,567.3z"/>
		<path d="M471.8,556.6h1.8v1.4h0c0.5-1.1,1.7-1.7,2.9-1.7c1.4,0,2.2,0.5,2.6,1.9c0.5-1,1.6-1.9,2.8-1.9c3.1,0,3.1,2.4,3.1,3.8v8.4
			h-1.9v-8.2c0-0.9-0.1-2.4-1.6-2.4c-0.9,0-2.2,0.5-2.2,2.4v8.2h-1.9v-8.2c0-0.9-0.1-2.4-1.6-2.4c-0.9,0-2.2,0.5-2.2,2.4v8.2h-1.9
			V556.6z"/>
		<path d="M495.4,567.7c0,3.5-1.6,4.8-4,4.8c-0.7,0-3.6,0-3.9-3h1.9c0.1,1.1,0.9,1.5,1.9,1.5c2.4,0,2.3-1.8,2.3-2.6v-1.5h0
			c-0.4,1-1.5,1.6-2.7,1.6c-3.4,0-3.7-4.3-3.7-5.9c0-3.2,0.9-6.2,3.9-6.2c1.3,0,2.3,0.9,2.6,1.8h0v-1.5h1.8V567.7z M489.1,562.5
			c0,1.9,0.3,4.3,2.1,4.3c2,0,2.4-1.9,2.4-4.3c0-2.3-0.4-4.6-2.4-4.6C489.5,557.9,489.1,559.7,489.1,562.5z"/>
	</g>
	<g>
		<path d="M42.4,606.8h2.1v4.9h4.3v1.7h-4.3V627h-2.1v-13.7h-4.3v-1.7h4.3V606.8z"/>
		<path d="M57.2,606.8H62c5.6,0,6.3,3.8,6.3,8.5c0,4.3-1.1,8.5-6.1,8.5h-5V606.8z M59.5,622h2.3c3.8,0,4.2-3.7,4.2-6.7
			c0-3.3-0.2-6.8-4.2-6.8h-2.3V622z"/>
		<path d="M70.6,614.8c0-2.9,1.3-4.2,4.5-4.2c4.1,0,4.1,2.3,4.1,3.7v7.1c0,0.5,0,1,0.7,1c0.3,0,0.4,0,0.5-0.1v1.4
			c-0.2,0-0.7,0.1-1.2,0.1c-0.8,0-1.8,0-1.9-1.6h-0.1c-0.7,1.1-2,1.8-3.2,1.8c-2.5,0-3.7-1.4-3.7-3.7c0-1.8,0.8-3,2.5-3.5l2.8-0.8
			c1.5-0.5,1.5-0.9,1.5-1.9c0-1.2-0.8-1.9-2.2-1.9c-2.3,0-2.3,2-2.3,2.5v0.1H70.6z M77.1,616.8c-0.8,0.8-2.6,0.9-3.6,1.5
			c-0.7,0.4-1,0.9-1,2c0,1.3,0.5,2.2,1.9,2.2c1.4,0,2.7-1.1,2.7-2.4V616.8z"/>
		<path d="M82.2,606.8h2.1v2.3h-2.1V606.8z M82.2,611h2.1v12.7h-2.1V611z"/>
		<path d="M87.3,606.8h2.1v16.9h-2.1V606.8z"/>
		<path d="M91.2,611h2.3l2.7,10.2h0.1l2.4-10.2h2.3L97,624.5c-0.5,1.8-1.1,3.3-3.6,3.3c-0.8,0-1.2,0-1.5-0.1v-1.6
			c0.3,0,0.7,0.1,1.2,0.1c1,0,1.4-0.5,1.7-1.2l0.4-1.1L91.2,611z"/>
		<path d="M106.2,606.8h2.3l3.5,14.5h0l3.5-14.5h2.3l-4.5,16.9h-2.8L106.2,606.8z"/>
		<path d="M118.4,614.8c0-2.9,1.3-4.2,4.5-4.2c4.1,0,4.1,2.3,4.1,3.7v7.1c0,0.5,0,1,0.7,1c0.3,0,0.4,0,0.5-0.1v1.4
			c-0.2,0-0.7,0.1-1.2,0.1c-0.8,0-1.8,0-1.9-1.6H125c-0.7,1.1-2,1.8-3.2,1.8c-2.5,0-3.7-1.4-3.7-3.7c0-1.8,0.8-3,2.5-3.5l2.8-0.8
			c1.5-0.5,1.5-0.9,1.5-1.9c0-1.2-0.8-1.9-2.2-1.9c-2.3,0-2.3,2-2.3,2.5v0.1H118.4z M124.9,616.8c-0.8,0.8-2.6,0.9-3.6,1.5
			c-0.7,0.4-1,0.9-1,2c0,1.3,0.5,2.2,1.9,2.2c1.4,0,2.7-1.1,2.7-2.4V616.8z"/>
		<path d="M130,606.8h2.1v16.9H130V606.8z"/>
		<path d="M143.9,623.7h-2v-1.5h-0.1c-0.6,1.2-2,1.8-3.3,1.8c-3.5,0-3.5-2.5-3.5-4v-9h2.1v8.8c0,1,0.1,2.6,2,2.6
			c1.1,0,2.7-0.7,2.7-2.6V611h2.1V623.7z"/>
		<path d="M148.4,617.6c0,1.9,0,4.9,2.6,4.9c2,0,2.3-2,2.3-2.9h2.1c0,1.4-0.9,4.5-4.5,4.5c-3.3,0-4.7-2.2-4.7-6.5
			c0-3.2,0.7-6.9,4.8-6.9c4.1,0,4.5,3.4,4.5,6.1v0.8H148.4z M153.3,616v-0.7c0-1.4-0.5-3.1-2.3-3.1c-2.2,0-2.5,2.6-2.5,3.3v0.5
			H153.3z"/>
		<path d="M163.9,606.8h2.9l5.9,14.1h0.1v-14.1h2.2v16.9h-3l-5.8-13.7h-0.1v13.7h-2.2V606.8z"/>
		<path d="M182,610.6c3.9,0,4.8,3.1,4.8,6.7c0,3.6-1,6.7-4.8,6.7c-3.9,0-4.8-3.1-4.8-6.7C177.2,613.8,178.1,610.6,182,610.6z
			 M184.6,617.3c0-2.8-0.4-5.1-2.7-5.1c-2.1,0-2.6,2.4-2.6,5.1c0,2.8,0.4,5.1,2.6,5.1C184.2,622.5,184.6,620.1,184.6,617.3z"/>
		<path d="M189.6,607.3h2.1v3.7h2.3v1.6h-2.3v8.2c0,1,0.3,1.4,1.4,1.4c0.5,0,0.7,0,0.9-0.1v1.6c-0.3,0-0.8,0.1-1.7,0.1
			c-2.2,0-2.7-0.9-2.7-2.5v-8.8h-2V611h2V607.3z"/>
		<path d="M201.6,606.8h9.3v1.9h-7.1v5.3h6.7v1.9h-6.7v6.1h7.4v1.9h-9.6V606.8z"/>
		<path d="M218.9,614.7c0-1.6-0.5-2.5-2-2.5c-0.7,0-2.2,0.2-2.2,1.9c0,1.5,1.7,1.8,3.3,2.3c1.6,0.5,3.3,1.1,3.3,3.6
			c0,2.7-1.8,4-4.3,4c-4.6,0-4.6-3.2-4.6-4.5h2.1c0,1.5,0.5,2.9,2.5,2.9c0.7,0,2.2-0.3,2.2-2.1c0-1.7-1.7-2.1-3.3-2.6
			c-1.6-0.5-3.3-1-3.3-3.6c0-2.4,2-3.5,4.3-3.5c3.9,0,4.1,2.6,4.1,4.1H218.9z"/>
		<path d="M224,607.3h2.1v3.7h2.3v1.6h-2.3v8.2c0,1,0.3,1.4,1.4,1.4c0.5,0,0.7,0,0.9-0.1v1.6c-0.3,0-0.8,0.1-1.7,0.1
			c-2.2,0-2.7-0.9-2.7-2.5v-8.8h-2V611h2V607.3z"/>
		<path d="M229.5,614.8c0-2.9,1.3-4.2,4.5-4.2c4.1,0,4.1,2.3,4.1,3.7v7.1c0,0.5,0,1,0.7,1c0.3,0,0.4,0,0.5-0.1v1.4
			c-0.2,0-0.7,0.1-1.2,0.1c-0.8,0-1.8,0-1.9-1.6h-0.1c-0.7,1.1-2,1.8-3.2,1.8c-2.5,0-3.7-1.4-3.7-3.7c0-1.8,0.8-3,2.5-3.5l2.8-0.8
			c1.5-0.5,1.5-0.9,1.5-1.9c0-1.2-0.8-1.9-2.2-1.9c-2.3,0-2.3,2-2.3,2.5v0.1H229.5z M236,616.8c-0.8,0.8-2.6,0.9-3.6,1.5
			c-0.7,0.4-1,0.9-1,2c0,1.3,0.5,2.2,1.9,2.2c1.4,0,2.7-1.1,2.7-2.4V616.8z"/>
		<path d="M241,606.8h2.1v5.7h0.1c0.5-1.1,1.8-1.8,3.1-1.8c3.6,0,4.1,4,4.1,6.7c0,3.6-1.3,6.7-4.4,6.7c-1.5,0-2.6-0.9-2.9-1.9H243
			v1.6h-2V606.8z M245.7,622.3c2,0,2.5-2.1,2.5-5c0-3-0.5-5-2.5-5c-2.3,0-2.7,2.5-2.7,5C243,619.9,243.4,622.3,245.7,622.3z"/>
		<path d="M252.8,606.8h2.1v16.9h-2.1V606.8z"/>
		<path d="M257.9,606.8h2.1v2.3h-2.1V606.8z M257.9,611h2.1v12.7h-2.1V611z"/>
		<path d="M268.7,614.7c0-1.6-0.5-2.5-2-2.5c-0.7,0-2.2,0.2-2.2,1.9c0,1.5,1.7,1.8,3.3,2.3c1.6,0.5,3.3,1.1,3.3,3.6
			c0,2.7-1.8,4-4.3,4c-4.6,0-4.6-3.2-4.6-4.5h2.1c0,1.5,0.5,2.9,2.5,2.9c0.7,0,2.2-0.3,2.2-2.1c0-1.7-1.7-2.1-3.3-2.6
			c-1.6-0.5-3.3-1-3.3-3.6c0-2.4,2-3.5,4.3-3.5c3.9,0,4.1,2.6,4.1,4.1H268.7z"/>
		<path d="M273.1,606.8h2.1v5.7h0.1c0.6-1,2-1.8,3.2-1.8c3.5,0,3.5,2.5,3.5,4v9h-2.1v-8.8c0-1-0.1-2.6-2-2.6c-1.1,0-2.7,0.7-2.7,2.6
			v8.8h-2.1V606.8z"/>
		<path d="M286.5,617.6c0,1.9,0,4.9,2.6,4.9c2,0,2.3-2,2.3-2.9h2.1c0,1.4-0.9,4.5-4.5,4.5c-3.3,0-4.7-2.2-4.7-6.5
			c0-3.2,0.7-6.9,4.8-6.9c4.1,0,4.5,3.4,4.5,6.1v0.8H286.5z M291.4,616v-0.7c0-1.4-0.5-3.1-2.3-3.1c-2.2,0-2.5,2.6-2.5,3.3v0.5
			H291.4z"/>
		<path d="M304.7,623.7h-2v-1.6h0c-0.3,0.9-1.5,1.9-2.9,1.9c-3.2,0-4.4-2.7-4.4-6.7c0-2.7,0.5-6.7,4.2-6.7c1.2,0,2.5,0.7,3,1.8h0.1
			v-5.7h2.1V623.7z M300,622.3c2.3,0,2.7-2.1,2.7-5c0-2.5-0.5-5-2.7-5c-2,0-2.5,1.9-2.5,5S298.1,622.3,300,622.3z"/>
	</g>
	<g>
		<path d="M605.5,551h2v4.9h4.1v1.7h-4.1v13.7h-2v-13.7h-4.1v-1.7h4.1V551z"/>
	</g>
	<g>
		<path fill="#231F20" d="M51.3,401c0,1.1,0.2,2,0.5,2.8c0.9,2.6,3.8,3.1,6.2,3.1c2.1,0,5.4-0.7,5.4-3.9c0-2.2-1.8-2.8-9.1-4.9
			c-6.7-1.9-14.4-3.7-14.4-12.3c0-9.8,8.4-14,17.1-14c9.2,0,17.3,3.5,17.7,13.8H62.3c0.2-1.6-0.5-2.7-1.5-3.4
			c-1.1-0.8-2.6-1.1-3.9-1.1c-1.8,0-4.7,0.5-4.7,2.8c0.2,3,6.3,3.7,12.3,5.3c6,1.7,11.9,4.4,11.9,12.2c0,11-10.1,14.6-19.6,14.6
			c-4.8,0-18.5-1.7-18.6-15.2H51.3z"/>
		<path fill="#231F20" d="M112.3,415.3H101v-3.9h-0.1c-2.2,3.1-5.3,4.7-10,4.7c-5.5,0-10.6-3.4-10.6-10.4v-21.1H92v16.1
			c0,3.6,0.4,6.1,3.9,6.1c2,0,4.7-1,4.7-5.9v-16.3h11.7V415.3z"/>
		<path fill="#231F20" d="M118.7,384.5h11.3v3.4h0.1c1.5-2,3.3-4.2,9-4.2c8.7,0,12.9,8.6,12.9,16.3c0,7.2-2.8,16-13.1,16
			c-3.5,0-6.6-1.5-8.4-4.2h-0.1v13.3h-11.7V384.5z M135.2,407.5c4.2,0,5.2-4,5.2-7.6c0-3.7-0.9-7.7-5.2-7.7s-5.2,4-5.2,7.7
			C130.1,403.5,131,407.5,135.2,407.5z"/>
		<path fill="#231F20" d="M157.2,384.5h11.3v3.4h0.1c1.5-2,3.3-4.2,9-4.2c8.7,0,12.9,8.6,12.9,16.3c0,7.2-2.8,16-13.1,16
			c-3.5,0-6.6-1.5-8.4-4.2h-0.1v13.3h-11.7V384.5z M173.7,407.5c4.2,0,5.2-4,5.2-7.6c0-3.7-0.9-7.7-5.2-7.7s-5.2,4-5.2,7.7
			C168.5,403.5,169.4,407.5,173.7,407.5z"/>
		<path fill="#231F20" d="M195.8,372.9h11.7v42.4h-11.7V372.9z"/>
		<path fill="#231F20" d="M224.2,402.5c0.3,3.5,2.3,6,6,6c1.9,0,4-0.7,4.9-2.2h11c-2.4,6.6-8.8,9.7-15.8,9.7
			c-9.8,0-17.3-5.8-17.3-16.1c0-9,6.5-16.3,16.3-16.3c12.2,0,17.5,6.8,17.5,18.8H224.2z M235.5,396.4c0-2.8-2.1-5.2-5.2-5.2
			c-3.5,0-5.5,1.8-6.1,5.2H235.5z"/>
		<path fill="#231F20" d="M251.6,384.5h11.3v4.1h0.1c2.4-3.6,5.8-4.9,10.1-4.9c3.3,0,6.9,1.7,8.3,4.8c0.5-0.4,2.8-4.8,10.5-4.8
			c7.9,0,10.6,5.5,10.6,10.4v21.1h-11.7v-16.7c0-2.9-0.3-5.5-3.9-5.5c-3,0-4,2.3-4,5.5v16.7h-11.7v-16.7c0-2.9-0.3-5.5-3.9-5.5
			c-3,0-4,2.3-4,5.5v16.7h-11.7V384.5z"/>
		<path fill="#231F20" d="M318.7,402.5c0.3,3.5,2.3,6,6,6c1.9,0,4-0.7,4.9-2.2h11c-2.4,6.6-8.8,9.7-15.8,9.7
			c-9.8,0-17.3-5.8-17.3-16.1c0-9,6.5-16.3,16.3-16.3c12.2,0,17.5,6.8,17.5,18.8H318.7z M330,396.4c0-2.8-2.1-5.2-5.2-5.2
			c-3.5,0-5.5,1.8-6.1,5.2H330z"/>
		<path fill="#231F20" d="M346.2,384.5h11.3v3.9h0.1c2.2-3.1,5.3-4.7,10-4.7c5.5,0,10.6,3.4,10.6,10.4v21.1h-11.7v-16.1
			c0-3.6-0.4-6.1-3.9-6.1c-2,0-4.7,1-4.7,5.9v16.3h-11.7V384.5z"/>
		<path fill="#231F20" d="M398.7,384.5h6.3v7.2h-6.3v10.7c0,2.8,0.7,4.1,3.6,4.1c0.9,0,1.8-0.1,2.7-0.2v8.9c-2.4,0-5,0.4-7.5,0.4
			c-5,0-10.5-0.8-10.5-9.2v-14.7h-5.2v-7.2h5.2v-9.4h11.7V384.5z"/>
		<path fill="#231F20" d="M428.7,372.9h32.7v10.9h-19.7v5.3h16.9v10.1h-16.9v16.1h-13.1V372.9z"/>
		<path fill="#231F20" d="M496,408.4c0,2.3,0.1,4.9,1.4,6.9h-12c-0.3-0.8-0.5-2.1-0.4-2.9h-0.1c-2.5,2.8-6.1,3.7-9.9,3.7
			c-5.9,0-10.9-2.8-10.9-9.3c0-9.7,11.4-9.4,17.4-10.5c1.6-0.3,3.2-0.8,3.2-2.7c0-2.1-2-2.8-3.9-2.8c-3.6,0-4.3,1.8-4.4,3.1h-10.9
			c0.2-4.3,2.3-6.9,5.3-8.3c3-1.4,6.9-1.8,10.5-1.8c14.7,0,14.6,6.1,14.6,12V408.4z M484.7,401.4c-1.4,0.7-3,1.1-4.6,1.5
			c-2.6,0.6-4,1.2-4,3.3c0,1.4,1.5,2.8,3.7,2.8c2.7,0,4.7-1.6,4.9-4.8V401.4z"/>
		<path fill="#231F20" d="M522.1,396.1c-0.1-1.2-0.5-2.3-1.3-2.9c-0.7-0.7-1.7-1-3-1c-4.5,0-5.2,3.9-5.2,7.7c0,3.7,0.7,7.6,5.2,7.6
			c2.6,0,4.3-2.1,4.6-4.5h11.2c-0.5,4.2-2.5,7.4-5.3,9.7c-2.8,2.2-6.5,3.4-10.7,3.4c-9.3,0-16.7-6.4-16.7-16.1s7.4-16.2,16.7-16.2
			c8.1,0,15,4,15.7,12.5H522.1z"/>
		<path fill="#231F20" d="M552.5,384.5h6.3v7.2h-6.3v10.7c0,2.8,0.7,4.1,3.6,4.1c0.9,0,1.8-0.1,2.7-0.2v8.9c-2.4,0-5,0.4-7.5,0.4
			c-5,0-10.5-0.8-10.5-9.2v-14.7h-5.2v-7.2h5.2v-9.4h11.7V384.5z"/>
		<path fill="#231F20" d="M580.4,393.4c-0.1-1-0.6-1.8-1.4-2.3c-0.7-0.6-1.7-0.9-2.6-0.9c-1.7,0-3.6,0.4-3.6,2.4
			c0,0.9,0.7,1.3,1.4,1.6c2,0.8,6.4,1.1,10.3,2.4c3.9,1.2,7.4,3.6,7.4,8.6c0,8.5-8.2,10.9-15.7,10.9c-7.2,0-15.2-2.9-15.4-10.9h11.2
			c0.1,1.1,0.5,2,1.4,2.7c0.6,0.5,1.7,0.9,3.1,0.9c1.5,0,4-0.6,4-2.4c0-1.8-1-2.3-6.5-3.3c-9-1.5-12.6-4.4-12.6-9.7
			c0-7.8,8.4-9.8,14.5-9.8c6.6,0,14.7,1.8,15,9.7H580.4z"/>
	</g>
</g>
</svg>
