<?xml version="1.0" encoding="utf-8"?>
<!-- Generator: Adobe Illustrator 19.1.0, SVG Export Plug-In . SVG Version: 6.00 Build 0)  -->
<svg version="1.1" id="Layer_1" xmlns="http://www.w3.org/2000/svg" xmlns:xlink="http://www.w3.org/1999/xlink" x="0px" y="0px"
	 viewBox="0 0 137 126" style="enable-background:new 0 0 137 126;" xml:space="preserve">
<style type="text/css">
	.st0{fill:#9F9F9F;}
</style>
<g>
	<g>
		<path class="st0" d="M11.3,88.6l2.3-0.8l0.7,1.9l-5.2,1.8c-0.5,0.2-1,0.2-1.4,0.1c-0.4-0.1-0.7-0.4-0.9-0.7l-1.7-4.6
			C5,85.9,5,85.6,5.3,85.2c0.3-0.4,0.6-0.6,1.1-0.8l5.3-1.9l0.7,1.8l-2.3,0.8L11.3,88.6z M9.4,88.1l-0.8-2.4L7,86.2l1.2,3.5l1.5-0.5
			L9.4,88.1z"/>
	</g>
	<g>
		<path class="st0" d="M8.4,80.2l2.6-0.5l0.4,2.2l-7.3,1.5l-1.2-6.2c-0.1-0.4,0-0.8,0.3-1.2c0.3-0.4,0.7-0.6,1.3-0.7L5.4,75
			c0.5-0.1,1,0,1.4,0.2c0.4,0.2,0.7,0.5,0.8,1L8.4,80.2z M6,77.2l-1.2,0.2l0.7,3.3l1.2-0.2L6,77.2z"/>
	</g>
	<g>
		<path class="st0" d="M7.1,71.5l2.7-0.2l0.1,2.2l-7.5,0.4L2,67.7c0-0.4,0.1-0.8,0.5-1.1C2.9,66.2,3.4,66,3.9,66L4.8,66
			c0.5,0,1,0.1,1.4,0.4c0.4,0.3,0.6,0.6,0.6,1.1L7.1,71.5z M5.1,68.2l-1.3,0.1l0.2,3.4l1.3-0.1L5.1,68.2z"/>
	</g>
	<g>
		<path class="st0" d="M8,59.3l0.2-2l1.9,0.2l-0.5,6.3c0,0.4-0.3,0.7-0.7,0.9c-0.4,0.2-0.9,0.3-1.4,0.3L2,64.4l0.2-2l5.6,0.5L8,59.3
			z"/>
	</g>
	<g>
		<path class="st0" d="M10.3,56.6L3,55.2l0.4-2l7.4,1.4L10.3,56.6z"/>
	</g>
	<g>
		<path class="st0" d="M6.9,50.7l1.5-5.1L9.9,46l-1.5,5.1l1.1,0.3l1.6-5.5l1.8,0.5l-1.7,6.1c-0.1,0.4-0.4,0.6-0.8,0.8
			c-0.4,0.1-0.9,0.1-1.5,0l-3.4-1c-0.5-0.2-0.9-0.4-1.2-0.8c-0.3-0.4-0.4-0.7-0.3-1.1l1.7-6.1l1.8,0.5l-1.6,5.5L6.9,50.7z"/>
	</g>
	<g>
		<path class="st0" d="M15.7,40l-2.6,5.8L8,43.4l0,0l-1.7-0.8l2.6-5.8c0.2-0.3,0.5-0.6,0.9-0.6c0.5-0.1,0.9,0,1.4,0.2l3.2,1.5
			c0.5,0.2,0.9,0.5,1.1,0.9C15.8,39.3,15.9,39.6,15.7,40z M13.8,39.8l-3.4-1.5l-1.5,3.4l3.4,1.5L13.8,39.8z"/>
	</g>
	<g>
		<path class="st0" d="M22.3,25.6l2,1.8L22.7,29l-5.5-5.1l4.3-4.6c0.3-0.3,0.7-0.4,1.2-0.4c0.5,0,0.9,0.2,1.3,0.6l0.7,0.6
			c0.4,0.4,0.6,0.8,0.7,1.3c0.1,0.5,0,0.9-0.3,1.2L22.3,25.6z M23.3,21.9l-0.9-0.9l-2.3,2.5l0.9,0.9L23.3,21.9z"/>
	</g>
	<g>
		<path class="st0" d="M26.6,17.2l3.6,4.4l-1.6,1.3l-4.7-5.8l4.7-3.8c0.3-0.3,0.7-0.3,1.1-0.2c0.5,0.1,0.9,0.4,1.2,0.8l0.6,0.7
			c0.1,0.2,0.3,0.4,0.3,0.5c0.1,0.2,0.1,0.4,0.2,0.6c0,0.2,0,0.4,0,0.6c-0.1,0.2-0.2,0.4-0.3,0.6l2.9,1.2l-1.7,1.4l-4.4-2.2l1.5-1.2
			l-0.8-1L26.6,17.2z"/>
	</g>
	<g>
		<path class="st0" d="M34.3,12.9l4.6-2.7l0.8,1.3l-4.6,2.7l0.6,1l4.9-2.9l1,1.6l-5.4,3.2c-0.3,0.2-0.7,0.2-1.1,0
			c-0.4-0.2-0.8-0.5-1.1-1l-1.8-3c-0.3-0.5-0.4-0.9-0.4-1.4c0-0.5,0.2-0.8,0.6-1l5.4-3.2l1,1.6l-4.9,2.9L34.3,12.9z"/>
	</g>
	<g>
		<path class="st0" d="M48.7,8.8l0.7,1.7l-5.8,2.4c-0.4,0.2-0.7,0.1-1.1-0.2c-0.4-0.3-0.7-0.6-0.9-1.1l-1.4-3.3
			c-0.2-0.5-0.3-1-0.2-1.4c0.1-0.5,0.3-0.8,0.7-0.9l5.8-2.4l0.7,1.7l-5.3,2.2l1.4,3.5L48.7,8.8z"/>
	</g>
	<g>
		<path class="st0" d="M50.2,10.4L48,3.2l2-0.6l2.2,7.1L50.2,10.4z"/>
	</g>
	<g>
		<path class="st0" d="M57.7,5.4l-4,0.8c-0.5,0-0.9-0.2-1.2-0.4c-0.3-0.3-0.6-0.7-0.7-1.2l-0.1-0.5c-0.1-0.5-0.1-1,0.1-1.4
			c0.2-0.4,0.5-0.7,0.9-0.8l6.2-1.3l0.4,1.7l-5.5,1.1l0.2,1.1l4-0.8c0.4,0,0.8,0.1,1.2,0.3c0.3,0.2,0.6,0.6,0.7,1.1L60,6
			c0.1,0.5,0.1,1-0.2,1.5c-0.2,0.4-0.5,0.7-0.9,0.8l-6.1,1.3l-0.3-1.7l5.5-1.1L57.7,5.4z"/>
	</g>
	<g>
		<path class="st0" d="M61.2,7.9l-0.8-7.4l2-0.2l0.8,7.4L61.2,7.9z"/>
	</g>
	<g>
		<path class="st0" d="M70.2,0c0.4,0,0.7,0.2,1,0.6c0.3,0.4,0.4,0.8,0.4,1.4l0,3.5c0,0.6-0.1,1-0.4,1.4c-0.3,0.4-0.6,0.6-1,0.6
			l-4.9,0.1c-0.4,0-0.7-0.2-1-0.6c-0.3-0.4-0.4-0.8-0.4-1.4l0-3.5c0-0.5,0.1-1,0.4-1.4c0.3-0.4,0.6-0.6,1-0.6L70.2,0z M69.7,5.6
			l0-3.8l-3.7,0l0,3.8L69.7,5.6z"/>
	</g>
	<g>
		<path class="st0" d="M78.8,2.7l-3.7-0.5l-0.7,5.6l-2-0.3l1-7.4l6.3,0.8c0.4,0,0.7,0.3,0.9,0.7C80.8,2,80.8,2.5,80.8,3l-0.7,5.5
			l-2-0.3L78.8,2.7z"/>
	</g>
	<g>
		<path class="st0" d="M101.5,8.6l-0.8,1.7l-2.4-1.2l-2.5,5l-2-1l2.5-5l-2.4-1.2l0.8-1.7L101.5,8.6z"/>
	</g>
	<g>
		<path class="st0" d="M102.9,13.1l4.4,3l-0.9,1.3l-4.4-3l-0.6,0.9l4.7,3.3l-1.1,1.5l-5.2-3.6c-0.3-0.2-0.5-0.6-0.5-1
			c0-0.5,0.2-0.9,0.5-1.4l2-2.9c0.3-0.4,0.7-0.8,1.1-0.9c0.4-0.2,0.8-0.1,1.1,0.1l5.2,3.6l-1.1,1.5l-4.7-3.2L102.9,13.1z"/>
	</g>
	<g>
		<path class="st0" d="M112.6,24.3l-1.3,1.4l-4.6-4.3c-0.3-0.3-0.4-0.6-0.3-1.1c0.1-0.5,0.3-0.9,0.7-1.3l2.4-2.6
			c0.4-0.4,0.8-0.7,1.2-0.8c0.5-0.1,0.8,0,1.1,0.2l4.6,4.3l-1.3,1.4l-4.2-3.9l-2.6,2.8L112.6,24.3z"/>
	</g>
	<g>
		<path class="st0" d="M122.3,27.2l-5.8,4.7l-1.2-1.5l2.1-1.7l-2.1-2.6l-2.1,1.7l-1.2-1.5l5.8-4.7l1.2,1.5l-2.4,1.9l2.1,2.6l2.4-1.9
			L122.3,27.2z"/>
	</g>
	<g>
		<path class="st0" d="M124.7,34.4l-2-3.2l-4.8,2.9l-1-1.7l6.4-3.9l3.3,5.4c0.2,0.3,0.2,0.7,0,1.1c-0.2,0.4-0.5,0.8-1,1.1l-4.7,2.9
			l-1-1.7L124.7,34.4z"/>
	</g>
	<g>
		<path class="st0" d="M130.6,42.5c0.2,0.4,0.1,0.7-0.1,1.1c-0.2,0.4-0.6,0.7-1.1,0.9l-3.3,1.4c-0.5,0.2-1,0.3-1.4,0.2
			c-0.5-0.1-0.8-0.3-0.9-0.7l-1.9-4.5c-0.2-0.4-0.1-0.7,0.1-1.1c0.2-0.4,0.6-0.7,1.1-0.9l3.3-1.4c0.5-0.2,1-0.3,1.4-0.2
			c0.5,0.1,0.8,0.3,0.9,0.7L130.6,42.5z M125.2,44.2l3.5-1.5l-1.5-3.4l-3.5,1.5L125.2,44.2z"/>
	</g>
	<g>
		<path class="st0" d="M127.8,52.4l0.5,2l-1.8,0.5l-1.6-6.1c-0.1-0.4,0-0.7,0.3-1.1c0.3-0.4,0.7-0.6,1.3-0.7l5.3-1.4l0.5,1.9
			l-5.4,1.4L127.8,52.4z"/>
	</g>
	<g>
		<path class="st0" d="M134.8,60.9c0,0.4-0.1,0.7-0.5,1c-0.3,0.3-0.8,0.5-1.3,0.6l-3.5,0.4c-0.6,0.1-1,0-1.4-0.2
			c-0.4-0.2-0.6-0.5-0.7-0.9l-0.6-4.9c0-0.4,0.1-0.7,0.5-1c0.3-0.3,0.8-0.5,1.3-0.6l3.5-0.4c0.5-0.1,1,0,1.4,0.2
			c0.4,0.2,0.6,0.5,0.7,0.9L134.8,60.9z M129.1,61l3.7-0.4l-0.4-3.7l-3.7,0.4L129.1,61z"/>
	</g>
	<g>
		<path class="st0" d="M129.3,69.6l1.9,0l0,2l-2.1-0.1c-0.3,0-0.7-0.2-1.1-0.4c-0.4-0.3-0.6-0.6-0.6-1l0.1-4.9c0-0.4,0.2-0.7,0.6-1
			c0.4-0.3,0.9-0.4,1.4-0.4l3.5,0.1c0.5,0,1,0.2,1.4,0.4c0.4,0.3,0.6,0.6,0.6,1l-0.2,6.3l-1.9,0l0.1-5.7l-3.7-0.1L129.3,69.6z"/>
	</g>
	<g>
		<path class="st0" d="M127.2,72.4l7.4,0.9l-0.2,2l-7.4-0.9L127.2,72.4z"/>
	</g>
	<g>
		<path class="st0" d="M130.9,78.1l-1.2,5.2l-1.5-0.3l1.2-5.2l-1.1-0.2l-1.2,5.6l-1.8-0.4l1.4-6.2c0.1-0.4,0.3-0.7,0.8-0.8
			c0.4-0.2,0.9-0.2,1.4-0.1l3.5,0.8c0.5,0.1,1,0.3,1.3,0.7c0.3,0.3,0.4,0.7,0.3,1.1l-1.4,6.2l-1.8-0.4l1.2-5.6L130.9,78.1z"/>
	</g>
	<g>
		<path class="st0" d="M125.9,89.7l1.4-3.8c0.2-0.4,0.6-0.6,1-0.8c0.4-0.1,0.9-0.1,1.4,0.1l0.5,0.2c0.5,0.2,0.9,0.5,1.1,0.9
			c0.3,0.4,0.3,0.8,0.2,1.2l-2.2,5.9l-1.7-0.6l2-5.3l-1-0.4l-1.4,3.8c-0.2,0.4-0.5,0.7-0.9,0.8c-0.4,0.2-0.8,0.2-1.3,0l-0.8-0.3
			c-0.5-0.2-0.9-0.5-1.1-0.9c-0.3-0.4-0.3-0.8-0.2-1.2l2.2-5.8l1.6,0.6l-2,5.2L125.9,89.7z"/>
	</g>
</g>
<g>
	<g>
		<g>
			<path class="st0" d="M55.2,75.8H46l0.1-4.1h-5.7l-2.1,4.1h-9.2l9.8-16.4h6.5L41.4,55H54L55.2,75.8z M46.1,67.4l0.2-7.4l-3.8,7.4
				H46.1z"/>
		</g>
		<g>
			<path class="st0" d="M81.6,62.7c-1,3.9-3.5,5.8-7.4,5.8h-7.3l-2,7.3h-8.9L61.7,55h16.1c3,0,4.6,1.2,4.6,3.6
				c0,0.6-0.1,1.4-0.3,2.2L81.6,62.7z M72.9,61.8C73,61.5,73,61.2,73,61c0-1-0.8-1.5-2.4-1.5h-1.3L68.1,64h1.3
				C71.3,64,72.5,63.3,72.9,61.8z"/>
		</g>
		<g>
			<path class="st0" d="M108.1,59.5h-7.5l-4.4,16.3h-8.9l4.4-16.3h-7.5l1.2-4.5h24L108.1,59.5z"/>
		</g>
	</g>
	<g>
		<g>
			<path class="st0" d="M33.2,78.2l-1,0.4c-0.1-0.2-0.2-0.4-0.3-0.5c-0.1-0.1-0.3-0.1-0.5-0.1c-0.3,0-0.6,0.1-0.8,0.2
				c-0.2,0.1-0.4,0.3-0.5,0.5c-0.1,0.3,0.1,0.5,0.5,0.7l0.6,0.2c0.5,0.2,0.8,0.4,1,0.7c0.2,0.3,0.2,0.6,0,1c-0.2,0.5-0.6,1-1.1,1.3
				c-0.6,0.4-1.2,0.5-1.8,0.5c-0.6,0-1-0.2-1.3-0.5c-0.3-0.3-0.3-0.7-0.2-1.3l1.1-0.2c-0.1,0.3-0.1,0.6,0,0.7
				c0.1,0.3,0.4,0.4,0.8,0.4c0.3,0,0.6-0.1,0.9-0.3c0.3-0.2,0.5-0.4,0.6-0.7c0-0.1,0.1-0.2,0.1-0.3c0-0.1,0-0.2-0.1-0.3
				c0-0.1-0.1-0.2-0.2-0.2c-0.1-0.1-0.2-0.1-0.4-0.2l-0.6-0.2c-0.8-0.3-1.1-0.8-0.9-1.5c0.2-0.4,0.5-0.8,1-1.1
				c0.5-0.3,1.1-0.4,1.6-0.4C32.5,77.3,33,77.6,33.2,78.2z"/>
		</g>
		<g>
			<path class="st0" d="M41.5,80.8l-0.9,2.4h-1l2.2-5.8h1.2c0.6,0,1,0,1.3,0.1c0.3,0.1,0.5,0.2,0.6,0.4c0.3,0.3,0.3,0.7,0.1,1.2
				c-0.2,0.5-0.6,1-1.1,1.3c-0.5,0.3-1.2,0.5-1.9,0.5H41.5z M41.8,80h0.4c1,0,1.5-0.3,1.8-0.9c0.2-0.6-0.1-0.9-1.1-0.9h-0.3L41.8,80
				z"/>
		</g>
		<g>
			<path class="st0" d="M52,80.3c0.3-0.8,0.9-1.5,1.9-2.1c0.9-0.6,1.9-0.9,2.9-0.9c1,0,1.7,0.3,2.2,0.9c0.5,0.6,0.6,1.3,0.2,2.1
				c-0.3,0.8-0.9,1.6-1.9,2.1c-0.9,0.6-1.9,0.9-2.9,0.9c-0.9,0-1.6-0.3-2.1-0.8C51.7,82,51.6,81.2,52,80.3z M53,80.3
				c-0.2,0.6-0.2,1.2,0.2,1.6c0.3,0.4,0.9,0.6,1.5,0.6c0.7,0,1.4-0.2,2.1-0.6c0.7-0.4,1.1-1,1.3-1.6c0.2-0.6,0.2-1.1-0.1-1.6
				c-0.3-0.4-0.8-0.6-1.6-0.6c-0.7,0-1.4,0.2-2.1,0.6C53.7,79.1,53.2,79.7,53,80.3z"/>
		</g>
		<g>
			<path class="st0" d="M69.4,80.7l1.2,2.5h-1.3l-1.1-2.4H68l-0.9,2.4h-1l2.2-5.8h1.2c0.9,0,1.5,0.1,1.8,0.4
				c0.3,0.3,0.4,0.7,0.2,1.3c-0.2,0.4-0.4,0.8-0.8,1.1C70.3,80.5,69.9,80.6,69.4,80.7z M68.3,80.1h0.3c1,0,1.6-0.3,1.8-1
				c0.2-0.6-0.1-0.9-1.1-0.9H69L68.3,80.1z"/>
		</g>
		<g>
			<path class="st0" d="M82.1,78.2l-1.9,5h-1l1.9-5h-1.6l0.3-0.8H84l-0.3,0.8H82.1z"/>
		</g>
		<g>
			<path class="st0" d="M95.2,78.2l-1,0.4c-0.1-0.2-0.2-0.4-0.3-0.5c-0.1-0.1-0.3-0.1-0.5-0.1c-0.3,0-0.6,0.1-0.8,0.2
				c-0.2,0.1-0.4,0.3-0.5,0.5c-0.1,0.3,0.1,0.5,0.5,0.7l0.6,0.2c0.5,0.2,0.8,0.4,1,0.7c0.2,0.3,0.2,0.6,0,1c-0.2,0.5-0.6,1-1.1,1.3
				c-0.6,0.4-1.2,0.5-1.8,0.5c-0.6,0-1-0.2-1.3-0.5c-0.3-0.3-0.3-0.7-0.2-1.3l1.1-0.2c-0.1,0.3-0.1,0.6,0,0.7
				c0.1,0.3,0.4,0.4,0.8,0.4c0.3,0,0.6-0.1,0.9-0.3c0.3-0.2,0.5-0.4,0.6-0.7c0-0.1,0.1-0.2,0.1-0.3c0-0.1,0-0.2-0.1-0.3
				c0-0.1-0.1-0.2-0.2-0.2c-0.1-0.1-0.2-0.1-0.4-0.2l-0.6-0.2c-0.8-0.3-1.1-0.8-0.9-1.5c0.2-0.4,0.5-0.8,1-1.1
				c0.5-0.3,1.1-0.4,1.6-0.4C94.5,77.3,95,77.6,95.2,78.2z"/>
		</g>
	</g>
	<g>
		<g>
			<path class="st0" d="M98.4,77.6h-0.8l0.1-0.3h1.9l-0.1,0.3h-0.8L98.3,80H98L98.4,77.6z"/>
		</g>
		<g>
			<path class="st0" d="M101.6,80l0.2-1.4c0-0.3,0.1-0.6,0.1-0.9h0c-0.1,0.3-0.3,0.6-0.4,0.9l-0.8,1.5h-0.3l-0.2-1.4
				c0-0.3-0.1-0.6-0.1-0.9h0c-0.1,0.2-0.1,0.7-0.2,0.9L99.6,80h-0.3l0.7-2.7h0.4l0.2,1.5c0,0.2,0.1,0.5,0.1,0.7h0
				c0.1-0.2,0.2-0.4,0.3-0.7l0.8-1.5h0.4L102,80H101.6z"/>
		</g>
	</g>
</g>
<g>
	<g>
		<polygon class="st0" points="137,106.8 119.4,102.5 115.5,115.4 106.9,119.2 133.2,125.6 127.2,113.8 		"/>
	</g>
</g>
<g>
	<g>
		<polygon class="st0" points="21,115.4 17.1,102.6 0,106.8 9.8,113.8 3.8,125.6 30.1,119.2 		"/>
	</g>
</g>
<g>
	<path class="st0" d="M92.6,96.8c-0.1-0.1-0.2-0.1-0.4-0.1c-0.2,0-0.3,0-0.5-0.1c-0.1,0.8-0.1,1.2-0.2,2c0.2,0,0.3,0,0.6,0.1
		c0.2,0,0.3,0,0.4,0c0.1,0,0.2-0.1,0.3-0.2c0.1-0.1,0.1-0.2,0.1-0.3c0-0.1,0.1-0.3,0.1-0.4c0-0.2,0-0.3,0-0.4c0-0.1,0-0.2-0.1-0.3
		C92.8,96.9,92.7,96.8,92.6,96.8z"/>
	<path class="st0" d="M88.2,97.2c-0.3,0.9-0.4,1.4-0.7,2.3c0.4,0,0.6,0.1,1,0.1C88.3,98.7,88.3,98.2,88.2,97.2
		C88.2,97.2,88.2,97.2,88.2,97.2z"/>
	<path class="st0" d="M96.1,98.2c-0.3,0.9-0.5,1.4-0.8,2.3c0.4,0.1,0.6,0.1,1,0.1C96.2,99.6,96.2,99.1,96.1,98.2
		C96.1,98.2,96.1,98.2,96.1,98.2z"/>
	<path class="st0" d="M33.9,102.5c-0.1,0-0.1-0.1-0.2,0c-0.1,0-0.1,0-0.2,0.1c0,0.1-0.1,0.1,0,0.2c0,0.2,0,0.3,0.1,0.5
		c0,0.1,0,0.1,0.1,0.2c0.1,0,0.1,0.1,0.2,0c0.1,0,0.1,0,0.2-0.1c0-0.1,0.1-0.1,0-0.2c0-0.2,0-0.3-0.1-0.5
		C34,102.6,34,102.6,33.9,102.5z"/>
	<path class="st0" d="M31.6,98.2c-0.1,0-0.1,0-0.2,0c-0.1,0-0.1,0-0.2,0.1c0,0.1-0.1,0.1,0,0.2c0,0.2,0.1,0.3,0.1,0.5
		c0,0.1,0,0.1,0.1,0.2c0.1,0,0.1,0,0.2,0c0.1,0,0.1,0,0.2-0.1c0-0.1,0.1-0.1,0-0.2c0-0.2-0.1-0.3-0.1-0.5
		C31.7,98.3,31.6,98.3,31.6,98.2z"/>
	<path class="st0" d="M41.7,98c-0.1,1-0.1,1.5-0.2,2.4c0.4-0.1,0.6-0.1,1-0.1C42.1,99.4,42,98.9,41.7,98C41.7,98,41.7,98,41.7,98z"
		/>
	<path class="st0" d="M70.1,95.3c-0.2,0-0.3,0.1-0.5,0.2c-0.1,0.1-0.2,0.3-0.2,0.5c0,1.4,0,2.1,0,3.5c0,0.2,0.1,0.4,0.2,0.5
		c0.1,0.1,0.3,0.2,0.5,0.2c0.2,0,0.3-0.1,0.5-0.2c0.1-0.1,0.2-0.3,0.2-0.5c0-1.4,0-2.1,0-3.5c0-0.2-0.1-0.4-0.2-0.5
		C70.5,95.3,70.3,95.3,70.1,95.3z"/>
	<path class="st0" d="M57.1,96.6c-0.1,1-0.2,1.4-0.3,2.4c0.4,0,0.6,0,1-0.1C57.5,98,57.3,97.5,57.1,96.6
		C57.1,96.6,57.1,96.6,57.1,96.6z"/>
	<path class="st0" d="M117.9,95.1c-0.7-0.2-18-6.4-49.7-6.4c-31.6,0-49,6.2-49.7,6.4l-2.8,1.1l5.5,18.3c0.6-0.2,18.8-6.6,46.9-6.6
		c28.1,0,46.3,6.4,46.9,6.6l5.5-18.3L117.9,95.1z M22.8,106.2c-0.5-2.2-0.8-3.3-1.3-5.5c-0.3,0.4-0.5,0.5-0.8,0.9
		c-0.1-0.4-0.1-0.6-0.2-1c0.3-0.4,0.5-0.5,0.8-0.9c0.4-0.1,0.6-0.1,1-0.2c0.6,2.6,0.9,3.9,1.5,6.4C23.3,106.1,23.2,106.1,22.8,106.2
		z M27.6,104.4c0,0.2-0.1,0.4-0.2,0.5c-0.1,0.1-0.2,0.3-0.4,0.4c-0.2,0.1-0.3,0.2-0.5,0.2c-0.2,0-0.4,0-0.5,0
		c-0.2,0-0.4-0.1-0.5-0.2c-0.2-0.1-0.3-0.2-0.4-0.4c-0.1-0.2-0.2-0.3-0.2-0.6c-0.3-1.5-0.5-2.3-0.8-3.8c0-0.2-0.1-0.4,0-0.6
		c0-0.2,0.1-0.4,0.2-0.5c0.1-0.2,0.2-0.3,0.4-0.4c0.2-0.1,0.3-0.2,0.5-0.2c0.2,0,0.4,0,0.6,0c0.2,0,0.4,0.1,0.5,0.2
		c0.2,0.1,0.3,0.2,0.4,0.4c0.1,0.2,0.2,0.3,0.2,0.6c0.3,1.5,0.5,2.3,0.8,3.8C27.7,104,27.7,104.2,27.6,104.4z M31.1,103.7
		c0,0.2-0.1,0.4-0.2,0.5c-0.1,0.1-0.2,0.3-0.4,0.4c-0.2,0.1-0.3,0.2-0.5,0.2c-0.2,0-0.4,0-0.5,0c-0.2,0-0.4-0.1-0.5-0.2
		c-0.2-0.1-0.3-0.2-0.4-0.4c-0.1-0.2-0.2-0.3-0.2-0.6c-0.3-1.5-0.5-2.3-0.8-3.8c0-0.2,0-0.4,0-0.6c0-0.2,0.1-0.4,0.2-0.5
		c0.1-0.1,0.2-0.3,0.4-0.4c0.2-0.1,0.3-0.2,0.5-0.2c0.2,0,0.4,0,0.6,0c0.2,0,0.4,0.1,0.5,0.2c0.2,0.1,0.3,0.2,0.4,0.4
		c0.1,0.2,0.2,0.3,0.2,0.6c0.3,1.5,0.4,2.3,0.7,3.8C31.1,103.3,31.1,103.5,31.1,103.7z M31.1,99.6c-0.2-0.1-0.3-0.3-0.3-0.5
		c0-0.2-0.1-0.4-0.1-0.6c0-0.2,0-0.4,0.1-0.6c0.1-0.2,0.3-0.3,0.6-0.3c0.2,0,0.5,0,0.6,0.1c0.2,0.1,0.3,0.3,0.3,0.5
		c0,0.2,0.1,0.4,0.1,0.6c0,0.2,0,0.4-0.1,0.5c-0.1,0.2-0.3,0.3-0.6,0.3C31.4,99.7,31.2,99.7,31.1,99.6z M31.8,104.3
		c0.4-2.8,0.6-4.1,1.1-6.9c0.3,0,0.4-0.1,0.6-0.1c-0.5,2.8-0.7,4.1-1.1,6.9C32.2,104.3,32.1,104.3,31.8,104.3z M34.6,103.7
		c-0.1,0.2-0.3,0.2-0.5,0.3c-0.2,0-0.4,0-0.6-0.1c-0.2-0.1-0.3-0.3-0.3-0.5c0-0.2-0.1-0.4-0.1-0.6c0-0.2,0-0.4,0.1-0.6
		c0.1-0.2,0.3-0.3,0.5-0.3c0.2,0,0.4,0,0.6,0.1c0.2,0.1,0.3,0.3,0.3,0.5c0,0.2,0.1,0.4,0.1,0.6C34.7,103.4,34.7,103.6,34.6,103.7z
		 M39.9,101.9c0,0.2-0.1,0.5-0.2,0.6c-0.1,0.2-0.3,0.3-0.4,0.5c-0.2,0.1-0.4,0.2-0.7,0.3c-0.2,0-0.4,0-0.7,0c-0.2,0-0.4-0.1-0.6-0.2
		c-0.2-0.1-0.3-0.3-0.4-0.4c-0.1-0.2-0.2-0.4-0.2-0.6c0-0.1,0-0.2-0.1-0.3c0.4-0.1,0.6-0.1,1-0.2c0,0.1,0,0.2,0,0.3
		c0,0.2,0.1,0.3,0.2,0.4c0.1,0.1,0.3,0.2,0.5,0.1c0.2,0,0.3-0.1,0.4-0.1c0.1-0.1,0.1-0.1,0.2-0.2c0-0.1,0-0.2,0-0.3
		c0-0.1,0-0.3,0-0.4c0-0.2-0.1-0.3-0.1-0.4c0-0.1-0.1-0.2-0.1-0.3c-0.1-0.1-0.1-0.1-0.2-0.1c-0.1,0-0.2-0.1-0.3-0.1
		c-0.3-0.1-0.4-0.1-0.7-0.2c-0.4-0.1-0.8-0.3-0.9-0.5c-0.2-0.2-0.3-0.6-0.4-1c0-0.2,0-0.5,0-0.7c0-0.2,0.1-0.4,0.2-0.6
		c0.1-0.2,0.3-0.3,0.5-0.5c0.2-0.1,0.4-0.2,0.7-0.3c0.2,0,0.5,0,0.7,0c0.2,0.1,0.4,0.1,0.6,0.3c0.2,0.1,0.3,0.3,0.4,0.4
		c0.1,0.2,0.2,0.3,0.2,0.5c0,0.2,0,0.3,0.1,0.5c-0.4,0.1-0.6,0.1-1,0.1c0-0.1,0-0.1,0-0.2c0-0.2-0.1-0.4-0.2-0.5
		c-0.1-0.1-0.3-0.2-0.6-0.2c-0.1,0-0.2,0.1-0.3,0.1c-0.1,0.1-0.1,0.1-0.2,0.2c0,0.1-0.1,0.2-0.1,0.3c0,0.1,0,0.2,0,0.3
		c0,0.1,0,0.2,0.1,0.3c0,0.1,0.1,0.2,0.1,0.2c0,0.1,0.1,0.1,0.2,0.1c0.1,0,0.2,0.1,0.3,0.1c0.3,0.1,0.5,0.1,0.8,0.2
		c0.2,0,0.4,0.1,0.6,0.2c0.1,0.1,0.3,0.2,0.4,0.3c0.1,0.1,0.2,0.3,0.2,0.5c0.1,0.2,0.1,0.4,0.1,0.6
		C39.9,101.4,39.9,101.6,39.9,101.9z M43.2,102.6c-0.2-0.5-0.3-0.8-0.5-1.4c-0.5,0.1-0.8,0.1-1.3,0.2c0,0.6-0.1,0.9-0.1,1.4
		c-0.4,0.1-0.6,0.1-0.9,0.1c0.2-2.7,0.3-4.1,0.6-6.8c0.3,0,0.5-0.1,0.8-0.1c1,2.5,1.4,3.8,2.3,6.4C43.8,102.5,43.6,102.5,43.2,102.6
		z M45.7,102.3c-0.4,0-0.6,0.1-1,0.1c-0.3-2.3-0.4-3.4-0.7-5.7c-0.5,0.1-0.7,0.1-1.1,0.1c0-0.4-0.1-0.5-0.1-0.9
		c1.3-0.2,2-0.2,3.3-0.4c0,0.4,0.1,0.5,0.1,0.9c-0.5,0-0.7,0.1-1.1,0.1C45.3,98.9,45.4,100,45.7,102.3z M47.2,102.1
		c-0.3-2.6-0.4-3.9-0.7-6.6c0.4,0,0.6-0.1,1-0.1c0.3,2.6,0.4,3.9,0.7,6.6C47.8,102,47.6,102,47.2,102.1z M52,100.5
		c0,0.2-0.1,0.5-0.2,0.6c-0.1,0.2-0.3,0.3-0.5,0.4c-0.2,0.1-0.5,0.2-0.8,0.2c-0.2,0-0.4,0-0.7-0.1c-0.2-0.1-0.4-0.2-0.5-0.3
		c-0.2-0.1-0.3-0.3-0.4-0.5c-0.1-0.2-0.2-0.4-0.2-0.6c0-0.1,0-0.2,0-0.4c0.4,0,0.6-0.1,1-0.1c0,0.1,0,0.2,0,0.3
		c0,0.2,0.1,0.3,0.2,0.5c0.1,0.1,0.3,0.2,0.5,0.2c0.2,0,0.3,0,0.4-0.1c0.1-0.1,0.1-0.1,0.2-0.2c0-0.1,0.1-0.2,0.1-0.3
		c0-0.1,0-0.3,0-0.4c0-0.2,0-0.3-0.1-0.4c0-0.1-0.1-0.2-0.1-0.3c0-0.1-0.1-0.1-0.2-0.2c-0.1,0-0.2-0.1-0.3-0.1
		c-0.3-0.1-0.4-0.1-0.7-0.2c-0.4-0.1-0.7-0.3-0.9-0.6c-0.2-0.3-0.3-0.6-0.3-1c0-0.2,0-0.5,0-0.7c0-0.2,0.1-0.4,0.3-0.6
		c0.1-0.2,0.3-0.3,0.5-0.4c0.2-0.1,0.4-0.2,0.7-0.2c0.2,0,0.5,0,0.7,0.1c0.2,0.1,0.4,0.2,0.5,0.3c0.2,0.1,0.3,0.3,0.4,0.4
		c0.1,0.2,0.1,0.3,0.2,0.5c0,0.2,0,0.3,0,0.5c-0.4,0-0.6,0-1,0.1c0-0.1,0-0.1,0-0.2c0-0.2-0.1-0.4-0.2-0.5c-0.1-0.1-0.3-0.2-0.6-0.2
		c-0.1,0-0.2,0-0.3,0.1c-0.1,0.1-0.1,0.1-0.2,0.2c0,0.1-0.1,0.2-0.1,0.3c0,0.1,0,0.2,0,0.3c0,0.1,0,0.2,0,0.3c0,0.1,0,0.2,0.1,0.2
		c0,0.1,0.1,0.1,0.2,0.2c0.1,0,0.2,0.1,0.3,0.1c0.3,0.1,0.5,0.1,0.8,0.2c0.2,0.1,0.4,0.1,0.5,0.2c0.1,0.1,0.3,0.2,0.3,0.4
		c0.1,0.1,0.1,0.3,0.2,0.5c0,0.2,0.1,0.4,0.1,0.6C52.1,100,52.1,100.3,52,100.5z M53.6,97.8c0.7,0,1-0.1,1.7-0.1
		c0,0.4,0,0.5,0.1,0.9c-0.7,0-1,0.1-1.7,0.1c0.1,1.1,0.1,1.7,0.2,2.8c-0.4,0-0.6,0-1,0.1c-0.2-2.6-0.3-4-0.5-6.6
		c1.2-0.1,1.8-0.1,2.9-0.2c0,0.4,0,0.5,0.1,0.9c-0.8,0-1.2,0.1-1.9,0.1C53.5,96.6,53.5,97,53.6,97.8z M58.3,101.2
		c-0.1-0.6-0.2-0.8-0.4-1.4c-0.5,0-0.8,0-1.3,0.1c-0.1,0.6-0.1,0.9-0.2,1.4c-0.4,0-0.6,0-1,0.1c0.4-2.7,0.6-4,1.1-6.7
		c0.3,0,0.5,0,0.8,0c0.8,2.6,1.1,3.9,1.8,6.5C58.9,101.2,58.7,101.2,58.3,101.2z M62.6,100.2c-0.1,0.2-0.2,0.4-0.3,0.5
		c-0.1,0.1-0.3,0.3-0.5,0.3c-0.2,0.1-0.4,0.1-0.6,0.1c-0.2,0-0.4,0-0.6-0.1c-0.2,0-0.4-0.1-0.5-0.2c-0.2-0.1-0.3-0.3-0.4-0.5
		c-0.1-0.2-0.2-0.4-0.2-0.7c-0.1-1.5-0.1-2.2-0.2-3.6c0-0.2,0-0.4,0.1-0.6c0.1-0.2,0.2-0.4,0.3-0.5c0.1-0.1,0.3-0.3,0.5-0.3
		c0.2-0.1,0.4-0.1,0.6-0.1c0.2,0,0.4,0,0.6,0.1c0.2,0.1,0.4,0.2,0.5,0.3c0.1,0.1,0.3,0.3,0.3,0.5c0.1,0.2,0.1,0.4,0.1,0.6
		c0,0.1,0,0.2,0,0.4c-0.4,0-0.6,0-1,0c0-0.1,0-0.2,0-0.3c0-0.2-0.1-0.3-0.2-0.5c-0.1-0.1-0.3-0.2-0.4-0.2c-0.2,0-0.4,0.1-0.5,0.2
		c-0.1,0.1-0.1,0.3-0.1,0.6c0.1,1.4,0.1,2,0.1,3.4c0,0.2,0.1,0.4,0.1,0.5c0.1,0.1,0.2,0.2,0.5,0.2c0.1,0,0.1,0,0.2,0
		c0.1,0,0.1-0.1,0.2-0.1c0.1-0.1,0.1-0.1,0.1-0.2c0-0.1,0-0.2,0-0.3c0-0.1,0-0.2,0-0.3c0.4,0,0.6,0,1,0c0,0.2,0,0.2,0,0.4
		C62.7,99.8,62.7,100,62.6,100.2z M65.1,101c-0.4,0-0.6,0-1,0c0-2.3-0.1-3.4-0.1-5.7c-0.5,0-0.7,0-1.1,0c0-0.4,0-0.5,0-0.9
		c1.3,0,2,0,3.3-0.1c0,0.4,0,0.5,0,0.9c-0.5,0-0.7,0-1.1,0C65,97.6,65.1,98.7,65.1,101z M66.7,101c0-2.6,0-4-0.1-6.6
		c0.4,0,0.6,0,1,0c0,2.6,0,4,0,6.6C67.2,101,67,101,66.7,101z M71.7,99.4c0,0.3-0.1,0.5-0.2,0.7c-0.1,0.2-0.2,0.4-0.4,0.5
		c-0.2,0.1-0.3,0.2-0.5,0.3c-0.2,0.1-0.4,0.1-0.6,0.1c-0.2,0-0.4,0-0.6-0.1c-0.2-0.1-0.4-0.2-0.5-0.3c-0.2-0.1-0.3-0.3-0.4-0.5
		c-0.1-0.2-0.1-0.4-0.1-0.7c0-1.4,0-2.1,0-3.5c0-0.3,0-0.5,0.1-0.7c0.1-0.2,0.2-0.4,0.4-0.5c0.2-0.1,0.3-0.2,0.5-0.3
		c0.2-0.1,0.4-0.1,0.6-0.1c0.2,0,0.4,0,0.6,0.1c0.2,0.1,0.4,0.2,0.5,0.3c0.2,0.1,0.3,0.3,0.4,0.5c0.1,0.2,0.1,0.4,0.1,0.7
		C71.7,97.3,71.7,98,71.7,99.4z M75.8,101.1c-0.4,0-0.5,0-0.9,0c-0.5-1.6-0.8-2.4-1.4-4c0,0,0,0,0,0c0,1.6-0.1,2.4-0.1,4
		c-0.4,0-0.6,0-1,0c0.1-2.6,0.1-4,0.1-6.6c0.4,0,0.6,0,0.9,0c0.6,1.6,0.8,2.4,1.4,4c0,0,0,0,0,0c0.1-1.6,0.1-2.4,0.1-4
		c0.4,0,0.6,0,1,0C76,97.1,75.9,98.5,75.8,101.1z M81.9,96.4c0,0.1,0,0.2,0,0.3c-0.4,0-0.6,0-1-0.1c0-0.1,0-0.2,0-0.3
		c0-0.2,0-0.4-0.2-0.5s-0.3-0.2-0.5-0.2c-0.2,0-0.3,0-0.5,0.1c-0.1,0.1-0.2,0.3-0.2,0.5c-0.1,1.4-0.1,2.1-0.2,3.5
		c0,0.2,0,0.4,0.2,0.5c0.1,0.1,0.3,0.2,0.4,0.2c0.2,0,0.3,0,0.5-0.1c0.1-0.1,0.2-0.3,0.2-0.5c0-0.5,0-0.7,0.1-1.2
		c-0.3,0-0.5,0-0.8,0c0-0.3,0-0.5,0-0.8c0.7,0,1,0.1,1.7,0.1c-0.1,0.8-0.1,1.2-0.1,2.1c0,0.3-0.1,0.5-0.2,0.7
		c-0.1,0.2-0.2,0.4-0.4,0.5c-0.2,0.1-0.3,0.2-0.5,0.3c-0.2,0.1-0.4,0.1-0.6,0.1c-0.2,0-0.4-0.1-0.6-0.1c-0.2-0.1-0.4-0.2-0.5-0.3
		c-0.1-0.1-0.3-0.3-0.3-0.5c-0.1-0.2-0.1-0.4-0.1-0.7c0.1-1.4,0.1-2.1,0.2-3.5c0-0.3,0.1-0.5,0.2-0.7c0.1-0.2,0.2-0.4,0.4-0.5
		c0.2-0.1,0.3-0.2,0.5-0.3c0.2-0.1,0.4-0.1,0.6-0.1c0.2,0,0.4,0.1,0.6,0.1c0.2,0.1,0.4,0.2,0.5,0.3c0.1,0.1,0.3,0.3,0.3,0.5
		C81.9,95.9,81.9,96.1,81.9,96.4z M85.5,100.8c-0.1,0.2-0.2,0.3-0.4,0.5c-0.2,0.1-0.3,0.2-0.5,0.3c-0.2,0.1-0.4,0.1-0.6,0.1
		c-0.2,0-0.4-0.1-0.6-0.2c-0.2-0.1-0.3-0.2-0.5-0.4c-0.1-0.1-0.2-0.3-0.3-0.5c-0.1-0.2-0.1-0.4-0.1-0.6c0.1-2,0.2-3.1,0.4-5.1
		c0.4,0,0.6,0,1,0.1c-0.2,2-0.2,3-0.4,5c0,0.2,0,0.4,0.1,0.5c0.1,0.1,0.2,0.2,0.4,0.2c0.2,0,0.3,0,0.4-0.1c0.1-0.1,0.2-0.3,0.2-0.5
		c0.2-2,0.2-3,0.4-5c0.4,0,0.6,0,1,0.1c-0.2,2-0.3,3.1-0.4,5.1C85.6,100.4,85.6,100.6,85.5,100.8z M88.7,102
		c-0.1-0.6-0.1-0.9-0.1-1.4c-0.5-0.1-0.8-0.1-1.3-0.1c-0.2,0.6-0.2,0.8-0.4,1.4c-0.4,0-0.6-0.1-1-0.1c0.8-2.6,1.2-3.9,2.1-6.4
		c0.3,0,0.5,0,0.8,0.1c0.4,2.7,0.5,4,0.8,6.7C89.2,102.1,89,102,88.7,102z M93.5,102.6c-0.4-0.1-0.6-0.1-1-0.1
		c-0.2-1.2-0.3-1.7-0.6-2.9c-0.2,0-0.3,0-0.6-0.1c-0.1,1.1-0.2,1.7-0.3,2.8c-0.4,0-0.6-0.1-1-0.1c0.3-2.6,0.4-3.9,0.7-6.6
		c0.6,0.1,0.9,0.1,1.6,0.2c1.2,0.1,1.7,0.9,1.5,2.1c0,0.4-0.2,0.7-0.3,1c-0.2,0.3-0.4,0.5-0.7,0.6C93.1,100.7,93.2,101.3,93.5,102.6
		z M96.4,102.9c0-0.6,0-0.9-0.1-1.4c-0.5-0.1-0.8-0.1-1.3-0.2c-0.2,0.5-0.3,0.8-0.5,1.4c-0.4-0.1-0.6-0.1-0.9-0.1
		c0.9-2.5,1.4-3.8,2.4-6.4c0.3,0,0.5,0.1,0.8,0.1c0.2,2.7,0.4,4.1,0.6,6.8C97,103,96.8,103,96.4,102.9z M101.1,103.7
		c-0.4-0.1-0.5-0.1-0.9-0.1c-0.3-1.7-0.5-2.5-0.8-4.2c0,0,0,0,0,0c-0.2,1.6-0.4,2.4-0.6,3.9c-0.4-0.1-0.6-0.1-0.9-0.1
		c0.4-2.6,0.6-3.9,1-6.5c0.4,0.1,0.6,0.1,0.9,0.1c0.3,1.7,0.5,2.5,0.8,4.2c0,0,0,0,0,0c0.3-1.6,0.4-2.4,0.6-3.9
		c0.4,0.1,0.6,0.1,1,0.2C101.8,99.8,101.5,101.1,101.1,103.7z M103.5,104.1c-0.4-0.1-0.6-0.1-0.9-0.2c0.4-2.3,0.6-3.4,1-5.6
		c-0.4-0.1-0.7-0.1-1.1-0.2c0.1-0.4,0.1-0.5,0.1-0.9c1.3,0.2,1.9,0.3,3.2,0.6c-0.1,0.4-0.1,0.5-0.2,0.9c-0.4-0.1-0.7-0.1-1.1-0.2
		C104.1,100.7,103.9,101.8,103.5,104.1z M108.2,102c-0.7-0.1-1-0.2-1.6-0.3c-0.1,0.8-0.2,1.1-0.4,1.9c0.8,0.1,1.1,0.2,1.9,0.4
		c-0.1,0.4-0.1,0.6-0.2,0.9c-1.1-0.2-1.7-0.3-2.8-0.5c0.5-2.6,0.7-3.9,1.2-6.5c1.2,0.2,1.7,0.3,2.9,0.6c-0.1,0.3-0.1,0.5-0.2,0.9
		c-0.8-0.2-1.2-0.2-1.9-0.4c-0.1,0.8-0.2,1.1-0.4,1.9c0.7,0.1,1,0.2,1.7,0.3C108.3,101.5,108.2,101.7,108.2,102z M111.6,102.8
		c-0.7-0.1-1-0.2-1.6-0.4c-0.2,0.8-0.2,1.1-0.4,1.9c0.7,0.2,1.1,0.2,1.9,0.4c-0.1,0.4-0.1,0.6-0.2,0.9c-1.1-0.2-1.7-0.4-2.8-0.6
		c0.5-2.6,0.8-3.9,1.3-6.5c1.2,0.2,1.7,0.4,2.9,0.6c-0.1,0.3-0.1,0.5-0.2,0.9c-0.8-0.2-1.1-0.3-1.9-0.4c-0.2,0.8-0.2,1.1-0.4,1.9
		c0.7,0.1,1,0.2,1.7,0.4C111.7,102.2,111.7,102.4,111.6,102.8z M116,101.7c-0.3,1.2-0.4,1.8-0.7,3c-0.1,0.6-0.4,1-0.8,1.2
		c-0.4,0.2-0.8,0.3-1.4,0.1c-0.5-0.1-0.8-0.2-1.3-0.3c0.6-2.6,0.9-3.9,1.4-6.4c0.6,0.1,0.9,0.2,1.4,0.3c0.6,0.1,0.9,0.4,1.2,0.7
		C116.1,100.7,116.2,101.2,116,101.7z"/>
	<path class="st0" d="M114.5,100.5c-0.2,0-0.3-0.1-0.4-0.1c-0.4,1.9-0.6,2.8-1.1,4.7c0.2,0,0.3,0.1,0.4,0.1c0.3,0.1,0.5,0,0.6-0.1
		c0.1-0.1,0.2-0.3,0.3-0.6c0.3-1.2,0.4-1.9,0.7-3.1c0.1-0.3,0.1-0.5,0-0.6C115,100.7,114.8,100.6,114.5,100.5z"/>
	<path class="st0" d="M25.9,100.2c0-0.1-0.1-0.2-0.2-0.3c-0.1-0.1-0.2-0.1-0.4-0.1c-0.1,0-0.2,0.1-0.3,0.2c-0.1,0.1-0.1,0.2-0.1,0.4
		c0.3,1.5,0.5,2.3,0.8,3.8c0,0.1,0.1,0.2,0.2,0.3c0.1,0.1,0.2,0.1,0.4,0.1c0.1,0,0.2-0.1,0.3-0.2c0.1-0.1,0.1-0.2,0.1-0.4
		C26.3,102.5,26.2,101.7,25.9,100.2z"/>
	<path class="st0" d="M29.4,99.5c0-0.1-0.1-0.2-0.2-0.3c-0.1-0.1-0.2-0.1-0.4-0.1c-0.1,0-0.2,0.1-0.3,0.2c-0.1,0.1-0.1,0.2-0.1,0.4
		c0.3,1.5,0.5,2.3,0.8,3.8c0,0.1,0.1,0.2,0.2,0.3c0.1,0.1,0.2,0.1,0.4,0.1c0.1,0,0.2-0.1,0.3-0.2c0.1-0.1,0.1-0.2,0.1-0.4
		C29.8,101.7,29.7,101,29.4,99.5z"/>
</g>
<g>
	<g>
		<path class="st0" d="M31.1,45.7c0.4-0.5,0.6-0.8,1-1.3c2.4,1,3.6,1.5,5.8,2.6c-0.3,0.4-0.5,0.6-0.8,0.9c-0.5-0.2-0.7-0.4-1.2-0.6
			c-0.4,0.5-0.6,0.8-0.9,1.3c0.4,0.4,0.5,0.6,0.9,1c-0.3,0.4-0.4,0.6-0.7,1C33.6,48.6,32.7,47.7,31.1,45.7z M34.4,47.8
			c0.3-0.4,0.4-0.6,0.7-1c-1-0.5-1.5-0.7-2.6-1.2c0,0,0,0,0,0C33.2,46.5,33.6,46.9,34.4,47.8z"/>
		<path class="st0" d="M37.5,44.5c0.1,0,0.1,0.1,0.1,0.1c0.4,0.4,0.8,0.5,1.2,0.1c0.2-0.3,0.3-0.7-0.1-1c-0.4-0.4-0.7-0.4-1.5,0
			c-1,0.5-1.7,0.6-2.5,0c-0.9-0.8-0.9-1.8,0-2.7c0.8-0.9,1.7-1.1,2.6-0.2c0,0,0.1,0.1,0.1,0.1c-0.3,0.3-0.5,0.5-0.8,0.8
			c-0.4-0.4-0.8-0.5-1.1-0.1c-0.4,0.4-0.2,0.8,0,1c0.3,0.3,0.5,0.3,1.1,0.1c0.4-0.2,0.6-0.2,1-0.4c0.9-0.4,1.4-0.2,2,0.4
			c0.9,0.9,0.8,1.8,0,2.7c-0.9,0.9-1.7,0.9-2.6,0.2c-0.1-0.1-0.1-0.1-0.2-0.2C37.1,45,37.2,44.8,37.5,44.5z"/>
		<path class="st0" d="M40.7,41.3c0,0.1,0.1,0.1,0.1,0.1c0.4,0.4,0.7,0.6,1.2,0.2c0.3-0.2,0.4-0.6,0-1c-0.4-0.4-0.7-0.4-1.5-0.1
			c-1,0.4-1.7,0.4-2.4-0.3c-0.8-0.9-0.7-1.9,0.2-2.6c0.9-0.7,1.8-0.9,2.5,0.1c0,0.1,0.1,0.1,0.1,0.1c-0.4,0.3-0.5,0.4-0.9,0.7
			c-0.4-0.4-0.7-0.6-1.1-0.3c-0.4,0.4-0.3,0.7-0.1,1c0.3,0.3,0.5,0.4,1,0.2c0.4-0.1,0.6-0.2,1-0.3c1-0.3,1.4,0,1.9,0.6
			c0.8,1,0.6,1.9-0.3,2.7c-0.9,0.8-1.7,0.7-2.5-0.1c-0.1-0.1-0.1-0.1-0.2-0.2C40.2,41.8,40.4,41.6,40.7,41.3z"/>
		<path class="st0" d="M41.8,35c1,1.4,1.5,2.1,2.5,3.5c0.4,0.5,0.7,0.8,1.2,0.5c0.4-0.3,0.3-0.7-0.1-1.3c-1-1.4-1.4-2.2-2.4-3.6
			c0.4-0.3,0.6-0.4,1.1-0.7c0.9,1.5,1.4,2.2,2.3,3.7c0.8,1.3,0.3,2.1-0.4,2.6c-0.7,0.5-1.6,0.7-2.6-0.6c-1-1.4-1.6-2.1-2.6-3.4
			C41.2,35.4,41.4,35.3,41.8,35z"/>
		<path class="st0" d="M45,33c0.8-0.5,1.2-0.7,2-1.1c0.9-0.5,1.7-0.2,2.1,0.7c0.4,0.7,0.3,1.4-0.2,1.8c0,0,0,0,0,0
			c0.8-0.3,1.1,0.1,1.6,1.3c0.3,0.6,0.5,0.9,0.7,0.9c0,0,0,0,0,0c-0.4,0.2-0.6,0.3-1,0.5c-0.2-0.1-0.3-0.3-0.4-0.5
			c-0.2-0.4-0.3-0.6-0.6-1c-0.2-0.4-0.5-0.6-1-0.4c-0.2,0.1-0.3,0.2-0.5,0.3c0.5,0.9,0.8,1.4,1.3,2.3c-0.4,0.2-0.6,0.3-0.9,0.5
			C46.8,36.2,46.2,35.1,45,33z M47.3,34.7c0.2-0.1,0.3-0.1,0.4-0.2c0.5-0.3,0.7-0.6,0.4-1.2c-0.3-0.5-0.7-0.6-1.1-0.4
			c-0.2,0.1-0.3,0.2-0.5,0.3C46.8,33.8,47,34.1,47.3,34.7z"/>
		<path class="st0" d="M50.5,30.2c0.6-0.2,0.8-0.3,1.4-0.6c1.5,2.1,2.2,3.2,3.5,5.3c-0.4,0.1-0.6,0.2-1,0.4
			c-0.3-0.5-0.4-0.7-0.7-1.1c-0.5,0.2-0.8,0.3-1.3,0.5c0.1,0.5,0.2,0.8,0.3,1.3c-0.4,0.2-0.6,0.3-1,0.4C51.1,34,50.9,32.7,50.5,30.2
			z M52.1,33.7c0.4-0.2,0.6-0.2,1-0.4c-0.6-1-0.9-1.4-1.5-2.4c0,0,0,0,0,0C51.8,32,51.9,32.6,52.1,33.7z"/>
		<path class="st0" d="M55.4,28.5c1,1.5,1.5,2.2,2.5,3.7c0,0,0,0,0,0c-0.4-1.6-0.6-2.5-1-4.1c0.4-0.1,0.7-0.2,1.1-0.3
			c0.5,2.4,0.8,3.6,1.4,6c-0.5,0.1-0.7,0.2-1.2,0.3c-0.9-1.5-1.4-2.3-2.5-3.8c0,0,0,0,0,0c0.5,1.7,0.7,2.5,1.2,4.1
			c-0.4,0.1-0.6,0.2-0.9,0.3c-0.8-2.4-1.1-3.5-1.9-5.9C54.6,28.7,54.9,28.7,55.4,28.5z"/>
		<path class="st0" d="M61.9,29.3c-0.1-0.9-0.4-1.3-0.9-1.2c-0.6,0.1-0.6,0.7-0.3,2.5c0.3,1.8,0.6,2.1,1.1,2.1
			c0.4-0.1,0.6-0.3,0.4-1.6c0.4-0.1,0.7-0.1,1.1-0.1c0.1,1.3,0,2.5-1.4,2.7c-1.6,0.2-2-1-2.4-2.8c-0.4-1.8-0.4-3.2,1.4-3.5
			c1.7-0.3,2,1.1,2.1,1.9C62.6,29.2,62.3,29.2,61.9,29.3z"/>
		<path class="st0" d="M67.2,26.8c0,0.4,0,0.6,0,1c-0.8,0-1.3,0-2.1,0.1c0,0.6,0.1,0.9,0.1,1.4c0.8,0,1.1-0.1,1.9-0.1
			c0,0.4,0,0.6,0,1c-0.7,0-1.1,0-1.9,0.1c0,0.7,0.1,1,0.1,1.7c0.8-0.1,1.2-0.1,2-0.1c0,0.4,0,0.6,0,1c-1.2,0-1.8,0-3,0.2
			c-0.2-2.5-0.3-3.7-0.6-6.1C65.1,26.8,65.8,26.8,67.2,26.8z"/>
		<path class="st0" d="M72.3,26.9c1.8,0.2,1.9,1.6,1.6,3.4c-0.3,1.9-0.6,3.1-2.2,3c-1.6-0.1-1.7-1.5-1.6-3.3
			C70.2,28,70.5,26.7,72.3,26.9z M71.8,32.3c0.6,0.1,0.8-0.6,1-2.2c0.2-1.6,0.1-2.3-0.6-2.4c-0.7-0.1-0.9,0.6-1,2.2
			C71.1,31.6,71.1,32.3,71.8,32.3z"/>
		<path class="st0" d="M75.3,27.4c1.3,0.2,2,0.3,3.3,0.7c-0.1,0.4-0.1,0.6-0.2,1c-0.8-0.2-1.2-0.3-2.1-0.4c-0.1,0.6-0.2,0.9-0.3,1.4
			c0.8,0.1,1.1,0.2,1.9,0.4c-0.1,0.4-0.1,0.6-0.2,1c-0.7-0.2-1.1-0.3-1.8-0.4c-0.2,1.1-0.3,1.6-0.5,2.6c-0.4-0.1-0.6-0.1-1-0.2
			C74.7,31,74.9,29.8,75.3,27.4z"/>
		<path class="st0" d="M82.2,36.4c-0.1-0.4-0.2-0.6-0.3-0.9c-0.1,0-0.2,0-0.3,0c-0.1,0-0.2-0.1-0.4-0.1c-1.5-0.5-1.3-1.8-0.7-3.6
			c0.6-1.8,1.2-3,2.9-2.4c1.7,0.6,1.4,2,0.7,3.7c-0.4,1-0.8,1.7-1.3,2.2c0.1,0.3,0.2,0.5,0.3,0.8C82.7,36.2,82.6,36.3,82.2,36.4z
			 M81.6,34.5c0.6,0.2,0.9-0.3,1.5-1.9c0.6-1.5,0.7-2.2,0-2.4s-1,0.3-1.5,1.9C81.1,33.7,81,34.3,81.6,34.5z"/>
		<path class="st0" d="M87.3,31.1c-0.7,1.6-1.1,2.3-1.8,3.9c-0.3,0.6-0.3,1,0.1,1.2c0.5,0.2,0.8-0.1,1.1-0.7c0.8-1.5,1.2-2.3,2-3.8
			c0.4,0.2,0.7,0.3,1.1,0.6c-0.8,1.5-1.2,2.3-2.1,3.8c-0.8,1.4-1.7,1.4-2.5,1c-0.8-0.4-1.4-1-0.7-2.5c0.7-1.6,1-2.4,1.7-3.9
			C86.6,30.8,86.8,30.9,87.3,31.1z"/>
		<path class="st0" d="M91.6,33.4c0.5,0.3,0.8,0.5,1.3,0.8c-0.8,2.4-1.3,3.6-2.2,6c-0.4-0.3-0.6-0.4-0.9-0.6
			c0.2-0.5,0.3-0.7,0.5-1.2c-0.5-0.3-0.7-0.5-1.2-0.8c-0.4,0.4-0.5,0.6-0.9,1c-0.4-0.2-0.6-0.3-1-0.6C88.9,36.1,89.8,35.2,91.6,33.4
			z M89.7,36.8c0.4,0.2,0.6,0.4,0.9,0.6c0.4-1,0.6-1.6,1-2.6c0,0,0,0,0,0C90.9,35.5,90.5,35.9,89.7,36.8z"/>
		<path class="st0" d="M91.2,40.5c1.5-2,2.2-3,3.7-5c0.4,0.3,0.6,0.5,1,0.8c-1.3,1.6-1.9,2.4-3.2,4.1c0.6,0.5,0.9,0.7,1.5,1.3
			c-0.3,0.3-0.4,0.5-0.7,0.8C92.6,41.6,92.1,41.3,91.2,40.5z"/>
		<path class="st0" d="M94.1,43c1.7-1.8,2.5-2.8,4.1-4.6c0.4,0.3,0.6,0.5,0.9,0.9c-1.7,1.8-2.6,2.7-4.3,4.5
			C94.6,43.4,94.4,43.3,94.1,43z"/>
		<path class="st0" d="M102.6,42.9c-0.3,0.3-0.5,0.4-0.8,0.7c-0.4-0.4-0.5-0.6-0.9-1.1c-1.5,1.4-2.3,2.1-3.9,3.4
			c-0.3-0.3-0.5-0.5-0.8-0.8c1.5-1.4,2.3-2.1,3.8-3.5c-0.4-0.4-0.6-0.6-1-1c0.3-0.3,0.4-0.4,0.7-0.7C101,41,101.6,41.6,102.6,42.9z"
			/>
		<path class="st0" d="M103.8,44.4c-0.5,0.9-0.8,1.3-1.4,2.1c0,0,0,0,0,0c1-0.3,1.5-0.4,2.5-0.7c0.3,0.5,0.5,0.7,0.8,1.2
			c-1.6,0.2-2.4,0.4-4,0.7c-0.8,0.6-1.2,0.8-2,1.4c-0.3-0.4-0.4-0.6-0.7-0.9c0.8-0.6,1.2-0.9,1.9-1.5c0.8-1.4,1.2-2.1,1.9-3.6
			C103.3,43.7,103.5,44,103.8,44.4z"/>
	</g>
</g>
<path class="st0" d="M125.6,67.8c0.2-0.3,0.3-0.5,0-0.9c-1.1-1.5-2.3-3.1-3.4-4.7c-0.3-0.3-0.3-0.6-0.1-1c0.9-1.9,1.7-3.8,2.6-5.8
	c-1.6-1.4-3.1-2.9-4.7-4.3c-0.3-0.3-0.4-0.5-0.3-0.9c0.4-1.9,0.8-3.8,1.2-5.7c0.1-0.4,0-0.6-0.3-0.8c-1.7-1-3.4-2-5.1-3
	c-0.3-0.2-0.4-0.4-0.4-0.8c0-1.9,0-3.9,0-5.8c0-0.5-0.2-0.7-0.6-0.8c-1.8-0.6-3.7-1.2-5.5-1.8c-0.2-0.1-0.5-0.4-0.5-0.6
	c-0.4-1.9-0.9-3.8-1.2-5.7c-0.1-0.5-0.3-0.6-0.7-0.7c-1.9-0.2-3.8-0.4-5.7-0.6c-0.4,0-0.6-0.2-0.8-0.6c-0.8-1.8-1.6-3.6-2.4-5.4
	c-0.1-0.3-0.3-0.4-0.6-0.4c-2,0.2-3.9,0.4-5.9,0.6c-0.4,0-0.7-0.1-0.9-0.4c-1.1-1.6-2.3-3.2-3.5-4.8c-0.2-0.3-0.4-0.3-0.7-0.2
	c-1.9,0.6-3.8,1.2-5.7,1.8c-0.3,0.1-0.5,0.1-0.8-0.2c-1.5-1.3-2.9-2.6-4.4-3.9c-0.3-0.3-0.5-0.3-0.9-0.1c-1.7,1-3.4,1.9-5.1,2.9
	c-0.3,0.2-0.6,0.2-0.9,0c-1.7-1-3.4-1.9-5.1-2.9c-0.3-0.2-0.6-0.2-0.9,0.1c-1.5,1.3-2.9,2.6-4.4,3.9c-0.3,0.2-0.5,0.3-0.8,0.2
	c-1.8-0.6-3.7-1.2-5.6-1.8c-0.4-0.1-0.7-0.1-0.9,0.3c-1.1,1.6-2.3,3.1-3.4,4.7c-0.2,0.3-0.4,0.4-0.8,0.4c-2-0.2-3.9-0.4-5.9-0.6
	c-0.4,0-0.6,0.1-0.7,0.4c-0.8,1.8-1.6,3.6-2.4,5.4c-0.1,0.3-0.3,0.5-0.7,0.5c-1.9,0.2-3.9,0.4-5.8,0.6c-0.4,0-0.6,0.2-0.7,0.6
	c-0.4,1.9-0.8,3.8-1.2,5.7c-0.1,0.4-0.2,0.6-0.6,0.7c-1.8,0.6-3.7,1.2-5.5,1.8c-0.4,0.1-0.6,0.3-0.6,0.8c0,1.9,0,3.9,0,5.8
	c0,0.4-0.2,0.7-0.5,0.9c-1.7,0.9-3.3,1.9-5,2.9c-0.3,0.2-0.4,0.4-0.4,0.8c0.4,1.9,0.8,3.8,1.2,5.7c0.1,0.4,0,0.7-0.3,0.9
	c-1.6,1.4-3.1,2.8-4.7,4.3c0.1,0.2,0.2,0.5,0.3,0.7c0.8,1.7,1.5,3.5,2.3,5.2c0.2,0.4,0.1,0.6-0.1,0.9c-1.2,1.6-2.3,3.2-3.5,4.8
	c-0.2,0.3-0.2,0.5,0,0.8c1.2,1.6,2.3,3.2,3.4,4.7c0.3,0.3,0.3,0.6,0.1,1c-0.8,1.7-1.5,3.4-2.3,5.1c-0.1,0.2-0.2,0.5-0.3,0.7
	c1.6,1.5,3.2,2.9,4.7,4.3c0.3,0.3,0.4,0.5,0.3,0.8c-0.4,1.9-0.8,3.8-1.2,5.7c-0.1,0.4,0,0.6,0.4,0.9c1.3,0.7,2.6,1.5,3.9,2.2
	c0.7-0.2,1.6-0.5,2.6-0.8c-4-7.3-6.3-15.8-6.3-24.8C16.6,39,40,15.5,69.3,15.9c28.1,0.4,51.1,23.3,51,51.9c0,8.9-2.3,17.3-6.3,24.6
	c1,0.3,1.8,0.6,2.6,0.8c1.3-0.8,2.6-1.5,3.9-2.3c0.3-0.2,0.4-0.4,0.3-0.8c-0.4-1.9-0.8-3.8-1.2-5.7c-0.1-0.4,0-0.7,0.3-0.9
	c1.6-1.4,3.1-2.8,4.7-4.3c-0.1-0.2-0.1-0.3-0.2-0.5c-0.8-1.8-1.6-3.6-2.4-5.4c-0.1-0.3-0.1-0.5,0.1-0.8
	C123.3,71,124.5,69.4,125.6,67.8z"/>
<path class="st0" d="M26.4,90.2c-3.2-6.3-5-13.5-5-21c0-25.9,21.1-47,47.1-47s47.1,21.1,47.1,47c0,7.9-2,15.3-5.4,21.9
	c0.7,0.2,1.4,0.3,2.2,0.5c3.4-6.7,5.4-14.3,5.4-22.3c0-27.1-22.1-49.1-49.3-49.1s-49.3,22-49.3,49.1c0,7.7,1.8,15,5,21.5
	C24.9,90.5,25.6,90.4,26.4,90.2z"/>
<path class="st0" d="M96.7,112.9c-8.1,5.3-17.7,8.3-28,8.3c-10.6,0-20.5-3.2-28.7-8.7c-0.8,0.1-1.7,0.3-2.4,0.4
	c0.1,0.1,0.1,0.2,0.2,0.3c0.8,1.7,1.6,3.5,2.3,5.2c0.2,0.3,0.3,0.5,0.7,0.4c1.9-0.2,3.9-0.4,5.8-0.6c0.4,0,0.6,0,0.8,0.3
	c1.1,1.6,2.3,3.1,3.4,4.7c0.2,0.3,0.5,0.4,0.8,0.3c1.8-0.6,3.7-1.2,5.6-1.8c0.3-0.1,0.5-0.1,0.8,0.2c1.5,1.3,2.9,2.6,4.4,3.9
	c0.3,0.2,0.5,0.3,0.8,0.1c1.7-1,3.4-1.9,5.1-2.9c0.3-0.2,0.6-0.2,0.9,0c1.7,1,3.3,1.9,5,2.9c0.3,0.2,0.6,0.2,0.9-0.1
	c1.4-1.3,2.9-2.6,4.3-3.9c0.3-0.3,0.5-0.3,0.9-0.2c1.8,0.6,3.7,1.2,5.5,1.8c0.4,0.1,0.6,0,0.9-0.3c1.1-1.6,2.3-3.1,3.4-4.7
	c0.2-0.3,0.4-0.4,0.8-0.4c1.9,0.2,3.9,0.4,5.8,0.6c0.4,0,0.6-0.1,0.7-0.4c0.7-1.7,1.5-3.3,2.2-4.9C98.6,113.2,97.6,113.1,96.7,112.9
	z"/>
</svg>
