<?xml version="1.0" encoding="utf-8"?>
<!-- Generator: Adobe Illustrator 19.1.0, SVG Export Plug-In . SVG Version: 6.00 Build 0)  -->
<svg version="1.1" id="Layer_1" xmlns="http://www.w3.org/2000/svg" xmlns:xlink="http://www.w3.org/1999/xlink" x="0px" y="0px"
	 viewBox="0 0 409.6 409.6" style="enable-background:new 0 0 409.6 409.6;" xml:space="preserve">
<style type="text/css">
	.st0{fill:#BABABA;}
</style>
<path d="M307.2,136.7c-3.4,2.1-13.8,6.1-23.4,7.2c6.2-3.6,15.4-15.4,17.6-24.7c-5.9,4.1-19.6,10.1-26.4,10.1c0,0,0,0,0,0
	c-7.7-8.7-18.5-14.1-30.6-14.1c-23.3,0-42.2,20.4-42.2,45.5c0,3.5,0.4,6.9,1.1,10.1h0c-31.6-0.9-68.6-18-89.5-47.2
	c-12.8,23.9-1.7,50.4,12.8,60.1c-5,0.4-14.1-0.6-18.4-5.1c-0.3,15.8,6.8,36.8,32.6,44.4c-5,2.9-13.8,2.1-17.6,1.4
	c1.3,13.4,18.7,30.9,37.8,30.9c-6.8,8.4-29.9,23.8-58.5,18.9c19.4,12.8,42.1,20.1,66.1,20.1c68.2,0,121.1-59.5,118.3-132.9
	c0-0.1,0-0.2,0-0.3c0-0.2,0-0.4,0-0.6c0-0.2,0-0.4,0-0.7C292.9,155.5,301.2,147.4,307.2,136.7L307.2,136.7z M307.2,136.7"/>
<path class="st0" d="M204.8,0C91.7,0,0,91.7,0,204.8c0,113.1,91.7,204.8,204.8,204.8s204.8-91.7,204.8-204.8
	C409.6,91.7,317.9,0,204.8,0L204.8,0z M204.8,377.6C109.4,377.6,32,300.2,32,204.8C32,109.4,109.4,32,204.8,32
	c95.4,0,172.8,77.4,172.8,172.8C377.6,300.2,300.2,377.6,204.8,377.6L204.8,377.6z M204.8,377.6"/>
</svg>
