<?xml version="1.0" encoding="utf-8"?>
<!-- Generator: Adobe Illustrator 19.1.0, SVG Export Plug-In . SVG Version: 6.00 Build 0)  -->
<svg version="1.1" id="Layer_1" xmlns="http://www.w3.org/2000/svg" xmlns:xlink="http://www.w3.org/1999/xlink" x="0px" y="0px"
	 viewBox="0 0 409.6 409.6" style="enable-background:new 0 0 409.6 409.6;" xml:space="preserve">
<style type="text/css">
	.st0{fill:#BABABA;}
	.st1{fill-rule:evenodd;clip-rule:evenodd;}
</style>
<path class="st0" d="M204.8,0C91.7,0,0,91.7,0,204.8c0,113.1,91.7,204.8,204.8,204.8s204.8-91.7,204.8-204.8
	C409.6,91.7,317.9,0,204.8,0L204.8,0z M204.8,377.6C109.4,377.6,32,300.2,32,204.8C32,109.4,109.4,32,204.8,32
	c95.4,0,172.8,77.4,172.8,172.8C377.6,300.2,300.2,377.6,204.8,377.6L204.8,377.6z M204.8,377.6"/>
<path class="st1" d="M171.9,102.4l-8.1,31.6h-0.8l-8.5-31.6h-13.3l16.8,52.4v22h9.6v-23.5l17.6-51H171.9z M213.9,136.8
	c0-4.5-1.4-8.8-4-11.4c-3-2.9-4.4-4.7-9.3-4.7c-5.3,0-6.8,2-9.9,4.7c-3.2,2.7-4.5,6.5-4.5,11v24.4c0,5,1.6,8.9,4.6,11.9
	c3.1,2.9,4.5,4.4,9.6,4.4c5.3,0,6-1.4,9-4.2c3-2.8,4.5-6.8,4.5-11.8V136.8z M251.2,120.8h-9.3v37.3c-1.1,1.3-6,7.9-6.8,7.9
	c-1.1,0-1.3-0.3-1.8-0.9c-0.5-0.6-0.7-1.6-0.7-3v-41.3h-9.3v45.3c0,3.5,0.3,8.6,2.2,10.5c1.3,1.3,5.3,1.5,9-1.3
	c2.8-2.1,5.1-5.1,7.6-9.6v9.9h9.3V120.8z M307.2,233.5c0-21.1-16.7-38.2-37.4-38.2h-130c-20.7,0-37.4,17.1-37.4,38.2V269
	c0,21.1,16.8,38.2,37.4,38.2h130c20.7,0,37.4-17.1,37.4-38.2V233.5z M255.7,288.5c-4.3,0-7.6-1.3-10.1-4.1c-2.4-2.6-3.7-6.3-3.7-11
	v-22c0-4.2,1.4-12,4-14.6c2.7-2.7,6.1-4,10.4-4c4.4,0,7.7,1.2,10,3.7c2.4,2.5,3.5,10.4,3.5,15v9.3h-18.1V273c0,2.6,0.3,4.4,1,5.4
	c0.6,1,1.7,1.5,3.2,1.5c1.6,0,2.6-0.4,3.2-1.3c0.6-0.9,1-2.7,1-5.6v-2.2h9.8v2.5c0,5-1.1,8.8-3.6,11.3
	C263.9,287.2,260.4,288.5,255.7,288.5L255.7,288.5z M260.1,253v-1.7c0-2.1-0.4-7.9-1-8.7c-0.6-0.9-1.7-1.3-3.2-1.3
	c-1.5,0-2.6,0.4-3.2,1.3c-0.6,0.9-1,6.6-1,8.7v1.7H260.1z M223.8,288.6c-1.9,0-3.6-0.4-5.1-1.2c-1.5-0.7-2.9-1.9-4.2-3.4v3.9h-9.8
	V214h9.3v22.3c1.3-1.5,3.3-2.8,4.7-3.6c1.5-0.8,3-1.2,4.5-1.2c3.1,0,5.5,1.1,7.1,3.3c1.6,2.2,2.4,5.4,2.4,9.5v32.9
	c0,3.6-0.8,6.4-2.3,8.3C228.9,287.6,226.7,288.6,223.8,288.6L223.8,288.6z M223.6,244.9c0-1.7-1.2-3-1.9-3.9
	c-0.8-0.9-1.8-1.3-3.1-1.3c-0.7,0-1.4,0.2-2.1,0.5c-0.6,0.3-1.9,0.8-2.6,1.5v36.4c0.8,0.8,2.1,1.4,2.9,1.8c0.7,0.4,1.5,0.6,2.3,0.6
	c1.2,0,2.1-0.4,2.6-1.1c0.5-0.7,1.7-1.9,1.7-3.5V244.9z M185.7,281.8c-1.8,2-3.7,4.2-5.6,5.2c-1.9,1.1-3.8,1.6-5.7,1.6
	c-2.2,0-3.9-0.7-5.1-2.3c-1.1-1.5-2-3.8-2-6.8v-46.8h9.4v43.3c0,1.2,0.2,2,0.6,2.6c0.4,0.5,1.1,0.8,2,0.8c0.7,0,2.2-0.3,3.3-1.1
	c1.1-0.7,2.7-1.6,3.6-2.7v-42.9h9.2v55.7h-9.8V281.8z M158.2,288.4h-9.4v-65.1h-9.2V214h28v9.3h-9.5V288.4z M200.1,167.1
	c-1.6,0-2.8-0.4-3.6-1.3c-0.9-0.9-1.3-2.1-1.3-3.7v-26c0-1.3,0.5-2.3,1.3-3.1c0.9-0.8,2-1.2,3.5-1.2c1.5,0,2.2,0.4,3.2,1.2
	c0.9,0.8,1.4,1.8,1.4,3.1v26c0,1.6-0.5,2.8-1.4,3.7C202.3,166.6,201.7,167.1,200.1,167.1L200.1,167.1z M200.1,167.1"/>
</svg>
